<?xml version="1.0" encoding="UTF-8" standalone="no"?>
<!-- Created with Inkscape (http://www.inkscape.org/) -->

<svg
   xmlns:dc="http://purl.org/dc/elements/1.1/"
   xmlns:cc="http://creativecommons.org/ns#"
   xmlns:rdf="http://www.w3.org/1999/02/22-rdf-syntax-ns#"
   xmlns:svg="http://www.w3.org/2000/svg"
   xmlns="http://www.w3.org/2000/svg"
   xmlns:sodipodi="http://sodipodi.sourceforge.net/DTD/sodipodi-0.dtd"
   xmlns:inkscape="http://www.inkscape.org/namespaces/inkscape"
   width="210mm"
   height="297mm"
   viewBox="0 0 210 297"
   version="1.1"
   id="svg4443"
   inkscape:version="0.92.3 (2405546, 2018-03-11)"
   sodipodi:docname="TechNicolor-Triangle-24-WiFi-LiPo-ESP-01-Lazer-Sliced-LibreCAD-InkScaped-6MM-Layers-Merged.svg">
  <defs
     id="defs4437" />
  <sodipodi:namedview
     id="base"
     pagecolor="#ffffff"
     bordercolor="#666666"
     borderopacity="1.0"
     inkscape:pageopacity="0.0"
     inkscape:pageshadow="2"
     inkscape:zoom="2.8"
     inkscape:cx="343.46027"
     inkscape:cy="793.67844"
     inkscape:document-units="mm"
     inkscape:current-layer="layer1"
     showgrid="false"
     inkscape:window-width="1680"
     inkscape:window-height="999"
     inkscape:window-x="0"
     inkscape:window-y="25"
     inkscape:window-maximized="1" />
  <metadata
     id="metadata4440">
    <rdf:RDF>
      <cc:Work
         rdf:about="">
        <dc:format>image/svg+xml</dc:format>
        <dc:type
           rdf:resource="http://purl.org/dc/dcmitype/StillImage" />
        <dc:title></dc:title>
      </cc:Work>
    </rdf:RDF>
  </metadata>
  <g
     inkscape:label="Layer 1"
     inkscape:groupmode="layer"
     id="layer1">
    <g
       id="g4969">
      <g
         transform="matrix(0.03500217,-0.06062554,0.06062554,0.03500217,-5.6211012,149.12629)"
         id="use594">
        <path
           d="m 1354.7909,148.77086 h 60.8504 l 306.4299,530.75232 -30.4251,52.69799 h -612.86 l -30.4252,-52.69799 228.0048,-394.9159 16.3658,9.44882 1.7953,-3.10951 50.7341,29.29134 25.7007,-44.51507 -50.734,-29.29134 1.7952,-3.10951 -16.3658,-9.44881 z"
           style="fill:none;stroke:#000000;stroke-linecap:round"
           id="path4526"
           inkscape:connector-curvature="0" />
        <path
           d="m 1365.3357,155.38503 a 3.741732,3.741732 0 1 0 -7.4834,0 3.741732,3.741732 0 1 0 7.4834,0 z"
           style="fill:none;stroke:#000000;stroke-linecap:round"
           id="path4528"
           inkscape:connector-curvature="0" />
        <path
           d="m 1095.995,632.27351 a 6.99215,6.99215 0 1 0 -13.9843,0 6.99215,6.99215 0 1 0 13.9843,0 z"
           style="fill:none;stroke:#000000;stroke-linecap:round"
           id="path4530"
           inkscape:connector-curvature="0" />
        <path
           d="m 1388.9656,726.09833 a 3.74175,3.74175 0 1 0 -7.4835,0 3.74175,3.74175 0 1 0 7.4835,0 z"
           style="fill:none;stroke:#000000;stroke-linecap:round"
           id="path4532"
           inkscape:connector-curvature="0" />
        <path
           d="m 1530.6427,720.88259 a 3.74175,3.74175 0 1 0 -7.4835,0 3.74175,3.74175 0 1 0 7.4835,0 z"
           style="fill:none;stroke:#000000;stroke-linecap:round"
           id="path4534"
           inkscape:connector-curvature="0" />
        <path
           d="m 1247.2729,649.07156 a 3.74175,3.74175 0 1 0 -7.4835,0 3.74175,3.74175 0 1 0 7.4835,0 z"
           style="fill:none;stroke:#000000;stroke-linecap:round"
           id="path4536"
           inkscape:connector-curvature="0" />
        <path
           d="m 1247.2729,720.88259 a 3.74175,3.74175 0 1 0 -7.4835,0 3.74175,3.74175 0 1 0 7.4835,0 z"
           style="fill:none;stroke:#000000;stroke-linecap:round"
           id="path4538"
           inkscape:connector-curvature="0" />
        <path
           d="m 1388.95,643.85581 a 3.74175,3.74175 0 1 0 -7.4835,0 3.74175,3.74175 0 1 0 7.4835,0 z"
           style="fill:none;stroke:#000000;stroke-linecap:round"
           id="path4540"
           inkscape:connector-curvature="0" />
        <path
           d="m 1285.9796,297.11357 a 3.74175,3.74175 0 1 0 -7.4835,0 3.74175,3.74175 0 1 0 7.4835,0 z"
           style="fill:none;stroke:#000000;stroke-linecap:round"
           id="path4542"
           inkscape:connector-curvature="0" />
        <path
           d="m 1061.2322,682.10779 a 3.74175,3.74175 0 1 0 -7.4835,0 3.74175,3.74175 0 1 0 7.4835,0 z"
           style="fill:none;stroke:#000000;stroke-linecap:round"
           id="path4544"
           inkscape:connector-curvature="0" />
        <path
           d="m 1379.5468,270.57003 a 5.6692915,5.6692915 0 0 0 11.3385,0 V 198.759 a 5.6692915,5.6692915 0 0 0 -11.3385,0 z"
           style="fill:none;stroke:#000000;stroke-linecap:round"
           id="path4546"
           inkscape:connector-curvature="0" />
        <path
           d="m 1530.6427,649.07156 a 3.74175,3.74175 0 1 0 -7.4835,0 3.74175,3.74175 0 1 0 7.4835,0 z"
           style="fill:none;stroke:#000000;stroke-linecap:round"
           id="path4548"
           inkscape:connector-curvature="0" />
        <path
           d="m 1147.0186,720.64902 a 6.99215,6.99215 0 1 0 -13.9843,0 6.99215,6.99215 0 1 0 13.9843,0 z"
           style="fill:none;stroke:#000000;stroke-linecap:round"
           id="path4550"
           inkscape:connector-curvature="0" />
        <path
           d="m 1693.0613,723.02238 a 3.7417325,3.7417325 0 1 0 -7.4834,0 3.7417325,3.7417325 0 1 0 7.4834,0 z"
           style="fill:none;stroke:#000000;stroke-linecap:round"
           id="path4552"
           inkscape:connector-curvature="0" />
        <path
           d="m 1633.6209,542.51905 a 3.7417325,3.7417325 0 1 0 -7.4834,0 3.7417325,3.7417325 0 1 0 7.4834,0 z"
           style="fill:none;stroke:#000000;stroke-linecap:round"
           id="path4554"
           inkscape:connector-curvature="0" />
        <path
           d="m 1685.0772,646.81767 -85.1023,-49.13385 -40.252,69.71845 85.1023,49.13386 z"
           style="fill:none;stroke:#000000;stroke-linecap:round"
           id="path4556"
           inkscape:connector-curvature="0" />
        <path
           d="m 1637.3978,720.64902 a 6.99215,6.99215 0 1 0 -13.9843,0 6.99215,6.99215 0 1 0 13.9843,0 z"
           style="fill:none;stroke:#000000;stroke-linecap:round"
           id="path4558"
           inkscape:connector-curvature="0" />
        <path
           d="m 1688.4214,632.27351 a 6.99215,6.99215 0 1 0 -13.9843,0 6.99215,6.99215 0 1 0 13.9843,0 z"
           style="fill:none;stroke:#000000;stroke-linecap:round"
           id="path4560"
           inkscape:connector-curvature="0" />
        <path
           d="m 1567.2915,417.20167 a 3.7417325,3.7417325 0 1 0 -7.4834,0 3.7417325,3.7417325 0 1 0 7.4834,0 z"
           style="fill:none;stroke:#000000;stroke-linecap:round"
           id="path4562"
           inkscape:connector-curvature="0" />
        <path
           d="M 1517.4995,719.9377 V 650.01644 H 1252.9326 V 719.9377 Z"
           style="fill:none;stroke:#000000;stroke-linecap:round"
           id="path4564"
           inkscape:connector-curvature="0" />
        <path
           d="m 1429.7458,333.01908 a 3.741732,3.741732 0 1 0 -7.4834,0 3.741732,3.741732 0 1 0 7.4834,0 z"
           style="fill:none;stroke:#000000;stroke-linecap:round"
           id="path4566"
           inkscape:connector-curvature="0" />
        <path
           d="m 1370.0979,311.23458 -173.3858,300.31306 15.1181,26.18534 h 346.7717 L 1573.72,611.54764 1400.3342,311.23458 Z"
           style="fill:none;stroke:#000000;stroke-linecap:round"
           id="path4568"
           inkscape:connector-curvature="0" />
        <path
           d="m 1348.1697,333.01908 a 3.7417325,3.7417325 0 1 0 -7.4834,0 3.7417325,3.7417325 0 1 0 7.4834,0 z"
           style="fill:none;stroke:#000000;stroke-linecap:round"
           id="path4570"
           inkscape:connector-curvature="0" />
        <path
           d="m 1571.4308,578.42456 a 3.74175,3.74175 0 1 0 -7.4835,0 3.74175,3.74175 0 1 0 7.4835,0 z"
           style="fill:none;stroke:#000000;stroke-linecap:round"
           id="path4572"
           inkscape:connector-curvature="0" />
        <path
           d="m 1206.4848,578.42456 a 3.74175,3.74175 0 1 0 -7.4835,0 3.74175,3.74175 0 1 0 7.4835,0 z"
           style="fill:none;stroke:#000000;stroke-linecap:round"
           id="path4574"
           inkscape:connector-curvature="0" />
        <path
           d="m 1281.8481,458.32293 a 3.7417325,3.7417325 0 1 0 -7.4834,0 3.7417325,3.7417325 0 1 0 7.4834,0 z"
           style="fill:none;stroke:#000000;stroke-linecap:round"
           id="path4576"
           inkscape:connector-curvature="0" />
        <path
           d="m 1563.8066,569.81022 60.5536,-34.96063 -132.2835,-229.12168 -60.5536,34.96063 z"
           style="fill:none;stroke:#000000;stroke-linecap:round"
           id="path4578"
           inkscape:connector-curvature="0" />
        <path
           d="m 1496.0752,458.33646 a 3.7417325,3.7417325 0 1 0 -7.4834,0 3.7417325,3.7417325 0 1 0 7.4834,0 z"
           style="fill:none;stroke:#000000;stroke-linecap:round"
           id="path4580"
           inkscape:connector-curvature="0" />
        <path
           d="m 1210.6162,417.2152 a 3.74175,3.74175 0 1 0 -7.4835,0 3.74175,3.74175 0 1 0 7.4835,0 z"
           style="fill:none;stroke:#000000;stroke-linecap:round"
           id="path4582"
           inkscape:connector-curvature="0" />
        <path
           d="m 1146.0719,534.84959 60.5536,34.96063 132.2835,-229.12168 -60.5536,-34.96063 z"
           style="fill:none;stroke:#000000;stroke-linecap:round"
           id="path4584"
           inkscape:connector-curvature="0" />
        <path
           d="m 1491.936,297.11357 a 3.741732,3.741732 0 1 0 -7.4834,0 3.741732,3.741732 0 1 0 7.4834,0 z"
           style="fill:none;stroke:#000000;stroke-linecap:round"
           id="path4586"
           inkscape:connector-curvature="0" />
        <path
           d="m 1716.6834,682.10779 a 3.74175,3.74175 0 1 0 -7.4835,0 3.74175,3.74175 0 1 0 7.4835,0 z"
           style="fill:none;stroke:#000000;stroke-linecap:round"
           id="path4588"
           inkscape:connector-curvature="0" />
        <path
           d="m 1412.5798,155.38503 a 3.7417325,3.7417325 0 1 0 -7.4834,0 3.7417325,3.7417325 0 1 0 7.4834,0 z"
           style="fill:none;stroke:#000000;stroke-linecap:round"
           id="path4590"
           inkscape:connector-curvature="0" />
        <path
           d="m 1443.2318,207.59267 a 6.99215,6.99215 0 1 0 -13.9843,0 6.99215,6.99215 0 1 0 13.9843,0 z"
           style="fill:none;stroke:#000000;stroke-linecap:round"
           id="path4592"
           inkscape:connector-curvature="0" />
        <path
           d="m 1341.1846,207.59267 a 6.99215,6.99215 0 1 0 -13.9843,0 6.99215,6.99215 0 1 0 13.9843,0 z"
           style="fill:none;stroke:#000000;stroke-linecap:round"
           id="path4594"
           inkscape:connector-curvature="0" />
        <path
           d="m 1144.2946,542.51905 a 3.741732,3.741732 0 1 0 -7.4834,0 3.741732,3.741732 0 1 0 7.4834,0 z"
           style="fill:none;stroke:#000000;stroke-linecap:round"
           id="path4596"
           inkscape:connector-curvature="0" />
        <path
           d="m 1084.8543,723.02238 a 3.74175,3.74175 0 1 0 -7.4835,0 3.74175,3.74175 0 1 0 7.4835,0 z"
           style="fill:none;stroke:#000000;stroke-linecap:round"
           id="path4598"
           inkscape:connector-curvature="0" />
      </g>
      <g
         transform="matrix(0.07000434,0,0,0.07000434,51.625815,19.617085)"
         id="use602">
        <path
           d="m 738.91511,943.03649 132.28346,229.12171 9.00121,-5.1969 19.30346,33.4346 a 41.574803,41.574803 0 0 1 3.36498,7.4277 l -31.25476,54.1348 a 41.574803,41.574803 0 0 1 -8.11505,0.7997 h -38.60692 v -10.3937 H 560.32456 v 10.3937 h -38.60691 a 41.574803,41.574803 0 0 1 -36.00484,-62.3622 l 19.30346,-33.4346 9.00121,5.1969 132.28346,-229.12171 -9.00121,-5.19685 19.30346,-33.43457 a 41.574803,41.574803 0 0 1 72.00967,0 l 19.30346,33.43457 z"
           style="fill:none;stroke:#000000;stroke-linecap:round"
           id="path4602"
           inkscape:connector-curvature="0" />
        <path
           d="m 737.13782,935.36703 a 3.7417325,3.7417325 0 1 0 -7.48346,0 3.7417325,3.7417325 0 1 0 7.48346,0 z"
           style="fill:none;stroke:#000000;stroke-linecap:round"
           id="path4604"
           inkscape:connector-curvature="0" />
        <path
           d="m 677.48992,913.58253 -173.38583,300.31307 15.11811,26.1853 h 346.77165 l 15.11811,-26.1853 -173.38582,-300.31307 z"
           style="fill:none;stroke:#000000;stroke-linecap:round"
           id="path4606"
           inkscape:connector-curvature="0" />
        <path
           d="m 878.82274,1180.7725 a 3.7417325,3.7417325 0 1 0 -7.48346,0 3.7417325,3.7417325 0 1 0 7.48346,0 z"
           style="fill:none;stroke:#000000;stroke-linecap:round"
           id="path4608"
           inkscape:connector-curvature="0" />
        <path
           d="m 589.24011,1060.6709 a 3.741732,3.741732 0 1 0 -7.48346,0 3.741732,3.741732 0 1 0 7.48346,0 z"
           style="fill:none;stroke:#000000;stroke-linecap:round"
           id="path4610"
           inkscape:connector-curvature="0" />
        <path
           d="m 655.56169,935.36703 a 3.7417325,3.7417325 0 1 0 -7.48346,0 3.7417325,3.7417325 0 1 0 7.48346,0 z"
           style="fill:none;stroke:#000000;stroke-linecap:round"
           id="path4612"
           inkscape:connector-curvature="0" />
        <path
           d="m 513.87677,1180.7725 a 3.741732,3.741732 0 1 0 -7.48346,0 3.741732,3.741732 0 1 0 7.48346,0 z"
           style="fill:none;stroke:#000000;stroke-linecap:round"
           id="path4614"
           inkscape:connector-curvature="0" />
        <path
           d="m 803.46722,1060.6844 a 3.741735,3.741735 0 1 0 -7.48347,0 3.741735,3.741735 0 1 0 7.48347,0 z"
           style="fill:none;stroke:#000000;stroke-linecap:round"
           id="path4616"
           inkscape:connector-curvature="0" />
        <path
           d="m 554.66484,1251.4195 a 3.741735,3.741735 0 1 0 -7.48347,0 3.741735,3.741735 0 1 0 7.48347,0 z"
           style="fill:none;stroke:#000000;stroke-linecap:round"
           id="path4618"
           inkscape:connector-curvature="0" />
        <path
           d="m 696.34195,1246.2038 a 3.741735,3.741735 0 1 0 -7.48347,0 3.741735,3.741735 0 1 0 7.48347,0 z"
           style="fill:none;stroke:#000000;stroke-linecap:round"
           id="path4620"
           inkscape:connector-curvature="0" />
        <path
           d="m 838.03468,1251.4195 a 3.741735,3.741735 0 1 0 -7.48347,0 3.741735,3.741735 0 1 0 7.48347,0 z"
           style="fill:none;stroke:#000000;stroke-linecap:round"
           id="path4622"
           inkscape:connector-curvature="0" />
        <path
           d="m 1029.4632,1281.8711 -30.42518,52.698 H 386.17803 l -30.4252,-52.698 306.43,-530.75229 h 60.85039 z"
           style="fill:none;stroke:#000000;stroke-linecap:round"
           id="path4624"
           inkscape:connector-curvature="0" />
        <path
           d="m 944.78975,1322.997 a 6.992126,6.992126 0 1 0 -13.98425,0 6.992126,6.992126 0 1 0 13.98425,0 z"
           style="fill:none;stroke:#000000;stroke-linecap:round"
           id="path4626"
           inkscape:connector-curvature="0" />
        <path
           d="m 696.35757,1328.4463 a 3.7417325,3.7417325 0 1 0 -7.48346,0 3.7417325,3.7417325 0 1 0 7.48346,0 z"
           style="fill:none;stroke:#000000;stroke-linecap:round"
           id="path4628"
           inkscape:connector-curvature="0" />
        <path
           d="m 368.62418,1284.4557 a 3.741732,3.741732 0 1 0 -7.48346,0 3.741732,3.741732 0 1 0 7.48346,0 z"
           style="fill:none;stroke:#000000;stroke-linecap:round"
           id="path4630"
           inkscape:connector-curvature="0" />
        <path
           d="m 672.72771,757.73298 a 3.7417325,3.7417325 0 1 0 -7.48346,0 3.7417325,3.7417325 0 1 0 7.48346,0 z"
           style="fill:none;stroke:#000000;stroke-linecap:round"
           id="path4632"
           inkscape:connector-curvature="0" />
        <path
           d="m 1000.4533,1325.3703 a 3.741735,3.741735 0 1 0 -7.48347,0 3.741735,3.741735 0 1 0 7.48347,0 z"
           style="fill:none;stroke:#000000;stroke-linecap:round"
           id="path4634"
           inkscape:connector-curvature="0" />
        <path
           d="m 403.38693,1234.6215 a 6.992126,6.992126 0 1 0 -13.98425,0 6.992126,6.992126 0 1 0 13.98425,0 z"
           style="fill:none;stroke:#000000;stroke-linecap:round"
           id="path4636"
           inkscape:connector-curvature="0" />
        <path
           d="m 451.6866,1144.867 a 3.7417325,3.7417325 0 1 0 -7.48346,0 3.7417325,3.7417325 0 1 0 7.48346,0 z"
           style="fill:none;stroke:#000000;stroke-linecap:round"
           id="path4638"
           inkscape:connector-curvature="0" />
        <path
           d="m 995.81337,1234.6215 a 6.992126,6.992126 0 1 0 -13.98425,0 6.992126,6.992126 0 1 0 13.98425,0 z"
           style="fill:none;stroke:#000000;stroke-linecap:round"
           id="path4640"
           inkscape:connector-curvature="0" />
        <path
           d="m 554.66484,1323.2305 a 3.741735,3.741735 0 1 0 -7.48347,0 3.741735,3.741735 0 1 0 7.48347,0 z"
           style="fill:none;stroke:#000000;stroke-linecap:round"
           id="path4642"
           inkscape:connector-curvature="0" />
        <path
           d="m 454.41055,1322.997 a 6.992126,6.992126 0 1 0 -13.98425,0 6.992126,6.992126 0 1 0 13.98425,0 z"
           style="fill:none;stroke:#000000;stroke-linecap:round"
           id="path4644"
           inkscape:connector-curvature="0" />
        <path
           d="m 750.62378,809.94062 a 6.99213,6.99213 0 1 0 -13.98426,0 6.99213,6.99213 0 1 0 13.98426,0 z"
           style="fill:none;stroke:#000000;stroke-linecap:round"
           id="path4646"
           inkscape:connector-curvature="0" />
        <path
           d="m 1024.0753,1284.4557 a 3.741732,3.741732 0 1 0 -7.4834,0 3.741732,3.741732 0 1 0 7.4834,0 z"
           style="fill:none;stroke:#000000;stroke-linecap:round"
           id="path4648"
           inkscape:connector-curvature="0" />
        <path
           d="m 838.03468,1323.2305 a 3.741735,3.741735 0 1 0 -7.48347,0 3.741735,3.741735 0 1 0 7.48347,0 z"
           style="fill:none;stroke:#000000;stroke-linecap:round"
           id="path4650"
           inkscape:connector-curvature="0" />
        <path
           d="m 719.97181,757.73298 a 3.741735,3.741735 0 1 0 -7.48347,0 3.741735,3.741735 0 1 0 7.48347,0 z"
           style="fill:none;stroke:#000000;stroke-linecap:round"
           id="path4652"
           inkscape:connector-curvature="0" />
        <path
           d="m 518.00819,1019.5632 a 3.741735,3.741735 0 1 0 -7.48347,0 3.741735,3.741735 0 1 0 7.48347,0 z"
           style="fill:none;stroke:#000000;stroke-linecap:round"
           id="path4654"
           inkscape:connector-curvature="0" />
        <path
           d="m 453.46389,1137.1975 9.00121,5.1969 -55.30829,95.7968 a 49.133858,49.133858 0 0 0 42.55117,73.7008 h 110.61658 v 10.3937 h 264.56693 v -10.3937 h 110.61659 a 49.133858,49.133858 0 0 0 4.27558,-0.1864 l 12.43354,7.1785 7.82724,-13.5572 a 49.133858,49.133858 0 0 0 24.59748,-42.6041 l 7.82724,-13.5572 -12.43354,-7.1785 a 49.133858,49.133858 0 0 0 -1.97637,-3.7959 l -55.3083,-95.7968 9.00121,-5.1969 -132.28346,-229.12164 -9.00121,5.19685 -55.30829,-95.79677 a 49.133858,49.133858 0 0 0 -85.10234,0 l -55.3083,95.79677 -9.0012,-5.19685 z"
           style="fill:none;stroke:#000000;stroke-linecap:round"
           id="path4656"
           inkscape:connector-curvature="0" />
        <path
           d="m 593.37152,899.46152 a 3.741732,3.741732 0 1 0 -7.48346,0 3.741732,3.741732 0 1 0 7.48346,0 z"
           style="fill:none;stroke:#000000;stroke-linecap:round"
           id="path4658"
           inkscape:connector-curvature="0" />
        <path
           d="m 648.57653,809.94062 a 6.992126,6.992126 0 1 0 -13.98425,0 6.992126,6.992126 0 1 0 13.98425,0 z"
           style="fill:none;stroke:#000000;stroke-linecap:round"
           id="path4660"
           inkscape:connector-curvature="0" />
        <path
           d="m 799.32799,899.46152 a 3.7417325,3.7417325 0 1 0 -7.48346,0 3.7417325,3.7417325 0 1 0 7.48346,0 z"
           style="fill:none;stroke:#000000;stroke-linecap:round"
           id="path4662"
           inkscape:connector-curvature="0" />
        <path
           d="m 874.68352,1019.5496 a 3.741735,3.741735 0 1 0 -7.48347,0 3.741735,3.741735 0 1 0 7.48347,0 z"
           style="fill:none;stroke:#000000;stroke-linecap:round"
           id="path4664"
           inkscape:connector-curvature="0" />
        <path
           d="m 941.01291,1144.867 a 3.741732,3.741732 0 1 0 -7.48346,0 3.741732,3.741732 0 1 0 7.48346,0 z"
           style="fill:none;stroke:#000000;stroke-linecap:round"
           id="path4666"
           inkscape:connector-curvature="0" />
        <path
           d="m 392.24623,1325.3703 a 3.741735,3.741735 0 1 0 -7.48347,0 3.741735,3.741735 0 1 0 7.48347,0 z"
           style="fill:none;stroke:#000000;stroke-linecap:round"
           id="path4668"
           inkscape:connector-curvature="0" />
      </g>
    </g>
  </g>
</svg>
