  0
SECTION
  2
HEADER
  9
$ACADVER
  1
AC1009
  9
$INSBASE
 10
0.0
 20
0.0
 30
0.0
  9
$EXTMIN
 10
0.0
 20
0.0
 30
0.0
  9
$EXTMAX
 10
0.0
 20
0.0
 30
0.0
  0
ENDSEC
  0
SECTION
  2
TABLES
  0
TABLE
  2
VPORT
 70
0
  0
ENDTAB
  0
TABLE
  2
LTYPE
 70
1
  0
LTYPE
  2
CONTINUOUS
 70
0
  3
Solid line
 72
65
 73
0
 40
0.0
  0
ENDTAB
  0
TABLE
  2
LAYER
 70
1
  0
LAYER
  2
0
 70
64
 62
7
  6
continuous
  0
ENDTAB
  0
TABLE
  2
STYLE
 70
1
  0
STYLE
  2
STANDARD
 70
0
 40
0
 41
1.0
 50
0.0
 71
0
 42
1
 3
ARIAL.TTF
 4

  0
ENDTAB
  0
TABLE
  2
VIEW
 70
0
  0
ENDTAB
  0
ENDSEC
  0
SECTION
  2
BLOCKS
  0
BLOCK
  8
Body_Slices
  2
MYLAYER
 70
0
 10
0.0
 20
0.0
 30
0.0
  3
MYLAYER
  0
POLYLINE
  8
Body_Slices
 62
0
 70
1
 66
1
 10
0.0
 20
0.0
 30
0.0
  0
VERTEX
  8
Body_Slices
 10
89.1262701892
 20
-42.1617367517
 30
0.0
  0
VERTEX
  8
Body_Slices
 10
81.0762701892
 20
-56.1047457526
 30
0.0
  0
VERTEX
  8
Body_Slices
 10
-81.0762701892
 20
-56.1047457526
 30
0.0
  0
VERTEX
  8
Body_Slices
 10
-89.1262701892
 20
-42.1617367517
 30
0.0
  0
VERTEX
  8
Body_Slices
 10
-8.05
 20
98.2664825043
 30
0.0
  0
VERTEX
  8
Body_Slices
 10
8.05
 20
98.2664825043
 30
2.22044604925e-16
  0
SEQEND
  8
Body_Slices
  0
CIRCLE
  8
Body_Slices
 62
0
 10
78.3730815495
 20
-29.6602624617
 30
0.0
 40
1.85
  0
CIRCLE
  8
Body_Slices
 62
0
 10
-86.7107257326
 20
-42.8455824785
 30
0.0
 40
0.99
  0
CIRCLE
  8
Body_Slices
 62
0
 10
86.7107257326
 20
-42.8455824785
 30
0.0
 40
0.99
  0
CIRCLE
  8
Body_Slices
 62
0
 10
64.8730815495
 20
-53.0429483639
 30
0.0
 40
1.85
  0
CIRCLE
  8
Body_Slices
 62
0
 10
-78.3730815495
 20
-29.6602624617
 30
0.0
 40
1.85
  0
CIRCLE
  8
Body_Slices
 62
0
 10
-80.4607257326
 20
-53.6709000258
 30
0.0
 40
0.99
  0
CIRCLE
  8
Body_Slices
 62
0
 10
-37.4874685928
 20
-53.1047457526
 30
0.0
 40
0.99
  0
CIRCLE
  8
Body_Slices
 62
0
 10
-27.2463245869
 20
59.0174730012
 30
0.0
 40
0.99
  0
CIRCLE
  8
Body_Slices
 62
0
 10
47.1841403996
 20
27.2441630217
 30
0.0
 40
0.99
  0
CIRCLE
  8
Body_Slices
 62
0
 10
-6.25
 20
96.5164825043
 30
0.0
 40
0.99
  0
CIRCLE
  8
Body_Slices
 62
0
 10
-47.1862074814
 20
27.2405827309
 30
0.0
 40
0.99
  0
CIRCLE
  8
Body_Slices
 62
0
 10
80.4607257326
 20
-53.6709000258
 30
0.0
 40
0.99
  0
CIRCLE
  8
Body_Slices
 62
0
 10
13.5
 20
82.7032108255
 30
0.0
 40
1.85
  0
CIRCLE
  8
Body_Slices
 62
0
 10
-13.5
 20
82.7032108255
 30
0.0
 40
1.85
  0
POLYLINE
  8
Body_Slices
 62
0
 70
1
 66
1
 10
0.0
 20
0.0
 30
0.0
  0
VERTEX
  8
Body_Slices
 10
-25.8919826719
 20
55.3632620088
 30
0.0
  0
VERTEX
  8
Body_Slices
 10
-28.2735525323
 20
56.7382620088
 30
0.0
  0
VERTEX
  8
Body_Slices
 10
-63.2735525323
 20
-3.88351625616
 30
0.0
  0
VERTEX
  8
Body_Slices
 10
-60.8919826719
 20
-5.25851625616
 30
0.0
  0
VERTEX
  8
Body_Slices
 10
-75.5256350946
 20
-30.6047457526
 30
0.0
 42
0.57735026919
  0
VERTEX
  8
Body_Slices
 10
-64.2673048454
 20
-50.1047457526
 30
0.0
  0
VERTEX
  8
Body_Slices
 10
-35.0
 20
-50.1047457526
 30
0.0
  0
VERTEX
  8
Body_Slices
 10
-35.0
 20
-52.8547457526
 30
0.0
  0
VERTEX
  8
Body_Slices
 10
35.0
 20
-52.8547457526
 30
0.0
  0
VERTEX
  8
Body_Slices
 10
35.0
 20
-50.1047457526
 30
0.0
  0
VERTEX
  8
Body_Slices
 10
64.2673048454
 20
-50.1047457526
 30
0.0
 42
0.0217857447586
  0
VERTEX
  8
Body_Slices
 10
65.3985518202
 20
-50.0554322318
 30
0.0
  0
VERTEX
  8
Body_Slices
 10
68.6882593378
 20
-51.9547457526
 30
0.0
  0
VERTEX
  8
Body_Slices
 10
70.7592171832
 20
-48.3677415441
 30
0.0
 42
0.26833412378
  0
VERTEX
  8
Body_Slices
 10
77.2673014924
 20
-37.0954088605
 30
0.0
  0
VERTEX
  8
Body_Slices
 10
79.3382593378
 20
-33.508404652
 30
0.0
  0
VERTEX
  8
Body_Slices
 10
76.0485518202
 20
-31.6090911312
 30
0.0
 42
0.0217857447586
  0
VERTEX
  8
Body_Slices
 10
75.5256350946
 20
-30.6047457526
 30
0.0
  0
VERTEX
  8
Body_Slices
 10
60.8919826719
 20
-5.25851625616
 30
0.0
  0
VERTEX
  8
Body_Slices
 10
63.2735525323
 20
-3.88351625616
 30
0.0
  0
VERTEX
  8
Body_Slices
 10
28.2735525323
 20
56.7382620088
 30
0.0
  0
VERTEX
  8
Body_Slices
 10
25.8919826719
 20
55.3632620088
 30
0.0
  0
VERTEX
  8
Body_Slices
 10
11.2583302492
 20
80.7094915052
 30
0.0
 42
0.57735026919
  0
VERTEX
  8
Body_Slices
 10
-11.2583302492
 20
80.7094915052
 30
0.0
  0
SEQEND
  8
Body_Slices
  0
CIRCLE
  8
Body_Slices
 62
0
 10
-64.8730815495
 20
-53.0429483639
 30
0.0
 40
1.85
  0
CIRCLE
  8
Body_Slices
 62
0
 10
37.4874685928
 20
-53.1047457526
 30
0.0
 40
0.99
  0
CIRCLE
  8
Body_Slices
 62
0
 10
-64.7337931796
 20
-5.91272724861
 30
0.0
 40
0.99
  0
CIRCLE
  8
Body_Slices
 62
0
 10
27.2463245869
 20
59.0174730012
 30
0.0
 40
0.99
  0
CIRCLE
  8
Body_Slices
 62
0
 10
64.7337931796
 20
-5.91272724861
 30
0.0
 40
0.99
  0
CIRCLE
  8
Body_Slices
 62
0
 10
6.25
 20
96.5164825043
 30
0.0
 40
0.99
  0
CIRCLE
  8
Body_Slices
 62
0
 10
0.0020670818166
 20
-54.4847457526
 30
0.0
 40
0.99
  0
POLYLINE
  8
Body_Slices
 62
0
 70
1
 66
1
 10
0.0
 20
0.0
 30
0.0
  0
VERTEX
  8
Body_Slices
 10
9.52627944163
 20
57.7094915052
 30
0.0
  0
VERTEX
  8
Body_Slices
 10
14.6336524227
 20
48.8632620088
 30
0.0
  0
VERTEX
  8
Body_Slices
 10
12.2520825623
 20
47.4882620088
 30
0.0
  0
VERTEX
  8
Body_Slices
 10
47.2520825623
 20
-13.1335162562
 30
0.0
  0
VERTEX
  8
Body_Slices
 10
49.6336524227
 20
-11.7585162562
 30
0.0
  0
VERTEX
  8
Body_Slices
 10
54.7410254038
 20
-20.6047457526
 30
0.0
 42
-0.0491527570221
  0
VERTEX
  8
Body_Slices
 10
55.6313428633
 20
-22.5699884767
 30
0.0
  0
VERTEX
  8
Body_Slices
 10
47.3618548156
 20
-36.8931619279
 30
0.0
 42
-0.0491527570221
  0
VERTEX
  8
Body_Slices
 10
45.2147459622
 20
-37.1047457526
 30
0.0
  0
VERTEX
  8
Body_Slices
 10
35.0
 20
-37.1047457526
 30
0.0
  0
VERTEX
  8
Body_Slices
 10
35.0
 20
-34.3547457526
 30
0.0
  0
VERTEX
  8
Body_Slices
 10
-35.0
 20
-34.3547457526
 30
0.0
  0
VERTEX
  8
Body_Slices
 10
-35.0
 20
-37.1047457526
 30
0.0
  0
VERTEX
  8
Body_Slices
 10
-45.2147459622
 20
-37.1047457526
 30
0.0
 42
-0.57735026919
  0
VERTEX
  8
Body_Slices
 10
-54.7410254038
 20
-20.6047457526
 30
0.0
  0
VERTEX
  8
Body_Slices
 10
-49.6336524227
 20
-11.7585162562
 30
0.0
  0
VERTEX
  8
Body_Slices
 10
-47.2520825623
 20
-13.1335162562
 30
0.0
  0
VERTEX
  8
Body_Slices
 10
-12.2520825623
 20
47.4882620088
 30
0.0
  0
VERTEX
  8
Body_Slices
 10
-14.6336524227
 20
48.8632620088
 30
0.0
  0
VERTEX
  8
Body_Slices
 10
-9.52627944163
 20
57.7094915052
 30
0.0
 42
-0.57735026919
  0
SEQEND
  8
Body_Slices
  0
CIRCLE
  8
Body_Slices
 62
0
 10
10.7918419149
 20
49.5174730013
 30
0.0
 40
0.99
  0
CIRCLE
  8
Body_Slices
 62
0
 10
-10.791841915
 20
49.5174730012
 30
0.0
 40
0.99
  0
CIRCLE
  8
Body_Slices
 62
0
 10
-0.00206708181733
 20
-32.7247457526
 30
0.0
 40
0.99
  0
CIRCLE
  8
Body_Slices
 62
0
 10
28.341494695
 20
16.3605827309
 30
0.0
 40
0.99
  0
CIRCLE
  8
Body_Slices
 62
0
 10
-37.4874685928
 20
-34.1047457526
 30
0.0
 40
0.99
  0
CIRCLE
  8
Body_Slices
 62
0
 10
-28.3394276132
 20
16.3641630217
 30
0.0
 40
0.99
  0
CIRCLE
  8
Body_Slices
 62
0
 10
37.4874685929
 20
-34.1047457526
 30
0.0
 40
0.99
  0
CIRCLE
  8
Body_Slices
 62
0
 10
-48.2793105078
 20
-15.4127272487
 30
0.0
 40
0.99
  0
CIRCLE
  8
Body_Slices
 62
0
 10
48.2793105078
 20
-15.4127272486
 30
0.0
 40
0.99
  0
POLYLINE
  8
Body_Slices
 62
0
 70
1
 66
1
 10
0.0
 20
0.0
 30
0.0
  0
VERTEX
  8
Body_Slices
 10
-4.0
 20
55.2812882749
 30
0.0
  0
VERTEX
  8
Body_Slices
 10
-49.875
 20
-24.1765425223
 30
0.0
  0
VERTEX
  8
Body_Slices
 10
-45.875
 20
-31.1047457526
 30
0.0
  0
VERTEX
  8
Body_Slices
 10
45.875
 20
-31.1047457526
 30
0.0
  0
VERTEX
  8
Body_Slices
 10
49.875
 20
-24.1765425223
 30
0.0
  0
VERTEX
  8
Body_Slices
 10
4.0
 20
55.2812882749
 30
0.0
  0
SEQEND
  8
Body_Slices
  0
ENDBLK
  0
BLOCK
  8
Body_Slices
  2
MYLAYER005
 70
0
 10
0.0
 20
0.0
 30
0.0
  3
MYLAYER005
  0
POLYLINE
  8
Body_Slices
 62
0
 70
1
 66
1
 10
0.0
 20
0.0
 30
0.0
  0
VERTEX
  8
Body_Slices
 10
455.631350946
 20
117.209491505
 30
0.0
  0
VERTEX
  8
Body_Slices
 10
447.581350946
 20
103.266482504
 30
0.0
  0
VERTEX
  8
Body_Slices
 10
285.428810568
 20
103.266482504
 30
0.0
  0
VERTEX
  8
Body_Slices
 10
277.378810568
 20
117.209491505
 30
0.0
  0
VERTEX
  8
Body_Slices
 10
337.705080757
 20
221.697656504
 30
0.0
  0
VERTEX
  8
Body_Slices
 10
342.035207776
 20
219.197656504
 30
0.0
  0
VERTEX
  8
Body_Slices
 10
342.510207776
 20
220.020380638
 30
0.0
  0
VERTEX
  8
Body_Slices
 10
355.933601534
 20
212.270380638
 30
0.0
  0
VERTEX
  8
Body_Slices
 10
362.733601534
 20
224.048326129
 30
0.0
  0
VERTEX
  8
Body_Slices
 10
349.310207776
 20
231.798326129
 30
0.0
  0
VERTEX
  8
Body_Slices
 10
349.785207776
 20
232.621050263
 30
0.0
  0
VERTEX
  8
Body_Slices
 10
345.455080757
 20
235.121050263
 30
0.0
  0
VERTEX
  8
Body_Slices
 10
358.455080757
 20
257.637710761
 30
0.0
  0
VERTEX
  8
Body_Slices
 10
374.555080757
 20
257.637710761
 30
0.0
  0
SEQEND
  8
Body_Slices
  0
CIRCLE
  8
Body_Slices
 62
0
 10
318.225770249
 20
143.958501008
 30
0.0
 40
0.99
  0
CIRCLE
  8
Body_Slices
 62
0
 10
380.005080757
 20
242.074439082
 30
0.0
 40
1.85
  0
CIRCLE
  8
Body_Slices
 62
0
 10
286.044355024
 20
105.700328231
 30
0.0
 40
0.99
  0
CIRCLE
  8
Body_Slices
 62
0
 10
360.255080757
 20
255.887710761
 30
0.0
 40
0.99
  0
CIRCLE
  8
Body_Slices
 62
0
 10
453.215806489
 20
116.525645778
 30
0.0
 40
0.99
  0
CIRCLE
  8
Body_Slices
 62
0
 10
301.631999207
 20
106.328279893
 30
0.0
 40
1.85
  0
CIRCLE
  8
Body_Slices
 62
0
 10
279.794355024
 20
116.525645778
 30
0.0
 40
0.99
  0
POLYLINE
  8
Body_Slices
 62
0
 70
1
 66
1
 10
0.0
 20
0.0
 30
0.0
  0
VERTEX
  8
Body_Slices
 10
362.505080757
 20
214.652516532
 30
0.0
  0
VERTEX
  8
Body_Slices
 10
316.630080757
 20
135.194685735
 30
0.0
  0
VERTEX
  8
Body_Slices
 10
320.630080757
 20
128.266482504
 30
0.0
  0
VERTEX
  8
Body_Slices
 10
412.380080757
 20
128.266482504
 30
0.0
  0
VERTEX
  8
Body_Slices
 10
416.380080757
 20
135.194685735
 30
0.0
  0
VERTEX
  8
Body_Slices
 10
370.505080757
 20
214.652516532
 30
0.0
  0
SEQEND
  8
Body_Slices
  0
CIRCLE
  8
Body_Slices
 62
0
 10
377.296922672
 20
208.888701258
 30
0.0
 40
0.99
  0
CIRCLE
  8
Body_Slices
 62
0
 10
338.165653144
 20
175.735391279
 30
0.0
 40
0.99
  0
POLYLINE
  8
Body_Slices
 62
0
 70
1
 66
1
 10
0.0
 20
0.0
 30
0.0
  0
VERTEX
  8
Body_Slices
 10
303.231528225
 20
155.487712001
 30
0.0
  0
VERTEX
  8
Body_Slices
 10
319.252998195
 20
146.237712001
 30
0.0
  0
VERTEX
  8
Body_Slices
 10
354.252998195
 20
206.859490266
 30
0.0
  0
VERTEX
  8
Body_Slices
 10
338.231528225
 20
216.109490266
 30
0.0
  0
SEQEND
  8
Body_Slices
  0
CIRCLE
  8
Body_Slices
 62
0
 10
319.318873275
 20
186.611810988
 30
0.0
 40
0.99
  0
CIRCLE
  8
Body_Slices
 62
0
 10
394.846575452
 20
175.731810988
 30
0.0
 40
0.99
  0
CIRCLE
  8
Body_Slices
 62
0
 10
414.784391265
 20
143.958501008
 30
0.0
 40
0.99
  0
POLYLINE
  8
Body_Slices
 62
0
 70
1
 66
1
 10
0.0
 20
0.0
 30
0.0
  0
VERTEX
  8
Body_Slices
 10
445.843340095
 20
125.862823605
 30
0.0
  0
VERTEX
  8
Body_Slices
 10
429.821870125
 20
135.112823605
 30
0.0
  0
VERTEX
  8
Body_Slices
 10
432.821870125
 20
140.308976028
 30
0.0
  0
VERTEX
  8
Body_Slices
 10
428.058730404
 20
143.058976028
 30
0.0
  0
VERTEX
  8
Body_Slices
 10
425.058730404
 20
137.862823605
 30
0.0
  0
VERTEX
  8
Body_Slices
 10
423.326679596
 20
138.862823605
 30
0.0
  0
VERTEX
  8
Body_Slices
 10
412.676679596
 20
120.416482504
 30
0.0
  0
VERTEX
  8
Body_Slices
 10
435.193340095
 20
107.416482504
 30
0.0
  0
SEQEND
  8
Body_Slices
  0
CIRCLE
  8
Body_Slices
 62
0
 10
431.378162306
 20
106.328279893
 30
0.0
 40
1.85
  0
CIRCLE
  8
Body_Slices
 62
0
 10
444.878162306
 20
129.710965795
 30
0.0
 40
1.85
  0
CIRCLE
  8
Body_Slices
 62
0
 10
446.965806489
 20
105.700328231
 30
0.0
 40
0.99
  0
CIRCLE
  8
Body_Slices
 62
0
 10
329.017612164
 20
125.266482504
 30
0.0
 40
0.99
  0
CIRCLE
  8
Body_Slices
 62
0
 10
431.238873937
 20
153.458501008
 30
0.0
 40
0.99
  0
CIRCLE
  8
Body_Slices
 62
0
 10
355.713238842
 20
208.888701258
 30
0.0
 40
0.99
  0
CIRCLE
  8
Body_Slices
 62
0
 10
413.689221156
 20
186.615391279
 30
0.0
 40
0.99
  0
POLYLINE
  8
Body_Slices
 62
0
 70
1
 66
1
 10
0.0
 20
0.0
 30
0.0
  0
VERTEX
  8
Body_Slices
 10
413.757163319
 20
146.237712001
 30
0.0
  0
VERTEX
  8
Body_Slices
 10
429.778633289
 20
155.487712001
 30
0.0
  0
VERTEX
  8
Body_Slices
 10
394.778633289
 20
216.109490266
 30
0.0
  0
VERTEX
  8
Body_Slices
 10
378.757163319
 20
206.859490266
 30
0.0
  0
SEQEND
  8
Body_Slices
  0
CIRCLE
  8
Body_Slices
 62
0
 10
393.751405344
 20
218.388701258
 30
0.0
 40
0.99
  0
CIRCLE
  8
Body_Slices
 62
0
 10
339.25875617
 20
218.388701258
 30
0.0
 40
0.99
  0
CIRCLE
  8
Body_Slices
 62
0
 10
353.005080757
 20
242.074439082
 30
0.0
 40
1.85
  0
POLYLINE
  8
Body_Slices
 62
0
 70
1
 66
1
 10
0.0
 20
0.0
 30
0.0
  0
VERTEX
  8
Body_Slices
 10
365.005080757
 20
244.411680399
 30
0.0
  0
VERTEX
  8
Body_Slices
 10
365.005080757
 20
225.411680399
 30
0.0
 42
1.0
  0
VERTEX
  8
Body_Slices
 10
368.005080757
 20
225.411680399
 30
0.0
  0
VERTEX
  8
Body_Slices
 10
368.005080757
 20
244.411680399
 30
0.0
 42
1.0
  0
SEQEND
  8
Body_Slices
  0
CIRCLE
  8
Body_Slices
 62
0
 10
372.755080757
 20
255.887710761
 30
0.0
 40
0.99
  0
CIRCLE
  8
Body_Slices
 62
0
 10
403.99254935
 20
125.266482504
 30
0.0
 40
0.99
  0
CIRCLE
  8
Body_Slices
 62
0
 10
366.503013675
 20
126.646482504
 30
0.0
 40
0.99
  0
CIRCLE
  8
Body_Slices
 62
0
 10
329.017612164
 20
106.266482504
 30
0.0
 40
0.99
  0
CIRCLE
  8
Body_Slices
 62
0
 10
403.99254935
 20
106.266482504
 30
0.0
 40
0.99
  0
CIRCLE
  8
Body_Slices
 62
0
 10
366.507147839
 20
104.886482504
 30
0.0
 40
0.99
  0
POLYLINE
  8
Body_Slices
 62
0
 70
1
 66
1
 10
0.0
 20
0.0
 30
0.0
  0
VERTEX
  8
Body_Slices
 10
401.505080757
 20
106.516482504
 30
0.0
  0
VERTEX
  8
Body_Slices
 10
401.505080757
 20
125.016482504
 30
0.0
  0
VERTEX
  8
Body_Slices
 10
331.505080757
 20
125.016482504
 30
0.0
  0
VERTEX
  8
Body_Slices
 10
331.505080757
 20
106.516482504
 30
0.0
  0
SEQEND
  8
Body_Slices
  0
CIRCLE
  8
Body_Slices
 62
0
 10
288.131999207
 20
129.710965795
 30
0.0
 40
1.85
  0
CIRCLE
  8
Body_Slices
 62
0
 10
301.771287577
 20
153.458501008
 30
0.0
 40
0.99
  0
ENDBLK
  0
BLOCK
  8
Body_Slices
  2
MYLAYER004
 70
0
 10
0.0
 20
0.0
 30
0.0
  3
MYLAYER004
  0
POLYLINE
  8
Body_Slices
 62
0
 70
1
 66
1
 10
0.0
 20
0.0
 30
0.0
  0
VERTEX
  8
Body_Slices
 10
272.378810568
 20
117.209491505
 30
0.0
  0
VERTEX
  8
Body_Slices
 10
264.328810568
 20
103.266482504
 30
0.0
  0
VERTEX
  8
Body_Slices
 10
102.176270189
 20
103.266482504
 30
0.0
  0
VERTEX
  8
Body_Slices
 10
94.1262701892
 20
117.209491505
 30
0.0
  0
VERTEX
  8
Body_Slices
 10
154.452540378
 20
221.697656504
 30
0.0
  0
VERTEX
  8
Body_Slices
 10
158.782667397
 20
219.197656504
 30
0.0
  0
VERTEX
  8
Body_Slices
 10
159.257667397
 20
220.020380638
 30
0.0
  0
VERTEX
  8
Body_Slices
 10
172.681061156
 20
212.270380638
 30
0.0
  0
VERTEX
  8
Body_Slices
 10
179.481061156
 20
224.048326129
 30
0.0
  0
VERTEX
  8
Body_Slices
 10
166.057667397
 20
231.798326129
 30
0.0
  0
VERTEX
  8
Body_Slices
 10
166.532667397
 20
232.621050263
 30
0.0
  0
VERTEX
  8
Body_Slices
 10
162.202540378
 20
235.121050263
 30
0.0
  0
VERTEX
  8
Body_Slices
 10
175.202540378
 20
257.637710761
 30
0.0
  0
VERTEX
  8
Body_Slices
 10
191.302540378
 20
257.637710761
 30
1.7763568394e-15
  0
SEQEND
  8
Body_Slices
  0
CIRCLE
  8
Body_Slices
 62
0
 10
220.740008971
 20
125.266482504
 30
0.0
 40
0.99
  0
CIRCLE
  8
Body_Slices
 62
0
 10
177.002540378
 20
255.887710761
 30
0.0
 40
0.99
  0
CIRCLE
  8
Body_Slices
 62
0
 10
102.791814646
 20
105.700328231
 30
0.0
 40
0.99
  0
CIRCLE
  8
Body_Slices
 62
0
 10
189.502540378
 20
255.887710761
 30
0.0
 40
0.99
  0
CIRCLE
  8
Body_Slices
 62
0
 10
172.460698463
 20
208.888701258
 30
0.0
 40
0.99
  0
CIRCLE
  8
Body_Slices
 62
0
 10
210.498864965
 20
218.388701258
 30
0.0
 40
0.99
  0
CIRCLE
  8
Body_Slices
 62
0
 10
196.752540378
 20
242.074439082
 30
0.0
 40
1.85
  0
CIRCLE
  8
Body_Slices
 62
0
 10
194.044382293
 20
208.888701258
 30
0.0
 40
0.99
  0
CIRCLE
  8
Body_Slices
 62
0
 10
269.963266111
 20
116.525645778
 30
0.0
 40
0.99
  0
CIRCLE
  8
Body_Slices
 62
0
 10
231.531850886
 20
143.958501008
 30
0.0
 40
0.99
  0
CIRCLE
  8
Body_Slices
 62
0
 10
183.250473297
 20
126.646482504
 30
0.0
 40
0.99
  0
POLYLINE
  8
Body_Slices
 62
0
 70
1
 66
1
 10
0.0
 20
0.0
 30
0.0
  0
VERTEX
  8
Body_Slices
 10
218.252540378
 20
106.516482504
 30
0.0
  0
VERTEX
  8
Body_Slices
 10
218.252540378
 20
125.016482504
 30
0.0
  0
VERTEX
  8
Body_Slices
 10
148.252540378
 20
125.016482504
 30
0.0
  0
VERTEX
  8
Body_Slices
 10
148.252540378
 20
106.516482504
 30
0.0
  0
SEQEND
  8
Body_Slices
  0
CIRCLE
  8
Body_Slices
 62
0
 10
247.986333558
 20
153.458501008
 30
0.0
 40
0.99
  0
POLYLINE
  8
Body_Slices
 62
0
 70
1
 66
1
 10
0.0
 20
0.0
 30
0.0
  0
VERTEX
  8
Body_Slices
 10
230.504622941
 20
146.237712001
 30
0.0
  0
VERTEX
  8
Body_Slices
 10
246.526092911
 20
155.487712001
 30
0.0
  0
VERTEX
  8
Body_Slices
 10
211.526092911
 20
216.109490266
 30
0.0
  0
VERTEX
  8
Body_Slices
 10
195.504622941
 20
206.859490266
 30
0.0
  0
SEQEND
  8
Body_Slices
  0
CIRCLE
  8
Body_Slices
 62
0
 10
211.594035073
 20
175.731810988
 30
0.0
 40
0.99
  0
CIRCLE
  8
Body_Slices
 62
0
 10
220.740008971
 20
106.266482504
 30
0.0
 40
0.99
  0
CIRCLE
  8
Body_Slices
 62
0
 10
248.125621928
 20
106.328279893
 30
0.0
 40
1.85
  0
POLYLINE
  8
Body_Slices
 62
0
 70
1
 66
1
 10
0.0
 20
0.0
 30
0.0
  0
VERTEX
  8
Body_Slices
 10
262.590799716
 20
125.862823605
 30
0.0
  0
VERTEX
  8
Body_Slices
 10
246.569329746
 20
135.112823605
 30
0.0
  0
VERTEX
  8
Body_Slices
 10
249.569329746
 20
140.308976028
 30
0.0
  0
VERTEX
  8
Body_Slices
 10
244.806190025
 20
143.058976028
 30
0.0
  0
VERTEX
  8
Body_Slices
 10
241.806190025
 20
137.862823605
 30
0.0
  0
VERTEX
  8
Body_Slices
 10
240.074139218
 20
138.862823605
 30
0.0
  0
VERTEX
  8
Body_Slices
 10
229.424139218
 20
120.416482504
 30
0.0
  0
VERTEX
  8
Body_Slices
 10
251.940799716
 20
107.416482504
 30
0.0
  0
SEQEND
  8
Body_Slices
  0
CIRCLE
  8
Body_Slices
 62
0
 10
261.625621928
 20
129.710965795
 30
0.0
 40
1.85
  0
CIRCLE
  8
Body_Slices
 62
0
 10
183.25460746
 20
104.886482504
 30
0.0
 40
0.99
  0
CIRCLE
  8
Body_Slices
 62
0
 10
156.006215792
 20
218.388701258
 30
0.0
 40
0.99
  0
CIRCLE
  8
Body_Slices
 62
0
 10
154.913112765
 20
175.735391279
 30
0.0
 40
0.99
  0
CIRCLE
  8
Body_Slices
 62
0
 10
118.379458829
 20
106.328279893
 30
0.0
 40
1.85
  0
CIRCLE
  8
Body_Slices
 62
0
 10
145.765071786
 20
125.266482504
 30
0.0
 40
0.99
  0
CIRCLE
  8
Body_Slices
 62
0
 10
145.765071786
 20
106.266482504
 30
0.0
 40
0.99
  0
CIRCLE
  8
Body_Slices
 62
0
 10
118.518747199
 20
153.458501008
 30
0.0
 40
0.99
  0
POLYLINE
  8
Body_Slices
 62
0
 70
1
 66
1
 10
0.0
 20
0.0
 30
0.0
  0
VERTEX
  8
Body_Slices
 10
119.978987846
 20
155.487712001
 30
0.0
  0
VERTEX
  8
Body_Slices
 10
136.000457816
 20
146.237712001
 30
0.0
  0
VERTEX
  8
Body_Slices
 10
171.000457816
 20
206.859490266
 30
0.0
  0
VERTEX
  8
Body_Slices
 10
154.978987846
 20
216.109490266
 30
0.0
  0
SEQEND
  8
Body_Slices
  0
CIRCLE
  8
Body_Slices
 62
0
 10
136.066332897
 20
186.611810988
 30
0.0
 40
0.99
  0
POLYLINE
  8
Body_Slices
 62
0
 70
1
 66
1
 10
0.0
 20
0.0
 30
0.0
  0
VERTEX
  8
Body_Slices
 10
179.252540378
 20
214.652516532
 30
0.0
  0
VERTEX
  8
Body_Slices
 10
133.377540378
 20
135.194685735
 30
0.0
  0
VERTEX
  8
Body_Slices
 10
137.377540378
 20
128.266482504
 30
0.0
  0
VERTEX
  8
Body_Slices
 10
229.127540378
 20
128.266482504
 30
0.0
  0
VERTEX
  8
Body_Slices
 10
233.127540378
 20
135.194685735
 30
0.0
  0
VERTEX
  8
Body_Slices
 10
187.252540378
 20
214.652516532
 30
0.0
  0
SEQEND
  8
Body_Slices
  0
CIRCLE
  8
Body_Slices
 62
0
 10
134.973229871
 20
143.958501008
 30
0.0
 40
0.99
  0
CIRCLE
  8
Body_Slices
 62
0
 10
230.436680778
 20
186.615391279
 30
0.0
 40
0.99
  0
POLYLINE
  8
Body_Slices
 62
0
 70
1
 66
1
 10
0.0
 20
0.0
 30
0.0
  0
VERTEX
  8
Body_Slices
 10
181.752540378
 20
244.411680399
 30
0.0
  0
VERTEX
  8
Body_Slices
 10
181.752540378
 20
225.411680399
 30
0.0
 42
1.0
  0
VERTEX
  8
Body_Slices
 10
184.752540378
 20
225.411680399
 30
0.0
  0
VERTEX
  8
Body_Slices
 10
184.752540378
 20
244.411680399
 30
0.0
 42
1.0
  0
SEQEND
  8
Body_Slices
  0
CIRCLE
  8
Body_Slices
 62
0
 10
169.752540378
 20
242.074439082
 30
0.0
 40
1.85
  0
CIRCLE
  8
Body_Slices
 62
0
 10
263.713266111
 20
105.700328231
 30
0.0
 40
0.99
  0
CIRCLE
  8
Body_Slices
 62
0
 10
104.879458829
 20
129.710965795
 30
0.0
 40
1.85
  0
CIRCLE
  8
Body_Slices
 62
0
 10
96.5418146458
 20
116.525645778
 30
0.0
 40
0.99
  0
ENDBLK
  0
BLOCK
  8
Body_Slices
  2
MYLAYER002
 70
0
 10
0.0
 20
0.0
 30
0.0
  3
MYLAYER002
  0
POLYLINE
  8
Body_Slices
 62
0
 70
1
 66
1
 10
0.0
 20
0.0
 30
0.0
  0
VERTEX
  8
Body_Slices
 10
350.486984347
 20
68.4576503084
 30
0.0
  0
VERTEX
  8
Body_Slices
 10
345.463700914
 20
59.7570681827
 30
0.0
  0
VERTEX
  8
Body_Slices
 10
354.823315288
 20
54.3532923042
 30
0.0
  0
VERTEX
  8
Body_Slices
 10
359.413586019
 20
62.3038744299
 30
0.0
 42
-0.267949192431
  0
VERTEX
  8
Body_Slices
 10
360.712624125
 20
63.0538744299
 30
0.0
  0
VERTEX
  8
Body_Slices
 10
375.255080757
 20
63.0538744299
 30
0.0
 42
0.668177588405
  0
VERTEX
  8
Body_Slices
 10
378.476883589
 20
70.8319625983
 30
0.0
 42
-0.198911613098
  0
VERTEX
  8
Body_Slices
 10
375.255080757
 20
78.6101146168
 30
0.0
  0
VERTEX
  8
Body_Slices
 10
375.255080757
 20
94.7664825043
 30
0.0
  0
VERTEX
  8
Body_Slices
 10
370.505080757
 20
94.7664825043
 30
0.0
  0
VERTEX
  8
Body_Slices
 10
370.505080757
 20
98.2664825043
 30
0.0
  0
VERTEX
  8
Body_Slices
 10
374.555080757
 20
98.2664825043
 30
8.881784197e-16
  0
VERTEX
  8
Body_Slices
 10
455.631350946
 20
-42.1617367517
 30
0.0
  0
VERTEX
  8
Body_Slices
 10
447.581350946
 20
-56.1047457526
 30
0.0
  0
VERTEX
  8
Body_Slices
 10
285.428810568
 20
-56.1047457526
 30
0.0
  0
VERTEX
  8
Body_Slices
 10
277.378810568
 20
-42.1617367517
 30
0.0
  0
VERTEX
  8
Body_Slices
 10
337.705080757
 20
62.3264282472
 30
0.0
  0
VERTEX
  8
Body_Slices
 10
342.035207776
 20
59.8264282472
 30
0.0
  0
VERTEX
  8
Body_Slices
 10
349.785207776
 20
73.2498220059
 30
0.0
  0
VERTEX
  8
Body_Slices
 10
345.455080757
 20
75.7498220059
 30
0.0
  0
VERTEX
  8
Body_Slices
 10
358.455080757
 20
98.2664825043
 30
0.0
  0
VERTEX
  8
Body_Slices
 10
362.505080757
 20
98.2664825043
 30
0.0
  0
VERTEX
  8
Body_Slices
 10
362.505080757
 20
94.7664825043
 30
0.0
  0
VERTEX
  8
Body_Slices
 10
357.755080757
 20
94.7664825043
 30
0.0
  0
VERTEX
  8
Body_Slices
 10
357.755080757
 20
78.6101146168
 30
0.0
 42
-0.198911613098
  0
VERTEX
  8
Body_Slices
 10
354.533277924
 20
70.8319625983
 30
0.0
 42
0.10021387902
  0
VERTEX
  8
Body_Slices
 10
353.533801839
 20
69.3250285403
 30
0.0
 42
-0.455152370056
  0
VERTEX
  8
Body_Slices
 10
350.680861875
 20
68.3457150651
 30
0.0
  0
SEQEND
  8
Body_Slices
  0
CIRCLE
  8
Body_Slices
 62
0
 10
377.296922672
 20
49.5174730013
 30
0.0
 40
0.99
  0
CIRCLE
  8
Body_Slices
 62
0
 10
301.771287577
 20
-5.91272724861
 30
0.0
 40
0.99
  0
CIRCLE
  8
Body_Slices
 62
0
 10
372.755080757
 20
96.5164825043
 30
0.0
 40
0.99
  0
CIRCLE
  8
Body_Slices
 62
0
 10
353.005080757
 20
82.7032108255
 30
0.0
 40
1.85
  0
CIRCLE
  8
Body_Slices
 62
0
 10
279.794355024
 20
-42.8455824785
 30
0.0
 40
0.99
  0
CIRCLE
  8
Body_Slices
 62
0
 10
339.25875617
 20
59.0174730012
 30
0.0
 40
0.99
  0
CIRCLE
  8
Body_Slices
 62
0
 10
453.215806489
 20
-42.8455824785
 30
0.0
 40
0.99
  0
POLYLINE
  8
Body_Slices
 62
0
 70
1
 66
1
 10
0.0
 20
0.0
 30
0.0
  0
VERTEX
  8
Body_Slices
 10
303.231528225
 20
-3.88351625616
 30
0.0
  0
VERTEX
  8
Body_Slices
 10
319.252998195
 20
-13.1335162562
 30
0.0
  0
VERTEX
  8
Body_Slices
 10
354.252998195
 20
47.4882620088
 30
0.0
  0
VERTEX
  8
Body_Slices
 10
338.231528225
 20
56.7382620088
 30
0.0
  0
SEQEND
  8
Body_Slices
  0
CIRCLE
  8
Body_Slices
 62
0
 10
319.318873275
 20
27.2405827309
 30
0.0
 40
0.99
  0
CIRCLE
  8
Body_Slices
 62
0
 10
338.165653144
 20
16.3641630217
 30
0.0
 40
0.99
  0
CIRCLE
  8
Body_Slices
 62
0
 10
286.044355024
 20
-53.6709000258
 30
0.0
 40
0.99
  0
CIRCLE
  8
Body_Slices
 62
0
 10
288.131999207
 20
-29.6602624617
 30
0.0
 40
1.85
  0
CIRCLE
  8
Body_Slices
 62
0
 10
301.631999207
 20
-53.0429483639
 30
0.0
 40
1.85
  0
POLYLINE
  8
Body_Slices
 62
0
 70
1
 66
1
 10
0.0
 20
0.0
 30
0.0
  0
VERTEX
  8
Body_Slices
 10
300.657246932
 20
-48.0972697706
 30
0.0
  0
VERTEX
  8
Body_Slices
 10
313.647627988
 20
-40.5972697706
 30
0.0
  0
VERTEX
  8
Body_Slices
 10
305.147627988
 20
-25.8748379063
 30
0.0
  0
VERTEX
  8
Body_Slices
 10
292.157246932
 20
-33.3748379063
 30
0.0
  0
SEQEND
  8
Body_Slices
  0
CIRCLE
  8
Body_Slices
 62
0
 10
318.225770249
 20
-15.4127272487
 30
0.0
 40
0.99
  0
CIRCLE
  8
Body_Slices
 62
0
 10
329.017612164
 20
-34.1047457526
 30
0.0
 40
0.99
  0
POLYLINE
  8
Body_Slices
 62
0
 70
1
 66
1
 10
0.0
 20
0.0
 30
0.0
  0
VERTEX
  8
Body_Slices
 10
394.778633289
 20
56.7382620088
 30
0.0
  0
VERTEX
  8
Body_Slices
 10
378.757163319
 20
47.4882620088
 30
0.0
  0
VERTEX
  8
Body_Slices
 10
413.757163319
 20
-13.1335162562
 30
0.0
  0
VERTEX
  8
Body_Slices
 10
429.778633289
 20
-3.88351625616
 30
0.0
  0
SEQEND
  8
Body_Slices
  0
CIRCLE
  8
Body_Slices
 62
0
 10
413.689221156
 20
27.2441630217
 30
0.0
 40
0.99
  0
CIRCLE
  8
Body_Slices
 62
0
 10
394.846575452
 20
16.3605827309
 30
0.0
 40
0.99
  0
POLYLINE
  8
Body_Slices
 62
0
 70
1
 66
1
 10
0.0
 20
0.0
 30
0.0
  0
VERTEX
  8
Body_Slices
 10
362.505080757
 20
55.2812882749
 30
0.0
  0
VERTEX
  8
Body_Slices
 10
316.630080757
 20
-24.1765425223
 30
0.0
  0
VERTEX
  8
Body_Slices
 10
320.630080757
 20
-31.1047457526
 30
0.0
  0
VERTEX
  8
Body_Slices
 10
412.380080757
 20
-31.1047457526
 30
0.0
  0
VERTEX
  8
Body_Slices
 10
416.380080757
 20
-24.1765425223
 30
0.0
  0
VERTEX
  8
Body_Slices
 10
370.505080757
 20
55.2812882749
 30
0.0
  0
SEQEND
  8
Body_Slices
  0
CIRCLE
  8
Body_Slices
 62
0
 10
355.713238842
 20
49.5174730012
 30
0.0
 40
0.99
  0
CIRCLE
  8
Body_Slices
 62
0
 10
403.99254935
 20
-53.1047457526
 30
0.0
 40
0.99
  0
CIRCLE
  8
Body_Slices
 62
0
 10
403.99254935
 20
-34.1047457526
 30
0.0
 40
0.99
  0
CIRCLE
  8
Body_Slices
 62
0
 10
431.378162306
 20
-53.0429483639
 30
0.0
 40
1.85
  0
CIRCLE
  8
Body_Slices
 62
0
 10
366.507147839
 20
-54.4847457526
 30
0.0
 40
0.99
  0
CIRCLE
  8
Body_Slices
 62
0
 10
366.503013675
 20
-32.7247457526
 30
0.0
 40
0.99
  0
POLYLINE
  8
Body_Slices
 62
0
 70
1
 66
1
 10
0.0
 20
0.0
 30
0.0
  0
VERTEX
  8
Body_Slices
 10
401.505080757
 20
-52.8547457526
 30
0.0
  0
VERTEX
  8
Body_Slices
 10
401.505080757
 20
-34.3547457526
 30
0.0
  0
VERTEX
  8
Body_Slices
 10
331.505080757
 20
-34.3547457526
 30
0.0
  0
VERTEX
  8
Body_Slices
 10
331.505080757
 20
-52.8547457526
 30
0.0
  0
SEQEND
  8
Body_Slices
  0
CIRCLE
  8
Body_Slices
 62
0
 10
329.017612164
 20
-53.1047457526
 30
0.0
 40
0.99
  0
CIRCLE
  8
Body_Slices
 62
0
 10
380.005080757
 20
82.7032108255
 30
0.0
 40
1.85
  0
CIRCLE
  8
Body_Slices
 62
0
 10
393.751405344
 20
59.0174730012
 30
0.0
 40
0.99
  0
CIRCLE
  8
Body_Slices
 62
0
 10
431.238873937
 20
-5.91272724861
 30
0.0
 40
0.99
  0
CIRCLE
  8
Body_Slices
 62
0
 10
444.878162306
 20
-29.6602624617
 30
0.0
 40
1.85
  0
POLYLINE
  8
Body_Slices
 62
0
 70
1
 66
1
 10
0.0
 20
0.0
 30
0.0
  0
VERTEX
  8
Body_Slices
 10
445.843340095
 20
-33.508404652
 30
0.0
  0
VERTEX
  8
Body_Slices
 10
429.821870125
 20
-24.258404652
 30
0.0
  0
VERTEX
  8
Body_Slices
 10
432.821870125
 20
-19.0622522293
 30
0.0
  0
VERTEX
  8
Body_Slices
 10
428.058730404
 20
-16.3122522293
 30
0.0
  0
VERTEX
  8
Body_Slices
 10
425.058730404
 20
-21.508404652
 30
0.0
  0
VERTEX
  8
Body_Slices
 10
423.326679596
 20
-20.508404652
 30
0.0
  0
VERTEX
  8
Body_Slices
 10
412.676679596
 20
-38.9547457526
 30
0.0
  0
VERTEX
  8
Body_Slices
 10
435.193340095
 20
-51.9547457526
 30
0.0
  0
SEQEND
  8
Body_Slices
  0
CIRCLE
  8
Body_Slices
 62
0
 10
414.784391265
 20
-15.4127272486
 30
0.0
 40
0.99
  0
CIRCLE
  8
Body_Slices
 62
0
 10
446.965806489
 20
-53.6709000258
 30
0.0
 40
0.99
  0
CIRCLE
  8
Body_Slices
 62
0
 10
360.255080757
 20
96.5164825043
 30
0.0
 40
0.99
  0
ENDBLK
  0
BLOCK
  8
Body_Slices
  2
MYLAYER006
 70
0
 10
0.0
 20
0.0
 30
0.0
  3
MYLAYER006
  0
POLYLINE
  8
Body_Slices
 62
0
 70
1
 66
1
 10
0.0
 20
0.0
 30
0.0
  0
VERTEX
  8
Body_Slices
 10
89.1262701892
 20
276.580719762
 30
0.0
  0
VERTEX
  8
Body_Slices
 10
81.0762701892
 20
262.637710761
 30
0.0
  0
VERTEX
  8
Body_Slices
 10
-81.0762701892
 20
262.637710761
 30
0.0
  0
VERTEX
  8
Body_Slices
 10
-89.1262701892
 20
276.580719762
 30
0.0
  0
VERTEX
  8
Body_Slices
 10
-28.8
 20
381.068884761
 30
0.0
  0
VERTEX
  8
Body_Slices
 10
-24.4698729811
 20
378.568884761
 30
0.0
  0
VERTEX
  8
Body_Slices
 10
-16.7198729811
 20
391.99227852
 30
0.0
  0
VERTEX
  8
Body_Slices
 10
-21.05
 20
394.49227852
 30
0.0
  0
VERTEX
  8
Body_Slices
 10
-8.05
 20
417.008939018
 30
0.0
  0
VERTEX
  8
Body_Slices
 10
8.05
 20
417.008939018
 30
0.0
  0
SEQEND
  8
Body_Slices
  0
CIRCLE
  8
Body_Slices
 62
0
 10
-37.4874685928
 20
284.637710761
 30
0.0
 40
0.99
  0
CIRCLE
  8
Body_Slices
 62
0
 10
-27.2463245869
 20
377.759929515
 30
0.0
 40
0.99
  0
CIRCLE
  8
Body_Slices
 62
0
 10
-64.7337931796
 20
312.829729265
 30
0.0
 40
0.99
  0
CIRCLE
  8
Body_Slices
 62
0
 10
-0.00206708181733
 20
286.017710761
 30
0.0
 40
0.99
  0
CIRCLE
  8
Body_Slices
 62
0
 10
37.4874685929
 20
284.637710761
 30
0.0
 40
0.99
  0
POLYLINE
  8
Body_Slices
 62
0
 70
1
 66
1
 10
0.0
 20
0.0
 30
0.0
  0
VERTEX
  8
Body_Slices
 10
-4.0
 20
374.023744789
 30
0.0
  0
VERTEX
  8
Body_Slices
 10
-49.875
 20
294.565913991
 30
0.0
  0
VERTEX
  8
Body_Slices
 10
-45.875
 20
287.637710761
 30
0.0
  0
VERTEX
  8
Body_Slices
 10
45.875
 20
287.637710761
 30
0.0
  0
VERTEX
  8
Body_Slices
 10
49.875
 20
294.565913991
 30
0.0
  0
VERTEX
  8
Body_Slices
 10
4.0
 20
374.023744789
 30
0.0
  0
SEQEND
  8
Body_Slices
  0
CIRCLE
  8
Body_Slices
 62
0
 10
28.341494695
 20
335.103039245
 30
0.0
 40
0.99
  0
CIRCLE
  8
Body_Slices
 62
0
 10
-10.791841915
 20
368.259929515
 30
0.0
 40
0.99
  0
CIRCLE
  8
Body_Slices
 62
0
 10
-28.3394276132
 20
335.106619535
 30
0.0
 40
0.99
  0
CIRCLE
  8
Body_Slices
 62
0
 10
10.7918419149
 20
368.259929515
 30
0.0
 40
0.99
  0
CIRCLE
  8
Body_Slices
 62
0
 10
47.1841403996
 20
345.986619535
 30
0.0
 40
0.99
  0
CIRCLE
  8
Body_Slices
 62
0
 10
-47.1862074814
 20
345.983039245
 30
0.0
 40
0.99
  0
CIRCLE
  8
Body_Slices
 62
0
 10
-48.2793105078
 20
303.329729265
 30
0.0
 40
0.99
  0
CIRCLE
  8
Body_Slices
 62
0
 10
48.2793105078
 20
303.329729265
 30
0.0
 40
0.99
  0
CIRCLE
  8
Body_Slices
 62
0
 10
-13.5
 20
401.445667339
 30
0.0
 40
1.85
  0
POLYLINE
  8
Body_Slices
 62
0
 70
1
 66
1
 10
0.0
 20
0.0
 30
0.0
  0
VERTEX
  8
Body_Slices
 10
-1.5
 20
403.782908656
 30
0.0
  0
VERTEX
  8
Body_Slices
 10
-1.5
 20
384.782908656
 30
0.0
 42
1.0
  0
VERTEX
  8
Body_Slices
 10
1.5
 20
384.782908656
 30
0.0
  0
VERTEX
  8
Body_Slices
 10
1.5
 20
403.782908656
 30
0.0
 42
1.0
  0
SEQEND
  8
Body_Slices
  0
CIRCLE
  8
Body_Slices
 62
0
 10
13.5
 20
401.445667339
 30
0.0
 40
1.85
  0
CIRCLE
  8
Body_Slices
 62
0
 10
27.2463245869
 20
377.759929515
 30
0.0
 40
0.99
  0
CIRCLE
  8
Body_Slices
 62
0
 10
64.7337931796
 20
312.829729265
 30
0.0
 40
0.99
  0
CIRCLE
  8
Body_Slices
 62
0
 10
-64.8730815495
 20
265.69950815
 30
0.0
 40
1.85
  0
CIRCLE
  8
Body_Slices
 62
0
 10
-37.4874685928
 20
265.637710761
 30
0.0
 40
0.99
  0
CIRCLE
  8
Body_Slices
 62
0
 10
64.8730815495
 20
265.69950815
 30
0.0
 40
1.85
  0
CIRCLE
  8
Body_Slices
 62
0
 10
37.4874685928
 20
265.637710761
 30
0.0
 40
0.99
  0
CIRCLE
  8
Body_Slices
 62
0
 10
0.0020670818166
 20
264.257710761
 30
0.0
 40
0.99
  0
CIRCLE
  8
Body_Slices
 62
0
 10
6.25
 20
415.258939018
 30
0.0
 40
0.99
  0
CIRCLE
  8
Body_Slices
 62
0
 10
-6.25
 20
415.258939018
 30
0.0
 40
0.99
  0
CIRCLE
  8
Body_Slices
 62
0
 10
86.7107257326
 20
275.896874035
 30
0.0
 40
0.99
  0
CIRCLE
  8
Body_Slices
 62
0
 10
78.3730815495
 20
289.082194052
 30
0.0
 40
1.85
  0
CIRCLE
  8
Body_Slices
 62
0
 10
80.4607257326
 20
265.071556488
 30
0.0
 40
0.99
  0
CIRCLE
  8
Body_Slices
 62
0
 10
-78.3730815495
 20
289.082194052
 30
0.0
 40
1.85
  0
CIRCLE
  8
Body_Slices
 62
0
 10
-80.4607257326
 20
265.071556488
 30
0.0
 40
0.99
  0
CIRCLE
  8
Body_Slices
 62
0
 10
-86.7107257326
 20
275.896874035
 30
0.0
 40
0.99
  0
ENDBLK
  0
BLOCK
  8
Body_Slices
  2
MYLAYER001
 70
0
 10
0.0
 20
0.0
 30
0.0
  3
MYLAYER001
  0
POLYLINE
  8
Body_Slices
 62
0
 70
1
 66
1
 10
0.0
 20
0.0
 30
0.0
  0
VERTEX
  8
Body_Slices
 10
272.378810568
 20
-42.1617367517
 30
0.0
  0
VERTEX
  8
Body_Slices
 10
264.328810568
 20
-56.1047457526
 30
0.0
  0
VERTEX
  8
Body_Slices
 10
102.176270189
 20
-56.1047457526
 30
0.0
  0
VERTEX
  8
Body_Slices
 10
94.1262701892
 20
-42.1617367517
 30
0.0
  0
VERTEX
  8
Body_Slices
 10
175.202540378
 20
98.2664825043
 30
0.0
  0
VERTEX
  8
Body_Slices
 10
191.302540378
 20
98.2664825043
 30
0.0
  0
SEQEND
  8
Body_Slices
  0
CIRCLE
  8
Body_Slices
 62
0
 10
210.498864965
 20
59.0174730012
 30
0.0
 40
0.99
  0
CIRCLE
  8
Body_Slices
 62
0
 10
177.002540378
 20
96.5164825043
 30
0.0
 40
0.99
  0
CIRCLE
  8
Body_Slices
 62
0
 10
118.379458829
 20
-53.0429483639
 30
0.0
 40
1.85
  0
CIRCLE
  8
Body_Slices
 62
0
 10
156.006215792
 20
59.0174730012
 30
0.0
 40
0.99
  0
CIRCLE
  8
Body_Slices
 62
0
 10
96.5418146458
 20
-42.8455824785
 30
0.0
 40
0.99
  0
CIRCLE
  8
Body_Slices
 62
0
 10
263.713266111
 20
-53.6709000258
 30
0.0
 40
0.99
  0
CIRCLE
  8
Body_Slices
 62
0
 10
145.765071786
 20
-53.1047457526
 30
0.0
 40
0.99
  0
CIRCLE
  8
Body_Slices
 62
0
 10
248.125621928
 20
-53.0429483639
 30
0.0
 40
1.85
  0
CIRCLE
  8
Body_Slices
 62
0
 10
102.791814646
 20
-53.6709000258
 30
0.0
 40
0.99
  0
CIRCLE
  8
Body_Slices
 62
0
 10
189.502540378
 20
96.5164825043
 30
0.0
 40
0.99
  0
CIRCLE
  8
Body_Slices
 62
0
 10
104.879458829
 20
-29.6602624617
 30
0.0
 40
1.85
  0
CIRCLE
  8
Body_Slices
 62
0
 10
118.518747199
 20
-5.91272724861
 30
0.0
 40
0.99
  0
CIRCLE
  8
Body_Slices
 62
0
 10
136.066332897
 20
27.2405827309
 30
0.0
 40
0.99
  0
CIRCLE
  8
Body_Slices
 62
0
 10
247.986333558
 20
-5.91272724861
 30
0.0
 40
0.99
  0
POLYLINE
  8
Body_Slices
 62
0
 70
1
 66
1
 10
0.0
 20
0.0
 30
0.0
  0
VERTEX
  8
Body_Slices
 10
157.360557707
 20
55.3632620088
 30
0.0
  0
VERTEX
  8
Body_Slices
 10
154.978987846
 20
56.7382620088
 30
0.0
  0
VERTEX
  8
Body_Slices
 10
119.978987846
 20
-3.88351625616
 30
0.0
  0
VERTEX
  8
Body_Slices
 10
122.360557707
 20
-5.25851625616
 30
0.0
  0
VERTEX
  8
Body_Slices
 10
107.726905284
 20
-30.6047457526
 30
0.0
 42
0.57735026919
  0
VERTEX
  8
Body_Slices
 10
118.985235533
 20
-50.1047457526
 30
0.0
  0
VERTEX
  8
Body_Slices
 10
148.252540378
 20
-50.1047457526
 30
0.0
  0
VERTEX
  8
Body_Slices
 10
148.252540378
 20
-52.8547457526
 30
0.0
  0
VERTEX
  8
Body_Slices
 10
218.252540378
 20
-52.8547457526
 30
0.0
  0
VERTEX
  8
Body_Slices
 10
218.252540378
 20
-50.1047457526
 30
0.0
  0
VERTEX
  8
Body_Slices
 10
247.519845224
 20
-50.1047457526
 30
0.0
 42
0.0217857447586
  0
VERTEX
  8
Body_Slices
 10
248.651092199
 20
-50.0554322318
 30
0.0
  0
VERTEX
  8
Body_Slices
 10
251.940799716
 20
-51.9547457526
 30
0.0
  0
VERTEX
  8
Body_Slices
 10
254.011757562
 20
-48.3677415441
 30
0.0
 42
0.26833412378
  0
VERTEX
  8
Body_Slices
 10
260.519841871
 20
-37.0954088605
 30
0.0
  0
VERTEX
  8
Body_Slices
 10
262.590799716
 20
-33.508404652
 30
0.0
  0
VERTEX
  8
Body_Slices
 10
259.301092199
 20
-31.6090911312
 30
0.0
 42
0.0217857447586
  0
VERTEX
  8
Body_Slices
 10
258.778175473
 20
-30.6047457526
 30
0.0
  0
VERTEX
  8
Body_Slices
 10
244.14452305
 20
-5.25851625616
 30
0.0
  0
VERTEX
  8
Body_Slices
 10
246.526092911
 20
-3.88351625616
 30
0.0
  0
VERTEX
  8
Body_Slices
 10
211.526092911
 20
56.7382620088
 30
0.0
  0
VERTEX
  8
Body_Slices
 10
209.14452305
 20
55.3632620088
 30
0.0
  0
VERTEX
  8
Body_Slices
 10
194.510870628
 20
80.7094915052
 30
0.0
 42
0.57735026919
  0
VERTEX
  8
Body_Slices
 10
171.994210129
 20
80.7094915052
 30
0.0
  0
SEQEND
  8
Body_Slices
  0
CIRCLE
  8
Body_Slices
 62
0
 10
169.752540378
 20
82.7032108255
 30
0.0
 40
1.85
  0
CIRCLE
  8
Body_Slices
 62
0
 10
261.625621928
 20
-29.6602624617
 30
0.0
 40
1.85
  0
CIRCLE
  8
Body_Slices
 62
0
 10
196.752540378
 20
82.7032108255
 30
0.0
 40
1.85
  0
CIRCLE
  8
Body_Slices
 62
0
 10
230.436680778
 20
27.2441630217
 30
0.0
 40
0.99
  0
CIRCLE
  8
Body_Slices
 62
0
 10
220.740008971
 20
-53.1047457526
 30
0.0
 40
0.99
  0
CIRCLE
  8
Body_Slices
 62
0
 10
183.25460746
 20
-54.4847457526
 30
0.0
 40
0.99
  0
CIRCLE
  8
Body_Slices
 62
0
 10
269.963266111
 20
-42.8455824785
 30
0.0
 40
0.99
  0
POLYLINE
  8
Body_Slices
 62
0
 70
1
 66
1
 10
0.0
 20
0.0
 30
0.0
  0
VERTEX
  8
Body_Slices
 10
192.77881982
 20
57.7094915052
 30
0.0
  0
VERTEX
  8
Body_Slices
 10
197.886192801
 20
48.8632620088
 30
0.0
  0
VERTEX
  8
Body_Slices
 10
195.504622941
 20
47.4882620088
 30
0.0
  0
VERTEX
  8
Body_Slices
 10
230.504622941
 20
-13.1335162562
 30
0.0
  0
VERTEX
  8
Body_Slices
 10
232.886192801
 20
-11.7585162562
 30
0.0
  0
VERTEX
  8
Body_Slices
 10
237.993565782
 20
-20.6047457526
 30
0.0
 42
-0.0491527570221
  0
VERTEX
  8
Body_Slices
 10
238.883883242
 20
-22.5699884767
 30
0.0
  0
VERTEX
  8
Body_Slices
 10
230.614395194
 20
-36.8931619279
 30
0.0
 42
-0.0491527570221
  0
VERTEX
  8
Body_Slices
 10
228.467286341
 20
-37.1047457526
 30
0.0
  0
VERTEX
  8
Body_Slices
 10
218.252540378
 20
-37.1047457526
 30
0.0
  0
VERTEX
  8
Body_Slices
 10
218.252540378
 20
-34.3547457526
 30
0.0
  0
VERTEX
  8
Body_Slices
 10
148.252540378
 20
-34.3547457526
 30
0.0
  0
VERTEX
  8
Body_Slices
 10
148.252540378
 20
-37.1047457526
 30
0.0
  0
VERTEX
  8
Body_Slices
 10
138.037794416
 20
-37.1047457526
 30
0.0
 42
-0.57735026919
  0
VERTEX
  8
Body_Slices
 10
128.511514975
 20
-20.6047457526
 30
0.0
  0
VERTEX
  8
Body_Slices
 10
133.618887956
 20
-11.7585162562
 30
0.0
  0
VERTEX
  8
Body_Slices
 10
136.000457816
 20
-13.1335162562
 30
0.0
  0
VERTEX
  8
Body_Slices
 10
171.000457816
 20
47.4882620088
 30
0.0
  0
VERTEX
  8
Body_Slices
 10
168.618887956
 20
48.8632620088
 30
0.0
  0
VERTEX
  8
Body_Slices
 10
173.726260937
 20
57.7094915052
 30
0.0
 42
-0.57735026919
  0
SEQEND
  8
Body_Slices
  0
CIRCLE
  8
Body_Slices
 62
0
 10
211.594035073
 20
16.3605827309
 30
0.0
 40
0.99
  0
CIRCLE
  8
Body_Slices
 62
0
 10
220.740008971
 20
-34.1047457526
 30
0.0
 40
0.99
  0
POLYLINE
  8
Body_Slices
 62
0
 70
1
 66
1
 10
0.0
 20
0.0
 30
0.0
  0
VERTEX
  8
Body_Slices
 10
179.252540378
 20
55.2812882749
 30
0.0
  0
VERTEX
  8
Body_Slices
 10
133.377540378
 20
-24.1765425223
 30
0.0
  0
VERTEX
  8
Body_Slices
 10
137.377540378
 20
-31.1047457526
 30
0.0
  0
VERTEX
  8
Body_Slices
 10
229.127540378
 20
-31.1047457526
 30
0.0
  0
VERTEX
  8
Body_Slices
 10
233.127540378
 20
-24.1765425223
 30
0.0
  0
VERTEX
  8
Body_Slices
 10
187.252540378
 20
55.2812882749
 30
0.0
  0
SEQEND
  8
Body_Slices
  0
CIRCLE
  8
Body_Slices
 62
0
 10
172.460698463
 20
49.5174730012
 30
0.0
 40
0.99
  0
CIRCLE
  8
Body_Slices
 62
0
 10
194.044382293
 20
49.5174730013
 30
0.0
 40
0.99
  0
CIRCLE
  8
Body_Slices
 62
0
 10
134.973229871
 20
-15.4127272487
 30
0.0
 40
0.99
  0
CIRCLE
  8
Body_Slices
 62
0
 10
154.913112765
 20
16.3641630217
 30
0.0
 40
0.99
  0
CIRCLE
  8
Body_Slices
 62
0
 10
231.531850886
 20
-15.4127272486
 30
0.0
 40
0.99
  0
CIRCLE
  8
Body_Slices
 62
0
 10
183.250473297
 20
-32.7247457526
 30
0.0
 40
0.99
  0
CIRCLE
  8
Body_Slices
 62
0
 10
145.765071786
 20
-34.1047457526
 30
0.0
 40
0.99
  0
ENDBLK
  0
BLOCK
  8
Body_Slices
  2
MYLAYER003
 70
0
 10
0.0
 20
0.0
 30
0.0
  3
MYLAYER003
  0
POLYLINE
  8
Body_Slices
 62
0
 70
1
 66
1
 10
0.0
 20
0.0
 30
0.0
  0
VERTEX
  8
Body_Slices
 10
-1.5
 20
231.537710761
 30
0.0
  0
VERTEX
  8
Body_Slices
 10
-1.5
 20
225.411680399
 30
0.0
 42
1.0
  0
VERTEX
  8
Body_Slices
 10
1.5
 20
225.411680399
 30
0.0
  0
VERTEX
  8
Body_Slices
 10
1.5
 20
231.537710761
 30
0.0
  0
VERTEX
  8
Body_Slices
 10
8.75
 20
231.537710761
 30
0.0
  0
VERTEX
  8
Body_Slices
 10
8.75
 20
254.137710761
 30
0.0
  0
VERTEX
  8
Body_Slices
 10
4.0
 20
254.137710761
 30
0.0
  0
VERTEX
  8
Body_Slices
 10
4.0
 20
257.637710761
 30
0.0
  0
VERTEX
  8
Body_Slices
 10
8.05
 20
257.637710761
 30
0.0
  0
VERTEX
  8
Body_Slices
 10
89.1262701892
 20
117.209491505
 30
0.0
  0
VERTEX
  8
Body_Slices
 10
81.0762701892
 20
103.266482504
 30
0.0
  0
VERTEX
  8
Body_Slices
 10
-81.0762701892
 20
103.266482504
 30
0.0
  0
VERTEX
  8
Body_Slices
 10
-89.1262701892
 20
117.209491505
 30
0.0
  0
VERTEX
  8
Body_Slices
 10
-28.8
 20
221.697656504
 30
0.0
  0
VERTEX
  8
Body_Slices
 10
-24.4698729811
 20
219.197656504
 30
0.0
  0
VERTEX
  8
Body_Slices
 10
-23.9948729811
 20
220.020380638
 30
0.0
  0
VERTEX
  8
Body_Slices
 10
-10.5714792224
 20
212.270380638
 30
0.0
  0
VERTEX
  8
Body_Slices
 10
-3.77147922242
 20
224.048326129
 30
0.0
  0
VERTEX
  8
Body_Slices
 10
-17.1948729811
 20
231.798326129
 30
0.0
  0
VERTEX
  8
Body_Slices
 10
-16.7198729811
 20
232.621050263
 30
0.0
  0
VERTEX
  8
Body_Slices
 10
-21.05
 20
235.121050263
 30
0.0
  0
VERTEX
  8
Body_Slices
 10
-8.05
 20
257.637710761
 30
0.0
  0
VERTEX
  8
Body_Slices
 10
-4.0
 20
257.637710761
 30
0.0
  0
VERTEX
  8
Body_Slices
 10
-4.0
 20
254.137710761
 30
0.0
  0
VERTEX
  8
Body_Slices
 10
-8.75
 20
254.137710761
 30
0.0
  0
VERTEX
  8
Body_Slices
 10
-8.75
 20
231.537710761
 30
0.0
  0
SEQEND
  8
Body_Slices
  0
CIRCLE
  8
Body_Slices
 62
0
 10
6.25
 20
255.887710761
 30
0.0
 40
0.99
  0
CIRCLE
  8
Body_Slices
 62
0
 10
13.5
 20
242.074439082
 30
0.0
 40
1.85
  0
CIRCLE
  8
Body_Slices
 62
0
 10
-86.7107257326
 20
116.525645778
 30
0.0
 40
0.99
  0
CIRCLE
  8
Body_Slices
 62
0
 10
-0.00206708181733
 20
126.646482504
 30
0.0
 40
0.99
  0
CIRCLE
  8
Body_Slices
 62
0
 10
-64.8730815495
 20
106.328279893
 30
0.0
 40
1.85
  0
CIRCLE
  8
Body_Slices
 62
0
 10
-6.25
 20
255.887710761
 30
0.0
 40
0.99
  0
CIRCLE
  8
Body_Slices
 62
0
 10
27.2463245869
 20
218.388701258
 30
0.0
 40
0.99
  0
CIRCLE
  8
Body_Slices
 62
0
 10
-80.4607257326
 20
105.700328231
 30
0.0
 40
0.99
  0
CIRCLE
  8
Body_Slices
 62
0
 10
80.4607257326
 20
105.700328231
 30
0.0
 40
0.99
  0
CIRCLE
  8
Body_Slices
 62
0
 10
-37.4874685928
 20
125.266482504
 30
0.0
 40
0.99
  0
CIRCLE
  8
Body_Slices
 62
0
 10
-64.7337931796
 20
153.458501008
 30
0.0
 40
0.99
  0
CIRCLE
  8
Body_Slices
 62
0
 10
-13.5
 20
242.074439082
 30
0.0
 40
1.85
  0
CIRCLE
  8
Body_Slices
 62
0
 10
-27.2463245869
 20
218.388701258
 30
0.0
 40
0.99
  0
CIRCLE
  8
Body_Slices
 62
0
 10
47.1841403996
 20
186.615391279
 30
0.0
 40
0.99
  0
POLYLINE
  8
Body_Slices
 62
0
 70
1
 66
1
 10
0.0
 20
0.0
 30
0.0
  0
VERTEX
  8
Body_Slices
 10
-4.0
 20
214.652516532
 30
0.0
  0
VERTEX
  8
Body_Slices
 10
-49.875
 20
135.194685735
 30
0.0
  0
VERTEX
  8
Body_Slices
 10
-45.875
 20
128.266482504
 30
0.0
  0
VERTEX
  8
Body_Slices
 10
45.875
 20
128.266482504
 30
0.0
  0
VERTEX
  8
Body_Slices
 10
49.875
 20
135.194685735
 30
0.0
  0
VERTEX
  8
Body_Slices
 10
4.0
 20
214.652516532
 30
0.0
  0
SEQEND
  8
Body_Slices
  0
CIRCLE
  8
Body_Slices
 62
0
 10
10.7918419149
 20
208.888701258
 30
0.0
 40
0.99
  0
POLYLINE
  8
Body_Slices
 62
0
 70
1
 66
1
 10
0.0
 20
0.0
 30
0.0
  0
VERTEX
  8
Body_Slices
 10
-63.2735525323
 20
155.487712001
 30
0.0
  0
VERTEX
  8
Body_Slices
 10
-47.2520825623
 20
146.237712001
 30
0.0
  0
VERTEX
  8
Body_Slices
 10
-12.2520825623
 20
206.859490266
 30
0.0
  0
VERTEX
  8
Body_Slices
 10
-28.2735525323
 20
216.109490266
 30
0.0
  0
SEQEND
  8
Body_Slices
  0
CIRCLE
  8
Body_Slices
 62
0
 10
-47.1862074814
 20
186.611810988
 30
0.0
 40
0.99
  0
CIRCLE
  8
Body_Slices
 62
0
 10
-28.3394276132
 20
175.735391279
 30
0.0
 40
0.99
  0
CIRCLE
  8
Body_Slices
 62
0
 10
-10.791841915
 20
208.888701258
 30
0.0
 40
0.99
  0
CIRCLE
  8
Body_Slices
 62
0
 10
28.341494695
 20
175.731810988
 30
0.0
 40
0.99
  0
CIRCLE
  8
Body_Slices
 62
0
 10
-48.2793105078
 20
143.958501008
 30
0.0
 40
0.99
  0
CIRCLE
  8
Body_Slices
 62
0
 10
48.2793105078
 20
143.958501008
 30
0.0
 40
0.99
  0
CIRCLE
  8
Body_Slices
 62
0
 10
37.4874685929
 20
125.266482504
 30
0.0
 40
0.99
  0
CIRCLE
  8
Body_Slices
 62
0
 10
-37.4874685928
 20
106.266482504
 30
0.0
 40
0.99
  0
CIRCLE
  8
Body_Slices
 62
0
 10
37.4874685928
 20
106.266482504
 30
0.0
 40
0.99
  0
CIRCLE
  8
Body_Slices
 62
0
 10
0.0020670818166
 20
104.886482504
 30
0.0
 40
0.99
  0
CIRCLE
  8
Body_Slices
 62
0
 10
64.8730815495
 20
106.328279893
 30
0.0
 40
1.85
  0
POLYLINE
  8
Body_Slices
 62
0
 70
1
 66
1
 10
0.0
 20
0.0
 30
0.0
  0
VERTEX
  8
Body_Slices
 10
79.3382593378
 20
125.862823605
 30
0.0
  0
VERTEX
  8
Body_Slices
 10
63.3167893678
 20
135.112823605
 30
0.0
  0
VERTEX
  8
Body_Slices
 10
66.3167893678
 20
140.308976028
 30
0.0
  0
VERTEX
  8
Body_Slices
 10
61.553649647
 20
143.058976028
 30
0.0
  0
VERTEX
  8
Body_Slices
 10
58.553649647
 20
137.862823605
 30
0.0
  0
VERTEX
  8
Body_Slices
 10
56.8215988394
 20
138.862823605
 30
0.0
  0
VERTEX
  8
Body_Slices
 10
46.1715988394
 20
120.416482504
 30
0.0
  0
VERTEX
  8
Body_Slices
 10
68.6882593378
 20
107.416482504
 30
0.0
  0
SEQEND
  8
Body_Slices
  0
CIRCLE
  8
Body_Slices
 62
0
 10
78.3730815495
 20
129.710965795
 30
0.0
 40
1.85
  0
POLYLINE
  8
Body_Slices
 62
0
 70
1
 66
1
 10
0.0
 20
0.0
 30
0.0
  0
VERTEX
  8
Body_Slices
 10
35.0
 20
106.516482504
 30
0.0
  0
VERTEX
  8
Body_Slices
 10
35.0
 20
125.016482504
 30
0.0
  0
VERTEX
  8
Body_Slices
 10
-35.0
 20
125.016482504
 30
0.0
  0
VERTEX
  8
Body_Slices
 10
-35.0
 20
106.516482504
 30
0.0
  0
SEQEND
  8
Body_Slices
  0
CIRCLE
  8
Body_Slices
 62
0
 10
64.7337931796
 20
153.458501008
 30
0.0
 40
0.99
  0
POLYLINE
  8
Body_Slices
 62
0
 70
1
 66
1
 10
0.0
 20
0.0
 30
0.0
  0
VERTEX
  8
Body_Slices
 10
28.2735525323
 20
216.109490266
 30
0.0
  0
VERTEX
  8
Body_Slices
 10
12.2520825623
 20
206.859490266
 30
0.0
  0
VERTEX
  8
Body_Slices
 10
47.2520825623
 20
146.237712001
 30
0.0
  0
VERTEX
  8
Body_Slices
 10
63.2735525323
 20
155.487712001
 30
0.0
  0
SEQEND
  8
Body_Slices
  0
CIRCLE
  8
Body_Slices
 62
0
 10
-78.3730815495
 20
129.710965795
 30
0.0
 40
1.85
  0
CIRCLE
  8
Body_Slices
 62
0
 10
86.7107257326
 20
116.525645778
 30
0.0
 40
0.99
  0
ENDBLK
  0
BLOCK
  8
Body_Slices
  2
MYLAYER007
 70
0
 10
0.0
 20
0.0
 30
0.0
  3
MYLAYER007
  0
POLYLINE
  8
Body_Slices
 62
0
 70
1
 66
1
 10
0.0
 20
0.0
 30
0.0
  0
VERTEX
  8
Body_Slices
 10
272.378810568
 20
276.580719762
 30
0.0
  0
VERTEX
  8
Body_Slices
 10
264.328810568
 20
262.637710761
 30
0.0
  0
VERTEX
  8
Body_Slices
 10
102.176270189
 20
262.637710761
 30
0.0
  0
VERTEX
  8
Body_Slices
 10
94.1262701892
 20
276.580719762
 30
0.0
  0
VERTEX
  8
Body_Slices
 10
175.202540378
 20
417.008939018
 30
0.0
  0
VERTEX
  8
Body_Slices
 10
191.302540378
 20
417.008939018
 30
0.0
  0
SEQEND
  8
Body_Slices
  0
CIRCLE
  8
Body_Slices
 62
0
 10
183.25460746
 20
264.257710761
 30
0.0
 40
0.99
  0
CIRCLE
  8
Body_Slices
 62
0
 10
102.791814646
 20
265.071556488
 30
0.0
 40
0.99
  0
CIRCLE
  8
Body_Slices
 62
0
 10
189.502540378
 20
415.258939018
 30
0.0
 40
0.99
  0
CIRCLE
  8
Body_Slices
 62
0
 10
220.740008971
 20
265.637710761
 30
0.0
 40
0.99
  0
CIRCLE
  8
Body_Slices
 62
0
 10
145.765071786
 20
265.637710761
 30
0.0
 40
0.99
  0
CIRCLE
  8
Body_Slices
 62
0
 10
118.379458829
 20
265.69950815
 30
0.0
 40
1.85
  0
CIRCLE
  8
Body_Slices
 62
0
 10
177.002540378
 20
415.258939018
 30
0.0
 40
0.99
  0
CIRCLE
  8
Body_Slices
 62
0
 10
196.752540378
 20
401.445667339
 30
0.0
 40
1.85
  0
CIRCLE
  8
Body_Slices
 62
0
 10
210.498864965
 20
377.759929515
 30
0.0
 40
0.99
  0
CIRCLE
  8
Body_Slices
 62
0
 10
104.879458829
 20
289.082194052
 30
0.0
 40
1.85
  0
POLYLINE
  8
Body_Slices
 62
0
 70
1
 66
1
 10
0.0
 20
0.0
 30
0.0
  0
VERTEX
  8
Body_Slices
 10
117.253184725
 20
269.637710761
 30
0.0
 42
-0.57735026919
  0
VERTEX
  8
Body_Slices
 10
107.726905284
 20
286.137710761
 30
0.0
  0
VERTEX
  8
Body_Slices
 10
173.726260937
 20
400.451948019
 30
0.0
 42
-0.57735026919
  0
VERTEX
  8
Body_Slices
 10
192.77881982
 20
400.451948019
 30
0.0
  0
VERTEX
  8
Body_Slices
 10
258.778175473
 20
286.137710761
 30
0.0
 42
-0.57735026919
  0
VERTEX
  8
Body_Slices
 10
249.251896031
 20
269.637710761
 30
0.0
  0
SEQEND
  8
Body_Slices
  0
CIRCLE
  8
Body_Slices
 62
0
 10
118.518747199
 20
312.829729265
 30
0.0
 40
0.99
  0
CIRCLE
  8
Body_Slices
 62
0
 10
169.752540378
 20
401.445667339
 30
0.0
 40
1.85
  0
CIRCLE
  8
Body_Slices
 62
0
 10
156.006215792
 20
377.759929515
 30
0.0
 40
0.99
  0
CIRCLE
  8
Body_Slices
 62
0
 10
269.963266111
 20
275.896874035
 30
0.0
 40
0.99
  0
CIRCLE
  8
Body_Slices
 62
0
 10
263.713266111
 20
265.071556488
 30
0.0
 40
0.99
  0
CIRCLE
  8
Body_Slices
 62
0
 10
248.125621928
 20
265.69950815
 30
0.0
 40
1.85
  0
CIRCLE
  8
Body_Slices
 62
0
 10
261.625621928
 20
289.082194052
 30
0.0
 40
1.85
  0
CIRCLE
  8
Body_Slices
 62
0
 10
230.436680778
 20
345.986619535
 30
0.0
 40
0.99
  0
CIRCLE
  8
Body_Slices
 62
0
 10
247.986333558
 20
312.829729265
 30
0.0
 40
0.99
  0
CIRCLE
  8
Body_Slices
 62
0
 10
136.066332897
 20
345.983039245
 30
0.0
 40
0.99
  0
CIRCLE
  8
Body_Slices
 62
0
 10
96.5418146458
 20
275.896874035
 30
0.0
 40
0.99
  0
POLYLINE
  8
Body_Slices
 62
0
 70
1
 66
1
 10
0.0
 20
0.0
 30
0.0
  0
VERTEX
  8
Body_Slices
 10
127.645489571
 20
298.637710761
 30
0.0
  0
VERTEX
  8
Body_Slices
 10
172.860235533
 20
376.951948019
 30
0.0
 42
-0.57735026919
  0
VERTEX
  8
Body_Slices
 10
193.644845224
 20
376.951948019
 30
0.0
  0
VERTEX
  8
Body_Slices
 10
238.859591186
 20
298.637710761
 30
0.0
 42
-0.57735026919
  0
VERTEX
  8
Body_Slices
 10
228.467286341
 20
280.637710761
 30
0.0
  0
VERTEX
  8
Body_Slices
 10
138.037794416
 20
280.637710761
 30
0.0
 42
-0.57735026919
  0
SEQEND
  8
Body_Slices
  0
CIRCLE
  8
Body_Slices
 62
0
 10
183.250473297
 20
286.017710761
 30
0.0
 40
0.99
  0
CIRCLE
  8
Body_Slices
 62
0
 10
154.913112765
 20
335.106619535
 30
0.0
 40
0.99
  0
CIRCLE
  8
Body_Slices
 62
0
 10
145.765071786
 20
284.637710761
 30
0.0
 40
0.99
  0
CIRCLE
  8
Body_Slices
 62
0
 10
172.460698463
 20
368.259929515
 30
0.0
 40
0.99
  0
CIRCLE
  8
Body_Slices
 62
0
 10
220.740008971
 20
284.637710761
 30
0.0
 40
0.99
  0
CIRCLE
  8
Body_Slices
 62
0
 10
134.973229871
 20
303.329729265
 30
0.0
 40
0.99
  0
CIRCLE
  8
Body_Slices
 62
0
 10
231.531850886
 20
303.329729265
 30
0.0
 40
0.99
  0
POLYLINE
  8
Body_Slices
 62
0
 70
1
 66
1
 10
0.0
 20
0.0
 30
0.0
  0
VERTEX
  8
Body_Slices
 10
179.252540378
 20
374.023744789
 30
0.0
  0
VERTEX
  8
Body_Slices
 10
133.377540378
 20
294.565913991
 30
0.0
  0
VERTEX
  8
Body_Slices
 10
137.377540378
 20
287.637710761
 30
0.0
  0
VERTEX
  8
Body_Slices
 10
229.127540378
 20
287.637710761
 30
0.0
  0
VERTEX
  8
Body_Slices
 10
233.127540378
 20
294.565913991
 30
0.0
  0
VERTEX
  8
Body_Slices
 10
187.252540378
 20
374.023744789
 30
0.0
  0
SEQEND
  8
Body_Slices
  0
CIRCLE
  8
Body_Slices
 62
0
 10
211.594035073
 20
335.103039245
 30
0.0
 40
0.99
  0
CIRCLE
  8
Body_Slices
 62
0
 10
194.044382293
 20
368.259929515
 30
0.0
 40
0.99
  0
ENDBLK
  0
ENDSEC
  0
SECTION
  2
ENTITIES
  0
INSERT
  2
MYLAYER
  8
Body_Slices
 62
0
 10
0.0
 20
0.0
 30
0.0
  0
INSERT
  2
MYLAYER005
  8
Body_Slices
 62
0
 10
0.0
 20
0.0
 30
0.0
  0
INSERT
  2
MYLAYER004
  8
Body_Slices
 62
0
 10
0.0
 20
0.0
 30
0.0
  0
INSERT
  2
MYLAYER002
  8
Body_Slices
 62
0
 10
0.0
 20
0.0
 30
0.0
  0
INSERT
  2
MYLAYER006
  8
Body_Slices
 62
0
 10
0.0
 20
0.0
 30
0.0
  0
INSERT
  2
MYLAYER001
  8
Body_Slices
 62
0
 10
0.0
 20
0.0
 30
0.0
  0
INSERT
  2
MYLAYER003
  8
Body_Slices
 62
0
 10
0.0
 20
0.0
 30
0.0
  0
INSERT
  2
MYLAYER007
  8
Body_Slices
 62
0
 10
0.0
 20
0.0
 30
0.0
  0
ENDSEC
  0
EOF
