  0
SECTION
  2
HEADER
  9
$ACADVER
  1
AC1014
  9
$HANDSEED
  5
FFFF
  9
$MEASUREMENT
 70
     1
  0
ENDSEC
  0
SECTION
  2
TABLES
  0
TABLE
  2
VPORT
  5
8
330
0
100
AcDbSymbolTable
 70
     4
  0
VPORT
  5
2E
330
8
100
AcDbSymbolTableRecord
100
AcDbViewportTableRecord
  2
*ACTIVE
 70
     0
 10
0.0
 20
0.0
 11
1.0
 21
1.0
 12
210.0
 22
148.5
 13
0.0
 23
0.0
 14
10.0
 24
10.0
 15
10.0
 25
10.0
 16
0.0
 26
0.0
 36
1.0
 17
0.0
 27
0.0
 37
0.0
 40
341.0
 41
1.24
 42
50.0
 43
0.0
 44
0.0
 50
0.0
 51
0.0
 71
     0
 72
   100
 73
     1
 74
     3
 75
     0
 76
     0
 77
     0
 78
     0
  0
ENDTAB
  0
TABLE
  2
LTYPE
  5
5
330
0
100
AcDbSymbolTable
 70
     1
  0
LTYPE
  5
14
330
5
100
AcDbSymbolTableRecord
100
AcDbLinetypeTableRecord
  2
BYBLOCK
 70
     0
  3

 72
    65
 73
     0
 40
0.0
  0
LTYPE
  5
15
330
5
100
AcDbSymbolTableRecord
100
AcDbLinetypeTableRecord
  2
BYLAYER
 70
     0
  3

 72
    65
 73
     0
 40
0.0
  0
LTYPE
  5
16
330
5
100
AcDbSymbolTableRecord
100
AcDbLinetypeTableRecord
  2
CONTINUOUS
 70
     0
  3
Solid line
 72
    65
 73
     0
 40
0.0
  0
ENDTAB
  0
TABLE
  2
LAYER
  5
2
100
AcDbSymbolTable
 70
1
  0
LAYER
  5
50
100
AcDbSymbolTableRecord
100
AcDbLayerTableRecord
  2
0
 70
0
  6
CONTINUOUS
  0
ENDTAB
  0
TABLE
  2
STYLE
  5
3
330
0
100
AcDbSymbolTable
 70
     1
  0
STYLE
  5
11
330
3
100
AcDbSymbolTableRecord
100
AcDbTextStyleTableRecord
  2
STANDARD
 70
     0
 40
0.0
 41
1.0
 50
0.0
 71
     0
 42
2.5
  3
txt
  4

  0
ENDTAB
  0
TABLE
  2
VIEW
  5
6
330
0
100
AcDbSymbolTable
 70
     0
  0
ENDTAB
  0
TABLE
  2
UCS
  5
7
330
0
100
AcDbSymbolTable
 70
     0
  0
ENDTAB
  0
TABLE
  2
APPID
  5
9
330
0
100
AcDbSymbolTable
 70
     2
  0
APPID
  5
12
330
9
100
AcDbSymbolTableRecord
100
AcDbRegAppTableRecord
  2
ACAD
 70
     0
  0
ENDTAB
  0
TABLE
  2
DIMSTYLE
  5
A
330
0
100
AcDbSymbolTable
 70
     1
  0
DIMSTYLE
105
27
330
A
100
AcDbSymbolTableRecord
100
AcDbDimStyleTableRecord
  2
ISO-25
 70
     0
  3

  4

  5

  6

  7

 40
1.0
 41
2.5
 42
0.625
 43
3.75
 44
1.25
 45
0.0
 46
0.0
 47
0.0
 48
0.0
140
2.5
141
2.5
142
0.0
143
0.03937007874016
144
1.0
145
0.0
146
1.0
147
0.625
 71
     0
 72
     0
 73
     0
 74
     0
 75
     0
 76
     0
 77
     1
 78
     8
170
     0
171
     3
172
     1
173
     0
174
     0
175
     0
176
     0
177
     0
178
     0
270
     2
271
     2
272
     2
273
     2
274
     3
340
11
275
     0
280
     0
281
     0
282
     0
283
     0
284
     8
285
     0
286
     0
287
     3
288
     0
  0
ENDTAB
  0
TABLE
  2
BLOCK_RECORD
  5
1
330
0
100
AcDbSymbolTable
 70
     1
  0
BLOCK_RECORD
  5
1F
330
1
100
AcDbSymbolTableRecord
100
AcDbBlockTableRecord
  2
*MODEL_SPACE
  0
BLOCK_RECORD
  5
1B
330
1
100
AcDbSymbolTableRecord
100
AcDbBlockTableRecord
  2
*PAPER_SPACE
  0
ENDTAB
  0
ENDSEC
  0
SECTION
  2
BLOCKS
  0
BLOCK
  5
20
330
1F
100
AcDbEntity
  8
0
100
AcDbBlockBegin
  2
*MODEL_SPACE
 70
     0
 10
0.0
 20
0.0
 30
0.0
  3
*MODEL_SPACE
  1

  0
ENDBLK
  5
21
330
1F
100
AcDbEntity
  8
0
100
AcDbBlockEnd
  0
BLOCK
  5
1C
330
1B
100
AcDbEntity
 67
     1
  8
0
100
AcDbBlockBegin
  2
*PAPER_SPACE
  1

  0
ENDBLK
  5
1D
330
1B
100
AcDbEntity
 67
     1
  8
0
100
AcDbBlockEnd
  0
ENDSEC
  0
SECTION
  2
ENTITIES
  0
LINE
  5
100
100
AcDbEntity
  8
0
 62
7
100
AcDbLine
 10
122.988480
 20
108.125969
 30
0.0
 11
114.938480
 21
94.182959
 31
0.0
  0
LINE
  5
101
100
AcDbEntity
  8
0
 62
7
100
AcDbLine
 10
114.938480
 20
94.182959
 30
0.0
 11
-47.214053
 21
94.182961
 31
0.0
  0
LINE
  5
102
100
AcDbEntity
  8
0
 62
7
100
AcDbLine
 10
-47.214053
 20
94.182961
 30
0.0
 11
-55.264052
 21
108.125971
 31
0.0
  0
LINE
  5
103
100
AcDbEntity
  8
0
 62
7
100
AcDbLine
 10
-55.264052
 20
108.125971
 30
0.0
 11
25.812221
 21
248.554188
 31
0.0
  0
LINE
  5
104
100
AcDbEntity
  8
0
 62
7
100
AcDbLine
 10
25.812221
 20
248.554188
 30
0.0
 11
41.912222
 21
248.554189
 31
0.0
  0
LINE
  5
105
100
AcDbEntity
  8
0
 62
7
100
AcDbLine
 10
41.912222
 20
248.554189
 30
0.0
 11
122.988480
 21
108.125969
 31
0.0
  0
SPLINE
  5
106
100
AcDbEntity
  8
0
 62
7
100
AcDbSpline
 70
8
 71
3
 72
8
 73
4
 74
0
 40
0
 40
0
 40
0
 40
0
 40
1
 40
1
 40
1
 40
1
 10
114.085340
 20
120.627450
 30
0.0
 10
114.085340
 20
119.966509
 30
0.0
 10
113.732732
 20
119.355774
 30
0.0
 10
113.160340
 20
119.025303
 30
0.0
  0
SPLINE
  5
107
100
AcDbEntity
  8
0
 62
7
100
AcDbSpline
 70
8
 71
3
 72
8
 73
4
 74
0
 40
0
 40
0
 40
0
 40
0
 40
1
 40
1
 40
1
 40
1
 10
113.160340
 20
119.025303
 30
0.0
 10
112.587948
 20
118.694833
 30
0.0
 10
111.882732
 20
118.694833
 30
0.0
 10
111.310340
 20
119.025303
 30
0.0
  0
SPLINE
  5
108
100
AcDbEntity
  8
0
 62
7
100
AcDbSpline
 70
8
 71
3
 72
8
 73
4
 74
0
 40
0
 40
0
 40
0
 40
0
 40
1
 40
1
 40
1
 40
1
 10
111.310340
 20
119.025303
 30
0.0
 10
110.737948
 20
119.355774
 30
0.0
 10
110.385340
 20
119.966509
 30
0.0
 10
110.385340
 20
120.627450
 30
0.0
  0
SPLINE
  5
109
100
AcDbEntity
  8
0
 62
7
100
AcDbSpline
 70
8
 71
3
 72
8
 73
4
 74
0
 40
0
 40
0
 40
0
 40
0
 40
1
 40
1
 40
1
 40
1
 10
110.385340
 20
120.627450
 30
0.0
 10
110.385340
 20
121.288392
 30
0.0
 10
110.737948
 20
121.899127
 30
0.0
 10
111.310340
 20
122.229597
 30
0.0
  0
SPLINE
  5
10a
100
AcDbEntity
  8
0
 62
7
100
AcDbSpline
 70
8
 71
3
 72
8
 73
4
 74
0
 40
0
 40
0
 40
0
 40
0
 40
1
 40
1
 40
1
 40
1
 10
111.310340
 20
122.229597
 30
0.0
 10
111.882732
 20
122.560068
 30
0.0
 10
112.587948
 20
122.560068
 30
0.0
 10
113.160340
 20
122.229597
 30
0.0
  0
SPLINE
  5
10b
100
AcDbEntity
  8
0
 62
7
100
AcDbSpline
 70
8
 71
3
 72
8
 73
4
 74
0
 40
0
 40
0
 40
0
 40
0
 40
1
 40
1
 40
1
 40
1
 10
113.160340
 20
122.229597
 30
0.0
 10
113.732732
 20
121.899127
 30
0.0
 10
114.085340
 20
121.288392
 30
0.0
 10
114.085340
 20
120.627450
 30
0.0
  0
LINE
  5
10c
100
AcDbEntity
  8
0
 62
7
100
AcDbLine
 10
114.085340
 20
120.627450
 30
0.0
 11
114.085340
 21
120.627450
 31
0.0
  0
SPLINE
  5
10d
100
AcDbEntity
  8
0
 62
7
100
AcDbSpline
 70
8
 71
3
 72
8
 73
4
 74
0
 40
0
 40
0
 40
0
 40
0
 40
1
 40
1
 40
1
 40
1
 10
22.212215
 20
232.990918
 30
0.0
 10
22.212215
 20
231.969192
 30
0.0
 10
21.383942
 20
231.140918
 30
0.0
 10
20.362215
 20
231.140918
 30
0.0
  0
SPLINE
  5
10e
100
AcDbEntity
  8
0
 62
7
100
AcDbSpline
 70
8
 71
3
 72
8
 73
4
 74
0
 40
0
 40
0
 40
0
 40
0
 40
1
 40
1
 40
1
 40
1
 10
20.362215
 20
231.140918
 30
0.0
 10
19.340488
 20
231.140918
 30
0.0
 10
18.512215
 20
231.969192
 30
0.0
 10
18.512215
 20
232.990918
 30
0.0
  0
SPLINE
  5
10f
100
AcDbEntity
  8
0
 62
7
100
AcDbSpline
 70
8
 71
3
 72
8
 73
4
 74
0
 40
0
 40
0
 40
0
 40
0
 40
1
 40
1
 40
1
 40
1
 10
18.512215
 20
232.990918
 30
0.0
 10
18.512215
 20
233.651860
 30
0.0
 10
18.864823
 20
234.262595
 30
0.0
 10
19.437215
 20
234.593065
 30
0.0
  0
SPLINE
  5
110
100
AcDbEntity
  8
0
 62
7
100
AcDbSpline
 70
8
 71
3
 72
8
 73
4
 74
0
 40
0
 40
0
 40
0
 40
0
 40
1
 40
1
 40
1
 40
1
 10
19.437215
 20
234.593065
 30
0.0
 10
20.009607
 20
234.923536
 30
0.0
 10
20.714823
 20
234.923536
 30
0.0
 10
21.287215
 20
234.593065
 30
0.0
  0
SPLINE
  5
111
100
AcDbEntity
  8
0
 62
7
100
AcDbSpline
 70
8
 71
3
 72
8
 73
4
 74
0
 40
0
 40
0
 40
0
 40
0
 40
1
 40
1
 40
1
 40
1
 10
21.287215
 20
234.593065
 30
0.0
 10
21.859607
 20
234.262595
 30
0.0
 10
22.212215
 20
233.651860
 30
0.0
 10
22.212215
 20
232.990918
 30
0.0
  0
LINE
  5
112
100
AcDbEntity
  8
0
 62
7
100
AcDbLine
 10
22.212215
 20
232.990918
 30
0.0
 11
22.212215
 21
232.990918
 31
0.0
  0
SPLINE
  5
113
100
AcDbEntity
  8
0
 62
7
100
AcDbSpline
 70
8
 71
3
 72
8
 73
4
 74
0
 40
0
 40
0
 40
0
 40
0
 40
1
 40
1
 40
1
 40
1
 10
49.212213
 20
232.990918
 30
0.0
 10
49.212213
 20
232.329977
 30
0.0
 10
48.859605
 20
231.719242
 30
0.0
 10
48.287213
 20
231.388771
 30
0.0
  0
SPLINE
  5
114
100
AcDbEntity
  8
0
 62
7
100
AcDbSpline
 70
8
 71
3
 72
8
 73
4
 74
0
 40
0
 40
0
 40
0
 40
0
 40
1
 40
1
 40
1
 40
1
 10
48.287213
 20
231.388771
 30
0.0
 10
47.714821
 20
231.058301
 30
0.0
 10
47.009605
 20
231.058301
 30
0.0
 10
46.437213
 20
231.388771
 30
0.0
  0
SPLINE
  5
115
100
AcDbEntity
  8
0
 62
7
100
AcDbSpline
 70
8
 71
3
 72
8
 73
4
 74
0
 40
0
 40
0
 40
0
 40
0
 40
1
 40
1
 40
1
 40
1
 10
46.437213
 20
231.388771
 30
0.0
 10
45.864821
 20
231.719242
 30
0.0
 10
45.512213
 20
232.329977
 30
0.0
 10
45.512213
 20
232.990918
 30
0.0
  0
SPLINE
  5
116
100
AcDbEntity
  8
0
 62
7
100
AcDbSpline
 70
8
 71
3
 72
8
 73
4
 74
0
 40
0
 40
0
 40
0
 40
0
 40
1
 40
1
 40
1
 40
1
 10
45.512213
 20
232.990918
 30
0.0
 10
45.512213
 20
233.651860
 30
0.0
 10
45.864821
 20
234.262595
 30
0.0
 10
46.437213
 20
234.593065
 30
0.0
  0
SPLINE
  5
117
100
AcDbEntity
  8
0
 62
7
100
AcDbSpline
 70
8
 71
3
 72
8
 73
4
 74
0
 40
0
 40
0
 40
0
 40
0
 40
1
 40
1
 40
1
 40
1
 10
46.437213
 20
234.593065
 30
0.0
 10
47.009605
 20
234.923536
 30
0.0
 10
47.714821
 20
234.923536
 30
0.0
 10
48.287213
 20
234.593065
 30
0.0
  0
SPLINE
  5
118
100
AcDbEntity
  8
0
 62
7
100
AcDbSpline
 70
8
 71
3
 72
8
 73
4
 74
0
 40
0
 40
0
 40
0
 40
0
 40
1
 40
1
 40
1
 40
1
 10
48.287213
 20
234.593065
 30
0.0
 10
48.859605
 20
234.262595
 30
0.0
 10
49.212213
 20
233.651860
 30
0.0
 10
49.212213
 20
232.990918
 30
0.0
  0
LINE
  5
119
100
AcDbEntity
  8
0
 62
7
100
AcDbLine
 10
49.212213
 20
232.990918
 30
0.0
 11
49.212213
 21
232.990918
 31
0.0
  0
LINE
  5
11a
100
AcDbEntity
  8
0
 62
7
100
AcDbLine
 10
29.862216
 20
205.569003
 30
0.0
 11
-16.012782
 21
126.111161
 31
0.0
  0
LINE
  5
11b
100
AcDbEntity
  8
0
 62
7
100
AcDbLine
 10
-16.012782
 20
126.111161
 30
0.0
 11
-12.012783
 21
119.182961
 31
0.0
  0
LINE
  5
11c
100
AcDbEntity
  8
0
 62
7
100
AcDbLine
 10
-12.012783
 20
119.182961
 30
0.0
 11
79.737214
 21
119.182961
 31
0.0
  0
LINE
  5
11d
100
AcDbEntity
  8
0
 62
7
100
AcDbLine
 10
79.737214
 20
119.182961
 30
0.0
 11
83.737214
 21
126.111160
 31
0.0
  0
LINE
  5
11e
100
AcDbEntity
  8
0
 62
7
100
AcDbLine
 10
83.737214
 20
126.111160
 30
0.0
 11
37.862216
 21
205.569003
 31
0.0
  0
LINE
  5
11f
100
AcDbEntity
  8
0
 62
7
100
AcDbLine
 10
37.862216
 20
205.569003
 30
0.0
 11
29.862216
 21
205.569003
 31
0.0
  0
SPLINE
  5
120
100
AcDbEntity
  8
0
 62
7
100
AcDbSpline
 70
8
 71
3
 72
8
 73
4
 74
0
 40
0
 40
0
 40
0
 40
0
 40
1
 40
1
 40
1
 40
1
 10
-42.660868
 20
120.627450
 30
0.0
 10
-42.660868
 20
119.966509
 30
0.0
 10
-43.013476
 20
119.355774
 30
0.0
 10
-43.585868
 20
119.025303
 30
0.0
  0
SPLINE
  5
121
100
AcDbEntity
  8
0
 62
7
100
AcDbSpline
 70
8
 71
3
 72
8
 73
4
 74
0
 40
0
 40
0
 40
0
 40
0
 40
1
 40
1
 40
1
 40
1
 10
-43.585868
 20
119.025303
 30
0.0
 10
-44.158260
 20
118.694833
 30
0.0
 10
-44.863476
 20
118.694833
 30
0.0
 10
-45.435868
 20
119.025303
 30
0.0
  0
SPLINE
  5
122
100
AcDbEntity
  8
0
 62
7
100
AcDbSpline
 70
8
 71
3
 72
8
 73
4
 74
0
 40
0
 40
0
 40
0
 40
0
 40
1
 40
1
 40
1
 40
1
 10
-45.435868
 20
119.025303
 30
0.0
 10
-46.008260
 20
119.355774
 30
0.0
 10
-46.360868
 20
119.966509
 30
0.0
 10
-46.360868
 20
120.627450
 30
0.0
  0
SPLINE
  5
123
100
AcDbEntity
  8
0
 62
7
100
AcDbSpline
 70
8
 71
3
 72
8
 73
4
 74
0
 40
0
 40
0
 40
0
 40
0
 40
1
 40
1
 40
1
 40
1
 10
-46.360868
 20
120.627450
 30
0.0
 10
-46.360868
 20
121.649177
 30
0.0
 10
-45.532595
 20
122.477450
 30
0.0
 10
-44.510868
 20
122.477450
 30
0.0
  0
SPLINE
  5
124
100
AcDbEntity
  8
0
 62
7
100
AcDbSpline
 70
8
 71
3
 72
8
 73
4
 74
0
 40
0
 40
0
 40
0
 40
0
 40
1
 40
1
 40
1
 40
1
 10
-44.510868
 20
122.477450
 30
0.0
 10
-43.489141
 20
122.477450
 30
0.0
 10
-42.660868
 20
121.649177
 30
0.0
 10
-42.660868
 20
120.627450
 30
0.0
  0
LINE
  5
125
100
AcDbEntity
  8
0
 62
7
100
AcDbLine
 10
-42.660868
 20
120.627450
 30
0.0
 11
-42.660868
 21
120.627450
 31
0.0
  0
SPLINE
  5
126
100
AcDbEntity
  8
0
 62
7
100
AcDbSpline
 70
8
 71
3
 72
8
 73
4
 74
0
 40
0
 40
0
 40
0
 40
0
 40
1
 40
1
 40
1
 40
1
 10
100.585321
 20
97.244759
 30
0.0
 10
100.585321
 20
96.583818
 30
0.0
 10
100.232713
 20
95.973083
 30
0.0
 10
99.660321
 20
95.642612
 30
0.0
  0
SPLINE
  5
127
100
AcDbEntity
  8
0
 62
7
100
AcDbSpline
 70
8
 71
3
 72
8
 73
4
 74
0
 40
0
 40
0
 40
0
 40
0
 40
1
 40
1
 40
1
 40
1
 10
99.660321
 20
95.642612
 30
0.0
 10
99.087929
 20
95.312142
 30
0.0
 10
98.382713
 20
95.312142
 30
0.0
 10
97.810321
 20
95.642612
 30
0.0
  0
SPLINE
  5
128
100
AcDbEntity
  8
0
 62
7
100
AcDbSpline
 70
8
 71
3
 72
8
 73
4
 74
0
 40
0
 40
0
 40
0
 40
0
 40
1
 40
1
 40
1
 40
1
 10
97.810321
 20
95.642612
 30
0.0
 10
97.237929
 20
95.973083
 30
0.0
 10
96.885321
 20
96.583818
 30
0.0
 10
96.885321
 20
97.244759
 30
0.0
  0
SPLINE
  5
129
100
AcDbEntity
  8
0
 62
7
100
AcDbSpline
 70
8
 71
3
 72
8
 73
4
 74
0
 40
0
 40
0
 40
0
 40
0
 40
1
 40
1
 40
1
 40
1
 10
96.885321
 20
97.244759
 30
0.0
 10
96.885321
 20
97.905701
 30
0.0
 10
97.237929
 20
98.516436
 30
0.0
 10
97.810321
 20
98.846906
 30
0.0
  0
SPLINE
  5
12a
100
AcDbEntity
  8
0
 62
7
100
AcDbSpline
 70
8
 71
3
 72
8
 73
4
 74
0
 40
0
 40
0
 40
0
 40
0
 40
1
 40
1
 40
1
 40
1
 10
97.810321
 20
98.846906
 30
0.0
 10
98.382713
 20
99.177377
 30
0.0
 10
99.087929
 20
99.177377
 30
0.0
 10
99.660321
 20
98.846906
 30
0.0
  0
SPLINE
  5
12b
100
AcDbEntity
  8
0
 62
7
100
AcDbSpline
 70
8
 71
3
 72
8
 73
4
 74
0
 40
0
 40
0
 40
0
 40
0
 40
1
 40
1
 40
1
 40
1
 10
99.660321
 20
98.846906
 30
0.0
 10
100.232713
 20
98.516436
 30
0.0
 10
100.585321
 20
97.905701
 30
0.0
 10
100.585321
 20
97.244759
 30
0.0
  0
LINE
  5
12c
100
AcDbEntity
  8
0
 62
7
100
AcDbLine
 10
100.585321
 20
97.244759
 30
0.0
 11
100.585321
 21
97.244759
 31
0.0
  0
SPLINE
  5
12d
100
AcDbEntity
  8
0
 62
7
100
AcDbSpline
 70
8
 71
3
 72
8
 73
4
 74
0
 40
0
 40
0
 40
0
 40
0
 40
1
 40
1
 40
1
 40
1
 10
-29.160860
 20
97.244759
 30
0.0
 10
-29.160860
 20
96.583818
 30
0.0
 10
-29.513468
 20
95.973083
 30
0.0
 10
-30.085860
 20
95.642612
 30
0.0
  0
SPLINE
  5
12e
100
AcDbEntity
  8
0
 62
7
100
AcDbSpline
 70
8
 71
3
 72
8
 73
4
 74
0
 40
0
 40
0
 40
0
 40
0
 40
1
 40
1
 40
1
 40
1
 10
-30.085860
 20
95.642612
 30
0.0
 10
-30.658252
 20
95.312142
 30
0.0
 10
-31.363468
 20
95.312142
 30
0.0
 10
-31.935860
 20
95.642612
 30
0.0
  0
SPLINE
  5
12f
100
AcDbEntity
  8
0
 62
7
100
AcDbSpline
 70
8
 71
3
 72
8
 73
4
 74
0
 40
0
 40
0
 40
0
 40
0
 40
1
 40
1
 40
1
 40
1
 10
-31.935860
 20
95.642612
 30
0.0
 10
-32.508252
 20
95.973083
 30
0.0
 10
-32.860860
 20
96.583818
 30
0.0
 10
-32.860860
 20
97.244759
 30
0.0
  0
SPLINE
  5
130
100
AcDbEntity
  8
0
 62
7
100
AcDbSpline
 70
8
 71
3
 72
8
 73
4
 74
0
 40
0
 40
0
 40
0
 40
0
 40
1
 40
1
 40
1
 40
1
 10
-32.860860
 20
97.244759
 30
0.0
 10
-32.860860
 20
97.905701
 30
0.0
 10
-32.508252
 20
98.516436
 30
0.0
 10
-31.935860
 20
98.846906
 30
0.0
  0
SPLINE
  5
131
100
AcDbEntity
  8
0
 62
7
100
AcDbSpline
 70
8
 71
3
 72
8
 73
4
 74
0
 40
0
 40
0
 40
0
 40
0
 40
1
 40
1
 40
1
 40
1
 10
-31.935860
 20
98.846906
 30
0.0
 10
-31.363468
 20
99.177377
 30
0.0
 10
-30.658252
 20
99.177377
 30
0.0
 10
-30.085860
 20
98.846906
 30
0.0
  0
SPLINE
  5
132
100
AcDbEntity
  8
0
 62
7
100
AcDbSpline
 70
8
 71
3
 72
8
 73
4
 74
0
 40
0
 40
0
 40
0
 40
0
 40
1
 40
1
 40
1
 40
1
 10
-30.085860
 20
98.846906
 30
0.0
 10
-29.513468
 20
98.516436
 30
0.0
 10
-29.160860
 20
97.905701
 30
0.0
 10
-29.160860
 20
97.244759
 30
0.0
  0
LINE
  5
133
100
AcDbEntity
  8
0
 62
7
100
AcDbLine
 10
-29.160860
 20
97.244759
 30
0.0
 11
-29.160860
 21
97.244759
 31
0.0
  0
SPLINE
  5
134
100
AcDbEntity
  8
0
 62
5
100
AcDbSpline
 70
8
 71
3
 72
8
 73
4
 74
0
 40
0
 40
0
 40
0
 40
0
 40
1
 40
1
 40
1
 40
1
 10
-43.331699
 20
103.876351
 30
0.0
 10
-43.275557
 20
103.779108
 30
0.0
 10
-43.160374
 20
103.761912
 30
0.0
 10
-43.054227
 20
103.798505
 30
0.0
  0
LINE
  5
135
100
AcDbEntity
  8
0
 62
5
100
AcDbLine
 10
-43.054227
 20
103.798505
 30
0.0
 11
-39.941535
 21
104.870345
 31
0.0
  0
LINE
  5
136
100
AcDbEntity
  8
0
 62
5
100
AcDbLine
 10
-39.941535
 20
104.870345
 30
0.0
 11
-37.795643
 21
103.224839
 31
0.0
  0
LINE
  5
137
100
AcDbEntity
  8
0
 62
5
100
AcDbLine
 10
-37.795643
 20
103.224839
 30
0.0
 11
-38.023632
 21
99.937439
 31
0.0
  0
SPLINE
  5
138
100
AcDbEntity
  8
0
 62
5
100
AcDbSpline
 70
8
 71
3
 72
8
 73
4
 74
0
 40
0
 40
0
 40
0
 40
0
 40
1
 40
1
 40
1
 40
1
 10
-38.023632
 20
99.937439
 30
0.0
 10
-38.052721
 20
99.829027
 30
0.0
 10
-37.988254
 20
99.717389
 30
0.0
 10
-37.879799
 20
99.688313
 30
0.0
  0
LINE
  5
139
100
AcDbEntity
  8
0
 62
5
100
AcDbLine
 10
-37.879799
 20
99.688313
 30
0.0
 11
-34.790784
 21
98.864127
 31
0.0
  0
SPLINE
  5
13a
100
AcDbEntity
  8
0
 62
5
100
AcDbSpline
 70
8
 71
3
 72
8
 73
4
 74
0
 40
0
 40
0
 40
0
 40
0
 40
1
 40
1
 40
1
 40
1
 10
-34.790784
 20
98.864127
 30
0.0
 10
-34.682352
 20
98.835113
 30
0.0
 10
-34.590835
 20
98.907001
 30
0.0
 10
-34.541648
 20
99.007967
 30
0.0
  0
LINE
  5
13b
100
AcDbEntity
  8
0
 62
5
100
AcDbLine
 10
-34.541648
 20
99.007967
 30
0.0
 11
-33.099567
 21
101.966516
 31
0.0
  0
LINE
  5
13c
100
AcDbEntity
  8
0
 62
5
100
AcDbLine
 10
-33.099567
 20
101.966516
 30
0.0
 11
-30.414252
 21
102.321024
 31
0.0
  0
LINE
  5
13d
100
AcDbEntity
  8
0
 62
5
100
AcDbLine
 10
-30.414252
 20
102.321024
 30
0.0
 11
-28.254506
 21
99.836432
 31
0.0
  0
SPLINE
  5
13e
100
AcDbEntity
  8
0
 62
5
100
AcDbSpline
 70
8
 71
3
 72
8
 73
4
 74
0
 40
0
 40
0
 40
0
 40
0
 40
1
 40
1
 40
1
 40
1
 10
-28.254506
 20
99.836432
 30
0.0
 10
-28.198368
 20
99.739199
 30
0.0
 10
-28.074255
 20
99.702431
 30
0.0
 10
-27.977023
 20
99.758568
 30
0.0
  0
LINE
  5
13f
100
AcDbEntity
  8
0
 62
5
100
AcDbLine
 10
-27.977023
 20
99.758568
 30
0.0
 11
-25.207448
 21
101.357583
 31
0.0
  0
SPLINE
  5
140
100
AcDbEntity
  8
0
 62
5
100
AcDbSpline
 70
8
 71
3
 72
8
 73
4
 74
0
 40
0
 40
0
 40
0
 40
0
 40
1
 40
1
 40
1
 40
1
 10
-25.207448
 20
101.357583
 30
0.0
 10
-25.110236
 20
101.413758
 30
0.0
 10
-25.099570
 20
101.530660
 30
0.0
 10
-25.136140
 20
101.636821
 30
0.0
  0
LINE
  5
141
100
AcDbEntity
  8
0
 62
5
100
AcDbLine
 10
-25.136140
 20
101.636821
 30
0.0
 11
-26.205587
 21
104.745358
 31
0.0
  0
LINE
  5
142
100
AcDbEntity
  8
0
 62
5
100
AcDbLine
 10
-26.205587
 20
104.745358
 30
0.0
 11
-24.554164
 21
106.900207
 31
0.0
  0
LINE
  5
143
100
AcDbEntity
  8
0
 62
5
100
AcDbLine
 10
-24.554164
 20
106.900207
 30
0.0
 11
-21.270944
 21
106.669811
 31
0.0
  0
SPLINE
  5
144
100
AcDbEntity
  8
0
 62
5
100
AcDbSpline
 70
8
 71
3
 72
8
 73
4
 74
0
 40
0
 40
0
 40
0
 40
0
 40
1
 40
1
 40
1
 40
1
 10
-21.270944
 20
106.669811
 30
0.0
 10
-21.162521
 20
106.640791
 30
0.0
 10
-21.055050
 20
106.702840
 30
0.0
 10
-21.025958
 20
106.811254
 30
0.0
  0
LINE
  5
145
100
AcDbEntity
  8
0
 62
5
100
AcDbLine
 10
-21.025958
 20
106.811254
 30
0.0
 11
-20.195218
 21
109.898510
 31
0.0
  0
SPLINE
  5
146
100
AcDbEntity
  8
0
 62
5
100
AcDbSpline
 70
8
 71
3
 72
8
 73
4
 74
0
 40
0
 40
0
 40
0
 40
0
 40
1
 40
1
 40
1
 40
1
 10
-20.195218
 20
109.898510
 30
0.0
 10
-20.166184
 20
110.007017
 30
0.0
 10
-20.238153
 20
110.098480
 30
0.0
 10
-20.339051
 20
110.147637
 30
0.0
  0
LINE
  5
147
100
AcDbEntity
  8
0
 62
5
100
AcDbLine
 10
-20.339051
 20
110.147637
 30
0.0
 11
-23.297612
 21
111.589729
 31
0.0
  0
LINE
  5
148
100
AcDbEntity
  8
0
 62
5
100
AcDbLine
 10
-23.297612
 20
111.589729
 30
0.0
 11
-23.479835
 21
112.979349
 31
0.0
  0
LINE
  5
149
100
AcDbEntity
  8
0
 62
5
100
AcDbLine
 10
-23.479835
 20
112.979349
 30
0.0
 11
-29.462524
 21
112.160557
 31
0.0
  0
SPLINE
  5
14a
100
AcDbEntity
  8
0
 62
5
100
AcDbSpline
 70
8
 71
3
 72
8
 73
4
 74
0
 40
0
 40
0
 40
0
 40
0
 40
1
 40
1
 40
1
 40
1
 10
-29.462524
 20
112.160557
 30
0.0
 10
-29.272669
 20
110.762446
 30
0.0
 10
-29.921910
 20
109.326442
 30
0.0
 10
-31.219393
 20
108.577340
 30
0.0
  0
SPLINE
  5
14b
100
AcDbEntity
  8
0
 62
5
100
AcDbSpline
 70
8
 71
3
 72
8
 73
4
 74
0
 40
0
 40
0
 40
0
 40
0
 40
1
 40
1
 40
1
 40
1
 10
-31.219393
 20
108.577340
 30
0.0
 10
-32.932616
 20
107.588210
 30
0.0
 10
-35.122816
 20
108.175070
 30
0.0
 10
-36.111951
 20
109.888302
 30
0.0
  0
SPLINE
  5
14c
100
AcDbEntity
  8
0
 62
5
100
AcDbSpline
 70
8
 71
3
 72
8
 73
4
 74
0
 40
0
 40
0
 40
0
 40
0
 40
1
 40
1
 40
1
 40
1
 10
-36.111951
 20
109.888302
 30
0.0
 10
-37.101069
 20
111.601505
 30
0.0
 10
-36.514221
 20
113.791733
 30
0.0
 10
-34.800998
 20
114.780862
 30
0.0
  0
SPLINE
  5
14d
100
AcDbEntity
  8
0
 62
5
100
AcDbSpline
 70
8
 71
3
 72
8
 73
4
 74
0
 40
0
 40
0
 40
0
 40
0
 40
1
 40
1
 40
1
 40
1
 10
-34.800998
 20
114.780862
 30
0.0
 10
-33.503515
 20
115.529964
 30
0.0
 10
-31.935279
 20
115.374222
 30
0.0
 10
-30.819406
 20
114.510747
 30
0.0
  0
LINE
  5
14e
100
AcDbEntity
  8
0
 62
5
100
AcDbLine
 10
-30.819406
 20
114.510747
 30
0.0
 11
-27.118968
 21
119.282511
 31
0.0
  0
LINE
  5
14f
100
AcDbEntity
  8
0
 62
5
100
AcDbLine
 10
-27.118968
 20
119.282511
 30
0.0
 11
-28.231303
 21
120.135131
 31
0.0
  0
LINE
  5
150
100
AcDbEntity
  8
0
 62
5
100
AcDbLine
 10
-28.231303
 20
120.135131
 30
0.0
 11
-28.000905
 21
123.418357
 31
0.0
  0
SPLINE
  5
151
100
AcDbEntity
  8
0
 62
5
100
AcDbSpline
 70
8
 71
3
 72
8
 73
4
 74
0
 40
0
 40
0
 40
0
 40
0
 40
1
 40
1
 40
1
 40
1
 10
-28.000905
 20
123.418357
 30
0.0
 10
-27.971816
 20
123.526769
 30
0.0
 10
-28.036295
 20
123.638450
 30
0.0
 10
-28.144738
 20
123.667483
 30
0.0
  0
LINE
  5
152
100
AcDbEntity
  8
0
 62
5
100
AcDbLine
 10
-28.144738
 20
123.667483
 30
0.0
 11
-31.233756
 21
124.491679
 31
0.0
  0
SPLINE
  5
153
100
AcDbEntity
  8
0
 62
5
100
AcDbSpline
 70
8
 71
3
 72
8
 73
4
 74
0
 40
0
 40
0
 40
0
 40
0
 40
1
 40
1
 40
1
 40
1
 10
-31.233756
 20
124.491679
 30
0.0
 10
-31.342243
 20
124.520787
 30
0.0
 10
-31.429555
 20
124.451202
 30
0.0
 10
-31.478742
 20
124.350236
 30
0.0
  0
LINE
  5
154
100
AcDbEntity
  8
0
 62
5
100
AcDbLine
 10
-31.478742
 20
124.350236
 30
0.0
 11
-32.920819
 21
121.391677
 31
0.0
  0
LINE
  5
155
100
AcDbEntity
  8
0
 62
5
100
AcDbLine
 10
-32.920819
 20
121.391677
 30
0.0
 11
-35.612678
 21
121.038918
 31
0.0
  0
LINE
  5
156
100
AcDbEntity
  8
0
 62
5
100
AcDbLine
 10
-35.612678
 20
121.038918
 30
0.0
 11
-37.772433
 21
123.523524
 31
0.0
  0
SPLINE
  5
157
100
AcDbEntity
  8
0
 62
5
100
AcDbSpline
 70
8
 71
3
 72
8
 73
4
 74
0
 40
0
 40
0
 40
0
 40
0
 40
1
 40
1
 40
1
 40
1
 10
-37.772433
 20
123.523524
 30
0.0
 10
-37.828555
 20
123.620729
 30
0.0
 10
-37.950286
 20
123.653370
 30
0.0
 10
-38.047517
 20
123.597234
 30
0.0
  0
LINE
  5
158
100
AcDbEntity
  8
0
 62
5
100
AcDbLine
 10
-38.047517
 20
123.597234
 30
0.0
 11
-40.817092
 21
121.998219
 31
0.0
  0
SPLINE
  5
159
100
AcDbEntity
  8
0
 62
5
100
AcDbSpline
 70
8
 71
3
 72
8
 73
4
 74
0
 40
0
 40
0
 40
0
 40
0
 40
1
 40
1
 40
1
 40
1
 10
-40.817092
 20
121.998219
 30
0.0
 10
-40.914341
 20
121.942110
 30
0.0
 10
-40.927357
 20
121.829278
 30
0.0
 10
-40.890800
 20
121.723135
 30
0.0
  0
LINE
  5
15a
100
AcDbEntity
  8
0
 62
5
100
AcDbLine
 10
-40.890800
 20
121.723135
 30
0.0
 11
-39.816556
 21
118.606293
 31
0.0
  0
LINE
  5
15b
100
AcDbEntity
  8
0
 62
5
100
AcDbLine
 10
-39.816556
 20
118.606293
 30
0.0
 11
-41.466221
 21
116.457986
 31
0.0
  0
LINE
  5
15c
100
AcDbEntity
  8
0
 62
5
100
AcDbLine
 10
-41.466221
 20
116.457986
 30
0.0
 11
-44.749446
 21
116.688392
 31
0.0
  0
SPLINE
  5
15d
100
AcDbEntity
  8
0
 62
5
100
AcDbSpline
 70
8
 71
3
 72
8
 73
4
 74
0
 40
0
 40
0
 40
0
 40
0
 40
1
 40
1
 40
1
 40
1
 10
-44.749446
 20
116.688392
 30
0.0
 10
-44.857923
 20
116.717506
 30
0.0
 10
-44.969546
 20
116.653060
 30
0.0
 10
-44.998583
 20
116.544553
 30
0.0
  0
LINE
  5
15e
100
AcDbEntity
  8
0
 62
5
100
AcDbLine
 10
-44.998583
 20
116.544553
 30
0.0
 11
-45.829319
 21
113.457285
 31
0.0
  0
SPLINE
  5
15f
100
AcDbEntity
  8
0
 62
5
100
AcDbSpline
 70
8
 71
3
 72
8
 73
4
 74
0
 40
0
 40
0
 40
0
 40
0
 40
1
 40
1
 40
1
 40
1
 10
-45.829319
 20
113.457285
 30
0.0
 10
-45.858408
 20
113.348873
 30
0.0
 10
-45.786433
 20
113.257400
 30
0.0
 10
-45.685486
 20
113.208159
 30
0.0
  0
LINE
  5
160
100
AcDbEntity
  8
0
 62
5
100
AcDbLine
 10
-45.685486
 20
113.208159
 30
0.0
 11
-42.726930
 21
111.766077
 31
0.0
  0
LINE
  5
161
100
AcDbEntity
  8
0
 62
5
100
AcDbLine
 10
-42.726930
 20
111.766077
 30
0.0
 11
-42.372421
 21
109.080763
 31
0.0
  0
LINE
  5
162
100
AcDbEntity
  8
0
 62
5
100
AcDbLine
 10
-42.372421
 20
109.080763
 30
0.0
 11
-44.857013
 21
106.921021
 31
0.0
  0
SPLINE
  5
163
100
AcDbEntity
  8
0
 62
5
100
AcDbSpline
 70
8
 71
3
 72
8
 73
4
 74
0
 40
0
 40
0
 40
0
 40
0
 40
1
 40
1
 40
1
 40
1
 10
-44.857013
 20
106.921021
 30
0.0
 10
-44.954248
 20
106.864883
 30
0.0
 10
-44.986853
 20
106.743160
 30
0.0
 10
-44.930710
 20
106.645918
 30
0.0
  0
LINE
  5
164
100
AcDbEntity
  8
0
 62
5
100
AcDbLine
 10
-44.930710
 20
106.645918
 30
0.0
 11
-43.331699
 21
103.876351
 31
0.0
  0
SPLINE
  5
165
100
AcDbEntity
  8
0
 62
2
100
AcDbSpline
 70
8
 71
3
 72
8
 73
4
 74
0
 40
0
 40
0
 40
0
 40
0
 40
1
 40
1
 40
1
 40
1
 10
-43.331699
 20
103.876351
 30
0.0
 10
-43.275557
 20
103.779108
 30
0.0
 10
-43.160374
 20
103.761912
 30
0.0
 10
-43.054227
 20
103.798505
 30
0.0
  0
LINE
  5
166
100
AcDbEntity
  8
0
 62
2
100
AcDbLine
 10
-43.054227
 20
103.798505
 30
0.0
 11
-39.941535
 21
104.870345
 31
0.0
  0
LINE
  5
167
100
AcDbEntity
  8
0
 62
2
100
AcDbLine
 10
-39.941535
 20
104.870345
 30
0.0
 11
-37.795643
 21
103.224839
 31
0.0
  0
LINE
  5
168
100
AcDbEntity
  8
0
 62
2
100
AcDbLine
 10
-37.795643
 20
103.224839
 30
0.0
 11
-38.023632
 21
99.937439
 31
0.0
  0
SPLINE
  5
169
100
AcDbEntity
  8
0
 62
2
100
AcDbSpline
 70
8
 71
3
 72
8
 73
4
 74
0
 40
0
 40
0
 40
0
 40
0
 40
1
 40
1
 40
1
 40
1
 10
-38.023632
 20
99.937439
 30
0.0
 10
-38.052721
 20
99.829027
 30
0.0
 10
-37.988254
 20
99.717389
 30
0.0
 10
-37.879799
 20
99.688313
 30
0.0
  0
LINE
  5
16a
100
AcDbEntity
  8
0
 62
2
100
AcDbLine
 10
-37.879799
 20
99.688313
 30
0.0
 11
-34.790784
 21
98.864127
 31
0.0
  0
SPLINE
  5
16b
100
AcDbEntity
  8
0
 62
2
100
AcDbSpline
 70
8
 71
3
 72
8
 73
4
 74
0
 40
0
 40
0
 40
0
 40
0
 40
1
 40
1
 40
1
 40
1
 10
-34.790784
 20
98.864127
 30
0.0
 10
-34.682352
 20
98.835113
 30
0.0
 10
-34.590835
 20
98.907001
 30
0.0
 10
-34.541648
 20
99.007967
 30
0.0
  0
LINE
  5
16c
100
AcDbEntity
  8
0
 62
2
100
AcDbLine
 10
-34.541648
 20
99.007967
 30
0.0
 11
-33.099567
 21
101.966516
 31
0.0
  0
LINE
  5
16d
100
AcDbEntity
  8
0
 62
2
100
AcDbLine
 10
-33.099567
 20
101.966516
 30
0.0
 11
-30.414252
 21
102.321024
 31
0.0
  0
LINE
  5
16e
100
AcDbEntity
  8
0
 62
2
100
AcDbLine
 10
-30.414252
 20
102.321024
 30
0.0
 11
-28.254506
 21
99.836432
 31
0.0
  0
SPLINE
  5
16f
100
AcDbEntity
  8
0
 62
2
100
AcDbSpline
 70
8
 71
3
 72
8
 73
4
 74
0
 40
0
 40
0
 40
0
 40
0
 40
1
 40
1
 40
1
 40
1
 10
-28.254506
 20
99.836432
 30
0.0
 10
-28.198368
 20
99.739199
 30
0.0
 10
-28.074255
 20
99.702431
 30
0.0
 10
-27.977023
 20
99.758568
 30
0.0
  0
LINE
  5
170
100
AcDbEntity
  8
0
 62
2
100
AcDbLine
 10
-27.977023
 20
99.758568
 30
0.0
 11
-25.207448
 21
101.357583
 31
0.0
  0
SPLINE
  5
171
100
AcDbEntity
  8
0
 62
2
100
AcDbSpline
 70
8
 71
3
 72
8
 73
4
 74
0
 40
0
 40
0
 40
0
 40
0
 40
1
 40
1
 40
1
 40
1
 10
-25.207448
 20
101.357583
 30
0.0
 10
-25.110236
 20
101.413758
 30
0.0
 10
-25.099570
 20
101.530660
 30
0.0
 10
-25.136140
 20
101.636821
 30
0.0
  0
LINE
  5
172
100
AcDbEntity
  8
0
 62
2
100
AcDbLine
 10
-25.136140
 20
101.636821
 30
0.0
 11
-26.205587
 21
104.745358
 31
0.0
  0
LINE
  5
173
100
AcDbEntity
  8
0
 62
2
100
AcDbLine
 10
-26.205587
 20
104.745358
 30
0.0
 11
-24.554164
 21
106.900207
 31
0.0
  0
LINE
  5
174
100
AcDbEntity
  8
0
 62
2
100
AcDbLine
 10
-24.554164
 20
106.900207
 30
0.0
 11
-21.270944
 21
106.669811
 31
0.0
  0
SPLINE
  5
175
100
AcDbEntity
  8
0
 62
2
100
AcDbSpline
 70
8
 71
3
 72
8
 73
4
 74
0
 40
0
 40
0
 40
0
 40
0
 40
1
 40
1
 40
1
 40
1
 10
-21.270944
 20
106.669811
 30
0.0
 10
-21.162521
 20
106.640791
 30
0.0
 10
-21.055050
 20
106.702840
 30
0.0
 10
-21.025958
 20
106.811254
 30
0.0
  0
LINE
  5
176
100
AcDbEntity
  8
0
 62
2
100
AcDbLine
 10
-21.025958
 20
106.811254
 30
0.0
 11
-20.195218
 21
109.898510
 31
0.0
  0
SPLINE
  5
177
100
AcDbEntity
  8
0
 62
2
100
AcDbSpline
 70
8
 71
3
 72
8
 73
4
 74
0
 40
0
 40
0
 40
0
 40
0
 40
1
 40
1
 40
1
 40
1
 10
-20.195218
 20
109.898510
 30
0.0
 10
-20.166184
 20
110.007017
 30
0.0
 10
-20.238153
 20
110.098480
 30
0.0
 10
-20.339051
 20
110.147637
 30
0.0
  0
LINE
  5
178
100
AcDbEntity
  8
0
 62
2
100
AcDbLine
 10
-20.339051
 20
110.147637
 30
0.0
 11
-23.297612
 21
111.589729
 31
0.0
  0
LINE
  5
179
100
AcDbEntity
  8
0
 62
2
100
AcDbLine
 10
-23.297612
 20
111.589729
 30
0.0
 11
-23.479835
 21
112.979349
 31
0.0
  0
LINE
  5
17a
100
AcDbEntity
  8
0
 62
2
100
AcDbLine
 10
-23.479835
 20
112.979349
 30
0.0
 11
-29.462524
 21
112.160557
 31
0.0
  0
SPLINE
  5
17b
100
AcDbEntity
  8
0
 62
2
100
AcDbSpline
 70
8
 71
3
 72
8
 73
4
 74
0
 40
0
 40
0
 40
0
 40
0
 40
1
 40
1
 40
1
 40
1
 10
-29.462524
 20
112.160557
 30
0.0
 10
-29.272669
 20
110.762446
 30
0.0
 10
-29.921910
 20
109.326442
 30
0.0
 10
-31.219393
 20
108.577340
 30
0.0
  0
SPLINE
  5
17c
100
AcDbEntity
  8
0
 62
2
100
AcDbSpline
 70
8
 71
3
 72
8
 73
4
 74
0
 40
0
 40
0
 40
0
 40
0
 40
1
 40
1
 40
1
 40
1
 10
-31.219393
 20
108.577340
 30
0.0
 10
-32.932616
 20
107.588210
 30
0.0
 10
-35.122816
 20
108.175070
 30
0.0
 10
-36.111951
 20
109.888302
 30
0.0
  0
SPLINE
  5
17d
100
AcDbEntity
  8
0
 62
2
100
AcDbSpline
 70
8
 71
3
 72
8
 73
4
 74
0
 40
0
 40
0
 40
0
 40
0
 40
1
 40
1
 40
1
 40
1
 10
-36.111951
 20
109.888302
 30
0.0
 10
-37.101069
 20
111.601505
 30
0.0
 10
-36.514221
 20
113.791733
 30
0.0
 10
-34.800998
 20
114.780862
 30
0.0
  0
SPLINE
  5
17e
100
AcDbEntity
  8
0
 62
2
100
AcDbSpline
 70
8
 71
3
 72
8
 73
4
 74
0
 40
0
 40
0
 40
0
 40
0
 40
1
 40
1
 40
1
 40
1
 10
-34.800998
 20
114.780862
 30
0.0
 10
-33.503515
 20
115.529964
 30
0.0
 10
-31.935279
 20
115.374222
 30
0.0
 10
-30.819406
 20
114.510747
 30
0.0
  0
LINE
  5
17f
100
AcDbEntity
  8
0
 62
2
100
AcDbLine
 10
-30.819406
 20
114.510747
 30
0.0
 11
-27.118968
 21
119.282511
 31
0.0
  0
LINE
  5
180
100
AcDbEntity
  8
0
 62
2
100
AcDbLine
 10
-27.118968
 20
119.282511
 30
0.0
 11
-28.231303
 21
120.135131
 31
0.0
  0
LINE
  5
181
100
AcDbEntity
  8
0
 62
2
100
AcDbLine
 10
-28.231303
 20
120.135131
 30
0.0
 11
-28.000905
 21
123.418357
 31
0.0
  0
SPLINE
  5
182
100
AcDbEntity
  8
0
 62
2
100
AcDbSpline
 70
8
 71
3
 72
8
 73
4
 74
0
 40
0
 40
0
 40
0
 40
0
 40
1
 40
1
 40
1
 40
1
 10
-28.000905
 20
123.418357
 30
0.0
 10
-27.971816
 20
123.526769
 30
0.0
 10
-28.036295
 20
123.638450
 30
0.0
 10
-28.144738
 20
123.667483
 30
0.0
  0
LINE
  5
183
100
AcDbEntity
  8
0
 62
2
100
AcDbLine
 10
-28.144738
 20
123.667483
 30
0.0
 11
-31.233756
 21
124.491679
 31
0.0
  0
SPLINE
  5
184
100
AcDbEntity
  8
0
 62
2
100
AcDbSpline
 70
8
 71
3
 72
8
 73
4
 74
0
 40
0
 40
0
 40
0
 40
0
 40
1
 40
1
 40
1
 40
1
 10
-31.233756
 20
124.491679
 30
0.0
 10
-31.342243
 20
124.520787
 30
0.0
 10
-31.429555
 20
124.451202
 30
0.0
 10
-31.478742
 20
124.350236
 30
0.0
  0
LINE
  5
185
100
AcDbEntity
  8
0
 62
2
100
AcDbLine
 10
-31.478742
 20
124.350236
 30
0.0
 11
-32.920819
 21
121.391677
 31
0.0
  0
LINE
  5
186
100
AcDbEntity
  8
0
 62
2
100
AcDbLine
 10
-32.920819
 20
121.391677
 30
0.0
 11
-35.612678
 21
121.038918
 31
0.0
  0
LINE
  5
187
100
AcDbEntity
  8
0
 62
2
100
AcDbLine
 10
-35.612678
 20
121.038918
 30
0.0
 11
-37.772433
 21
123.523524
 31
0.0
  0
SPLINE
  5
188
100
AcDbEntity
  8
0
 62
2
100
AcDbSpline
 70
8
 71
3
 72
8
 73
4
 74
0
 40
0
 40
0
 40
0
 40
0
 40
1
 40
1
 40
1
 40
1
 10
-37.772433
 20
123.523524
 30
0.0
 10
-37.828555
 20
123.620729
 30
0.0
 10
-37.950286
 20
123.653370
 30
0.0
 10
-38.047517
 20
123.597234
 30
0.0
  0
LINE
  5
189
100
AcDbEntity
  8
0
 62
2
100
AcDbLine
 10
-38.047517
 20
123.597234
 30
0.0
 11
-40.817092
 21
121.998219
 31
0.0
  0
SPLINE
  5
18a
100
AcDbEntity
  8
0
 62
2
100
AcDbSpline
 70
8
 71
3
 72
8
 73
4
 74
0
 40
0
 40
0
 40
0
 40
0
 40
1
 40
1
 40
1
 40
1
 10
-40.817092
 20
121.998219
 30
0.0
 10
-40.914341
 20
121.942110
 30
0.0
 10
-40.927357
 20
121.829278
 30
0.0
 10
-40.890800
 20
121.723135
 30
0.0
  0
LINE
  5
18b
100
AcDbEntity
  8
0
 62
2
100
AcDbLine
 10
-40.890800
 20
121.723135
 30
0.0
 11
-39.816556
 21
118.606293
 31
0.0
  0
LINE
  5
18c
100
AcDbEntity
  8
0
 62
2
100
AcDbLine
 10
-39.816556
 20
118.606293
 30
0.0
 11
-41.466221
 21
116.457986
 31
0.0
  0
LINE
  5
18d
100
AcDbEntity
  8
0
 62
2
100
AcDbLine
 10
-41.466221
 20
116.457986
 30
0.0
 11
-44.749446
 21
116.688392
 31
0.0
  0
SPLINE
  5
18e
100
AcDbEntity
  8
0
 62
2
100
AcDbSpline
 70
8
 71
3
 72
8
 73
4
 74
0
 40
0
 40
0
 40
0
 40
0
 40
1
 40
1
 40
1
 40
1
 10
-44.749446
 20
116.688392
 30
0.0
 10
-44.857923
 20
116.717506
 30
0.0
 10
-44.969546
 20
116.653060
 30
0.0
 10
-44.998583
 20
116.544553
 30
0.0
  0
LINE
  5
18f
100
AcDbEntity
  8
0
 62
2
100
AcDbLine
 10
-44.998583
 20
116.544553
 30
0.0
 11
-45.829319
 21
113.457285
 31
0.0
  0
SPLINE
  5
190
100
AcDbEntity
  8
0
 62
2
100
AcDbSpline
 70
8
 71
3
 72
8
 73
4
 74
0
 40
0
 40
0
 40
0
 40
0
 40
1
 40
1
 40
1
 40
1
 10
-45.829319
 20
113.457285
 30
0.0
 10
-45.858408
 20
113.348873
 30
0.0
 10
-45.786433
 20
113.257400
 30
0.0
 10
-45.685486
 20
113.208159
 30
0.0
  0
LINE
  5
191
100
AcDbEntity
  8
0
 62
2
100
AcDbLine
 10
-45.685486
 20
113.208159
 30
0.0
 11
-42.726930
 21
111.766077
 31
0.0
  0
LINE
  5
192
100
AcDbEntity
  8
0
 62
2
100
AcDbLine
 10
-42.726930
 20
111.766077
 30
0.0
 11
-42.372421
 21
109.080763
 31
0.0
  0
LINE
  5
193
100
AcDbEntity
  8
0
 62
2
100
AcDbLine
 10
-42.372421
 20
109.080763
 30
0.0
 11
-44.857013
 21
106.921021
 31
0.0
  0
SPLINE
  5
194
100
AcDbEntity
  8
0
 62
2
100
AcDbSpline
 70
8
 71
3
 72
8
 73
4
 74
0
 40
0
 40
0
 40
0
 40
0
 40
1
 40
1
 40
1
 40
1
 10
-44.857013
 20
106.921021
 30
0.0
 10
-44.954248
 20
106.864883
 30
0.0
 10
-44.986853
 20
106.743160
 30
0.0
 10
-44.930710
 20
106.645918
 30
0.0
  0
LINE
  5
195
100
AcDbEntity
  8
0
 62
2
100
AcDbLine
 10
-44.930710
 20
106.645918
 30
0.0
 11
-43.331699
 21
103.876351
 31
0.0
  0
SPLINE
  5
196
100
AcDbEntity
  8
0
 62
7
100
AcDbSpline
 70
8
 71
3
 72
8
 73
4
 74
0
 40
0
 40
0
 40
0
 40
0
 40
1
 40
1
 40
1
 40
1
 10
-27.181568
 20
115.042834
 30
0.0
 10
-25.979914
 20
112.961508
 30
0.0
 10
-25.979914
 20
110.397209
 30
0.0
 10
-27.181568
 20
108.315883
 30
0.0
  0
SPLINE
  5
197
100
AcDbEntity
  8
0
 62
7
100
AcDbSpline
 70
8
 71
3
 72
8
 73
4
 74
0
 40
0
 40
0
 40
0
 40
0
 40
1
 40
1
 40
1
 40
1
 10
-27.181568
 20
108.315883
 30
0.0
 10
-28.383222
 20
106.234558
 30
0.0
 10
-30.603970
 20
104.952408
 30
0.0
 10
-33.007279
 20
104.952408
 30
0.0
  0
SPLINE
  5
198
100
AcDbEntity
  8
0
 62
7
100
AcDbSpline
 70
8
 71
3
 72
8
 73
4
 74
0
 40
0
 40
0
 40
0
 40
0
 40
1
 40
1
 40
1
 40
1
 10
-33.007279
 20
104.952408
 30
0.0
 10
-35.410587
 20
104.952408
 30
0.0
 10
-37.631335
 20
106.234558
 30
0.0
 10
-38.832989
 20
108.315883
 30
0.0
  0
SPLINE
  5
199
100
AcDbEntity
  8
0
 62
7
100
AcDbSpline
 70
8
 71
3
 72
8
 73
4
 74
0
 40
0
 40
0
 40
0
 40
0
 40
1
 40
1
 40
1
 40
1
 10
-38.832989
 20
108.315883
 30
0.0
 10
-40.034643
 20
110.397209
 30
0.0
 10
-40.034643
 20
112.961508
 30
0.0
 10
-38.832989
 20
115.042834
 30
0.0
  0
SPLINE
  5
19a
100
AcDbEntity
  8
0
 62
7
100
AcDbSpline
 70
8
 71
3
 72
8
 73
4
 74
0
 40
0
 40
0
 40
0
 40
0
 40
1
 40
1
 40
1
 40
1
 10
-38.832989
 20
115.042834
 30
0.0
 10
-37.631335
 20
117.124160
 30
0.0
 10
-35.410587
 20
118.406310
 30
0.0
 10
-33.007279
 20
118.406310
 30
0.0
  0
SPLINE
  5
19b
100
AcDbEntity
  8
0
 62
7
100
AcDbSpline
 70
8
 71
3
 72
8
 73
4
 74
0
 40
0
 40
0
 40
0
 40
0
 40
1
 40
1
 40
1
 40
1
 10
-33.007279
 20
118.406310
 30
0.0
 10
-30.603970
 20
118.406310
 30
0.0
 10
-28.383222
 20
117.124160
 30
0.0
 10
-27.181568
 20
115.042834
 30
0.0
  0
LINE
  5
19c
100
AcDbEntity
  8
0
 62
7
100
AcDbLine
 10
-27.181568
 20
115.042834
 30
0.0
 11
-27.181568
 21
115.042834
 31
0.0
  0
SPLINE
  5
19d
100
AcDbEntity
  8
0
 62
7
100
AcDbSpline
 70
8
 71
3
 72
8
 73
4
 74
0
 40
0
 40
0
 40
0
 40
0
 40
1
 40
1
 40
1
 40
1
 10
-42.635232
 20
106.827642
 30
0.0
 10
-42.445791
 20
106.937016
 30
0.0
 10
-42.212389
 20
106.937016
 30
0.0
 10
-42.022948
 20
106.827642
 30
0.0
  0
SPLINE
  5
19e
100
AcDbEntity
  8
0
 62
7
100
AcDbSpline
 70
8
 71
3
 72
8
 73
4
 74
0
 40
0
 40
0
 40
0
 40
0
 40
1
 40
1
 40
1
 40
1
 10
-42.022948
 20
106.827642
 30
0.0
 10
-41.833506
 20
106.718268
 30
0.0
 10
-41.716806
 20
106.516137
 30
0.0
 10
-41.716806
 20
106.297389
 30
0.0
  0
SPLINE
  5
19f
100
AcDbEntity
  8
0
 62
7
100
AcDbSpline
 70
8
 71
3
 72
8
 73
4
 74
0
 40
0
 40
0
 40
0
 40
0
 40
1
 40
1
 40
1
 40
1
 10
-41.716806
 20
106.297389
 30
0.0
 10
-41.716806
 20
106.078640
 30
0.0
 10
-41.833506
 20
105.876509
 30
0.0
 10
-42.022948
 20
105.767135
 30
0.0
  0
SPLINE
  5
1a0
100
AcDbEntity
  8
0
 62
7
100
AcDbSpline
 70
8
 71
3
 72
8
 73
4
 74
0
 40
0
 40
0
 40
0
 40
0
 40
1
 40
1
 40
1
 40
1
 10
-42.022948
 20
105.767135
 30
0.0
 10
-42.212389
 20
105.657761
 30
0.0
 10
-42.445791
 20
105.657761
 30
0.0
 10
-42.635232
 20
105.767135
 30
0.0
  0
SPLINE
  5
1a1
100
AcDbEntity
  8
0
 62
7
100
AcDbSpline
 70
8
 71
3
 72
8
 73
4
 74
0
 40
0
 40
0
 40
0
 40
0
 40
1
 40
1
 40
1
 40
1
 10
-42.635232
 20
105.767135
 30
0.0
 10
-42.824673
 20
105.876509
 30
0.0
 10
-42.941374
 20
106.078640
 30
0.0
 10
-42.941374
 20
106.297389
 30
0.0
  0
SPLINE
  5
1a2
100
AcDbEntity
  8
0
 62
7
100
AcDbSpline
 70
8
 71
3
 72
8
 73
4
 74
0
 40
0
 40
0
 40
0
 40
0
 40
1
 40
1
 40
1
 40
1
 10
-42.941374
 20
106.297389
 30
0.0
 10
-42.941374
 20
106.516137
 30
0.0
 10
-42.824673
 20
106.718268
 30
0.0
 10
-42.635232
 20
106.827642
 30
0.0
  0
LINE
  5
1a3
100
AcDbEntity
  8
0
 62
7
100
AcDbLine
 10
-42.635232
 20
106.827642
 30
0.0
 11
-42.635232
 21
106.827642
 31
0.0
  0
SPLINE
  5
1a4
100
AcDbEntity
  8
0
 62
7
100
AcDbSpline
 70
8
 71
3
 72
8
 73
4
 74
0
 40
0
 40
0
 40
0
 40
0
 40
1
 40
1
 40
1
 40
1
 10
-36.384598
 20
101.440670
 30
0.0
 10
-36.327982
 20
101.651964
 30
0.0
 10
-36.162942
 20
101.817004
 30
0.0
 10
-35.951648
 20
101.873620
 30
0.0
  0
SPLINE
  5
1a5
100
AcDbEntity
  8
0
 62
7
100
AcDbSpline
 70
8
 71
3
 72
8
 73
4
 74
0
 40
0
 40
0
 40
0
 40
0
 40
1
 40
1
 40
1
 40
1
 10
-35.951648
 20
101.873620
 30
0.0
 10
-35.740353
 20
101.930236
 30
0.0
 10
-35.514905
 20
101.869828
 30
0.0
 10
-35.360226
 20
101.715150
 30
0.0
  0
SPLINE
  5
1a6
100
AcDbEntity
  8
0
 62
7
100
AcDbSpline
 70
8
 71
3
 72
8
 73
4
 74
0
 40
0
 40
0
 40
0
 40
0
 40
1
 40
1
 40
1
 40
1
 10
-35.360226
 20
101.715150
 30
0.0
 10
-35.205548
 20
101.560471
 30
0.0
 10
-35.145139
 20
101.335023
 30
0.0
 10
-35.201756
 20
101.123728
 30
0.0
  0
SPLINE
  5
1a7
100
AcDbEntity
  8
0
 62
7
100
AcDbSpline
 70
8
 71
3
 72
8
 73
4
 74
0
 40
0
 40
0
 40
0
 40
0
 40
1
 40
1
 40
1
 40
1
 10
-35.201756
 20
101.123728
 30
0.0
 10
-35.258372
 20
100.912434
 30
0.0
 10
-35.423412
 20
100.747394
 30
0.0
 10
-35.634706
 20
100.690778
 30
0.0
  0
SPLINE
  5
1a8
100
AcDbEntity
  8
0
 62
7
100
AcDbSpline
 70
8
 71
3
 72
8
 73
4
 74
0
 40
0
 40
0
 40
0
 40
0
 40
1
 40
1
 40
1
 40
1
 10
-35.634706
 20
100.690778
 30
0.0
 10
-35.846000
 20
100.634162
 30
0.0
 10
-36.071449
 20
100.694571
 30
0.0
 10
-36.226127
 20
100.849249
 30
0.0
  0
SPLINE
  5
1a9
100
AcDbEntity
  8
0
 62
7
100
AcDbSpline
 70
8
 71
3
 72
8
 73
4
 74
0
 40
0
 40
0
 40
0
 40
0
 40
1
 40
1
 40
1
 40
1
 10
-36.226127
 20
100.849249
 30
0.0
 10
-36.380805
 20
101.003927
 30
0.0
 10
-36.441214
 20
101.229376
 30
0.0
 10
-36.384598
 20
101.440670
 30
0.0
  0
LINE
  5
1aa
100
AcDbEntity
  8
0
 62
7
100
AcDbLine
 10
-36.384598
 20
101.440670
 30
0.0
 11
-36.384598
 21
101.440670
 31
0.0
  0
SPLINE
  5
1ab
100
AcDbEntity
  8
0
 62
7
100
AcDbSpline
 70
8
 71
3
 72
8
 73
4
 74
0
 40
0
 40
0
 40
0
 40
0
 40
1
 40
1
 40
1
 40
1
 10
-28.155563
 20
102.051387
 30
0.0
 10
-28.264937
 20
102.240829
 30
0.0
 10
-28.264937
 20
102.474230
 30
0.0
 10
-28.155563
 20
102.663672
 30
0.0
  0
SPLINE
  5
1ac
100
AcDbEntity
  8
0
 62
7
100
AcDbSpline
 70
8
 71
3
 72
8
 73
4
 74
0
 40
0
 40
0
 40
0
 40
0
 40
1
 40
1
 40
1
 40
1
 10
-28.155563
 20
102.663672
 30
0.0
 10
-28.046189
 20
102.853113
 30
0.0
 10
-27.844057
 20
102.969814
 30
0.0
 10
-27.625309
 20
102.969814
 30
0.0
  0
SPLINE
  5
1ad
100
AcDbEntity
  8
0
 62
7
100
AcDbSpline
 70
8
 71
3
 72
8
 73
4
 74
0
 40
0
 40
0
 40
0
 40
0
 40
1
 40
1
 40
1
 40
1
 10
-27.625309
 20
102.969814
 30
0.0
 10
-27.406561
 20
102.969814
 30
0.0
 10
-27.204429
 20
102.853113
 30
0.0
 10
-27.095055
 20
102.663672
 30
0.0
  0
SPLINE
  5
1ae
100
AcDbEntity
  8
0
 62
7
100
AcDbSpline
 70
8
 71
3
 72
8
 73
4
 74
0
 40
0
 40
0
 40
0
 40
0
 40
1
 40
1
 40
1
 40
1
 10
-27.095055
 20
102.663672
 30
0.0
 10
-26.985681
 20
102.474230
 30
0.0
 10
-26.985681
 20
102.240829
 30
0.0
 10
-27.095055
 20
102.051387
 30
0.0
  0
SPLINE
  5
1af
100
AcDbEntity
  8
0
 62
7
100
AcDbSpline
 70
8
 71
3
 72
8
 73
4
 74
0
 40
0
 40
0
 40
0
 40
0
 40
1
 40
1
 40
1
 40
1
 10
-27.095055
 20
102.051387
 30
0.0
 10
-27.204429
 20
101.861946
 30
0.0
 10
-27.406561
 20
101.745245
 30
0.0
 10
-27.625309
 20
101.745245
 30
0.0
  0
SPLINE
  5
1b0
100
AcDbEntity
  8
0
 62
7
100
AcDbSpline
 70
8
 71
3
 72
8
 73
4
 74
0
 40
0
 40
0
 40
0
 40
0
 40
1
 40
1
 40
1
 40
1
 10
-27.625309
 20
101.745245
 30
0.0
 10
-27.844057
 20
101.745245
 30
0.0
 10
-28.046189
 20
101.861946
 30
0.0
 10
-28.155563
 20
102.051387
 30
0.0
  0
LINE
  5
1b1
100
AcDbEntity
  8
0
 62
7
100
AcDbLine
 10
-28.155563
 20
102.051387
 30
0.0
 11
-28.155563
 21
102.051387
 31
0.0
  0
SPLINE
  5
1b2
100
AcDbEntity
  8
0
 62
7
100
AcDbSpline
 70
8
 71
3
 72
8
 73
4
 74
0
 40
0
 40
0
 40
0
 40
0
 40
1
 40
1
 40
1
 40
1
 10
-22.768587
 20
108.302015
 30
0.0
 10
-22.979881
 20
108.358631
 30
0.0
 10
-23.144921
 20
108.523670
 30
0.0
 10
-23.201537
 20
108.734965
 30
0.0
  0
SPLINE
  5
1b3
100
AcDbEntity
  8
0
 62
7
100
AcDbSpline
 70
8
 71
3
 72
8
 73
4
 74
0
 40
0
 40
0
 40
0
 40
0
 40
1
 40
1
 40
1
 40
1
 10
-23.201537
 20
108.734965
 30
0.0
 10
-23.258154
 20
108.946259
 30
0.0
 10
-23.197745
 20
109.171708
 30
0.0
 10
-23.043067
 20
109.326386
 30
0.0
  0
SPLINE
  5
1b4
100
AcDbEntity
  8
0
 62
7
100
AcDbSpline
 70
8
 71
3
 72
8
 73
4
 74
0
 40
0
 40
0
 40
0
 40
0
 40
1
 40
1
 40
1
 40
1
 10
-23.043067
 20
109.326386
 30
0.0
 10
-22.888388
 20
109.481064
 30
0.0
 10
-22.662940
 20
109.541473
 30
0.0
 10
-22.451645
 20
109.484857
 30
0.0
  0
SPLINE
  5
1b5
100
AcDbEntity
  8
0
 62
7
100
AcDbSpline
 70
8
 71
3
 72
8
 73
4
 74
0
 40
0
 40
0
 40
0
 40
0
 40
1
 40
1
 40
1
 40
1
 10
-22.451645
 20
109.484857
 30
0.0
 10
-22.240351
 20
109.428241
 30
0.0
 10
-22.075311
 20
109.263201
 30
0.0
 10
-22.018695
 20
109.051907
 30
0.0
  0
SPLINE
  5
1b6
100
AcDbEntity
  8
0
 62
7
100
AcDbSpline
 70
8
 71
3
 72
8
 73
4
 74
0
 40
0
 40
0
 40
0
 40
0
 40
1
 40
1
 40
1
 40
1
 10
-22.018695
 20
109.051907
 30
0.0
 10
-21.962079
 20
108.840612
 30
0.0
 10
-22.022488
 20
108.615164
 30
0.0
 10
-22.177166
 20
108.460485
 30
0.0
  0
SPLINE
  5
1b7
100
AcDbEntity
  8
0
 62
7
100
AcDbSpline
 70
8
 71
3
 72
8
 73
4
 74
0
 40
0
 40
0
 40
0
 40
0
 40
1
 40
1
 40
1
 40
1
 10
-22.177166
 20
108.460485
 30
0.0
 10
-22.331844
 20
108.305807
 30
0.0
 10
-22.557293
 20
108.245398
 30
0.0
 10
-22.768587
 20
108.302015
 30
0.0
  0
LINE
  5
1b8
100
AcDbEntity
  8
0
 62
7
100
AcDbLine
 10
-22.768587
 20
108.302015
 30
0.0
 11
-22.768587
 21
108.302015
 31
0.0
  0
SPLINE
  5
1b9
100
AcDbEntity
  8
0
 62
7
100
AcDbSpline
 70
8
 71
3
 72
8
 73
4
 74
0
 40
0
 40
0
 40
0
 40
0
 40
1
 40
1
 40
1
 40
1
 10
-43.245939
 20
115.056697
 30
0.0
 10
-43.034645
 20
115.000081
 30
0.0
 10
-42.869605
 20
114.835041
 30
0.0
 10
-42.812989
 20
114.623747
 30
0.0
  0
SPLINE
  5
1ba
100
AcDbEntity
  8
0
 62
7
100
AcDbSpline
 70
8
 71
3
 72
8
 73
4
 74
0
 40
0
 40
0
 40
0
 40
0
 40
1
 40
1
 40
1
 40
1
 10
-42.812989
 20
114.623747
 30
0.0
 10
-42.756373
 20
114.412452
 30
0.0
 10
-42.816782
 20
114.187004
 30
0.0
 10
-42.971460
 20
114.032325
 30
0.0
  0
SPLINE
  5
1bb
100
AcDbEntity
  8
0
 62
7
100
AcDbSpline
 70
8
 71
3
 72
8
 73
4
 74
0
 40
0
 40
0
 40
0
 40
0
 40
1
 40
1
 40
1
 40
1
 10
-42.971460
 20
114.032325
 30
0.0
 10
-43.126138
 20
113.877647
 30
0.0
 10
-43.351587
 20
113.817238
 30
0.0
 10
-43.562881
 20
113.873855
 30
0.0
  0
SPLINE
  5
1bc
100
AcDbEntity
  8
0
 62
7
100
AcDbSpline
 70
8
 71
3
 72
8
 73
4
 74
0
 40
0
 40
0
 40
0
 40
0
 40
1
 40
1
 40
1
 40
1
 10
-43.562881
 20
113.873855
 30
0.0
 10
-43.774175
 20
113.930471
 30
0.0
 10
-43.939215
 20
114.095511
 30
0.0
 10
-43.995831
 20
114.306805
 30
0.0
  0
SPLINE
  5
1bd
100
AcDbEntity
  8
0
 62
7
100
AcDbSpline
 70
8
 71
3
 72
8
 73
4
 74
0
 40
0
 40
0
 40
0
 40
0
 40
1
 40
1
 40
1
 40
1
 10
-43.995831
 20
114.306805
 30
0.0
 10
-44.052447
 20
114.518099
 30
0.0
 10
-43.992039
 20
114.743548
 30
0.0
 10
-43.837360
 20
114.898226
 30
0.0
  0
SPLINE
  5
1be
100
AcDbEntity
  8
0
 62
7
100
AcDbSpline
 70
8
 71
3
 72
8
 73
4
 74
0
 40
0
 40
0
 40
0
 40
0
 40
1
 40
1
 40
1
 40
1
 10
-43.837360
 20
114.898226
 30
0.0
 10
-43.682682
 20
115.052904
 30
0.0
 10
-43.457234
 20
115.113313
 30
0.0
 10
-43.245939
 20
115.056697
 30
0.0
  0
LINE
  5
1bf
100
AcDbEntity
  8
0
 62
7
100
AcDbLine
 10
-43.245939
 20
115.056697
 30
0.0
 11
-43.245939
 21
115.056697
 31
0.0
  0
SPLINE
  5
1c0
100
AcDbEntity
  8
0
 62
7
100
AcDbSpline
 70
8
 71
3
 72
8
 73
4
 74
0
 40
0
 40
0
 40
0
 40
0
 40
1
 40
1
 40
1
 40
1
 10
-37.858969
 20
121.307335
 30
0.0
 10
-37.749595
 20
121.117893
 30
0.0
 10
-37.749595
 20
120.884492
 30
0.0
 10
-37.858969
 20
120.695050
 30
0.0
  0
SPLINE
  5
1c1
100
AcDbEntity
  8
0
 62
7
100
AcDbSpline
 70
8
 71
3
 72
8
 73
4
 74
0
 40
0
 40
0
 40
0
 40
0
 40
1
 40
1
 40
1
 40
1
 10
-37.858969
 20
120.695050
 30
0.0
 10
-37.968343
 20
120.505609
 30
0.0
 10
-38.170475
 20
120.388908
 30
0.0
 10
-38.389223
 20
120.388908
 30
0.0
  0
SPLINE
  5
1c2
100
AcDbEntity
  8
0
 62
7
100
AcDbSpline
 70
8
 71
3
 72
8
 73
4
 74
0
 40
0
 40
0
 40
0
 40
0
 40
1
 40
1
 40
1
 40
1
 10
-38.389223
 20
120.388908
 30
0.0
 10
-38.607971
 20
120.388908
 30
0.0
 10
-38.810103
 20
120.505609
 30
0.0
 10
-38.919477
 20
120.695050
 30
0.0
  0
SPLINE
  5
1c3
100
AcDbEntity
  8
0
 62
7
100
AcDbSpline
 70
8
 71
3
 72
8
 73
4
 74
0
 40
0
 40
0
 40
0
 40
0
 40
1
 40
1
 40
1
 40
1
 10
-38.919477
 20
120.695050
 30
0.0
 10
-39.028851
 20
120.884492
 30
0.0
 10
-39.028851
 20
121.117893
 30
0.0
 10
-38.919477
 20
121.307335
 30
0.0
  0
SPLINE
  5
1c4
100
AcDbEntity
  8
0
 62
7
100
AcDbSpline
 70
8
 71
3
 72
8
 73
4
 74
0
 40
0
 40
0
 40
0
 40
0
 40
1
 40
1
 40
1
 40
1
 10
-38.919477
 20
121.307335
 30
0.0
 10
-38.810103
 20
121.496776
 30
0.0
 10
-38.607971
 20
121.613477
 30
0.0
 10
-38.389223
 20
121.613477
 30
0.0
  0
SPLINE
  5
1c5
100
AcDbEntity
  8
0
 62
7
100
AcDbSpline
 70
8
 71
3
 72
8
 73
4
 74
0
 40
0
 40
0
 40
0
 40
0
 40
1
 40
1
 40
1
 40
1
 10
-38.389223
 20
121.613477
 30
0.0
 10
-38.170475
 20
121.613477
 30
0.0
 10
-37.968343
 20
121.496776
 30
0.0
 10
-37.858969
 20
121.307335
 30
0.0
  0
LINE
  5
1c6
100
AcDbEntity
  8
0
 62
7
100
AcDbLine
 10
-37.858969
 20
121.307335
 30
0.0
 11
-37.858969
 21
121.307335
 31
0.0
  0
SPLINE
  5
1c7
100
AcDbEntity
  8
0
 62
7
100
AcDbSpline
 70
8
 71
3
 72
8
 73
4
 74
0
 40
0
 40
0
 40
0
 40
0
 40
1
 40
1
 40
1
 40
1
 10
-29.629931
 20
121.918060
 30
0.0
 10
-29.686547
 20
121.706766
 30
0.0
 10
-29.851587
 20
121.541726
 30
0.0
 10
-30.062882
 20
121.485110
 30
0.0
  0
SPLINE
  5
1c8
100
AcDbEntity
  8
0
 62
7
100
AcDbSpline
 70
8
 71
3
 72
8
 73
4
 74
0
 40
0
 40
0
 40
0
 40
0
 40
1
 40
1
 40
1
 40
1
 10
-30.062882
 20
121.485110
 30
0.0
 10
-30.274176
 20
121.428494
 30
0.0
 10
-30.499624
 20
121.488902
 30
0.0
 10
-30.654303
 20
121.643581
 30
0.0
  0
SPLINE
  5
1c9
100
AcDbEntity
  8
0
 62
7
100
AcDbSpline
 70
8
 71
3
 72
8
 73
4
 74
0
 40
0
 40
0
 40
0
 40
0
 40
1
 40
1
 40
1
 40
1
 10
-30.654303
 20
121.643581
 30
0.0
 10
-30.808981
 20
121.798259
 30
0.0
 10
-30.869390
 20
122.023707
 30
0.0
 10
-30.812774
 20
122.235002
 30
0.0
  0
SPLINE
  5
1ca
100
AcDbEntity
  8
0
 62
7
100
AcDbSpline
 70
8
 71
3
 72
8
 73
4
 74
0
 40
0
 40
0
 40
0
 40
0
 40
1
 40
1
 40
1
 40
1
 10
-30.812774
 20
122.235002
 30
0.0
 10
-30.756157
 20
122.446296
 30
0.0
 10
-30.591118
 20
122.611336
 30
0.0
 10
-30.379823
 20
122.667952
 30
0.0
  0
SPLINE
  5
1cb
100
AcDbEntity
  8
0
 62
7
100
AcDbSpline
 70
8
 71
3
 72
8
 73
4
 74
0
 40
0
 40
0
 40
0
 40
0
 40
1
 40
1
 40
1
 40
1
 10
-30.379823
 20
122.667952
 30
0.0
 10
-30.168529
 20
122.724568
 30
0.0
 10
-29.943080
 20
122.664160
 30
0.0
 10
-29.788402
 20
122.509481
 30
0.0
  0
SPLINE
  5
1cc
100
AcDbEntity
  8
0
 62
7
100
AcDbSpline
 70
8
 71
3
 72
8
 73
4
 74
0
 40
0
 40
0
 40
0
 40
0
 40
1
 40
1
 40
1
 40
1
 10
-29.788402
 20
122.509481
 30
0.0
 10
-29.633724
 20
122.354803
 30
0.0
 10
-29.573315
 20
122.129355
 30
0.0
 10
-29.629931
 20
121.918060
 30
0.0
  0
LINE
  5
1cd
100
AcDbEntity
  8
0
 62
7
100
AcDbLine
 10
-29.629931
 20
121.918060
 30
0.0
 11
-29.629931
 21
121.918060
 31
0.0
  0
SPLINE
  5
1ce
100
AcDbEntity
  8
0
 62
1
100
AcDbSpline
 70
8
 71
3
 72
8
 73
4
 74
0
 40
0
 40
0
 40
0
 40
0
 40
1
 40
1
 40
1
 40
1
 10
-43.735986
 20
103.643800
 30
0.0
 10
-43.644779
 20
103.485825
 30
0.0
 10
-43.477194
 20
103.371634
 30
0.0
 10
-43.321962
 20
103.334057
 30
0.0
  0
SPLINE
  5
1cf
100
AcDbEntity
  8
0
 62
1
100
AcDbSpline
 70
8
 71
3
 72
8
 73
4
 74
0
 40
0
 40
0
 40
0
 40
0
 40
1
 40
1
 40
1
 40
1
 10
-43.321962
 20
103.334057
 30
0.0
 10
-43.166726
 20
103.296482
 30
0.0
 10
-43.025302
 20
103.316683
 30
0.0
 10
-42.901771
 20
103.359277
 30
0.0
  0
LINE
  5
1d0
100
AcDbEntity
  8
0
 62
1
100
AcDbLine
 10
-42.901771
 20
103.359277
 30
0.0
 11
-40.027222
 21
104.348948
 31
0.0
  0
LINE
  5
1d1
100
AcDbEntity
  8
0
 62
1
100
AcDbLine
 10
-40.027222
 20
104.348948
 30
0.0
 11
-38.277627
 21
103.003579
 31
0.0
  0
LINE
  5
1d2
100
AcDbEntity
  8
0
 62
1
100
AcDbLine
 10
-38.277627
 20
103.003579
 30
0.0
 11
-38.489585
 21
99.969808
 31
0.0
  0
LINE
  5
1d3
100
AcDbEntity
  8
0
 62
1
100
AcDbLine
 10
-38.489585
 20
99.969808
 30
0.0
 11
-38.478339
 21
99.968781
 31
0.0
  0
SPLINE
  5
1d4
100
AcDbEntity
  8
0
 62
1
100
AcDbSpline
 70
8
 71
3
 72
8
 73
4
 74
0
 40
0
 40
0
 40
0
 40
0
 40
1
 40
1
 40
1
 40
1
 10
-38.478339
 20
99.968781
 30
0.0
 10
-38.517889
 20
99.644823
 30
0.0
 10
-38.321398
 20
99.323564
 30
0.0
 10
-37.998896
 20
99.237112
 30
0.0
  0
LINE
  5
1d5
100
AcDbEntity
  8
0
 62
1
100
AcDbLine
 10
-37.998896
 20
99.237112
 30
0.0
 11
-34.911865
 21
98.414464
 31
0.0
  0
LINE
  5
1d6
100
AcDbEntity
  8
0
 62
1
100
AcDbLine
 10
-34.911865
 20
98.414464
 30
0.0
 11
-34.909233
 21
98.415984
 31
0.0
  0
SPLINE
  5
1d7
100
AcDbEntity
  8
0
 62
1
100
AcDbSpline
 70
8
 71
3
 72
8
 73
4
 74
0
 40
0
 40
0
 40
0
 40
0
 40
1
 40
1
 40
1
 40
1
 10
-34.909233
 20
98.415984
 30
0.0
 10
-34.730913
 20
98.369102
 30
0.0
 10
-34.528125
 20
98.407536
 30
0.0
 10
-34.393959
 20
98.492541
 30
0.0
  0
SPLINE
  5
1d8
100
AcDbEntity
  8
0
 62
1
100
AcDbSpline
 70
8
 71
3
 72
8
 73
4
 74
0
 40
0
 40
0
 40
0
 40
0
 40
1
 40
1
 40
1
 40
1
 10
-34.393959
 20
98.492541
 30
0.0
 10
-34.259129
 20
98.577906
 30
0.0
 10
-34.176224
 20
98.689816
 30
0.0
 10
-34.120884
 20
98.803433
 30
0.0
  0
LINE
  5
1d9
100
AcDbEntity
  8
0
 62
1
100
AcDbLine
 10
-34.120884
 20
98.803433
 30
0.0
 11
-32.790226
 21
101.535197
 31
0.0
  0
LINE
  5
1da
100
AcDbEntity
  8
0
 62
1
100
AcDbLine
 10
-32.790226
 20
101.535197
 30
0.0
 11
-30.599678
 21
101.827067
 31
0.0
  0
LINE
  5
1db
100
AcDbEntity
  8
0
 62
1
100
AcDbLine
 10
-30.599678
 20
101.827067
 30
0.0
 11
-28.606216
 21
99.528494
 31
0.0
  0
LINE
  5
1dc
100
AcDbEntity
  8
0
 62
1
100
AcDbLine
 10
-28.606216
 20
99.528494
 30
0.0
 11
-28.599854
 21
99.535927
 31
0.0
  0
SPLINE
  5
1dd
100
AcDbEntity
  8
0
 62
1
100
AcDbSpline
 70
8
 71
3
 72
8
 73
4
 74
0
 40
0
 40
0
 40
0
 40
0
 40
1
 40
1
 40
1
 40
1
 10
-28.599854
 20
99.535927
 30
0.0
 10
-28.401493
 20
99.280946
 30
0.0
 10
-28.038027
 20
99.183227
 30
0.0
 10
-27.742745
 20
99.353708
 30
0.0
  0
LINE
  5
1de
100
AcDbEntity
  8
0
 62
1
100
AcDbLine
 10
-27.742745
 20
99.353708
 30
0.0
 11
-24.973880
 21
100.952313
 31
0.0
  0
SPLINE
  5
1df
100
AcDbEntity
  8
0
 62
1
100
AcDbSpline
 70
8
 71
3
 72
8
 73
4
 74
0
 40
0
 40
0
 40
0
 40
0
 40
1
 40
1
 40
1
 40
1
 10
-24.973880
 20
100.952313
 30
0.0
 10
-24.810243
 20
101.046864
 30
0.0
 10
-24.696057
 20
101.228522
 30
0.0
 10
-24.663830
 20
101.384329
 30
0.0
  0
SPLINE
  5
1e0
100
AcDbEntity
  8
0
 62
1
100
AcDbSpline
 70
8
 71
3
 72
8
 73
4
 74
0
 40
0
 40
0
 40
0
 40
0
 40
1
 40
1
 40
1
 40
1
 10
-24.663830
 20
101.384329
 30
0.0
 10
-24.631594
 20
101.540129
 30
0.0
 10
-24.653565
 20
101.671514
 30
0.0
 10
-24.693572
 20
101.787660
 30
0.0
  0
LINE
  5
1e1
100
AcDbEntity
  8
0
 62
1
100
AcDbLine
 10
-24.693572
 20
101.787660
 30
0.0
 11
-25.684375
 21
104.657988
 31
0.0
  0
LINE
  5
1e2
100
AcDbEntity
  8
0
 62
1
100
AcDbLine
 10
-25.684375
 20
104.657988
 30
0.0
 11
-24.334077
 21
106.417557
 31
0.0
  0
LINE
  5
1e3
100
AcDbEntity
  8
0
 62
1
100
AcDbLine
 10
-24.334077
 20
106.417557
 30
0.0
 11
-21.302971
 21
106.204059
 31
0.0
  0
LINE
  5
1e4
100
AcDbEntity
  8
0
 62
1
100
AcDbLine
 10
-21.302971
 20
106.204059
 30
0.0
 11
-21.302497
 21
106.215612
 31
0.0
  0
SPLINE
  5
1e5
100
AcDbEntity
  8
0
 62
1
100
AcDbSpline
 70
8
 71
3
 72
8
 73
4
 74
0
 40
0
 40
0
 40
0
 40
0
 40
1
 40
1
 40
1
 40
1
 10
-21.302497
 20
106.215612
 30
0.0
 10
-20.986385
 20
106.180380
 30
0.0
 10
-20.663833
 20
106.378662
 30
0.0
 10
-20.578849
 20
106.690437
 30
0.0
  0
LINE
  5
1e6
100
AcDbEntity
  8
0
 62
1
100
AcDbLine
 10
-20.578849
 20
106.690437
 30
0.0
 11
-20.576217
 21
106.691957
 31
0.0
  0
LINE
  5
1e7
100
AcDbEntity
  8
0
 62
1
100
AcDbLine
 10
-20.576217
 20
106.691957
 30
0.0
 11
-19.745134
 21
109.776716
 31
0.0
  0
SPLINE
  5
1e8
100
AcDbEntity
  8
0
 62
1
100
AcDbSpline
 70
8
 71
3
 72
8
 73
4
 74
0
 40
0
 40
0
 40
0
 40
0
 40
1
 40
1
 40
1
 40
1
 10
-19.745134
 20
109.776716
 30
0.0
 10
-19.697232
 20
109.955649
 30
0.0
 10
-19.737822
 20
110.159868
 30
0.0
 10
-19.823235
 20
110.294668
 30
0.0
  0
SPLINE
  5
1e9
100
AcDbEntity
  8
0
 62
1
100
AcDbSpline
 70
8
 71
3
 72
8
 73
4
 74
0
 40
0
 40
0
 40
0
 40
0
 40
1
 40
1
 40
1
 40
1
 10
-19.823235
 20
110.294668
 30
0.0
 10
-19.908599
 20
110.429497
 30
0.0
 10
-20.020507
 20
110.512378
 30
0.0
 10
-20.134125
 20
110.567739
 30
0.0
  0
LINE
  5
1ea
100
AcDbEntity
  8
0
 62
1
100
AcDbLine
 10
-20.134125
 20
110.567739
 30
0.0
 11
-22.870104
 21
111.899530
 31
0.0
  0
SPLINE
  5
1eb
100
AcDbEntity
  8
0
 62
1
100
AcDbSpline
 70
8
 71
3
 72
8
 73
4
 74
0
 40
0
 40
0
 40
0
 40
0
 40
1
 40
1
 40
1
 40
1
 10
-22.870104
 20
111.899530
 30
0.0
 10
-22.870104
 20
111.899530
 30
0.0
 10
-23.018730
 20
113.039585
 30
0.0
 10
-23.018730
 20
113.039585
 30
0.0
  0
SPLINE
  5
1ec
100
AcDbEntity
  8
0
 62
1
100
AcDbSpline
 70
8
 71
3
 72
8
 73
4
 74
0
 40
0
 40
0
 40
0
 40
0
 40
1
 40
1
 40
1
 40
1
 10
-23.018730
 20
113.039585
 30
0.0
 10
-23.034660
 20
113.162671
 30
0.0
 10
-23.098966
 20
113.274341
 30
0.0
 10
-23.197426
 20
113.349901
 30
0.0
  0
SPLINE
  5
1ed
100
AcDbEntity
  8
0
 62
1
100
AcDbSpline
 70
8
 71
3
 72
8
 73
4
 74
0
 40
0
 40
0
 40
0
 40
0
 40
1
 40
1
 40
1
 40
1
 10
-23.197426
 20
113.349901
 30
0.0
 10
-23.295887
 20
113.425462
 30
0.0
 10
-23.420392
 20
113.458688
 30
0.0
 10
-23.543409
 20
113.442233
 30
0.0
  0
SPLINE
  5
1ee
100
AcDbEntity
  8
0
 62
1
100
AcDbSpline
 70
8
 71
3
 72
8
 73
4
 74
0
 40
0
 40
0
 40
0
 40
0
 40
1
 40
1
 40
1
 40
1
 10
-23.543409
 20
113.442233
 30
0.0
 10
-23.543409
 20
113.442233
 30
0.0
 10
-29.526565
 20
112.621303
 30
0.0
 10
-29.526565
 20
112.621303
 30
0.0
  0
SPLINE
  5
1ef
100
AcDbEntity
  8
0
 62
1
100
AcDbSpline
 70
8
 71
3
 72
8
 73
4
 74
0
 40
0
 40
0
 40
0
 40
0
 40
1
 40
1
 40
1
 40
1
 10
-29.526565
 20
112.621303
 30
0.0
 10
-29.781163
 20
112.586769
 30
0.0
 10
-29.959955
 20
112.352935
 30
0.0
 10
-29.926544
 20
112.098187
 30
0.0
  0
SPLINE
  5
1f0
100
AcDbEntity
  8
0
 62
1
100
AcDbSpline
 70
8
 71
3
 72
8
 73
4
 74
0
 40
0
 40
0
 40
0
 40
0
 40
1
 40
1
 40
1
 40
1
 10
-29.926544
 20
112.098187
 30
0.0
 10
-29.761508
 20
110.882845
 30
0.0
 10
-30.320396
 20
109.636458
 30
0.0
 10
-31.452629
 20
108.982763
 30
0.0
  0
SPLINE
  5
1f1
100
AcDbEntity
  8
0
 62
1
100
AcDbSpline
 70
8
 71
3
 72
8
 73
4
 74
0
 40
0
 40
0
 40
0
 40
0
 40
1
 40
1
 40
1
 40
1
 10
-31.452629
 20
108.982763
 30
0.0
 10
-32.947507
 20
108.119695
 30
0.0
 10
-34.845870
 20
108.626087
 30
0.0
 10
-35.708945
 20
110.120977
 30
0.0
  0
SPLINE
  5
1f2
100
AcDbEntity
  8
0
 62
1
100
AcDbSpline
 70
8
 71
3
 72
8
 73
4
 74
0
 40
0
 40
0
 40
0
 40
0
 40
1
 40
1
 40
1
 40
1
 10
-35.708945
 20
110.120977
 30
0.0
 10
-36.571998
 20
111.615830
 30
0.0
 10
-36.061387
 20
113.513107
 30
0.0
 10
-34.566515
 20
114.376171
 30
0.0
  0
SPLINE
  5
1f3
100
AcDbEntity
  8
0
 62
1
100
AcDbSpline
 70
8
 71
3
 72
8
 73
4
 74
0
 40
0
 40
0
 40
0
 40
0
 40
1
 40
1
 40
1
 40
1
 10
-34.566515
 20
114.376171
 30
0.0
 10
-33.434282
 20
115.029866
 30
0.0
 10
-32.075435
 20
114.890684
 30
0.0
 10
-31.105436
 20
114.140087
 30
0.0
  0
SPLINE
  5
1f4
100
AcDbEntity
  8
0
 62
1
100
AcDbSpline
 70
8
 71
3
 72
8
 73
4
 74
0
 40
0
 40
0
 40
0
 40
0
 40
1
 40
1
 40
1
 40
1
 10
-31.105436
 20
114.140087
 30
0.0
 10
-30.901522
 20
113.983761
 30
0.0
 10
-30.609603
 20
114.021678
 30
0.0
 10
-30.452391
 20
114.224910
 30
0.0
  0
LINE
  5
1f5
100
AcDbEntity
  8
0
 62
1
100
AcDbLine
 10
-30.452391
 20
114.224910
 30
0.0
 11
-26.749867
 21
118.996011
 31
0.0
  0
SPLINE
  5
1f6
100
AcDbEntity
  8
0
 62
1
100
AcDbSpline
 70
8
 71
3
 72
8
 73
4
 74
0
 40
0
 40
0
 40
0
 40
0
 40
1
 40
1
 40
1
 40
1
 10
-26.749867
 20
118.996011
 30
0.0
 10
-26.674105
 20
119.094321
 30
0.0
 10
-26.640627
 20
119.218760
 30
0.0
 10
-26.656835
 20
119.341813
 30
0.0
  0
SPLINE
  5
1f7
100
AcDbEntity
  8
0
 62
1
100
AcDbSpline
 70
8
 71
3
 72
8
 73
4
 74
0
 40
0
 40
0
 40
0
 40
0
 40
1
 40
1
 40
1
 40
1
 10
-26.656835
 20
119.341813
 30
0.0
 10
-26.673043
 20
119.464865
 30
0.0
 10
-26.737602
 20
119.576391
 30
0.0
 10
-26.836236
 20
119.651730
 30
0.0
  0
LINE
  5
1f8
100
AcDbEntity
  8
0
 62
1
100
AcDbLine
 10
-26.836236
 20
119.651730
 30
0.0
 11
-27.749235
 21
120.350461
 31
0.0
  0
LINE
  5
1f9
100
AcDbEntity
  8
0
 62
1
100
AcDbLine
 10
-27.749235
 20
120.350461
 30
0.0
 11
-27.534609
 21
123.385785
 31
0.0
  0
LINE
  5
1fa
100
AcDbEntity
  8
0
 62
1
100
AcDbLine
 10
-27.534609
 20
123.385785
 30
0.0
 11
-27.545855
 21
123.386812
 31
0.0
  0
SPLINE
  5
1fb
100
AcDbEntity
  8
0
 62
1
100
AcDbSpline
 70
8
 71
3
 72
8
 73
4
 74
0
 40
0
 40
0
 40
0
 40
0
 40
1
 40
1
 40
1
 40
1
 10
-27.545855
 20
123.386812
 30
0.0
 10
-27.506377
 20
123.710716
 30
0.0
 10
-27.702686
 20
124.032079
 30
0.0
 10
-28.025298
 20
124.118480
 30
0.0
  0
LINE
  5
1fc
100
AcDbEntity
  8
0
 62
1
100
AcDbLine
 10
-28.025298
 20
124.118480
 30
0.0
 11
-31.113866
 21
124.943801
 31
0.0
  0
SPLINE
  5
1fd
100
AcDbEntity
  8
0
 62
1
100
AcDbSpline
 70
8
 71
3
 72
8
 73
4
 74
0
 40
0
 40
0
 40
0
 40
0
 40
1
 40
1
 40
1
 40
1
 10
-31.113866
 20
124.943801
 30
0.0
 10
-31.288265
 20
124.990540
 30
0.0
 10
-31.491662
 20
124.950890
 30
0.0
 10
-31.627599
 20
124.864573
 30
0.0
  0
SPLINE
  5
1fe
100
AcDbEntity
  8
0
 62
1
100
AcDbSpline
 70
8
 71
3
 72
8
 73
4
 74
0
 40
0
 40
0
 40
0
 40
0
 40
1
 40
1
 40
1
 40
1
 10
-31.627599
 20
124.864573
 30
0.0
 10
-31.763673
 20
124.778491
 30
0.0
 10
-31.844243
 20
124.665422
 30
0.0
 10
-31.898002
 20
124.555225
 30
0.0
  0
LINE
  5
1ff
100
AcDbEntity
  8
0
 62
1
100
AcDbLine
 10
-31.898002
 20
124.555225
 30
0.0
 11
-33.231337
 21
121.821916
 31
0.0
  0
LINE
  5
200
100
AcDbEntity
  8
0
 62
1
100
AcDbLine
 10
-33.231337
 20
121.821916
 30
0.0
 11
-35.427645
 21
121.533851
 31
0.0
  0
LINE
  5
201
100
AcDbEntity
  8
0
 62
1
100
AcDbLine
 10
-35.427645
 20
121.533851
 30
0.0
 11
-37.419563
 21
123.829751
 31
0.0
  0
LINE
  5
202
100
AcDbEntity
  8
0
 62
1
100
AcDbLine
 10
-37.419563
 20
123.829751
 30
0.0
 11
-37.425925
 21
123.822318
 31
0.0
  0
SPLINE
  5
203
100
AcDbEntity
  8
0
 62
1
100
AcDbSpline
 70
8
 71
3
 72
8
 73
4
 74
0
 40
0
 40
0
 40
0
 40
0
 40
1
 40
1
 40
1
 40
1
 10
-37.425925
 20
123.822318
 30
0.0
 10
-37.625476
 20
124.075973
 30
0.0
 10
-37.996613
 20
124.166342
 30
0.0
 10
-38.281492
 20
124.001867
 30
0.0
  0
LINE
  5
204
100
AcDbEntity
  8
0
 62
1
100
AcDbLine
 10
-38.281492
 20
124.001867
 30
0.0
 11
-41.050357
 21
122.403262
 31
0.0
  0
SPLINE
  5
205
100
AcDbEntity
  8
0
 62
1
100
AcDbSpline
 70
8
 71
3
 72
8
 73
4
 74
0
 40
0
 40
0
 40
0
 40
0
 40
1
 40
1
 40
1
 40
1
 10
-41.050357
 20
122.403262
 30
0.0
 10
-41.208443
 20
122.312067
 30
0.0
 10
-41.324706
 20
122.138961
 30
0.0
 10
-41.359692
 20
121.982350
 30
0.0
  0
SPLINE
  5
206
100
AcDbEntity
  8
0
 62
1
100
AcDbSpline
 70
8
 71
3
 72
8
 73
4
 74
0
 40
0
 40
0
 40
0
 40
0
 40
1
 40
1
 40
1
 40
1
 10
-41.359692
 20
121.982350
 30
0.0
 10
-41.394698
 20
121.825777
 30
0.0
 10
-41.372625
 20
121.687922
 30
0.0
 10
-41.332212
 20
121.570594
 30
0.0
  0
LINE
  5
207
100
AcDbEntity
  8
0
 62
1
100
AcDbLine
 10
-41.332212
 20
121.570594
 30
0.0
 11
-40.339443
 21
118.690691
 31
0.0
  0
LINE
  5
208
100
AcDbEntity
  8
0
 62
1
100
AcDbLine
 10
-40.339443
 20
118.690691
 30
0.0
 11
-41.682139
 21
116.942642
 31
0.0
  0
LINE
  5
209
100
AcDbEntity
  8
0
 62
1
100
AcDbLine
 10
-41.682139
 20
116.942642
 30
0.0
 11
-44.715917
 21
117.154597
 31
0.0
  0
LINE
  5
20a
100
AcDbEntity
  8
0
 62
1
100
AcDbLine
 10
-44.715917
 20
117.154597
 30
0.0
 11
-44.716391
 21
117.143044
 31
0.0
  0
SPLINE
  5
20b
100
AcDbEntity
  8
0
 62
1
100
AcDbSpline
 70
8
 71
3
 72
8
 73
4
 74
0
 40
0
 40
0
 40
0
 40
0
 40
1
 40
1
 40
1
 40
1
 10
-44.716391
 20
117.143044
 30
0.0
 10
-45.041158
 20
117.183945
 30
0.0
 10
-45.362957
 20
116.989632
 30
0.0
 10
-45.449577
 20
116.666222
 30
0.0
  0
LINE
  5
20c
100
AcDbEntity
  8
0
 62
1
100
AcDbLine
 10
-45.449577
 20
116.666222
 30
0.0
 11
-46.279103
 21
113.578776
 31
0.0
  0
SPLINE
  5
20d
100
AcDbEntity
  8
0
 62
1
100
AcDbSpline
 70
8
 71
3
 72
8
 73
4
 74
0
 40
0
 40
0
 40
0
 40
0
 40
1
 40
1
 40
1
 40
1
 10
-46.279103
 20
113.578776
 30
0.0
 10
-46.327104
 20
113.399836
 30
0.0
 10
-46.286416
 20
113.195624
 30
0.0
 10
-46.201008
 20
113.060833
 30
0.0
  0
SPLINE
  5
20e
100
AcDbEntity
  8
0
 62
1
100
AcDbSpline
 70
8
 71
3
 72
8
 73
4
 74
0
 40
0
 40
0
 40
0
 40
0
 40
1
 40
1
 40
1
 40
1
 10
-46.201008
 20
113.060833
 30
0.0
 10
-46.115551
 20
112.926059
 30
0.0
 10
-46.003615
 20
112.843131
 30
0.0
 10
-45.890112
 20
112.787754
 30
0.0
  0
LINE
  5
20f
100
AcDbEntity
  8
0
 62
1
100
AcDbLine
 10
-45.890112
 20
112.787754
 30
0.0
 11
-43.158353
 21
111.457098
 31
0.0
  0
LINE
  5
210
100
AcDbEntity
  8
0
 62
1
100
AcDbLine
 10
-43.158353
 20
111.457098
 30
0.0
 11
-42.866484
 21
109.266552
 31
0.0
  0
LINE
  5
211
100
AcDbEntity
  8
0
 62
1
100
AcDbLine
 10
-42.866484
 20
109.266552
 30
0.0
 11
-45.162385
 21
107.274633
 31
0.0
  0
LINE
  5
212
100
AcDbEntity
  8
0
 62
1
100
AcDbLine
 10
-45.162385
 20
107.274633
 30
0.0
 11
-45.153566
 21
107.265436
 31
0.0
  0
SPLINE
  5
213
100
AcDbEntity
  8
0
 62
1
100
AcDbSpline
 70
8
 71
3
 72
8
 73
4
 74
0
 40
0
 40
0
 40
0
 40
0
 40
1
 40
1
 40
1
 40
1
 10
-45.153566
 20
107.265436
 30
0.0
 10
-45.408946
 20
107.066356
 30
0.0
 10
-45.499562
 20
106.698164
 30
0.0
 10
-45.334661
 20
106.412547
 30
0.0
  0
LINE
  5
214
100
AcDbEntity
  8
0
 62
1
100
AcDbLine
 10
-45.334661
 20
106.412547
 30
0.0
 11
-43.736095
 21
103.643750
 31
0.0
  0
LINE
  5
215
100
AcDbEntity
  8
0
 62
1
100
AcDbLine
 10
-43.736095
 20
103.643750
 30
0.0
 11
-43.735986
 21
103.643800
 31
0.0
  0
SPLINE
  5
216
100
AcDbEntity
  8
0
 62
5
100
AcDbSpline
 70
8
 71
3
 72
8
 73
4
 74
0
 40
0
 40
0
 40
0
 40
0
 40
1
 40
1
 40
1
 40
1
 10
112.635439
 20
106.651393
 30
0.0
 10
112.691582
 20
106.748635
 30
0.0
 10
112.648883
 20
106.856984
 30
0.0
 10
112.564119
 20
106.930613
 30
0.0
  0
LINE
  5
217
100
AcDbEntity
  8
0
 62
5
100
AcDbLine
 10
112.564119
 20
106.930613
 30
0.0
 11
110.079532
 21
109.090364
 31
0.0
  0
LINE
  5
218
100
AcDbEntity
  8
0
 62
5
100
AcDbLine
 10
110.079532
 20
109.090364
 30
0.0
 11
110.431637
 21
111.771514
 31
0.0
  0
LINE
  5
219
100
AcDbEntity
  8
0
 62
5
100
AcDbLine
 10
110.431637
 20
111.771514
 30
0.0
 11
113.392603
 21
113.217769
 31
0.0
  0
SPLINE
  5
21a
100
AcDbEntity
  8
0
 62
5
100
AcDbSpline
 70
8
 71
3
 72
8
 73
4
 74
0
 40
0
 40
0
 40
0
 40
0
 40
1
 40
1
 40
1
 40
1
 10
113.392603
 20
113.217769
 30
0.0
 10
113.501035
 20
113.246784
 30
0.0
 10
113.565483
 20
113.358432
 30
0.0
 10
113.536436
 20
113.466896
 30
0.0
  0
LINE
  5
21b
100
AcDbEntity
  8
0
 62
5
100
AcDbLine
 10
113.536436
 20
113.466896
 30
0.0
 11
112.705694
 21
116.554153
 31
0.0
  0
SPLINE
  5
21c
100
AcDbEntity
  8
0
 62
5
100
AcDbSpline
 70
8
 71
3
 72
8
 73
4
 74
0
 40
0
 40
0
 40
0
 40
0
 40
1
 40
1
 40
1
 40
1
 10
112.705694
 20
116.554153
 30
0.0
 10
112.676605
 20
116.662566
 30
0.0
 10
112.568590
 20
116.705878
 30
0.0
 10
112.456557
 20
116.697993
 30
0.0
  0
LINE
  5
21d
100
AcDbEntity
  8
0
 62
5
100
AcDbLine
 10
112.456557
 20
116.697993
 30
0.0
 11
109.173338
 21
116.467597
 31
0.0
  0
LINE
  5
21e
100
AcDbEntity
  8
0
 62
5
100
AcDbLine
 10
109.173338
 20
116.467597
 30
0.0
 11
107.523668
 21
118.615894
 31
0.0
  0
LINE
  5
21f
100
AcDbEntity
  8
0
 62
5
100
AcDbLine
 10
107.523668
 20
118.615894
 30
0.0
 11
108.595514
 21
121.728585
 31
0.0
  0
SPLINE
  5
220
100
AcDbEntity
  8
0
 62
5
100
AcDbSpline
 70
8
 71
3
 72
8
 73
4
 74
0
 40
0
 40
0
 40
0
 40
0
 40
1
 40
1
 40
1
 40
1
 10
108.595514
 20
121.728585
 30
0.0
 10
108.651652
 20
121.825817
 30
0.0
 10
108.621437
 20
121.951687
 30
0.0
 10
108.524205
 20
122.007824
 30
0.0
  0
LINE
  5
221
100
AcDbEntity
  8
0
 62
5
100
AcDbLine
 10
108.524205
 20
122.007824
 30
0.0
 11
105.754630
 21
123.606839
 31
0.0
  0
SPLINE
  5
222
100
AcDbEntity
  8
0
 62
5
100
AcDbSpline
 70
8
 71
3
 72
8
 73
4
 74
0
 40
0
 40
0
 40
0
 40
0
 40
1
 40
1
 40
1
 40
1
 10
105.754630
 20
123.606839
 30
0.0
 10
105.657375
 20
123.662939
 30
0.0
 10
105.550802
 20
123.613725
 30
0.0
 10
105.477148
 20
123.528974
 30
0.0
  0
LINE
  5
223
100
AcDbEntity
  8
0
 62
5
100
AcDbLine
 10
105.477148
 20
123.528974
 30
0.0
 11
103.319800
 21
121.048537
 31
0.0
  0
LINE
  5
224
100
AcDbEntity
  8
0
 62
5
100
AcDbLine
 10
103.319800
 20
121.048537
 30
0.0
 11
100.627935
 21
121.401287
 31
0.0
  0
LINE
  5
225
100
AcDbEntity
  8
0
 62
5
100
AcDbLine
 10
100.627935
 20
121.401287
 30
0.0
 11
99.185854
 21
124.359837
 31
0.0
  0
SPLINE
  5
226
100
AcDbEntity
  8
0
 62
5
100
AcDbSpline
 70
8
 71
3
 72
8
 73
4
 74
0
 40
0
 40
0
 40
0
 40
0
 40
1
 40
1
 40
1
 40
1
 10
99.185854
 20
124.359837
 30
0.0
 10
99.156774
 20
124.468244
 30
0.0
 10
99.049303
 20
124.530293
 30
0.0
 10
98.940868
 20
124.501280
 30
0.0
  0
LINE
  5
227
100
AcDbEntity
  8
0
 62
5
100
AcDbLine
 10
98.940868
 20
124.501280
 30
0.0
 11
95.851855
 21
123.677093
 31
0.0
  0
SPLINE
  5
228
100
AcDbEntity
  8
0
 62
5
100
AcDbSpline
 70
8
 71
3
 72
8
 73
4
 74
0
 40
0
 40
0
 40
0
 40
0
 40
1
 40
1
 40
1
 40
1
 10
95.851855
 20
123.677093
 30
0.0
 10
95.743369
 20
123.647985
 30
0.0
 10
95.700144
 20
123.539925
 30
0.0
 10
95.708022
 20
123.427967
 30
0.0
  0
LINE
  5
229
100
AcDbEntity
  8
0
 62
5
100
AcDbLine
 10
95.708022
 20
123.427967
 30
0.0
 11
95.938414
 21
120.144732
 31
0.0
  0
LINE
  5
22a
100
AcDbEntity
  8
0
 62
5
100
AcDbLine
 10
95.938414
 20
120.144732
 30
0.0
 11
94.826079
 21
119.292112
 31
0.0
  0
LINE
  5
22b
100
AcDbEntity
  8
0
 62
5
100
AcDbLine
 10
94.826079
 20
119.292112
 30
0.0
 11
98.526518
 21
114.520348
 31
0.0
  0
SPLINE
  5
22c
100
AcDbEntity
  8
0
 62
5
100
AcDbSpline
 70
8
 71
3
 72
8
 73
4
 74
0
 40
0
 40
0
 40
0
 40
0
 40
1
 40
1
 40
1
 40
1
 10
98.526518
 20
114.520348
 30
0.0
 10
99.642390
 20
115.383823
 30
0.0
 10
101.210627
 20
115.539565
 30
0.0
 10
102.508109
 20
114.790463
 30
0.0
  0
SPLINE
  5
22d
100
AcDbEntity
  8
0
 62
5
100
AcDbSpline
 70
8
 71
3
 72
8
 73
4
 74
0
 40
0
 40
0
 40
0
 40
0
 40
1
 40
1
 40
1
 40
1
 10
102.508109
 20
114.790463
 30
0.0
 10
104.221333
 20
113.801333
 30
0.0
 10
104.808197
 20
111.611134
 30
0.0
 10
103.819062
 20
109.897903
 30
0.0
  0
SPLINE
  5
22e
100
AcDbEntity
  8
0
 62
5
100
AcDbSpline
 70
8
 71
3
 72
8
 73
4
 74
0
 40
0
 40
0
 40
0
 40
0
 40
1
 40
1
 40
1
 40
1
 10
103.819062
 20
109.897903
 30
0.0
 10
102.829944
 20
108.184699
 30
0.0
 10
100.639727
 20
107.597811
 30
0.0
 10
98.926504
 20
108.586941
 30
0.0
  0
SPLINE
  5
22f
100
AcDbEntity
  8
0
 62
5
100
AcDbSpline
 70
8
 71
3
 72
8
 73
4
 74
0
 40
0
 40
0
 40
0
 40
0
 40
1
 40
1
 40
1
 40
1
 10
98.926504
 20
108.586941
 30
0.0
 10
97.629021
 20
109.336043
 30
0.0
 10
96.979780
 20
110.772047
 30
0.0
 10
97.169635
 20
112.170158
 30
0.0
  0
LINE
  5
230
100
AcDbEntity
  8
0
 62
5
100
AcDbLine
 10
97.169635
 20
112.170158
 30
0.0
 11
91.186947
 21
112.988950
 31
0.0
  0
LINE
  5
231
100
AcDbEntity
  8
0
 62
5
100
AcDbLine
 10
91.186947
 20
112.988950
 30
0.0
 11
91.004724
 21
111.599330
 31
0.0
  0
LINE
  5
232
100
AcDbEntity
  8
0
 62
5
100
AcDbLine
 10
91.004724
 20
111.599330
 30
0.0
 11
88.046168
 21
110.157247
 31
0.0
  0
SPLINE
  5
233
100
AcDbEntity
  8
0
 62
5
100
AcDbSpline
 70
8
 71
3
 72
8
 73
4
 74
0
 40
0
 40
0
 40
0
 40
0
 40
1
 40
1
 40
1
 40
1
 10
88.046168
 20
110.157247
 30
0.0
 10
87.937736
 20
110.128232
 30
0.0
 10
87.873257
 20
110.016552
 30
0.0
 10
87.902335
 20
109.908121
 30
0.0
  0
LINE
  5
234
100
AcDbEntity
  8
0
 62
5
100
AcDbLine
 10
87.902335
 20
109.908121
 30
0.0
 11
88.733070
 21
106.820855
 31
0.0
  0
SPLINE
  5
235
100
AcDbEntity
  8
0
 62
5
100
AcDbSpline
 70
8
 71
3
 72
8
 73
4
 74
0
 40
0
 40
0
 40
0
 40
0
 40
1
 40
1
 40
1
 40
1
 10
88.733070
 20
106.820855
 30
0.0
 10
88.762104
 20
106.712348
 30
0.0
 10
88.866023
 20
106.671527
 30
0.0
 10
88.978055
 20
106.679412
 30
0.0
  0
LINE
  5
236
100
AcDbEntity
  8
0
 62
5
100
AcDbLine
 10
88.978055
 20
106.679412
 30
0.0
 11
92.261281
 21
106.909817
 31
0.0
  0
LINE
  5
237
100
AcDbEntity
  8
0
 62
5
100
AcDbLine
 10
92.261281
 20
106.909817
 30
0.0
 11
93.912709
 21
104.754978
 31
0.0
  0
LINE
  5
238
100
AcDbEntity
  8
0
 62
5
100
AcDbLine
 10
93.912709
 20
104.754978
 30
0.0
 11
92.840855
 21
101.642271
 31
0.0
  0
SPLINE
  5
239
100
AcDbEntity
  8
0
 62
5
100
AcDbSpline
 70
8
 71
3
 72
8
 73
4
 74
0
 40
0
 40
0
 40
0
 40
0
 40
1
 40
1
 40
1
 40
1
 10
92.840855
 20
101.642271
 30
0.0
 10
92.784733
 20
101.545067
 30
0.0
 10
92.817330
 20
101.423324
 30
0.0
 10
92.914561
 20
101.367187
 30
0.0
  0
LINE
  5
23a
100
AcDbEntity
  8
0
 62
5
100
AcDbLine
 10
92.914561
 20
101.367187
 30
0.0
 11
95.684137
 21
99.768172
 31
0.0
  0
SPLINE
  5
23b
100
AcDbEntity
  8
0
 62
5
100
AcDbSpline
 70
8
 71
3
 72
8
 73
4
 74
0
 40
0
 40
0
 40
0
 40
0
 40
1
 40
1
 40
1
 40
1
 10
95.684137
 20
99.768172
 30
0.0
 10
95.781353
 20
99.712007
 30
0.0
 10
95.885577
 20
99.757150
 30
0.0
 10
95.959221
 20
99.841882
 30
0.0
  0
LINE
  5
23c
100
AcDbEntity
  8
0
 62
5
100
AcDbLine
 10
95.959221
 20
99.841882
 30
0.0
 11
98.121363
 21
102.330625
 31
0.0
  0
LINE
  5
23d
100
AcDbEntity
  8
0
 62
5
100
AcDbLine
 10
98.121363
 20
102.330625
 30
0.0
 11
100.806684
 21
101.976126
 31
0.0
  0
LINE
  5
23e
100
AcDbEntity
  8
0
 62
5
100
AcDbLine
 10
100.806684
 20
101.976126
 30
0.0
 11
102.248759
 21
99.017567
 31
0.0
  0
SPLINE
  5
23f
100
AcDbEntity
  8
0
 62
5
100
AcDbSpline
 70
8
 71
3
 72
8
 73
4
 74
0
 40
0
 40
0
 40
0
 40
0
 40
1
 40
1
 40
1
 40
1
 10
102.248759
 20
99.017567
 30
0.0
 10
102.277784
 20
98.909067
 30
0.0
 10
102.389408
 20
98.844621
 30
0.0
 10
102.497896
 20
98.873728
 30
0.0
  0
LINE
  5
240
100
AcDbEntity
  8
0
 62
5
100
AcDbLine
 10
102.497896
 20
98.873728
 30
0.0
 11
105.586916
 21
99.697923
 31
0.0
  0
SPLINE
  5
241
100
AcDbEntity
  8
0
 62
5
100
AcDbSpline
 70
8
 71
3
 72
8
 73
4
 74
0
 40
0
 40
0
 40
0
 40
0
 40
1
 40
1
 40
1
 40
1
 10
105.586916
 20
99.697923
 30
0.0
 10
105.695348
 20
99.726938
 30
0.0
 10
105.738578
 20
99.835007
 30
0.0
 10
105.730749
 20
99.947049
 30
0.0
  0
LINE
  5
242
100
AcDbEntity
  8
0
 62
5
100
AcDbLine
 10
105.730749
 20
99.947049
 30
0.0
 11
105.500351
 21
103.230275
 31
0.0
  0
LINE
  5
243
100
AcDbEntity
  8
0
 62
5
100
AcDbLine
 10
105.500351
 20
103.230275
 30
0.0
 11
107.648646
 21
104.879946
 31
0.0
  0
LINE
  5
244
100
AcDbEntity
  8
0
 62
5
100
AcDbLine
 10
107.648646
 20
104.879946
 30
0.0
 11
110.761333
 21
103.808097
 31
0.0
  0
SPLINE
  5
245
100
AcDbEntity
  8
0
 62
5
100
AcDbSpline
 70
8
 71
3
 72
8
 73
4
 74
0
 40
0
 40
0
 40
0
 40
0
 40
1
 40
1
 40
1
 40
1
 10
110.761333
 20
103.808097
 30
0.0
 10
110.858568
 20
103.751958
 30
0.0
 10
110.980286
 20
103.784583
 30
0.0
 10
111.036428
 20
103.881825
 30
0.0
  0
LINE
  5
246
100
AcDbEntity
  8
0
 62
5
100
AcDbLine
 10
111.036428
 20
103.881825
 30
0.0
 11
112.635439
 21
106.651393
 31
0.0
  0
SPLINE
  5
247
100
AcDbEntity
  8
0
 62
2
100
AcDbSpline
 70
8
 71
3
 72
8
 73
4
 74
0
 40
0
 40
0
 40
0
 40
0
 40
1
 40
1
 40
1
 40
1
 10
112.635439
 20
106.651393
 30
0.0
 10
112.691582
 20
106.748635
 30
0.0
 10
112.648883
 20
106.856984
 30
0.0
 10
112.564119
 20
106.930613
 30
0.0
  0
LINE
  5
248
100
AcDbEntity
  8
0
 62
2
100
AcDbLine
 10
112.564119
 20
106.930613
 30
0.0
 11
110.079532
 21
109.090364
 31
0.0
  0
LINE
  5
249
100
AcDbEntity
  8
0
 62
2
100
AcDbLine
 10
110.079532
 20
109.090364
 30
0.0
 11
110.431637
 21
111.771514
 31
0.0
  0
LINE
  5
24a
100
AcDbEntity
  8
0
 62
2
100
AcDbLine
 10
110.431637
 20
111.771514
 30
0.0
 11
113.392603
 21
113.217769
 31
0.0
  0
SPLINE
  5
24b
100
AcDbEntity
  8
0
 62
2
100
AcDbSpline
 70
8
 71
3
 72
8
 73
4
 74
0
 40
0
 40
0
 40
0
 40
0
 40
1
 40
1
 40
1
 40
1
 10
113.392603
 20
113.217769
 30
0.0
 10
113.501035
 20
113.246784
 30
0.0
 10
113.565483
 20
113.358432
 30
0.0
 10
113.536436
 20
113.466896
 30
0.0
  0
LINE
  5
24c
100
AcDbEntity
  8
0
 62
2
100
AcDbLine
 10
113.536436
 20
113.466896
 30
0.0
 11
112.705694
 21
116.554153
 31
0.0
  0
SPLINE
  5
24d
100
AcDbEntity
  8
0
 62
2
100
AcDbSpline
 70
8
 71
3
 72
8
 73
4
 74
0
 40
0
 40
0
 40
0
 40
0
 40
1
 40
1
 40
1
 40
1
 10
112.705694
 20
116.554153
 30
0.0
 10
112.676605
 20
116.662566
 30
0.0
 10
112.568590
 20
116.705878
 30
0.0
 10
112.456557
 20
116.697993
 30
0.0
  0
LINE
  5
24e
100
AcDbEntity
  8
0
 62
2
100
AcDbLine
 10
112.456557
 20
116.697993
 30
0.0
 11
109.173338
 21
116.467597
 31
0.0
  0
LINE
  5
24f
100
AcDbEntity
  8
0
 62
2
100
AcDbLine
 10
109.173338
 20
116.467597
 30
0.0
 11
107.523668
 21
118.615894
 31
0.0
  0
LINE
  5
250
100
AcDbEntity
  8
0
 62
2
100
AcDbLine
 10
107.523668
 20
118.615894
 30
0.0
 11
108.595514
 21
121.728585
 31
0.0
  0
SPLINE
  5
251
100
AcDbEntity
  8
0
 62
2
100
AcDbSpline
 70
8
 71
3
 72
8
 73
4
 74
0
 40
0
 40
0
 40
0
 40
0
 40
1
 40
1
 40
1
 40
1
 10
108.595514
 20
121.728585
 30
0.0
 10
108.651652
 20
121.825817
 30
0.0
 10
108.621437
 20
121.951687
 30
0.0
 10
108.524205
 20
122.007824
 30
0.0
  0
LINE
  5
252
100
AcDbEntity
  8
0
 62
2
100
AcDbLine
 10
108.524205
 20
122.007824
 30
0.0
 11
105.754630
 21
123.606839
 31
0.0
  0
SPLINE
  5
253
100
AcDbEntity
  8
0
 62
2
100
AcDbSpline
 70
8
 71
3
 72
8
 73
4
 74
0
 40
0
 40
0
 40
0
 40
0
 40
1
 40
1
 40
1
 40
1
 10
105.754630
 20
123.606839
 30
0.0
 10
105.657375
 20
123.662939
 30
0.0
 10
105.550802
 20
123.613725
 30
0.0
 10
105.477148
 20
123.528974
 30
0.0
  0
LINE
  5
254
100
AcDbEntity
  8
0
 62
2
100
AcDbLine
 10
105.477148
 20
123.528974
 30
0.0
 11
103.319800
 21
121.048537
 31
0.0
  0
LINE
  5
255
100
AcDbEntity
  8
0
 62
2
100
AcDbLine
 10
103.319800
 20
121.048537
 30
0.0
 11
100.627935
 21
121.401287
 31
0.0
  0
LINE
  5
256
100
AcDbEntity
  8
0
 62
2
100
AcDbLine
 10
100.627935
 20
121.401287
 30
0.0
 11
99.185854
 21
124.359837
 31
0.0
  0
SPLINE
  5
257
100
AcDbEntity
  8
0
 62
2
100
AcDbSpline
 70
8
 71
3
 72
8
 73
4
 74
0
 40
0
 40
0
 40
0
 40
0
 40
1
 40
1
 40
1
 40
1
 10
99.185854
 20
124.359837
 30
0.0
 10
99.156774
 20
124.468244
 30
0.0
 10
99.049303
 20
124.530293
 30
0.0
 10
98.940868
 20
124.501280
 30
0.0
  0
LINE
  5
258
100
AcDbEntity
  8
0
 62
2
100
AcDbLine
 10
98.940868
 20
124.501280
 30
0.0
 11
95.851855
 21
123.677093
 31
0.0
  0
SPLINE
  5
259
100
AcDbEntity
  8
0
 62
2
100
AcDbSpline
 70
8
 71
3
 72
8
 73
4
 74
0
 40
0
 40
0
 40
0
 40
0
 40
1
 40
1
 40
1
 40
1
 10
95.851855
 20
123.677093
 30
0.0
 10
95.743369
 20
123.647985
 30
0.0
 10
95.700144
 20
123.539925
 30
0.0
 10
95.708022
 20
123.427967
 30
0.0
  0
LINE
  5
25a
100
AcDbEntity
  8
0
 62
2
100
AcDbLine
 10
95.708022
 20
123.427967
 30
0.0
 11
95.938414
 21
120.144732
 31
0.0
  0
LINE
  5
25b
100
AcDbEntity
  8
0
 62
2
100
AcDbLine
 10
95.938414
 20
120.144732
 30
0.0
 11
94.826079
 21
119.292112
 31
0.0
  0
LINE
  5
25c
100
AcDbEntity
  8
0
 62
2
100
AcDbLine
 10
94.826079
 20
119.292112
 30
0.0
 11
98.526518
 21
114.520348
 31
0.0
  0
SPLINE
  5
25d
100
AcDbEntity
  8
0
 62
2
100
AcDbSpline
 70
8
 71
3
 72
8
 73
4
 74
0
 40
0
 40
0
 40
0
 40
0
 40
1
 40
1
 40
1
 40
1
 10
98.526518
 20
114.520348
 30
0.0
 10
99.642390
 20
115.383823
 30
0.0
 10
101.210627
 20
115.539565
 30
0.0
 10
102.508109
 20
114.790463
 30
0.0
  0
SPLINE
  5
25e
100
AcDbEntity
  8
0
 62
2
100
AcDbSpline
 70
8
 71
3
 72
8
 73
4
 74
0
 40
0
 40
0
 40
0
 40
0
 40
1
 40
1
 40
1
 40
1
 10
102.508109
 20
114.790463
 30
0.0
 10
104.221333
 20
113.801333
 30
0.0
 10
104.808197
 20
111.611134
 30
0.0
 10
103.819062
 20
109.897903
 30
0.0
  0
SPLINE
  5
25f
100
AcDbEntity
  8
0
 62
2
100
AcDbSpline
 70
8
 71
3
 72
8
 73
4
 74
0
 40
0
 40
0
 40
0
 40
0
 40
1
 40
1
 40
1
 40
1
 10
103.819062
 20
109.897903
 30
0.0
 10
102.829944
 20
108.184699
 30
0.0
 10
100.639727
 20
107.597811
 30
0.0
 10
98.926504
 20
108.586941
 30
0.0
  0
SPLINE
  5
260
100
AcDbEntity
  8
0
 62
2
100
AcDbSpline
 70
8
 71
3
 72
8
 73
4
 74
0
 40
0
 40
0
 40
0
 40
0
 40
1
 40
1
 40
1
 40
1
 10
98.926504
 20
108.586941
 30
0.0
 10
97.629021
 20
109.336043
 30
0.0
 10
96.979780
 20
110.772047
 30
0.0
 10
97.169635
 20
112.170158
 30
0.0
  0
LINE
  5
261
100
AcDbEntity
  8
0
 62
2
100
AcDbLine
 10
97.169635
 20
112.170158
 30
0.0
 11
91.186947
 21
112.988950
 31
0.0
  0
LINE
  5
262
100
AcDbEntity
  8
0
 62
2
100
AcDbLine
 10
91.186947
 20
112.988950
 30
0.0
 11
91.004724
 21
111.599330
 31
0.0
  0
LINE
  5
263
100
AcDbEntity
  8
0
 62
2
100
AcDbLine
 10
91.004724
 20
111.599330
 30
0.0
 11
88.046168
 21
110.157247
 31
0.0
  0
SPLINE
  5
264
100
AcDbEntity
  8
0
 62
2
100
AcDbSpline
 70
8
 71
3
 72
8
 73
4
 74
0
 40
0
 40
0
 40
0
 40
0
 40
1
 40
1
 40
1
 40
1
 10
88.046168
 20
110.157247
 30
0.0
 10
87.937736
 20
110.128232
 30
0.0
 10
87.873257
 20
110.016552
 30
0.0
 10
87.902335
 20
109.908121
 30
0.0
  0
LINE
  5
265
100
AcDbEntity
  8
0
 62
2
100
AcDbLine
 10
87.902335
 20
109.908121
 30
0.0
 11
88.733070
 21
106.820855
 31
0.0
  0
SPLINE
  5
266
100
AcDbEntity
  8
0
 62
2
100
AcDbSpline
 70
8
 71
3
 72
8
 73
4
 74
0
 40
0
 40
0
 40
0
 40
0
 40
1
 40
1
 40
1
 40
1
 10
88.733070
 20
106.820855
 30
0.0
 10
88.762104
 20
106.712348
 30
0.0
 10
88.866023
 20
106.671527
 30
0.0
 10
88.978055
 20
106.679412
 30
0.0
  0
LINE
  5
267
100
AcDbEntity
  8
0
 62
2
100
AcDbLine
 10
88.978055
 20
106.679412
 30
0.0
 11
92.261281
 21
106.909817
 31
0.0
  0
LINE
  5
268
100
AcDbEntity
  8
0
 62
2
100
AcDbLine
 10
92.261281
 20
106.909817
 30
0.0
 11
93.912709
 21
104.754978
 31
0.0
  0
LINE
  5
269
100
AcDbEntity
  8
0
 62
2
100
AcDbLine
 10
93.912709
 20
104.754978
 30
0.0
 11
92.840855
 21
101.642271
 31
0.0
  0
SPLINE
  5
26a
100
AcDbEntity
  8
0
 62
2
100
AcDbSpline
 70
8
 71
3
 72
8
 73
4
 74
0
 40
0
 40
0
 40
0
 40
0
 40
1
 40
1
 40
1
 40
1
 10
92.840855
 20
101.642271
 30
0.0
 10
92.784733
 20
101.545067
 30
0.0
 10
92.817330
 20
101.423324
 30
0.0
 10
92.914561
 20
101.367187
 30
0.0
  0
LINE
  5
26b
100
AcDbEntity
  8
0
 62
2
100
AcDbLine
 10
92.914561
 20
101.367187
 30
0.0
 11
95.684137
 21
99.768172
 31
0.0
  0
SPLINE
  5
26c
100
AcDbEntity
  8
0
 62
2
100
AcDbSpline
 70
8
 71
3
 72
8
 73
4
 74
0
 40
0
 40
0
 40
0
 40
0
 40
1
 40
1
 40
1
 40
1
 10
95.684137
 20
99.768172
 30
0.0
 10
95.781353
 20
99.712007
 30
0.0
 10
95.885577
 20
99.757150
 30
0.0
 10
95.959221
 20
99.841882
 30
0.0
  0
LINE
  5
26d
100
AcDbEntity
  8
0
 62
2
100
AcDbLine
 10
95.959221
 20
99.841882
 30
0.0
 11
98.121363
 21
102.330625
 31
0.0
  0
LINE
  5
26e
100
AcDbEntity
  8
0
 62
2
100
AcDbLine
 10
98.121363
 20
102.330625
 30
0.0
 11
100.806684
 21
101.976126
 31
0.0
  0
LINE
  5
26f
100
AcDbEntity
  8
0
 62
2
100
AcDbLine
 10
100.806684
 20
101.976126
 30
0.0
 11
102.248759
 21
99.017567
 31
0.0
  0
SPLINE
  5
270
100
AcDbEntity
  8
0
 62
2
100
AcDbSpline
 70
8
 71
3
 72
8
 73
4
 74
0
 40
0
 40
0
 40
0
 40
0
 40
1
 40
1
 40
1
 40
1
 10
102.248759
 20
99.017567
 30
0.0
 10
102.277784
 20
98.909067
 30
0.0
 10
102.389408
 20
98.844621
 30
0.0
 10
102.497896
 20
98.873728
 30
0.0
  0
LINE
  5
271
100
AcDbEntity
  8
0
 62
2
100
AcDbLine
 10
102.497896
 20
98.873728
 30
0.0
 11
105.586916
 21
99.697923
 31
0.0
  0
SPLINE
  5
272
100
AcDbEntity
  8
0
 62
2
100
AcDbSpline
 70
8
 71
3
 72
8
 73
4
 74
0
 40
0
 40
0
 40
0
 40
0
 40
1
 40
1
 40
1
 40
1
 10
105.586916
 20
99.697923
 30
0.0
 10
105.695348
 20
99.726938
 30
0.0
 10
105.738578
 20
99.835007
 30
0.0
 10
105.730749
 20
99.947049
 30
0.0
  0
LINE
  5
273
100
AcDbEntity
  8
0
 62
2
100
AcDbLine
 10
105.730749
 20
99.947049
 30
0.0
 11
105.500351
 21
103.230275
 31
0.0
  0
LINE
  5
274
100
AcDbEntity
  8
0
 62
2
100
AcDbLine
 10
105.500351
 20
103.230275
 30
0.0
 11
107.648646
 21
104.879946
 31
0.0
  0
LINE
  5
275
100
AcDbEntity
  8
0
 62
2
100
AcDbLine
 10
107.648646
 20
104.879946
 30
0.0
 11
110.761333
 21
103.808097
 31
0.0
  0
SPLINE
  5
276
100
AcDbEntity
  8
0
 62
2
100
AcDbSpline
 70
8
 71
3
 72
8
 73
4
 74
0
 40
0
 40
0
 40
0
 40
0
 40
1
 40
1
 40
1
 40
1
 10
110.761333
 20
103.808097
 30
0.0
 10
110.858568
 20
103.751958
 30
0.0
 10
110.980286
 20
103.784583
 30
0.0
 10
111.036428
 20
103.881825
 30
0.0
  0
LINE
  5
277
100
AcDbEntity
  8
0
 62
2
100
AcDbLine
 10
111.036428
 20
103.881825
 30
0.0
 11
112.635439
 21
106.651393
 31
0.0
  0
SPLINE
  5
278
100
AcDbEntity
  8
0
 62
7
100
AcDbSpline
 70
8
 71
3
 72
8
 73
4
 74
0
 40
0
 40
0
 40
0
 40
0
 40
1
 40
1
 40
1
 40
1
 10
94.889915
 20
115.054575
 30
0.0
 10
96.091569
 20
117.135901
 30
0.0
 10
98.312317
 20
118.418050
 30
0.0
 10
100.715625
 20
118.418050
 30
0.0
  0
SPLINE
  5
279
100
AcDbEntity
  8
0
 62
7
100
AcDbSpline
 70
8
 71
3
 72
8
 73
4
 74
0
 40
0
 40
0
 40
0
 40
0
 40
1
 40
1
 40
1
 40
1
 10
100.715625
 20
118.418050
 30
0.0
 10
103.118933
 20
118.418050
 30
0.0
 10
105.339682
 20
117.135901
 30
0.0
 10
106.541336
 20
115.054575
 30
0.0
  0
SPLINE
  5
27a
100
AcDbEntity
  8
0
 62
7
100
AcDbSpline
 70
8
 71
3
 72
8
 73
4
 74
0
 40
0
 40
0
 40
0
 40
0
 40
1
 40
1
 40
1
 40
1
 10
106.541336
 20
115.054575
 30
0.0
 10
107.742990
 20
112.973249
 30
0.0
 10
107.742990
 20
110.408950
 30
0.0
 10
106.541336
 20
108.327624
 30
0.0
  0
SPLINE
  5
27b
100
AcDbEntity
  8
0
 62
7
100
AcDbSpline
 70
8
 71
3
 72
8
 73
4
 74
0
 40
0
 40
0
 40
0
 40
0
 40
1
 40
1
 40
1
 40
1
 10
106.541336
 20
108.327624
 30
0.0
 10
105.339682
 20
106.246298
 30
0.0
 10
103.118933
 20
104.964148
 30
0.0
 10
100.715625
 20
104.964148
 30
0.0
  0
SPLINE
  5
27c
100
AcDbEntity
  8
0
 62
7
100
AcDbSpline
 70
8
 71
3
 72
8
 73
4
 74
0
 40
0
 40
0
 40
0
 40
0
 40
1
 40
1
 40
1
 40
1
 10
100.715625
 20
104.964148
 30
0.0
 10
98.312317
 20
104.964148
 30
0.0
 10
96.091569
 20
106.246298
 30
0.0
 10
94.889915
 20
108.327624
 30
0.0
  0
SPLINE
  5
27d
100
AcDbEntity
  8
0
 62
7
100
AcDbSpline
 70
8
 71
3
 72
8
 73
4
 74
0
 40
0
 40
0
 40
0
 40
0
 40
1
 40
1
 40
1
 40
1
 10
94.889915
 20
108.327624
 30
0.0
 10
93.688261
 20
110.408950
 30
0.0
 10
93.688261
 20
112.973249
 30
0.0
 10
94.889915
 20
115.054575
 30
0.0
  0
LINE
  5
27e
100
AcDbEntity
  8
0
 62
7
100
AcDbLine
 10
94.889915
 20
115.054575
 30
0.0
 11
94.889915
 21
115.054575
 31
0.0
  0
SPLINE
  5
27f
100
AcDbEntity
  8
0
 62
7
100
AcDbSpline
 70
8
 71
3
 72
8
 73
4
 74
0
 40
0
 40
0
 40
0
 40
0
 40
1
 40
1
 40
1
 40
1
 10
109.731312
 20
105.778905
 30
0.0
 10
109.541870
 20
105.888279
 30
0.0
 10
109.425170
 20
106.090411
 30
0.0
 10
109.425170
 20
106.309159
 30
0.0
  0
SPLINE
  5
280
100
AcDbEntity
  8
0
 62
7
100
AcDbSpline
 70
8
 71
3
 72
8
 73
4
 74
0
 40
0
 40
0
 40
0
 40
0
 40
1
 40
1
 40
1
 40
1
 10
109.425170
 20
106.309159
 30
0.0
 10
109.425170
 20
106.527907
 30
0.0
 10
109.541870
 20
106.730039
 30
0.0
 10
109.731312
 20
106.839413
 30
0.0
  0
SPLINE
  5
281
100
AcDbEntity
  8
0
 62
7
100
AcDbSpline
 70
8
 71
3
 72
8
 73
4
 74
0
 40
0
 40
0
 40
0
 40
0
 40
1
 40
1
 40
1
 40
1
 10
109.731312
 20
106.839413
 30
0.0
 10
109.920753
 20
106.948787
 30
0.0
 10
110.154155
 20
106.948787
 30
0.0
 10
110.343596
 20
106.839413
 30
0.0
  0
SPLINE
  5
282
100
AcDbEntity
  8
0
 62
7
100
AcDbSpline
 70
8
 71
3
 72
8
 73
4
 74
0
 40
0
 40
0
 40
0
 40
0
 40
1
 40
1
 40
1
 40
1
 10
110.343596
 20
106.839413
 30
0.0
 10
110.533037
 20
106.730039
 30
0.0
 10
110.649738
 20
106.527907
 30
0.0
 10
110.649738
 20
106.309159
 30
0.0
  0
SPLINE
  5
283
100
AcDbEntity
  8
0
 62
7
100
AcDbSpline
 70
8
 71
3
 72
8
 73
4
 74
0
 40
0
 40
0
 40
0
 40
0
 40
1
 40
1
 40
1
 40
1
 10
110.649738
 20
106.309159
 30
0.0
 10
110.649738
 20
106.090411
 30
0.0
 10
110.533037
 20
105.888279
 30
0.0
 10
110.343596
 20
105.778905
 30
0.0
  0
SPLINE
  5
284
100
AcDbEntity
  8
0
 62
7
100
AcDbSpline
 70
8
 71
3
 72
8
 73
4
 74
0
 40
0
 40
0
 40
0
 40
0
 40
1
 40
1
 40
1
 40
1
 10
110.343596
 20
105.778905
 30
0.0
 10
110.154155
 20
105.669531
 30
0.0
 10
109.920753
 20
105.669531
 30
0.0
 10
109.731312
 20
105.778905
 30
0.0
  0
LINE
  5
285
100
AcDbEntity
  8
0
 62
7
100
AcDbLine
 10
109.731312
 20
105.778905
 30
0.0
 11
109.731312
 21
105.778905
 31
0.0
  0
SPLINE
  5
286
100
AcDbEntity
  8
0
 62
7
100
AcDbSpline
 70
8
 71
3
 72
8
 73
4
 74
0
 40
0
 40
0
 40
0
 40
0
 40
1
 40
1
 40
1
 40
1
 10
111.271250
 20
113.885599
 30
0.0
 10
111.059955
 20
113.828983
 30
0.0
 10
110.834507
 20
113.889392
 30
0.0
 10
110.679828
 20
114.044070
 30
0.0
  0
SPLINE
  5
287
100
AcDbEntity
  8
0
 62
7
100
AcDbSpline
 70
8
 71
3
 72
8
 73
4
 74
0
 40
0
 40
0
 40
0
 40
0
 40
1
 40
1
 40
1
 40
1
 10
110.679828
 20
114.044070
 30
0.0
 10
110.525150
 20
114.198748
 30
0.0
 10
110.464741
 20
114.424197
 30
0.0
 10
110.521358
 20
114.635491
 30
0.0
  0
SPLINE
  5
288
100
AcDbEntity
  8
0
 62
7
100
AcDbSpline
 70
8
 71
3
 72
8
 73
4
 74
0
 40
0
 40
0
 40
0
 40
0
 40
1
 40
1
 40
1
 40
1
 10
110.521358
 20
114.635491
 30
0.0
 10
110.577974
 20
114.846786
 30
0.0
 10
110.743014
 20
115.011825
 30
0.0
 10
110.954308
 20
115.068441
 30
0.0
  0
SPLINE
  5
289
100
AcDbEntity
  8
0
 62
7
100
AcDbSpline
 70
8
 71
3
 72
8
 73
4
 74
0
 40
0
 40
0
 40
0
 40
0
 40
1
 40
1
 40
1
 40
1
 10
110.954308
 20
115.068441
 30
0.0
 10
111.165602
 20
115.125058
 30
0.0
 10
111.391051
 20
115.064649
 30
0.0
 10
111.545729
 20
114.909971
 30
0.0
  0
SPLINE
  5
28a
100
AcDbEntity
  8
0
 62
7
100
AcDbSpline
 70
8
 71
3
 72
8
 73
4
 74
0
 40
0
 40
0
 40
0
 40
0
 40
1
 40
1
 40
1
 40
1
 10
111.545729
 20
114.909971
 30
0.0
 10
111.700407
 20
114.755292
 30
0.0
 10
111.760816
 20
114.529844
 30
0.0
 10
111.704200
 20
114.318550
 30
0.0
  0
SPLINE
  5
28b
100
AcDbEntity
  8
0
 62
7
100
AcDbSpline
 70
8
 71
3
 72
8
 73
4
 74
0
 40
0
 40
0
 40
0
 40
0
 40
1
 40
1
 40
1
 40
1
 10
111.704200
 20
114.318550
 30
0.0
 10
111.647584
 20
114.107255
 30
0.0
 10
111.482544
 20
113.942215
 30
0.0
 10
111.271250
 20
113.885599
 30
0.0
  0
LINE
  5
28c
100
AcDbEntity
  8
0
 62
7
100
AcDbLine
 10
111.271250
 20
113.885599
 30
0.0
 11
111.271250
 21
113.885599
 31
0.0
  0
SPLINE
  5
28d
100
AcDbEntity
  8
0
 62
7
100
AcDbSpline
 70
8
 71
3
 72
8
 73
4
 74
0
 40
0
 40
0
 40
0
 40
0
 40
1
 40
1
 40
1
 40
1
 10
106.627835
 20
120.706794
 30
0.0
 10
106.518461
 20
120.517353
 30
0.0
 10
106.316330
 20
120.400652
 30
0.0
 10
106.097581
 20
120.400652
 30
0.0
  0
SPLINE
  5
28e
100
AcDbEntity
  8
0
 62
7
100
AcDbSpline
 70
8
 71
3
 72
8
 73
4
 74
0
 40
0
 40
0
 40
0
 40
0
 40
1
 40
1
 40
1
 40
1
 10
106.097581
 20
120.400652
 30
0.0
 10
105.878833
 20
120.400652
 30
0.0
 10
105.676702
 20
120.517353
 30
0.0
 10
105.567328
 20
120.706794
 30
0.0
  0
SPLINE
  5
28f
100
AcDbEntity
  8
0
 62
7
100
AcDbSpline
 70
8
 71
3
 72
8
 73
4
 74
0
 40
0
 40
0
 40
0
 40
0
 40
1
 40
1
 40
1
 40
1
 10
105.567328
 20
120.706794
 30
0.0
 10
105.457954
 20
120.896235
 30
0.0
 10
105.457954
 20
121.129637
 30
0.0
 10
105.567328
 20
121.319078
 30
0.0
  0
SPLINE
  5
290
100
AcDbEntity
  8
0
 62
7
100
AcDbSpline
 70
8
 71
3
 72
8
 73
4
 74
0
 40
0
 40
0
 40
0
 40
0
 40
1
 40
1
 40
1
 40
1
 10
105.567328
 20
121.319078
 30
0.0
 10
105.676702
 20
121.508520
 30
0.0
 10
105.878833
 20
121.625220
 30
0.0
 10
106.097581
 20
121.625220
 30
0.0
  0
SPLINE
  5
291
100
AcDbEntity
  8
0
 62
7
100
AcDbSpline
 70
8
 71
3
 72
8
 73
4
 74
0
 40
0
 40
0
 40
0
 40
0
 40
1
 40
1
 40
1
 40
1
 10
106.097581
 20
121.625220
 30
0.0
 10
106.316330
 20
121.625220
 30
0.0
 10
106.518461
 20
121.508520
 30
0.0
 10
106.627835
 20
121.319078
 30
0.0
  0
SPLINE
  5
292
100
AcDbEntity
  8
0
 62
7
100
AcDbSpline
 70
8
 71
3
 72
8
 73
4
 74
0
 40
0
 40
0
 40
0
 40
0
 40
1
 40
1
 40
1
 40
1
 10
106.627835
 20
121.319078
 30
0.0
 10
106.737209
 20
121.129637
 30
0.0
 10
106.737209
 20
120.896235
 30
0.0
 10
106.627835
 20
120.706794
 30
0.0
  0
LINE
  5
293
100
AcDbEntity
  8
0
 62
7
100
AcDbLine
 10
106.627835
 20
120.706794
 30
0.0
 11
106.627835
 21
120.706794
 31
0.0
  0
SPLINE
  5
294
100
AcDbEntity
  8
0
 62
7
100
AcDbSpline
 70
8
 71
3
 72
8
 73
4
 74
0
 40
0
 40
0
 40
0
 40
0
 40
1
 40
1
 40
1
 40
1
 10
98.521145
 20
122.246738
 30
0.0
 10
98.577762
 20
122.035444
 30
0.0
 10
98.517353
 20
121.809995
 30
0.0
 10
98.362675
 20
121.655317
 30
0.0
  0
SPLINE
  5
295
100
AcDbEntity
  8
0
 62
7
100
AcDbSpline
 70
8
 71
3
 72
8
 73
4
 74
0
 40
0
 40
0
 40
0
 40
0
 40
1
 40
1
 40
1
 40
1
 10
98.362675
 20
121.655317
 30
0.0
 10
98.207996
 20
121.500639
 30
0.0
 10
97.982548
 20
121.440230
 30
0.0
 10
97.771254
 20
121.496846
 30
0.0
  0
SPLINE
  5
296
100
AcDbEntity
  8
0
 62
7
100
AcDbSpline
 70
8
 71
3
 72
8
 73
4
 74
0
 40
0
 40
0
 40
0
 40
0
 40
1
 40
1
 40
1
 40
1
 10
97.771254
 20
121.496846
 30
0.0
 10
97.559959
 20
121.553463
 30
0.0
 10
97.394919
 20
121.718502
 30
0.0
 10
97.338303
 20
121.929797
 30
0.0
  0
SPLINE
  5
297
100
AcDbEntity
  8
0
 62
7
100
AcDbSpline
 70
8
 71
3
 72
8
 73
4
 74
0
 40
0
 40
0
 40
0
 40
0
 40
1
 40
1
 40
1
 40
1
 10
97.338303
 20
121.929797
 30
0.0
 10
97.281687
 20
122.141091
 30
0.0
 10
97.342096
 20
122.366540
 30
0.0
 10
97.496774
 20
122.521218
 30
0.0
  0
SPLINE
  5
298
100
AcDbEntity
  8
0
 62
7
100
AcDbSpline
 70
8
 71
3
 72
8
 73
4
 74
0
 40
0
 40
0
 40
0
 40
0
 40
1
 40
1
 40
1
 40
1
 10
97.496774
 20
122.521218
 30
0.0
 10
97.651452
 20
122.675896
 30
0.0
 10
97.876901
 20
122.736305
 30
0.0
 10
98.088195
 20
122.679689
 30
0.0
  0
SPLINE
  5
299
100
AcDbEntity
  8
0
 62
7
100
AcDbSpline
 70
8
 71
3
 72
8
 73
4
 74
0
 40
0
 40
0
 40
0
 40
0
 40
1
 40
1
 40
1
 40
1
 10
98.088195
 20
122.679689
 30
0.0
 10
98.299490
 20
122.623072
 30
0.0
 10
98.464529
 20
122.458033
 30
0.0
 10
98.521145
 20
122.246738
 30
0.0
  0
LINE
  5
29a
100
AcDbEntity
  8
0
 62
7
100
AcDbLine
 10
98.521145
 20
122.246738
 30
0.0
 11
98.521145
 21
122.246738
 31
0.0
  0
SPLINE
  5
29b
100
AcDbEntity
  8
0
 62
7
100
AcDbSpline
 70
8
 71
3
 72
8
 73
4
 74
0
 40
0
 40
0
 40
0
 40
0
 40
1
 40
1
 40
1
 40
1
 10
102.910095
 20
101.135490
 30
0.0
 10
102.853479
 20
101.346784
 30
0.0
 10
102.913888
 20
101.572233
 30
0.0
 10
103.068566
 20
101.726911
 30
0.0
  0
SPLINE
  5
29c
100
AcDbEntity
  8
0
 62
7
100
AcDbSpline
 70
8
 71
3
 72
8
 73
4
 74
0
 40
0
 40
0
 40
0
 40
0
 40
1
 40
1
 40
1
 40
1
 10
103.068566
 20
101.726911
 30
0.0
 10
103.223244
 20
101.881589
 30
0.0
 10
103.448693
 20
101.941998
 30
0.0
 10
103.659987
 20
101.885382
 30
0.0
  0
SPLINE
  5
29d
100
AcDbEntity
  8
0
 62
7
100
AcDbSpline
 70
8
 71
3
 72
8
 73
4
 74
0
 40
0
 40
0
 40
0
 40
0
 40
1
 40
1
 40
1
 40
1
 10
103.659987
 20
101.885382
 30
0.0
 10
103.871281
 20
101.828766
 30
0.0
 10
104.036321
 20
101.663726
 30
0.0
 10
104.092937
 20
101.452431
 30
0.0
  0
SPLINE
  5
29e
100
AcDbEntity
  8
0
 62
7
100
AcDbSpline
 70
8
 71
3
 72
8
 73
4
 74
0
 40
0
 40
0
 40
0
 40
0
 40
1
 40
1
 40
1
 40
1
 10
104.092937
 20
101.452431
 30
0.0
 10
104.149553
 20
101.241137
 30
0.0
 10
104.089145
 20
101.015689
 30
0.0
 10
103.934466
 20
100.861010
 30
0.0
  0
SPLINE
  5
29f
100
AcDbEntity
  8
0
 62
7
100
AcDbSpline
 70
8
 71
3
 72
8
 73
4
 74
0
 40
0
 40
0
 40
0
 40
0
 40
1
 40
1
 40
1
 40
1
 10
103.934466
 20
100.861010
 30
0.0
 10
103.779788
 20
100.706332
 30
0.0
 10
103.554340
 20
100.645923
 30
0.0
 10
103.343045
 20
100.702540
 30
0.0
  0
SPLINE
  5
2a0
100
AcDbEntity
  8
0
 62
7
100
AcDbSpline
 70
8
 71
3
 72
8
 73
4
 74
0
 40
0
 40
0
 40
0
 40
0
 40
1
 40
1
 40
1
 40
1
 10
103.343045
 20
100.702540
 30
0.0
 10
103.131751
 20
100.759156
 30
0.0
 10
102.966711
 20
100.924195
 30
0.0
 10
102.910095
 20
101.135490
 30
0.0
  0
LINE
  5
2a1
100
AcDbEntity
  8
0
 62
7
100
AcDbLine
 10
102.910095
 20
101.135490
 30
0.0
 11
102.910095
 21
101.135490
 31
0.0
  0
SPLINE
  5
2a2
100
AcDbEntity
  8
0
 62
7
100
AcDbSpline
 70
8
 71
3
 72
8
 73
4
 74
0
 40
0
 40
0
 40
0
 40
0
 40
1
 40
1
 40
1
 40
1
 10
94.803399
 20
102.675424
 30
0.0
 10
94.912773
 20
102.864865
 30
0.0
 10
95.114904
 20
102.981566
 30
0.0
 10
95.333653
 20
102.981566
 30
0.0
  0
SPLINE
  5
2a3
100
AcDbEntity
  8
0
 62
7
100
AcDbSpline
 70
8
 71
3
 72
8
 73
4
 74
0
 40
0
 40
0
 40
0
 40
0
 40
1
 40
1
 40
1
 40
1
 10
95.333653
 20
102.981566
 30
0.0
 10
95.552401
 20
102.981566
 30
0.0
 10
95.754532
 20
102.864865
 30
0.0
 10
95.863906
 20
102.675424
 30
0.0
  0
SPLINE
  5
2a4
100
AcDbEntity
  8
0
 62
7
100
AcDbSpline
 70
8
 71
3
 72
8
 73
4
 74
0
 40
0
 40
0
 40
0
 40
0
 40
1
 40
1
 40
1
 40
1
 10
95.863906
 20
102.675424
 30
0.0
 10
95.973280
 20
102.485982
 30
0.0
 10
95.973280
 20
102.252581
 30
0.0
 10
95.863906
 20
102.063140
 30
0.0
  0
SPLINE
  5
2a5
100
AcDbEntity
  8
0
 62
7
100
AcDbSpline
 70
8
 71
3
 72
8
 73
4
 74
0
 40
0
 40
0
 40
0
 40
0
 40
1
 40
1
 40
1
 40
1
 10
95.863906
 20
102.063140
 30
0.0
 10
95.754532
 20
101.873698
 30
0.0
 10
95.552401
 20
101.756998
 30
0.0
 10
95.333653
 20
101.756998
 30
0.0
  0
SPLINE
  5
2a6
100
AcDbEntity
  8
0
 62
7
100
AcDbSpline
 70
8
 71
3
 72
8
 73
4
 74
0
 40
0
 40
0
 40
0
 40
0
 40
1
 40
1
 40
1
 40
1
 10
95.333653
 20
101.756998
 30
0.0
 10
95.114904
 20
101.756998
 30
0.0
 10
94.912773
 20
101.873698
 30
0.0
 10
94.803399
 20
102.063140
 30
0.0
  0
SPLINE
  5
2a7
100
AcDbEntity
  8
0
 62
7
100
AcDbSpline
 70
8
 71
3
 72
8
 73
4
 74
0
 40
0
 40
0
 40
0
 40
0
 40
1
 40
1
 40
1
 40
1
 10
94.803399
 20
102.063140
 30
0.0
 10
94.694025
 20
102.252581
 30
0.0
 10
94.694025
 20
102.485982
 30
0.0
 10
94.803399
 20
102.675424
 30
0.0
  0
LINE
  5
2a8
100
AcDbEntity
  8
0
 62
7
100
AcDbLine
 10
94.803399
 20
102.675424
 30
0.0
 11
94.803399
 21
102.675424
 31
0.0
  0
SPLINE
  5
2a9
100
AcDbEntity
  8
0
 62
7
100
AcDbSpline
 70
8
 71
3
 72
8
 73
4
 74
0
 40
0
 40
0
 40
0
 40
0
 40
1
 40
1
 40
1
 40
1
 10
90.159976
 20
109.496617
 30
0.0
 10
90.371271
 20
109.553233
 30
0.0
 10
90.596719
 20
109.492825
 30
0.0
 10
90.751397
 20
109.338146
 30
0.0
  0
SPLINE
  5
2aa
100
AcDbEntity
  8
0
 62
7
100
AcDbSpline
 70
8
 71
3
 72
8
 73
4
 74
0
 40
0
 40
0
 40
0
 40
0
 40
1
 40
1
 40
1
 40
1
 10
90.751397
 20
109.338146
 30
0.0
 10
90.906076
 20
109.183468
 30
0.0
 10
90.966484
 20
108.958020
 30
0.0
 10
90.909868
 20
108.746725
 30
0.0
  0
SPLINE
  5
2ab
100
AcDbEntity
  8
0
 62
7
100
AcDbSpline
 70
8
 71
3
 72
8
 73
4
 74
0
 40
0
 40
0
 40
0
 40
0
 40
1
 40
1
 40
1
 40
1
 10
90.909868
 20
108.746725
 30
0.0
 10
90.853252
 20
108.535431
 30
0.0
 10
90.688212
 20
108.370391
 30
0.0
 10
90.476918
 20
108.313775
 30
0.0
  0
SPLINE
  5
2ac
100
AcDbEntity
  8
0
 62
7
100
AcDbSpline
 70
8
 71
3
 72
8
 73
4
 74
0
 40
0
 40
0
 40
0
 40
0
 40
1
 40
1
 40
1
 40
1
 10
90.476918
 20
108.313775
 30
0.0
 10
90.265623
 20
108.257159
 30
0.0
 10
90.040175
 20
108.317567
 30
0.0
 10
89.885497
 20
108.472246
 30
0.0
  0
SPLINE
  5
2ad
100
AcDbEntity
  8
0
 62
7
100
AcDbSpline
 70
8
 71
3
 72
8
 73
4
 74
0
 40
0
 40
0
 40
0
 40
0
 40
1
 40
1
 40
1
 40
1
 10
89.885497
 20
108.472246
 30
0.0
 10
89.730818
 20
108.626924
 30
0.0
 10
89.670410
 20
108.852372
 30
0.0
 10
89.727026
 20
109.063667
 30
0.0
  0
SPLINE
  5
2ae
100
AcDbEntity
  8
0
 62
7
100
AcDbSpline
 70
8
 71
3
 72
8
 73
4
 74
0
 40
0
 40
0
 40
0
 40
0
 40
1
 40
1
 40
1
 40
1
 10
89.727026
 20
109.063667
 30
0.0
 10
89.783642
 20
109.274961
 30
0.0
 10
89.948682
 20
109.440001
 30
0.0
 10
90.159976
 20
109.496617
 30
0.0
  0
LINE
  5
2af
100
AcDbEntity
  8
0
 62
7
100
AcDbLine
 10
90.159976
 20
109.496617
 30
0.0
 11
90.159976
 21
109.496617
 31
0.0
  0
SPLINE
  5
2b0
100
AcDbEntity
  8
0
 62
1
100
AcDbSpline
 70
8
 71
3
 72
8
 73
4
 74
0
 40
0
 40
0
 40
0
 40
0
 40
1
 40
1
 40
1
 40
1
 10
113.038977
 20
106.417545
 30
0.0
 10
113.130184
 20
106.575520
 30
0.0
 10
113.145284
 20
106.777749
 30
0.0
 10
113.100210
 20
106.930972
 30
0.0
  0
SPLINE
  5
2b1
100
AcDbEntity
  8
0
 62
1
100
AcDbSpline
 70
8
 71
3
 72
8
 73
4
 74
0
 40
0
 40
0
 40
0
 40
0
 40
1
 40
1
 40
1
 40
1
 10
113.100210
 20
106.930972
 30
0.0
 10
113.055133
 20
107.084198
 30
0.0
 10
112.966927
 20
107.196574
 30
0.0
 10
112.868273
 20
107.282258
 30
0.0
  0
LINE
  5
2b2
100
AcDbEntity
  8
0
 62
1
100
AcDbLine
 10
112.868273
 20
107.282258
 30
0.0
 11
110.573919
 21
109.276856
 31
0.0
  0
LINE
  5
2b3
100
AcDbEntity
  8
0
 62
1
100
AcDbLine
 10
110.573919
 20
109.276856
 30
0.0
 11
110.864245
 21
111.464733
 31
0.0
  0
LINE
  5
2b4
100
AcDbEntity
  8
0
 62
1
100
AcDbLine
 10
110.864245
 20
111.464733
 30
0.0
 11
113.597547
 21
112.798058
 31
0.0
  0
LINE
  5
2b5
100
AcDbEntity
  8
0
 62
1
100
AcDbLine
 10
113.597547
 20
112.798058
 30
0.0
 11
113.592814
 21
112.808311
 31
0.0
  0
SPLINE
  5
2b6
100
AcDbEntity
  8
0
 62
1
100
AcDbSpline
 70
8
 71
3
 72
8
 73
4
 74
0
 40
0
 40
0
 40
0
 40
0
 40
1
 40
1
 40
1
 40
1
 10
113.592814
 20
112.808311
 30
0.0
 10
113.893144
 20
112.936038
 30
0.0
 10
114.073117
 20
113.266834
 30
0.0
 10
113.986736
 20
113.589354
 30
0.0
  0
LINE
  5
2b7
100
AcDbEntity
  8
0
 62
1
100
AcDbLine
 10
113.986736
 20
113.589354
 30
0.0
 11
113.155654
 21
116.674126
 31
0.0
  0
LINE
  5
2b8
100
AcDbEntity
  8
0
 62
1
100
AcDbLine
 10
113.155654
 20
116.674126
 30
0.0
 11
113.153022
 21
116.675646
 31
0.0
  0
SPLINE
  5
2b9
100
AcDbEntity
  8
0
 62
1
100
AcDbSpline
 70
8
 71
3
 72
8
 73
4
 74
0
 40
0
 40
0
 40
0
 40
0
 40
1
 40
1
 40
1
 40
1
 10
113.153022
 20
116.675646
 30
0.0
 10
113.104463
 20
116.853516
 30
0.0
 10
112.969784
 20
117.009919
 30
0.0
 10
112.829085
 20
117.083607
 30
0.0
  0
SPLINE
  5
2ba
100
AcDbEntity
  8
0
 62
1
100
AcDbSpline
 70
8
 71
3
 72
8
 73
4
 74
0
 40
0
 40
0
 40
0
 40
0
 40
1
 40
1
 40
1
 40
1
 10
112.829085
 20
117.083607
 30
0.0
 10
112.687742
 20
117.157692
 30
0.0
 10
112.549372
 20
117.173534
 30
0.0
 10
112.423307
 20
117.164652
 30
0.0
  0
LINE
  5
2bb
100
AcDbEntity
  8
0
 62
1
100
AcDbLine
 10
112.423307
 20
117.164652
 30
0.0
 11
109.392201
 21
116.951154
 31
0.0
  0
LINE
  5
2bc
100
AcDbEntity
  8
0
 62
1
100
AcDbLine
 10
109.392201
 20
116.951154
 30
0.0
 11
108.044160
 21
118.702288
 31
0.0
  0
LINE
  5
2bd
100
AcDbEntity
  8
0
 62
1
100
AcDbLine
 10
108.044160
 20
118.702288
 30
0.0
 11
109.038052
 21
121.577964
 31
0.0
  0
LINE
  5
2be
100
AcDbEntity
  8
0
 62
1
100
AcDbLine
 10
109.038052
 20
121.577964
 30
0.0
 11
109.028434
 21
121.579757
 31
0.0
  0
SPLINE
  5
2bf
100
AcDbEntity
  8
0
 62
1
100
AcDbSpline
 70
8
 71
3
 72
8
 73
4
 74
0
 40
0
 40
0
 40
0
 40
0
 40
1
 40
1
 40
1
 40
1
 10
109.028434
 20
121.579757
 30
0.0
 10
109.150073
 20
121.879033
 30
0.0
 10
109.052968
 20
122.242663
 30
0.0
 10
108.757685
 20
122.413145
 30
0.0
  0
LINE
  5
2c0
100
AcDbEntity
  8
0
 62
1
100
AcDbLine
 10
108.757685
 20
122.413145
 30
0.0
 11
105.988820
 21
124.011749
 31
0.0
  0
SPLINE
  5
2c1
100
AcDbEntity
  8
0
 62
1
100
AcDbSpline
 70
8
 71
3
 72
8
 73
4
 74
0
 40
0
 40
0
 40
0
 40
0
 40
1
 40
1
 40
1
 40
1
 10
105.988820
 20
124.011749
 30
0.0
 10
105.825118
 20
124.106188
 30
0.0
 10
105.610705
 20
124.114247
 30
0.0
 10
105.459658
 20
124.064253
 30
0.0
  0
SPLINE
  5
2c2
100
AcDbEntity
  8
0
 62
1
100
AcDbSpline
 70
8
 71
3
 72
8
 73
4
 74
0
 40
0
 40
0
 40
0
 40
0
 40
1
 40
1
 40
1
 40
1
 10
105.459658
 20
124.064253
 30
0.0
 10
105.308613
 20
124.014269
 30
0.0
 10
105.205816
 20
123.929550
 30
0.0
 10
105.125234
 20
123.836830
 30
0.0
  0
LINE
  5
2c3
100
AcDbEntity
  8
0
 62
1
100
AcDbLine
 10
105.125234
 20
123.836830
 30
0.0
 11
103.134859
 21
121.543605
 31
0.0
  0
LINE
  5
2c4
100
AcDbEntity
  8
0
 62
1
100
AcDbLine
 10
103.134859
 20
121.543605
 30
0.0
 11
100.935878
 21
121.833213
 31
0.0
  0
LINE
  5
2c5
100
AcDbEntity
  8
0
 62
1
100
AcDbLine
 10
100.935878
 20
121.833213
 30
0.0
 11
99.605220
 21
124.564977
 31
0.0
  0
LINE
  5
2c6
100
AcDbEntity
  8
0
 62
1
100
AcDbLine
 10
99.605220
 20
124.564977
 30
0.0
 11
99.594978
 21
124.559610
 31
0.0
  0
SPLINE
  5
2c7
100
AcDbEntity
  8
0
 62
1
100
AcDbSpline
 70
8
 71
3
 72
8
 73
4
 74
0
 40
0
 40
0
 40
0
 40
0
 40
1
 40
1
 40
1
 40
1
 10
99.594978
 20
124.559610
 30
0.0
 10
99.467434
 20
124.850988
 30
0.0
 10
99.134441
 20
125.031185
 30
0.0
 10
98.821943
 20
124.948896
 30
0.0
  0
LINE
  5
2c8
100
AcDbEntity
  8
0
 62
1
100
AcDbLine
 10
98.821943
 20
124.948896
 30
0.0
 11
98.819311
 21
124.950415
 31
0.0
  0
LINE
  5
2c9
100
AcDbEntity
  8
0
 62
1
100
AcDbLine
 10
98.819311
 20
124.950415
 30
0.0
 11
95.732290
 21
124.127774
 31
0.0
  0
SPLINE
  5
2ca
100
AcDbEntity
  8
0
 62
1
100
AcDbSpline
 70
8
 71
3
 72
8
 73
4
 74
0
 40
0
 40
0
 40
0
 40
0
 40
1
 40
1
 40
1
 40
1
 10
95.732290
 20
124.127774
 30
0.0
 10
95.553378
 20
124.079793
 30
0.0
 10
95.396815
 20
123.942531
 30
0.0
 10
95.322781
 20
123.801161
 30
0.0
  0
SPLINE
  5
2cb
100
AcDbEntity
  8
0
 62
1
100
AcDbSpline
 70
8
 71
3
 72
8
 73
4
 74
0
 40
0
 40
0
 40
0
 40
0
 40
1
 40
1
 40
1
 40
1
 10
95.322781
 20
123.801161
 30
0.0
 10
95.248698
 20
123.659820
 30
0.0
 10
95.232875
 20
123.521463
 30
0.0
 10
95.241739
 20
123.395387
 30
0.0
  0
LINE
  5
2cc
100
AcDbEntity
  8
0
 62
1
100
AcDbLine
 10
95.241739
 20
123.395387
 30
0.0
 11
95.456364
 21
120.360064
 31
0.0
  0
LINE
  5
2cd
100
AcDbEntity
  8
0
 62
1
100
AcDbLine
 10
95.456364
 20
120.360064
 30
0.0
 11
94.543361
 21
119.661323
 31
0.0
  0
SPLINE
  5
2ce
100
AcDbEntity
  8
0
 62
1
100
AcDbSpline
 70
8
 71
3
 72
8
 73
4
 74
0
 40
0
 40
0
 40
0
 40
0
 40
1
 40
1
 40
1
 40
1
 10
94.543361
 20
119.661323
 30
0.0
 10
94.444730
 20
119.585984
 30
0.0
 10
94.380174
 20
119.474459
 30
0.0
 10
94.363967
 20
119.351409
 30
0.0
  0
SPLINE
  5
2cf
100
AcDbEntity
  8
0
 62
1
100
AcDbSpline
 70
8
 71
3
 72
8
 73
4
 74
0
 40
0
 40
0
 40
0
 40
0
 40
1
 40
1
 40
1
 40
1
 10
94.363967
 20
119.351409
 30
0.0
 10
94.347760
 20
119.228359
 30
0.0
 10
94.381237
 20
119.103922
 30
0.0
 10
94.456997
 20
119.005614
 30
0.0
  0
LINE
  5
2d0
100
AcDbEntity
  8
0
 62
1
100
AcDbLine
 10
94.456997
 20
119.005614
 30
0.0
 11
98.159521
 21
114.234514
 31
0.0
  0
SPLINE
  5
2d1
100
AcDbEntity
  8
0
 62
1
100
AcDbSpline
 70
8
 71
3
 72
8
 73
4
 74
0
 40
0
 40
0
 40
0
 40
0
 40
1
 40
1
 40
1
 40
1
 10
98.159521
 20
114.234514
 30
0.0
 10
98.316727
 20
114.031292
 30
0.0
 10
98.608629
 20
113.993371
 30
0.0
 10
98.812542
 20
114.149679
 30
0.0
  0
SPLINE
  5
2d2
100
AcDbEntity
  8
0
 62
1
100
AcDbSpline
 70
8
 71
3
 72
8
 73
4
 74
0
 40
0
 40
0
 40
0
 40
0
 40
1
 40
1
 40
1
 40
1
 10
98.812542
 20
114.149679
 30
0.0
 10
99.782541
 20
114.900276
 30
0.0
 10
101.141388
 20
115.039458
 30
0.0
 10
102.273621
 20
114.385763
 30
0.0
  0
SPLINE
  5
2d3
100
AcDbEntity
  8
0
 62
1
100
AcDbSpline
 70
8
 71
3
 72
8
 73
4
 74
0
 40
0
 40
0
 40
0
 40
0
 40
1
 40
1
 40
1
 40
1
 10
102.273621
 20
114.385763
 30
0.0
 10
103.768499
 20
113.522695
 30
0.0
 10
104.279131
 20
111.625468
 30
0.0
 10
103.416056
 20
110.130578
 30
0.0
  0
SPLINE
  5
2d4
100
AcDbEntity
  8
0
 62
1
100
AcDbSpline
 70
8
 71
3
 72
8
 73
4
 74
0
 40
0
 40
0
 40
0
 40
0
 40
1
 40
1
 40
1
 40
1
 10
103.416056
 20
110.130578
 30
0.0
 10
102.553003
 20
108.635726
 30
0.0
 10
100.654607
 20
108.129290
 30
0.0
 10
99.159735
 20
108.992355
 30
0.0
  0
SPLINE
  5
2d5
100
AcDbEntity
  8
0
 62
1
100
AcDbSpline
 70
8
 71
3
 72
8
 73
4
 74
0
 40
0
 40
0
 40
0
 40
0
 40
1
 40
1
 40
1
 40
1
 10
99.159735
 20
108.992355
 30
0.0
 10
98.027502
 20
109.646050
 30
0.0
 10
97.468614
 20
110.892436
 30
0.0
 10
97.633650
 20
112.107779
 30
0.0
  0
SPLINE
  5
2d6
100
AcDbEntity
  8
0
 62
1
100
AcDbSpline
 70
8
 71
3
 72
8
 73
4
 74
0
 40
0
 40
0
 40
0
 40
0
 40
1
 40
1
 40
1
 40
1
 10
97.633650
 20
112.107779
 30
0.0
 10
97.667076
 20
112.362536
 30
0.0
 10
97.488279
 20
112.596388
 30
0.0
 10
97.233669
 20
112.630921
 30
0.0
  0
LINE
  5
2d7
100
AcDbEntity
  8
0
 62
1
100
AcDbLine
 10
97.233669
 20
112.630921
 30
0.0
 11
91.250512
 21
113.451851
 31
0.0
  0
SPLINE
  5
2d8
100
AcDbEntity
  8
0
 62
1
100
AcDbSpline
 70
8
 71
3
 72
8
 73
4
 74
0
 40
0
 40
0
 40
0
 40
0
 40
1
 40
1
 40
1
 40
1
 10
91.250512
 20
113.451851
 30
0.0
 10
91.127493
 20
113.468307
 30
0.0
 10
91.002986
 20
113.435081
 30
0.0
 10
90.904524
 20
113.359518
 30
0.0
  0
SPLINE
  5
2d9
100
AcDbEntity
  8
0
 62
1
100
AcDbSpline
 70
8
 71
3
 72
8
 73
4
 74
0
 40
0
 40
0
 40
0
 40
0
 40
1
 40
1
 40
1
 40
1
 10
90.904524
 20
113.359518
 30
0.0
 10
90.806061
 20
113.283955
 30
0.0
 10
90.741756
 20
113.172282
 30
0.0
 10
90.725828
 20
113.049193
 30
0.0
  0
LINE
  5
2da
100
AcDbEntity
  8
0
 62
1
100
AcDbLine
 10
90.725828
 20
113.049193
 30
0.0
 11
90.577209
 21
111.909147
 31
0.0
  0
LINE
  5
2db
100
AcDbEntity
  8
0
 62
1
100
AcDbLine
 10
90.577209
 20
111.909147
 30
0.0
 11
87.841228
 21
110.577357
 31
0.0
  0
LINE
  5
2dc
100
AcDbEntity
  8
0
 62
1
100
AcDbLine
 10
87.841228
 20
110.577357
 30
0.0
 11
87.845962
 21
110.567104
 31
0.0
  0
SPLINE
  5
2dd
100
AcDbEntity
  8
0
 62
1
100
AcDbSpline
 70
8
 71
3
 72
8
 73
4
 74
0
 40
0
 40
0
 40
0
 40
0
 40
1
 40
1
 40
1
 40
1
 10
87.845962
 20
110.567104
 30
0.0
 10
87.545714
 20
110.439341
 30
0.0
 10
87.365559
 20
110.108651
 30
0.0
 10
87.452040
 20
109.786060
 30
0.0
  0
LINE
  5
2de
100
AcDbEntity
  8
0
 62
1
100
AcDbLine
 10
87.452040
 20
109.786060
 30
0.0
 11
88.281576
 21
106.698622
 31
0.0
  0
SPLINE
  5
2df
100
AcDbEntity
  8
0
 62
1
100
AcDbSpline
 70
8
 71
3
 72
8
 73
4
 74
0
 40
0
 40
0
 40
0
 40
0
 40
1
 40
1
 40
1
 40
1
 10
88.281576
 20
106.698622
 30
0.0
 10
88.328297
 20
106.524218
 30
0.0
 10
88.464334
 20
106.367896
 30
0.0
 10
88.607055
 20
106.293329
 30
0.0
  0
SPLINE
  5
2e0
100
AcDbEntity
  8
0
 62
1
100
AcDbSpline
 70
8
 71
3
 72
8
 73
4
 74
0
 40
0
 40
0
 40
0
 40
0
 40
1
 40
1
 40
1
 40
1
 10
88.607055
 20
106.293329
 30
0.0
 10
88.749641
 20
106.218527
 30
0.0
 10
88.887846
 20
106.205286
 30
0.0
 10
89.010160
 20
106.213828
 30
0.0
  0
LINE
  5
2e1
100
AcDbEntity
  8
0
 62
1
100
AcDbLine
 10
89.010160
 20
106.213828
 30
0.0
 11
92.043943
 21
106.425781
 31
0.0
  0
LINE
  5
2e2
100
AcDbEntity
  8
0
 62
1
100
AcDbLine
 10
92.043943
 20
106.425781
 30
0.0
 11
93.391568
 21
104.667754
 31
0.0
  0
LINE
  5
2e3
100
AcDbEntity
  8
0
 62
1
100
AcDbLine
 10
93.391568
 20
104.667754
 30
0.0
 11
92.399220
 21
101.794753
 31
0.0
  0
LINE
  5
2e4
100
AcDbEntity
  8
0
 62
1
100
AcDbLine
 10
92.399220
 20
101.794753
 30
0.0
 11
92.408838
 21
101.792959
 31
0.0
  0
SPLINE
  5
2e5
100
AcDbEntity
  8
0
 62
1
100
AcDbSpline
 70
8
 71
3
 72
8
 73
4
 74
0
 40
0
 40
0
 40
0
 40
0
 40
1
 40
1
 40
1
 40
1
 10
92.408838
 20
101.792959
 30
0.0
 10
92.288942
 20
101.493316
 30
0.0
 10
92.396248
 20
101.126717
 30
0.0
 10
92.681127
 20
100.962242
 30
0.0
  0
LINE
  5
2e6
100
AcDbEntity
  8
0
 62
1
100
AcDbLine
 10
92.681127
 20
100.962242
 30
0.0
 11
95.449992
 21
99.363637
 31
0.0
  0
SPLINE
  5
2e7
100
AcDbEntity
  8
0
 62
1
100
AcDbSpline
 70
8
 71
3
 72
8
 73
4
 74
0
 40
0
 40
0
 40
0
 40
0
 40
1
 40
1
 40
1
 40
1
 10
95.449992
 20
99.363637
 30
0.0
 10
95.608012
 20
99.272329
 30
0.0
 10
95.816058
 20
99.258195
 30
0.0
 10
95.969180
 20
99.306201
 30
0.0
  0
SPLINE
  5
2e8
100
AcDbEntity
  8
0
 62
1
100
AcDbSpline
 70
8
 71
3
 72
8
 73
4
 74
0
 40
0
 40
0
 40
0
 40
0
 40
1
 40
1
 40
1
 40
1
 10
95.969180
 20
99.306201
 30
0.0
 10
96.122279
 20
99.354171
 30
0.0
 10
96.230629
 20
99.442215
 30
0.0
 10
96.312031
 20
99.535878
 30
0.0
  0
LINE
  5
2e9
100
AcDbEntity
  8
0
 62
1
100
AcDbLine
 10
96.312031
 20
99.535878
 30
0.0
 11
98.309716
 21
101.835592
 31
0.0
  0
LINE
  5
2ea
100
AcDbEntity
  8
0
 62
1
100
AcDbLine
 10
98.309716
 20
101.835592
 30
0.0
 11
100.494918
 21
101.546808
 31
0.0
  0
LINE
  5
2eb
100
AcDbEntity
  8
0
 62
1
100
AcDbLine
 10
100.494918
 20
101.546808
 30
0.0
 11
101.828249
 21
98.813502
 31
0.0
  0
LINE
  5
2ec
100
AcDbEntity
  8
0
 62
1
100
AcDbLine
 10
101.828249
 20
98.813502
 30
0.0
 11
101.838491
 21
98.818868
 31
0.0
  0
SPLINE
  5
2ed
100
AcDbEntity
  8
0
 62
1
100
AcDbSpline
 70
8
 71
3
 72
8
 73
4
 74
0
 40
0
 40
0
 40
0
 40
0
 40
1
 40
1
 40
1
 40
1
 10
101.838491
 20
98.818868
 30
0.0
 10
101.965453
 20
98.517161
 30
0.0
 10
102.294633
 20
98.335631
 30
0.0
 10
102.618025
 20
98.422321
 30
0.0
  0
LINE
  5
2ee
100
AcDbEntity
  8
0
 62
1
100
AcDbLine
 10
102.618025
 20
98.422321
 30
0.0
 11
105.706593
 21
99.247654
 31
0.0
  0
SPLINE
  5
2ef
100
AcDbEntity
  8
0
 62
1
100
AcDbSpline
 70
8
 71
3
 72
8
 73
4
 74
0
 40
0
 40
0
 40
0
 40
0
 40
1
 40
1
 40
1
 40
1
 10
105.706593
 20
99.247654
 30
0.0
 10
105.885561
 20
99.295553
 30
0.0
 10
106.042070
 20
99.432897
 30
0.0
 10
106.116098
 20
99.574257
 30
0.0
  0
SPLINE
  5
2f0
100
AcDbEntity
  8
0
 62
1
100
AcDbSpline
 70
8
 71
3
 72
8
 73
4
 74
0
 40
0
 40
0
 40
0
 40
0
 40
1
 40
1
 40
1
 40
1
 10
106.116098
 20
99.574257
 30
0.0
 10
106.190087
 20
99.715653
 30
0.0
 10
106.205937
 20
99.854056
 30
0.0
 10
106.197144
 20
99.980040
 30
0.0
  0
LINE
  5
2f1
100
AcDbEntity
  8
0
 62
1
100
AcDbLine
 10
106.197144
 20
99.980040
 30
0.0
 11
105.983646
 21
103.011141
 31
0.0
  0
LINE
  5
2f2
100
AcDbEntity
  8
0
 62
1
100
AcDbLine
 10
105.983646
 20
103.011141
 30
0.0
 11
107.734780
 21
104.359180
 31
0.0
  0
LINE
  5
2f3
100
AcDbEntity
  8
0
 62
1
100
AcDbLine
 10
107.734780
 20
104.359180
 30
0.0
 11
110.607783
 21
103.366831
 31
0.0
  0
LINE
  5
2f4
100
AcDbEntity
  8
0
 62
1
100
AcDbLine
 10
110.607783
 20
103.366831
 30
0.0
 11
110.611338
 21
103.379066
 31
0.0
  0
SPLINE
  5
2f5
100
AcDbEntity
  8
0
 62
1
100
AcDbSpline
 70
8
 71
3
 72
8
 73
4
 74
0
 40
0
 40
0
 40
0
 40
0
 40
1
 40
1
 40
1
 40
1
 10
110.611338
 20
103.379066
 30
0.0
 10
110.911436
 20
103.257442
 30
0.0
 10
111.275608
 20
103.363062
 30
0.0
 10
111.440509
 20
103.648679
 30
0.0
  0
LINE
  5
2f6
100
AcDbEntity
  8
0
 62
1
100
AcDbLine
 10
111.440509
 20
103.648679
 30
0.0
 11
113.039075
 21
106.417476
 31
0.0
  0
LINE
  5
2f7
100
AcDbEntity
  8
0
 62
1
100
AcDbLine
 10
113.039075
 20
106.417476
 30
0.0
 11
113.038977
 21
106.417545
 31
0.0
  0
SPLINE
  5
2f8
100
AcDbEntity
  8
0
 62
5
100
AcDbSpline
 70
8
 71
3
 72
8
 73
4
 74
0
 40
0
 40
0
 40
0
 40
0
 40
1
 40
1
 40
1
 40
1
 10
32.265761
 20
240.220511
 30
0.0
 10
32.153475
 20
240.220511
 30
0.0
 10
32.080992
 20
240.129358
 30
0.0
 10
32.059609
 20
240.019136
 30
0.0
  0
LINE
  5
2f9
100
AcDbEntity
  8
0
 62
5
100
AcDbLine
 10
32.059609
 20
240.019136
 30
0.0
 11
31.431504
 21
236.787545
 31
0.0
  0
LINE
  5
2fa
100
AcDbEntity
  8
0
 62
5
100
AcDbLine
 10
31.431504
 20
236.787545
 30
0.0
 11
28.933507
 21
235.751901
 31
0.0
  0
LINE
  5
2fb
100
AcDbEntity
  8
0
 62
5
100
AcDbLine
 10
28.933507
 20
235.751901
 30
0.0
 11
26.200530
 21
237.593045
 31
0.0
  0
SPLINE
  5
2fc
100
AcDbEntity
  8
0
 62
5
100
AcDbSpline
 70
8
 71
3
 72
8
 73
4
 74
0
 40
0
 40
0
 40
0
 40
0
 40
1
 40
1
 40
1
 40
1
 10
26.200530
 20
237.593045
 30
0.0
 10
26.121187
 20
237.672443
 30
0.0
 10
25.992272
 20
237.672432
 30
0.0
 10
25.912864
 20
237.593045
 30
0.0
  0
LINE
  5
2fd
100
AcDbEntity
  8
0
 62
5
100
AcDbLine
 10
25.912864
 20
237.593045
 30
0.0
 11
23.654591
 21
235.329973
 31
0.0
  0
SPLINE
  5
2fe
100
AcDbEntity
  8
0
 62
5
100
AcDbSpline
 70
8
 71
3
 72
8
 73
4
 74
0
 40
0
 40
0
 40
0
 40
0
 40
1
 40
1
 40
1
 40
1
 10
23.654591
 20
235.329973
 30
0.0
 10
23.575248
 20
235.250575
 30
0.0
 10
23.591746
 20
235.135375
 30
0.0
 10
23.654591
 20
235.042295
 30
0.0
  0
LINE
  5
2ff
100
AcDbEntity
  8
0
 62
5
100
AcDbLine
 10
23.654591
 20
235.042295
 30
0.0
 11
25.495730
 21
232.314141
 31
0.0
  0
LINE
  5
300
100
AcDbEntity
  8
0
 62
5
100
AcDbLine
 10
25.495730
 20
232.314141
 30
0.0
 11
24.460085
 21
229.811336
 31
0.0
  0
LINE
  5
301
100
AcDbEntity
  8
0
 62
5
100
AcDbLine
 10
24.460085
 20
229.811336
 30
0.0
 11
21.228492
 21
229.183237
 31
0.0
  0
SPLINE
  5
302
100
AcDbEntity
  8
0
 62
5
100
AcDbSpline
 70
8
 71
3
 72
8
 73
4
 74
0
 40
0
 40
0
 40
0
 40
0
 40
1
 40
1
 40
1
 40
1
 10
21.228492
 20
229.183237
 30
0.0
 10
21.116217
 20
229.183237
 30
0.0
 10
21.022318
 20
229.094136
 30
0.0
 10
21.022318
 20
228.981862
 30
0.0
  0
LINE
  5
303
100
AcDbEntity
  8
0
 62
5
100
AcDbLine
 10
21.022318
 20
228.981862
 30
0.0
 11
21.022318
 21
225.783832
 31
0.0
  0
SPLINE
  5
304
100
AcDbEntity
  8
0
 62
5
100
AcDbSpline
 70
8
 71
3
 72
8
 73
4
 74
0
 40
0
 40
0
 40
0
 40
0
 40
1
 40
1
 40
1
 40
1
 10
21.022318
 20
225.783832
 30
0.0
 10
21.022362
 20
225.671556
 30
0.0
 10
21.118269
 20
225.603869
 30
0.0
 10
21.228492
 20
225.582458
 30
0.0
  0
LINE
  5
305
100
AcDbEntity
  8
0
 62
5
100
AcDbLine
 10
21.228492
 20
225.582458
 30
0.0
 11
24.455288
 21
224.954358
 31
0.0
  0
LINE
  5
306
100
AcDbEntity
  8
0
 62
5
100
AcDbLine
 10
24.455288
 20
224.954358
 30
0.0
 11
25.495730
 21
222.446760
 31
0.0
  0
LINE
  5
307
100
AcDbEntity
  8
0
 62
5
100
AcDbLine
 10
25.495730
 20
222.446760
 30
0.0
 11
23.654591
 21
219.718606
 31
0.0
  0
SPLINE
  5
308
100
AcDbEntity
  8
0
 62
5
100
AcDbSpline
 70
8
 71
3
 72
8
 73
4
 74
0
 40
0
 40
0
 40
0
 40
0
 40
1
 40
1
 40
1
 40
1
 10
23.654591
 20
219.718606
 30
0.0
 10
23.575248
 20
219.639219
 30
0.0
 10
23.575248
 20
219.515121
 30
0.0
 10
23.654591
 20
219.435720
 30
0.0
  0
LINE
  5
309
100
AcDbEntity
  8
0
 62
5
100
AcDbLine
 10
23.654591
 20
219.435720
 30
0.0
 11
25.912864
 21
217.172650
 31
0.0
  0
SPLINE
  5
30a
100
AcDbEntity
  8
0
 62
5
100
AcDbSpline
 70
8
 71
3
 72
8
 73
4
 74
0
 40
0
 40
0
 40
0
 40
0
 40
1
 40
1
 40
1
 40
1
 10
25.912864
 20
217.172650
 30
0.0
 10
25.992316
 20
217.093252
 30
0.0
 10
26.107510
 20
217.109848
 30
0.0
 10
26.200530
 20
217.172650
 30
0.0
  0
LINE
  5
30b
100
AcDbEntity
  8
0
 62
5
100
AcDbLine
 10
26.200530
 20
217.172650
 30
0.0
 11
28.928699
 21
219.013793
 31
0.0
  0
LINE
  5
30c
100
AcDbEntity
  8
0
 62
5
100
AcDbLine
 10
28.928699
 20
219.013793
 30
0.0
 11
30.223257
 21
218.476793
 31
0.0
  0
LINE
  5
30d
100
AcDbEntity
  8
0
 62
5
100
AcDbLine
 10
30.223257
 20
218.476793
 30
0.0
 11
32.505507
 21
224.067349
 31
0.0
  0
SPLINE
  5
30e
100
AcDbEntity
  8
0
 62
5
100
AcDbSpline
 70
8
 71
3
 72
8
 73
4
 74
0
 40
0
 40
0
 40
0
 40
0
 40
1
 40
1
 40
1
 40
1
 10
32.505507
 20
224.067349
 30
0.0
 10
31.199779
 20
224.601985
 30
0.0
 10
30.280784
 20
225.882246
 30
0.0
 10
30.280784
 20
227.380451
 30
0.0
  0
SPLINE
  5
30f
100
AcDbEntity
  8
0
 62
5
100
AcDbSpline
 70
8
 71
3
 72
8
 73
4
 74
0
 40
0
 40
0
 40
0
 40
0
 40
1
 40
1
 40
1
 40
1
 10
30.280784
 20
227.380451
 30
0.0
 10
30.280784
 20
229.358710
 30
0.0
 10
31.884120
 20
230.962049
 30
0.0
 10
33.862389
 20
230.962049
 30
0.0
  0
SPLINE
  5
310
100
AcDbEntity
  8
0
 62
5
100
AcDbSpline
 70
8
 71
3
 72
8
 73
4
 74
0
 40
0
 40
0
 40
0
 40
0
 40
1
 40
1
 40
1
 40
1
 10
33.862389
 20
230.962049
 30
0.0
 10
35.840626
 20
230.962049
 30
0.0
 10
37.443995
 20
229.358710
 30
0.0
 10
37.443995
 20
227.380451
 30
0.0
  0
SPLINE
  5
311
100
AcDbEntity
  8
0
 62
5
100
AcDbSpline
 70
8
 71
3
 72
8
 73
4
 74
0
 40
0
 40
0
 40
0
 40
0
 40
1
 40
1
 40
1
 40
1
 10
37.443995
 20
227.380451
 30
0.0
 10
37.443995
 20
225.882246
 30
0.0
 10
36.524999
 20
224.601985
 30
0.0
 10
35.219272
 20
224.067349
 30
0.0
  0
LINE
  5
312
100
AcDbEntity
  8
0
 62
5
100
AcDbLine
 10
35.219272
 20
224.067349
 30
0.0
 11
37.501521
 21
218.476793
 31
0.0
  0
LINE
  5
313
100
AcDbEntity
  8
0
 62
5
100
AcDbLine
 10
37.501521
 20
218.476793
 30
0.0
 11
38.796080
 21
219.013793
 31
0.0
  0
LINE
  5
314
100
AcDbEntity
  8
0
 62
5
100
AcDbLine
 10
38.796080
 20
219.013793
 30
0.0
 11
41.524238
 21
217.172650
 31
0.0
  0
SPLINE
  5
315
100
AcDbEntity
  8
0
 62
5
100
AcDbSpline
 70
8
 71
3
 72
8
 73
4
 74
0
 40
0
 40
0
 40
0
 40
0
 40
1
 40
1
 40
1
 40
1
 10
41.524238
 20
217.172650
 30
0.0
 10
41.603581
 20
217.093252
 30
0.0
 10
41.732539
 20
217.093252
 30
0.0
 10
41.811904
 20
217.172650
 30
0.0
  0
LINE
  5
316
100
AcDbEntity
  8
0
 62
5
100
AcDbLine
 10
41.811904
 20
217.172650
 30
0.0
 11
44.070188
 21
219.435720
 31
0.0
  0
SPLINE
  5
317
100
AcDbEntity
  8
0
 62
5
100
AcDbSpline
 70
8
 71
3
 72
8
 73
4
 74
0
 40
0
 40
0
 40
0
 40
0
 40
1
 40
1
 40
1
 40
1
 10
44.070188
 20
219.435720
 30
0.0
 10
44.149640
 20
219.515118
 30
0.0
 10
44.133033
 20
219.625525
 30
0.0
 10
44.070188
 20
219.718606
 30
0.0
  0
LINE
  5
318
100
AcDbEntity
  8
0
 62
5
100
AcDbLine
 10
44.070188
 20
219.718606
 30
0.0
 11
42.229038
 21
222.446760
 31
0.0
  0
LINE
  5
319
100
AcDbEntity
  8
0
 62
5
100
AcDbLine
 10
42.229038
 20
222.446760
 30
0.0
 11
43.269469
 21
224.954358
 31
0.0
  0
LINE
  5
31a
100
AcDbEntity
  8
0
 62
5
100
AcDbLine
 10
43.269469
 20
224.954358
 30
0.0
 11
46.501080
 21
225.582458
 31
0.0
  0
SPLINE
  5
31b
100
AcDbEntity
  8
0
 62
5
100
AcDbSpline
 70
8
 71
3
 72
8
 73
4
 74
0
 40
0
 40
0
 40
0
 40
0
 40
1
 40
1
 40
1
 40
1
 10
46.501080
 20
225.582458
 30
0.0
 10
46.613322
 20
225.582458
 30
0.0
 10
46.702456
 20
225.671560
 30
0.0
 10
46.702456
 20
225.783832
 30
0.0
  0
LINE
  5
31c
100
AcDbEntity
  8
0
 62
5
100
AcDbLine
 10
46.702456
 20
225.783832
 30
0.0
 11
46.702456
 21
228.981862
 31
0.0
  0
SPLINE
  5
31d
100
AcDbEntity
  8
0
 62
5
100
AcDbSpline
 70
8
 71
3
 72
8
 73
4
 74
0
 40
0
 40
0
 40
0
 40
0
 40
1
 40
1
 40
1
 40
1
 10
46.702456
 20
228.981862
 30
0.0
 10
46.702488
 20
229.094137
 30
0.0
 10
46.611281
 20
229.161825
 30
0.0
 10
46.501080
 20
229.183237
 30
0.0
  0
LINE
  5
31e
100
AcDbEntity
  8
0
 62
5
100
AcDbLine
 10
46.501080
 20
229.183237
 30
0.0
 11
43.264694
 21
229.811336
 31
0.0
  0
LINE
  5
31f
100
AcDbEntity
  8
0
 62
5
100
AcDbLine
 10
43.264694
 20
229.811336
 30
0.0
 11
42.229038
 21
232.314141
 31
0.0
  0
LINE
  5
320
100
AcDbEntity
  8
0
 62
5
100
AcDbLine
 10
42.229038
 20
232.314141
 30
0.0
 11
44.070188
 21
235.042295
 31
0.0
  0
SPLINE
  5
321
100
AcDbEntity
  8
0
 62
5
100
AcDbSpline
 70
8
 71
3
 72
8
 73
4
 74
0
 40
0
 40
0
 40
0
 40
0
 40
1
 40
1
 40
1
 40
1
 10
44.070188
 20
235.042295
 30
0.0
 10
44.149640
 20
235.121682
 30
0.0
 10
44.149640
 20
235.250573
 30
0.0
 10
44.070188
 20
235.329973
 30
0.0
  0
LINE
  5
322
100
AcDbEntity
  8
0
 62
5
100
AcDbLine
 10
44.070188
 20
235.329973
 30
0.0
 11
41.811904
 21
237.593045
 31
0.0
  0
SPLINE
  5
323
100
AcDbEntity
  8
0
 62
5
100
AcDbSpline
 70
8
 71
3
 72
8
 73
4
 74
0
 40
0
 40
0
 40
0
 40
0
 40
1
 40
1
 40
1
 40
1
 10
41.811904
 20
237.593045
 30
0.0
 10
41.732560
 20
237.672443
 30
0.0
 10
41.617355
 20
237.655847
 30
0.0
 10
41.524238
 20
237.593045
 30
0.0
  0
LINE
  5
324
100
AcDbEntity
  8
0
 62
5
100
AcDbLine
 10
41.524238
 20
237.593045
 30
0.0
 11
38.796080
 21
235.751901
 31
0.0
  0
LINE
  5
325
100
AcDbEntity
  8
0
 62
5
100
AcDbLine
 10
38.796080
 20
235.751901
 30
0.0
 11
36.293275
 21
236.787545
 31
0.0
  0
LINE
  5
326
100
AcDbEntity
  8
0
 62
5
100
AcDbLine
 10
36.293275
 20
236.787545
 30
0.0
 11
35.665180
 21
240.019136
 31
0.0
  0
SPLINE
  5
327
100
AcDbEntity
  8
0
 62
5
100
AcDbSpline
 70
8
 71
3
 72
8
 73
4
 74
0
 40
0
 40
0
 40
0
 40
0
 40
1
 40
1
 40
1
 40
1
 10
35.665180
 20
240.019136
 30
0.0
 10
35.665180
 20
240.131413
 30
0.0
 10
35.576068
 20
240.220511
 30
0.0
 10
35.463782
 20
240.220511
 30
0.0
  0
LINE
  5
328
100
AcDbEntity
  8
0
 62
5
100
AcDbLine
 10
35.463782
 20
240.220511
 30
0.0
 11
32.265761
 21
240.220511
 31
0.0
  0
SPLINE
  5
329
100
AcDbEntity
  8
0
 62
2
100
AcDbSpline
 70
8
 71
3
 72
8
 73
4
 74
0
 40
0
 40
0
 40
0
 40
0
 40
1
 40
1
 40
1
 40
1
 10
32.265761
 20
240.220511
 30
0.0
 10
32.153475
 20
240.220511
 30
0.0
 10
32.080992
 20
240.129358
 30
0.0
 10
32.059609
 20
240.019136
 30
0.0
  0
LINE
  5
32a
100
AcDbEntity
  8
0
 62
2
100
AcDbLine
 10
32.059609
 20
240.019136
 30
0.0
 11
31.431504
 21
236.787545
 31
0.0
  0
LINE
  5
32b
100
AcDbEntity
  8
0
 62
2
100
AcDbLine
 10
31.431504
 20
236.787545
 30
0.0
 11
28.933507
 21
235.751901
 31
0.0
  0
LINE
  5
32c
100
AcDbEntity
  8
0
 62
2
100
AcDbLine
 10
28.933507
 20
235.751901
 30
0.0
 11
26.200530
 21
237.593045
 31
0.0
  0
SPLINE
  5
32d
100
AcDbEntity
  8
0
 62
2
100
AcDbSpline
 70
8
 71
3
 72
8
 73
4
 74
0
 40
0
 40
0
 40
0
 40
0
 40
1
 40
1
 40
1
 40
1
 10
26.200530
 20
237.593045
 30
0.0
 10
26.121187
 20
237.672443
 30
0.0
 10
25.992272
 20
237.672432
 30
0.0
 10
25.912864
 20
237.593045
 30
0.0
  0
LINE
  5
32e
100
AcDbEntity
  8
0
 62
2
100
AcDbLine
 10
25.912864
 20
237.593045
 30
0.0
 11
23.654591
 21
235.329973
 31
0.0
  0
SPLINE
  5
32f
100
AcDbEntity
  8
0
 62
2
100
AcDbSpline
 70
8
 71
3
 72
8
 73
4
 74
0
 40
0
 40
0
 40
0
 40
0
 40
1
 40
1
 40
1
 40
1
 10
23.654591
 20
235.329973
 30
0.0
 10
23.575248
 20
235.250575
 30
0.0
 10
23.591746
 20
235.135375
 30
0.0
 10
23.654591
 20
235.042295
 30
0.0
  0
LINE
  5
330
100
AcDbEntity
  8
0
 62
2
100
AcDbLine
 10
23.654591
 20
235.042295
 30
0.0
 11
25.495730
 21
232.314141
 31
0.0
  0
LINE
  5
331
100
AcDbEntity
  8
0
 62
2
100
AcDbLine
 10
25.495730
 20
232.314141
 30
0.0
 11
24.460085
 21
229.811336
 31
0.0
  0
LINE
  5
332
100
AcDbEntity
  8
0
 62
2
100
AcDbLine
 10
24.460085
 20
229.811336
 30
0.0
 11
21.228492
 21
229.183237
 31
0.0
  0
SPLINE
  5
333
100
AcDbEntity
  8
0
 62
2
100
AcDbSpline
 70
8
 71
3
 72
8
 73
4
 74
0
 40
0
 40
0
 40
0
 40
0
 40
1
 40
1
 40
1
 40
1
 10
21.228492
 20
229.183237
 30
0.0
 10
21.116217
 20
229.183237
 30
0.0
 10
21.022318
 20
229.094136
 30
0.0
 10
21.022318
 20
228.981862
 30
0.0
  0
LINE
  5
334
100
AcDbEntity
  8
0
 62
2
100
AcDbLine
 10
21.022318
 20
228.981862
 30
0.0
 11
21.022318
 21
225.783832
 31
0.0
  0
SPLINE
  5
335
100
AcDbEntity
  8
0
 62
2
100
AcDbSpline
 70
8
 71
3
 72
8
 73
4
 74
0
 40
0
 40
0
 40
0
 40
0
 40
1
 40
1
 40
1
 40
1
 10
21.022318
 20
225.783832
 30
0.0
 10
21.022362
 20
225.671556
 30
0.0
 10
21.118269
 20
225.603869
 30
0.0
 10
21.228492
 20
225.582458
 30
0.0
  0
LINE
  5
336
100
AcDbEntity
  8
0
 62
2
100
AcDbLine
 10
21.228492
 20
225.582458
 30
0.0
 11
24.455288
 21
224.954358
 31
0.0
  0
LINE
  5
337
100
AcDbEntity
  8
0
 62
2
100
AcDbLine
 10
24.455288
 20
224.954358
 30
0.0
 11
25.495730
 21
222.446760
 31
0.0
  0
LINE
  5
338
100
AcDbEntity
  8
0
 62
2
100
AcDbLine
 10
25.495730
 20
222.446760
 30
0.0
 11
23.654591
 21
219.718606
 31
0.0
  0
SPLINE
  5
339
100
AcDbEntity
  8
0
 62
2
100
AcDbSpline
 70
8
 71
3
 72
8
 73
4
 74
0
 40
0
 40
0
 40
0
 40
0
 40
1
 40
1
 40
1
 40
1
 10
23.654591
 20
219.718606
 30
0.0
 10
23.575248
 20
219.639219
 30
0.0
 10
23.575248
 20
219.515121
 30
0.0
 10
23.654591
 20
219.435720
 30
0.0
  0
LINE
  5
33a
100
AcDbEntity
  8
0
 62
2
100
AcDbLine
 10
23.654591
 20
219.435720
 30
0.0
 11
25.912864
 21
217.172650
 31
0.0
  0
SPLINE
  5
33b
100
AcDbEntity
  8
0
 62
2
100
AcDbSpline
 70
8
 71
3
 72
8
 73
4
 74
0
 40
0
 40
0
 40
0
 40
0
 40
1
 40
1
 40
1
 40
1
 10
25.912864
 20
217.172650
 30
0.0
 10
25.992316
 20
217.093252
 30
0.0
 10
26.107510
 20
217.109848
 30
0.0
 10
26.200530
 20
217.172650
 30
0.0
  0
LINE
  5
33c
100
AcDbEntity
  8
0
 62
2
100
AcDbLine
 10
26.200530
 20
217.172650
 30
0.0
 11
28.928699
 21
219.013793
 31
0.0
  0
LINE
  5
33d
100
AcDbEntity
  8
0
 62
2
100
AcDbLine
 10
28.928699
 20
219.013793
 30
0.0
 11
30.223257
 21
218.476793
 31
0.0
  0
LINE
  5
33e
100
AcDbEntity
  8
0
 62
2
100
AcDbLine
 10
30.223257
 20
218.476793
 30
0.0
 11
32.505507
 21
224.067349
 31
0.0
  0
SPLINE
  5
33f
100
AcDbEntity
  8
0
 62
2
100
AcDbSpline
 70
8
 71
3
 72
8
 73
4
 74
0
 40
0
 40
0
 40
0
 40
0
 40
1
 40
1
 40
1
 40
1
 10
32.505507
 20
224.067349
 30
0.0
 10
31.199779
 20
224.601985
 30
0.0
 10
30.280784
 20
225.882246
 30
0.0
 10
30.280784
 20
227.380451
 30
0.0
  0
SPLINE
  5
340
100
AcDbEntity
  8
0
 62
2
100
AcDbSpline
 70
8
 71
3
 72
8
 73
4
 74
0
 40
0
 40
0
 40
0
 40
0
 40
1
 40
1
 40
1
 40
1
 10
30.280784
 20
227.380451
 30
0.0
 10
30.280784
 20
229.358710
 30
0.0
 10
31.884120
 20
230.962049
 30
0.0
 10
33.862389
 20
230.962049
 30
0.0
  0
SPLINE
  5
341
100
AcDbEntity
  8
0
 62
2
100
AcDbSpline
 70
8
 71
3
 72
8
 73
4
 74
0
 40
0
 40
0
 40
0
 40
0
 40
1
 40
1
 40
1
 40
1
 10
33.862389
 20
230.962049
 30
0.0
 10
35.840626
 20
230.962049
 30
0.0
 10
37.443995
 20
229.358710
 30
0.0
 10
37.443995
 20
227.380451
 30
0.0
  0
SPLINE
  5
342
100
AcDbEntity
  8
0
 62
2
100
AcDbSpline
 70
8
 71
3
 72
8
 73
4
 74
0
 40
0
 40
0
 40
0
 40
0
 40
1
 40
1
 40
1
 40
1
 10
37.443995
 20
227.380451
 30
0.0
 10
37.443995
 20
225.882246
 30
0.0
 10
36.524999
 20
224.601985
 30
0.0
 10
35.219272
 20
224.067349
 30
0.0
  0
LINE
  5
343
100
AcDbEntity
  8
0
 62
2
100
AcDbLine
 10
35.219272
 20
224.067349
 30
0.0
 11
37.501521
 21
218.476793
 31
0.0
  0
LINE
  5
344
100
AcDbEntity
  8
0
 62
2
100
AcDbLine
 10
37.501521
 20
218.476793
 30
0.0
 11
38.796080
 21
219.013793
 31
0.0
  0
LINE
  5
345
100
AcDbEntity
  8
0
 62
2
100
AcDbLine
 10
38.796080
 20
219.013793
 30
0.0
 11
41.524238
 21
217.172650
 31
0.0
  0
SPLINE
  5
346
100
AcDbEntity
  8
0
 62
2
100
AcDbSpline
 70
8
 71
3
 72
8
 73
4
 74
0
 40
0
 40
0
 40
0
 40
0
 40
1
 40
1
 40
1
 40
1
 10
41.524238
 20
217.172650
 30
0.0
 10
41.603581
 20
217.093252
 30
0.0
 10
41.732539
 20
217.093252
 30
0.0
 10
41.811904
 20
217.172650
 30
0.0
  0
LINE
  5
347
100
AcDbEntity
  8
0
 62
2
100
AcDbLine
 10
41.811904
 20
217.172650
 30
0.0
 11
44.070188
 21
219.435720
 31
0.0
  0
SPLINE
  5
348
100
AcDbEntity
  8
0
 62
2
100
AcDbSpline
 70
8
 71
3
 72
8
 73
4
 74
0
 40
0
 40
0
 40
0
 40
0
 40
1
 40
1
 40
1
 40
1
 10
44.070188
 20
219.435720
 30
0.0
 10
44.149640
 20
219.515118
 30
0.0
 10
44.133033
 20
219.625525
 30
0.0
 10
44.070188
 20
219.718606
 30
0.0
  0
LINE
  5
349
100
AcDbEntity
  8
0
 62
2
100
AcDbLine
 10
44.070188
 20
219.718606
 30
0.0
 11
42.229038
 21
222.446760
 31
0.0
  0
LINE
  5
34a
100
AcDbEntity
  8
0
 62
2
100
AcDbLine
 10
42.229038
 20
222.446760
 30
0.0
 11
43.269469
 21
224.954358
 31
0.0
  0
LINE
  5
34b
100
AcDbEntity
  8
0
 62
2
100
AcDbLine
 10
43.269469
 20
224.954358
 30
0.0
 11
46.501080
 21
225.582458
 31
0.0
  0
SPLINE
  5
34c
100
AcDbEntity
  8
0
 62
2
100
AcDbSpline
 70
8
 71
3
 72
8
 73
4
 74
0
 40
0
 40
0
 40
0
 40
0
 40
1
 40
1
 40
1
 40
1
 10
46.501080
 20
225.582458
 30
0.0
 10
46.613322
 20
225.582458
 30
0.0
 10
46.702456
 20
225.671560
 30
0.0
 10
46.702456
 20
225.783832
 30
0.0
  0
LINE
  5
34d
100
AcDbEntity
  8
0
 62
2
100
AcDbLine
 10
46.702456
 20
225.783832
 30
0.0
 11
46.702456
 21
228.981862
 31
0.0
  0
SPLINE
  5
34e
100
AcDbEntity
  8
0
 62
2
100
AcDbSpline
 70
8
 71
3
 72
8
 73
4
 74
0
 40
0
 40
0
 40
0
 40
0
 40
1
 40
1
 40
1
 40
1
 10
46.702456
 20
228.981862
 30
0.0
 10
46.702488
 20
229.094137
 30
0.0
 10
46.611281
 20
229.161825
 30
0.0
 10
46.501080
 20
229.183237
 30
0.0
  0
LINE
  5
34f
100
AcDbEntity
  8
0
 62
2
100
AcDbLine
 10
46.501080
 20
229.183237
 30
0.0
 11
43.264694
 21
229.811336
 31
0.0
  0
LINE
  5
350
100
AcDbEntity
  8
0
 62
2
100
AcDbLine
 10
43.264694
 20
229.811336
 30
0.0
 11
42.229038
 21
232.314141
 31
0.0
  0
LINE
  5
351
100
AcDbEntity
  8
0
 62
2
100
AcDbLine
 10
42.229038
 20
232.314141
 30
0.0
 11
44.070188
 21
235.042295
 31
0.0
  0
SPLINE
  5
352
100
AcDbEntity
  8
0
 62
2
100
AcDbSpline
 70
8
 71
3
 72
8
 73
4
 74
0
 40
0
 40
0
 40
0
 40
0
 40
1
 40
1
 40
1
 40
1
 10
44.070188
 20
235.042295
 30
0.0
 10
44.149640
 20
235.121682
 30
0.0
 10
44.149640
 20
235.250573
 30
0.0
 10
44.070188
 20
235.329973
 30
0.0
  0
LINE
  5
353
100
AcDbEntity
  8
0
 62
2
100
AcDbLine
 10
44.070188
 20
235.329973
 30
0.0
 11
41.811904
 21
237.593045
 31
0.0
  0
SPLINE
  5
354
100
AcDbEntity
  8
0
 62
2
100
AcDbSpline
 70
8
 71
3
 72
8
 73
4
 74
0
 40
0
 40
0
 40
0
 40
0
 40
1
 40
1
 40
1
 40
1
 10
41.811904
 20
237.593045
 30
0.0
 10
41.732560
 20
237.672443
 30
0.0
 10
41.617355
 20
237.655847
 30
0.0
 10
41.524238
 20
237.593045
 30
0.0
  0
LINE
  5
355
100
AcDbEntity
  8
0
 62
2
100
AcDbLine
 10
41.524238
 20
237.593045
 30
0.0
 11
38.796080
 21
235.751901
 31
0.0
  0
LINE
  5
356
100
AcDbEntity
  8
0
 62
2
100
AcDbLine
 10
38.796080
 20
235.751901
 30
0.0
 11
36.293275
 21
236.787545
 31
0.0
  0
LINE
  5
357
100
AcDbEntity
  8
0
 62
2
100
AcDbLine
 10
36.293275
 20
236.787545
 30
0.0
 11
35.665180
 21
240.019136
 31
0.0
  0
SPLINE
  5
358
100
AcDbEntity
  8
0
 62
2
100
AcDbSpline
 70
8
 71
3
 72
8
 73
4
 74
0
 40
0
 40
0
 40
0
 40
0
 40
1
 40
1
 40
1
 40
1
 10
35.665180
 20
240.019136
 30
0.0
 10
35.665180
 20
240.131413
 30
0.0
 10
35.576068
 20
240.220511
 30
0.0
 10
35.463782
 20
240.220511
 30
0.0
  0
LINE
  5
359
100
AcDbEntity
  8
0
 62
2
100
AcDbLine
 10
35.463782
 20
240.220511
 30
0.0
 11
32.265761
 21
240.220511
 31
0.0
  0
SPLINE
  5
35a
100
AcDbEntity
  8
0
 62
7
100
AcDbSpline
 70
8
 71
3
 72
8
 73
4
 74
0
 40
0
 40
0
 40
0
 40
0
 40
1
 40
1
 40
1
 40
1
 10
33.861154
 20
220.650845
 30
0.0
 10
31.457846
 20
220.650845
 30
0.0
 10
29.237098
 20
221.932994
 30
0.0
 10
28.035444
 20
224.014320
 30
0.0
  0
SPLINE
  5
35b
100
AcDbEntity
  8
0
 62
7
100
AcDbSpline
 70
8
 71
3
 72
8
 73
4
 74
0
 40
0
 40
0
 40
0
 40
0
 40
1
 40
1
 40
1
 40
1
 10
28.035444
 20
224.014320
 30
0.0
 10
26.833790
 20
226.095646
 30
0.0
 10
26.833790
 20
228.659945
 30
0.0
 10
28.035444
 20
230.741271
 30
0.0
  0
SPLINE
  5
35c
100
AcDbEntity
  8
0
 62
7
100
AcDbSpline
 70
8
 71
3
 72
8
 73
4
 74
0
 40
0
 40
0
 40
0
 40
0
 40
1
 40
1
 40
1
 40
1
 10
28.035444
 20
230.741271
 30
0.0
 10
29.237098
 20
232.822597
 30
0.0
 10
31.457846
 20
234.104747
 30
0.0
 10
33.861154
 20
234.104747
 30
0.0
  0
SPLINE
  5
35d
100
AcDbEntity
  8
0
 62
7
100
AcDbSpline
 70
8
 71
3
 72
8
 73
4
 74
0
 40
0
 40
0
 40
0
 40
0
 40
1
 40
1
 40
1
 40
1
 10
33.861154
 20
234.104747
 30
0.0
 10
36.264462
 20
234.104747
 30
0.0
 10
38.485210
 20
232.822597
 30
0.0
 10
39.686865
 20
230.741271
 30
0.0
  0
SPLINE
  5
35e
100
AcDbEntity
  8
0
 62
7
100
AcDbSpline
 70
8
 71
3
 72
8
 73
4
 74
0
 40
0
 40
0
 40
0
 40
0
 40
1
 40
1
 40
1
 40
1
 10
39.686865
 20
230.741271
 30
0.0
 10
40.888519
 20
228.659945
 30
0.0
 10
40.888519
 20
226.095646
 30
0.0
 10
39.686865
 20
224.014320
 30
0.0
  0
SPLINE
  5
35f
100
AcDbEntity
  8
0
 62
7
100
AcDbSpline
 70
8
 71
3
 72
8
 73
4
 74
0
 40
0
 40
0
 40
0
 40
0
 40
1
 40
1
 40
1
 40
1
 10
39.686865
 20
224.014320
 30
0.0
 10
38.485210
 20
221.932994
 30
0.0
 10
36.264462
 20
220.650845
 30
0.0
 10
33.861154
 20
220.650845
 30
0.0
  0
LINE
  5
360
100
AcDbEntity
  8
0
 62
7
100
AcDbLine
 10
33.861154
 20
220.650845
 30
0.0
 11
33.861154
 21
220.650845
 31
0.0
  0
SPLINE
  5
361
100
AcDbEntity
  8
0
 62
7
100
AcDbSpline
 70
8
 71
3
 72
8
 73
4
 74
0
 40
0
 40
0
 40
0
 40
0
 40
1
 40
1
 40
1
 40
1
 10
34.473421
 20
238.141706
 30
0.0
 10
34.473421
 20
237.922958
 30
0.0
 10
34.356720
 20
237.720827
 30
0.0
 10
34.167279
 20
237.611453
 30
0.0
  0
SPLINE
  5
362
100
AcDbEntity
  8
0
 62
7
100
AcDbSpline
 70
8
 71
3
 72
8
 73
4
 74
0
 40
0
 40
0
 40
0
 40
0
 40
1
 40
1
 40
1
 40
1
 10
34.167279
 20
237.611453
 30
0.0
 10
33.977837
 20
237.502079
 30
0.0
 10
33.744436
 20
237.502079
 30
0.0
 10
33.554995
 20
237.611453
 30
0.0
  0
SPLINE
  5
363
100
AcDbEntity
  8
0
 62
7
100
AcDbSpline
 70
8
 71
3
 72
8
 73
4
 74
0
 40
0
 40
0
 40
0
 40
0
 40
1
 40
1
 40
1
 40
1
 10
33.554995
 20
237.611453
 30
0.0
 10
33.365553
 20
237.720827
 30
0.0
 10
33.248853
 20
237.922958
 30
0.0
 10
33.248853
 20
238.141706
 30
0.0
  0
SPLINE
  5
364
100
AcDbEntity
  8
0
 62
7
100
AcDbSpline
 70
8
 71
3
 72
8
 73
4
 74
0
 40
0
 40
0
 40
0
 40
0
 40
1
 40
1
 40
1
 40
1
 10
33.248853
 20
238.141706
 30
0.0
 10
33.248853
 20
238.360454
 30
0.0
 10
33.365553
 20
238.562586
 30
0.0
 10
33.554995
 20
238.671960
 30
0.0
  0
SPLINE
  5
365
100
AcDbEntity
  8
0
 62
7
100
AcDbSpline
 70
8
 71
3
 72
8
 73
4
 74
0
 40
0
 40
0
 40
0
 40
0
 40
1
 40
1
 40
1
 40
1
 10
33.554995
 20
238.671960
 30
0.0
 10
33.744436
 20
238.781334
 30
0.0
 10
33.977837
 20
238.781334
 30
0.0
 10
34.167279
 20
238.671960
 30
0.0
  0
SPLINE
  5
366
100
AcDbEntity
  8
0
 62
7
100
AcDbSpline
 70
8
 71
3
 72
8
 73
4
 74
0
 40
0
 40
0
 40
0
 40
0
 40
1
 40
1
 40
1
 40
1
 10
34.167279
 20
238.671960
 30
0.0
 10
34.356720
 20
238.562586
 30
0.0
 10
34.473421
 20
238.360454
 30
0.0
 10
34.473421
 20
238.141706
 30
0.0
  0
LINE
  5
367
100
AcDbEntity
  8
0
 62
7
100
AcDbLine
 10
34.473421
 20
238.141706
 30
0.0
 11
34.473421
 21
238.141706
 31
0.0
  0
SPLINE
  5
368
100
AcDbEntity
  8
0
 62
7
100
AcDbSpline
 70
8
 71
3
 72
8
 73
4
 74
0
 40
0
 40
0
 40
0
 40
0
 40
1
 40
1
 40
1
 40
1
 10
26.682849
 20
235.421985
 30
0.0
 10
26.837527
 20
235.267306
 30
0.0
 10
26.897936
 20
235.041858
 30
0.0
 10
26.841320
 20
234.830563
 30
0.0
  0
SPLINE
  5
369
100
AcDbEntity
  8
0
 62
7
100
AcDbSpline
 70
8
 71
3
 72
8
 73
4
 74
0
 40
0
 40
0
 40
0
 40
0
 40
1
 40
1
 40
1
 40
1
 10
26.841320
 20
234.830563
 30
0.0
 10
26.784704
 20
234.619269
 30
0.0
 10
26.619664
 20
234.454229
 30
0.0
 10
26.408370
 20
234.397613
 30
0.0
  0
SPLINE
  5
36a
100
AcDbEntity
  8
0
 62
7
100
AcDbSpline
 70
8
 71
3
 72
8
 73
4
 74
0
 40
0
 40
0
 40
0
 40
0
 40
1
 40
1
 40
1
 40
1
 10
26.408370
 20
234.397613
 30
0.0
 10
26.197075
 20
234.340997
 30
0.0
 10
25.971627
 20
234.401406
 30
0.0
 10
25.816949
 20
234.556084
 30
0.0
  0
SPLINE
  5
36b
100
AcDbEntity
  8
0
 62
7
100
AcDbSpline
 70
8
 71
3
 72
8
 73
4
 74
0
 40
0
 40
0
 40
0
 40
0
 40
1
 40
1
 40
1
 40
1
 10
25.816949
 20
234.556084
 30
0.0
 10
25.662270
 20
234.710762
 30
0.0
 10
25.601862
 20
234.936211
 30
0.0
 10
25.658478
 20
235.147505
 30
0.0
  0
SPLINE
  5
36c
100
AcDbEntity
  8
0
 62
7
100
AcDbSpline
 70
8
 71
3
 72
8
 73
4
 74
0
 40
0
 40
0
 40
0
 40
0
 40
1
 40
1
 40
1
 40
1
 10
25.658478
 20
235.147505
 30
0.0
 10
25.715094
 20
235.358800
 30
0.0
 10
25.880134
 20
235.523839
 30
0.0
 10
26.091428
 20
235.580455
 30
0.0
  0
SPLINE
  5
36d
100
AcDbEntity
  8
0
 62
7
100
AcDbSpline
 70
8
 71
3
 72
8
 73
4
 74
0
 40
0
 40
0
 40
0
 40
0
 40
1
 40
1
 40
1
 40
1
 10
26.091428
 20
235.580455
 30
0.0
 10
26.302722
 20
235.637072
 30
0.0
 10
26.528171
 20
235.576663
 30
0.0
 10
26.682849
 20
235.421985
 30
0.0
  0
LINE
  5
36e
100
AcDbEntity
  8
0
 62
7
100
AcDbLine
 10
26.682849
 20
235.421985
 30
0.0
 11
26.682849
 21
235.421985
 31
0.0
  0
SPLINE
  5
36f
100
AcDbEntity
  8
0
 62
7
100
AcDbSpline
 70
8
 71
3
 72
8
 73
4
 74
0
 40
0
 40
0
 40
0
 40
0
 40
1
 40
1
 40
1
 40
1
 10
23.097228
 20
227.990072
 30
0.0
 10
23.315976
 20
227.990072
 30
0.0
 10
23.518108
 20
227.873372
 30
0.0
 10
23.627482
 20
227.683930
 30
0.0
  0
SPLINE
  5
370
100
AcDbEntity
  8
0
 62
7
100
AcDbSpline
 70
8
 71
3
 72
8
 73
4
 74
0
 40
0
 40
0
 40
0
 40
0
 40
1
 40
1
 40
1
 40
1
 10
23.627482
 20
227.683930
 30
0.0
 10
23.736856
 20
227.494489
 30
0.0
 10
23.736856
 20
227.261087
 30
0.0
 10
23.627482
 20
227.071646
 30
0.0
  0
SPLINE
  5
371
100
AcDbEntity
  8
0
 62
7
100
AcDbSpline
 70
8
 71
3
 72
8
 73
4
 74
0
 40
0
 40
0
 40
0
 40
0
 40
1
 40
1
 40
1
 40
1
 10
23.627482
 20
227.071646
 30
0.0
 10
23.518108
 20
226.882205
 30
0.0
 10
23.315976
 20
226.765504
 30
0.0
 10
23.097228
 20
226.765504
 30
0.0
  0
SPLINE
  5
372
100
AcDbEntity
  8
0
 62
7
100
AcDbSpline
 70
8
 71
3
 72
8
 73
4
 74
0
 40
0
 40
0
 40
0
 40
0
 40
1
 40
1
 40
1
 40
1
 10
23.097228
 20
226.765504
 30
0.0
 10
22.878480
 20
226.765504
 30
0.0
 10
22.676349
 20
226.882205
 30
0.0
 10
22.566975
 20
227.071646
 30
0.0
  0
SPLINE
  5
373
100
AcDbEntity
  8
0
 62
7
100
AcDbSpline
 70
8
 71
3
 72
8
 73
4
 74
0
 40
0
 40
0
 40
0
 40
0
 40
1
 40
1
 40
1
 40
1
 10
22.566975
 20
227.071646
 30
0.0
 10
22.457601
 20
227.261087
 30
0.0
 10
22.457601
 20
227.494489
 30
0.0
 10
22.566975
 20
227.683930
 30
0.0
  0
SPLINE
  5
374
100
AcDbEntity
  8
0
 62
7
100
AcDbSpline
 70
8
 71
3
 72
8
 73
4
 74
0
 40
0
 40
0
 40
0
 40
0
 40
1
 40
1
 40
1
 40
1
 10
22.566975
 20
227.683930
 30
0.0
 10
22.676349
 20
227.873372
 30
0.0
 10
22.878480
 20
227.990072
 30
0.0
 10
23.097228
 20
227.990072
 30
0.0
  0
LINE
  5
375
100
AcDbEntity
  8
0
 62
7
100
AcDbLine
 10
23.097228
 20
227.990072
 30
0.0
 11
23.097228
 21
227.990072
 31
0.0
  0
SPLINE
  5
376
100
AcDbEntity
  8
0
 62
7
100
AcDbSpline
 70
8
 71
3
 72
8
 73
4
 74
0
 40
0
 40
0
 40
0
 40
0
 40
1
 40
1
 40
1
 40
1
 10
25.816942
 20
220.199501
 30
0.0
 10
25.971621
 20
220.354179
 30
0.0
 10
26.197069
 20
220.414588
 30
0.0
 10
26.408364
 20
220.357972
 30
0.0
  0
SPLINE
  5
377
100
AcDbEntity
  8
0
 62
7
100
AcDbSpline
 70
8
 71
3
 72
8
 73
4
 74
0
 40
0
 40
0
 40
0
 40
0
 40
1
 40
1
 40
1
 40
1
 10
26.408364
 20
220.357972
 30
0.0
 10
26.619658
 20
220.301356
 30
0.0
 10
26.784698
 20
220.136316
 30
0.0
 10
26.841314
 20
219.925021
 30
0.0
  0
SPLINE
  5
378
100
AcDbEntity
  8
0
 62
7
100
AcDbSpline
 70
8
 71
3
 72
8
 73
4
 74
0
 40
0
 40
0
 40
0
 40
0
 40
1
 40
1
 40
1
 40
1
 10
26.841314
 20
219.925021
 30
0.0
 10
26.897930
 20
219.713727
 30
0.0
 10
26.837521
 20
219.488279
 30
0.0
 10
26.682843
 20
219.333600
 30
0.0
  0
SPLINE
  5
379
100
AcDbEntity
  8
0
 62
7
100
AcDbSpline
 70
8
 71
3
 72
8
 73
4
 74
0
 40
0
 40
0
 40
0
 40
0
 40
1
 40
1
 40
1
 40
1
 10
26.682843
 20
219.333600
 30
0.0
 10
26.528165
 20
219.178922
 30
0.0
 10
26.302716
 20
219.118513
 30
0.0
 10
26.091422
 20
219.175129
 30
0.0
  0
SPLINE
  5
37a
100
AcDbEntity
  8
0
 62
7
100
AcDbSpline
 70
8
 71
3
 72
8
 73
4
 74
0
 40
0
 40
0
 40
0
 40
0
 40
1
 40
1
 40
1
 40
1
 10
26.091422
 20
219.175129
 30
0.0
 10
25.880127
 20
219.231746
 30
0.0
 10
25.715088
 20
219.396785
 30
0.0
 10
25.658472
 20
219.608080
 30
0.0
  0
SPLINE
  5
37b
100
AcDbEntity
  8
0
 62
7
100
AcDbSpline
 70
8
 71
3
 72
8
 73
4
 74
0
 40
0
 40
0
 40
0
 40
0
 40
1
 40
1
 40
1
 40
1
 10
25.658472
 20
219.608080
 30
0.0
 10
25.601855
 20
219.819374
 30
0.0
 10
25.662264
 20
220.044823
 30
0.0
 10
25.816942
 20
220.199501
 30
0.0
  0
LINE
  5
37c
100
AcDbEntity
  8
0
 62
7
100
AcDbLine
 10
25.816942
 20
220.199501
 30
0.0
 11
25.816942
 21
220.199501
 31
0.0
  0
SPLINE
  5
37d
100
AcDbEntity
  8
0
 62
7
100
AcDbSpline
 70
8
 71
3
 72
8
 73
4
 74
0
 40
0
 40
0
 40
0
 40
0
 40
1
 40
1
 40
1
 40
1
 10
41.905345
 20
234.556067
 30
0.0
 10
41.750667
 20
234.401389
 30
0.0
 10
41.525218
 20
234.340980
 30
0.0
 10
41.313924
 20
234.397596
 30
0.0
  0
SPLINE
  5
37e
100
AcDbEntity
  8
0
 62
7
100
AcDbSpline
 70
8
 71
3
 72
8
 73
4
 74
0
 40
0
 40
0
 40
0
 40
0
 40
1
 40
1
 40
1
 40
1
 10
41.313924
 20
234.397596
 30
0.0
 10
41.102630
 20
234.454212
 30
0.0
 10
40.937590
 20
234.619252
 30
0.0
 10
40.880974
 20
234.830547
 30
0.0
  0
SPLINE
  5
37f
100
AcDbEntity
  8
0
 62
7
100
AcDbSpline
 70
8
 71
3
 72
8
 73
4
 74
0
 40
0
 40
0
 40
0
 40
0
 40
1
 40
1
 40
1
 40
1
 10
40.880974
 20
234.830547
 30
0.0
 10
40.824357
 20
235.041841
 30
0.0
 10
40.884766
 20
235.267289
 30
0.0
 10
41.039444
 20
235.421968
 30
0.0
  0
SPLINE
  5
380
100
AcDbEntity
  8
0
 62
7
100
AcDbSpline
 70
8
 71
3
 72
8
 73
4
 74
0
 40
0
 40
0
 40
0
 40
0
 40
1
 40
1
 40
1
 40
1
 10
41.039444
 20
235.421968
 30
0.0
 10
41.194123
 20
235.576646
 30
0.0
 10
41.419571
 20
235.637055
 30
0.0
 10
41.630866
 20
235.580439
 30
0.0
  0
SPLINE
  5
381
100
AcDbEntity
  8
0
 62
7
100
AcDbSpline
 70
8
 71
3
 72
8
 73
4
 74
0
 40
0
 40
0
 40
0
 40
0
 40
1
 40
1
 40
1
 40
1
 10
41.630866
 20
235.580439
 30
0.0
 10
41.842160
 20
235.523822
 30
0.0
 10
42.007200
 20
235.358783
 30
0.0
 10
42.063816
 20
235.147488
 30
0.0
  0
SPLINE
  5
382
100
AcDbEntity
  8
0
 62
7
100
AcDbSpline
 70
8
 71
3
 72
8
 73
4
 74
0
 40
0
 40
0
 40
0
 40
0
 40
1
 40
1
 40
1
 40
1
 10
42.063816
 20
235.147488
 30
0.0
 10
42.120432
 20
234.936194
 30
0.0
 10
42.060023
 20
234.710745
 30
0.0
 10
41.905345
 20
234.556067
 30
0.0
  0
LINE
  5
383
100
AcDbEntity
  8
0
 62
7
100
AcDbLine
 10
41.905345
 20
234.556067
 30
0.0
 11
41.905345
 21
234.556067
 31
0.0
  0
SPLINE
  5
384
100
AcDbEntity
  8
0
 62
7
100
AcDbSpline
 70
8
 71
3
 72
8
 73
4
 74
0
 40
0
 40
0
 40
0
 40
0
 40
1
 40
1
 40
1
 40
1
 10
44.625071
 20
226.765495
 30
0.0
 10
44.406323
 20
226.765495
 30
0.0
 10
44.204192
 20
226.882196
 30
0.0
 10
44.094818
 20
227.071637
 30
0.0
  0
SPLINE
  5
385
100
AcDbEntity
  8
0
 62
7
100
AcDbSpline
 70
8
 71
3
 72
8
 73
4
 74
0
 40
0
 40
0
 40
0
 40
0
 40
1
 40
1
 40
1
 40
1
 10
44.094818
 20
227.071637
 30
0.0
 10
43.985443
 20
227.261079
 30
0.0
 10
43.985443
 20
227.494480
 30
0.0
 10
44.094818
 20
227.683922
 30
0.0
  0
SPLINE
  5
386
100
AcDbEntity
  8
0
 62
7
100
AcDbSpline
 70
8
 71
3
 72
8
 73
4
 74
0
 40
0
 40
0
 40
0
 40
0
 40
1
 40
1
 40
1
 40
1
 10
44.094818
 20
227.683922
 30
0.0
 10
44.204192
 20
227.873363
 30
0.0
 10
44.406323
 20
227.990064
 30
0.0
 10
44.625071
 20
227.990064
 30
0.0
  0
SPLINE
  5
387
100
AcDbEntity
  8
0
 62
7
100
AcDbSpline
 70
8
 71
3
 72
8
 73
4
 74
0
 40
0
 40
0
 40
0
 40
0
 40
1
 40
1
 40
1
 40
1
 10
44.625071
 20
227.990064
 30
0.0
 10
44.843819
 20
227.990064
 30
0.0
 10
45.045951
 20
227.873363
 30
0.0
 10
45.155325
 20
227.683922
 30
0.0
  0
SPLINE
  5
388
100
AcDbEntity
  8
0
 62
7
100
AcDbSpline
 70
8
 71
3
 72
8
 73
4
 74
0
 40
0
 40
0
 40
0
 40
0
 40
1
 40
1
 40
1
 40
1
 10
45.155325
 20
227.683922
 30
0.0
 10
45.264699
 20
227.494480
 30
0.0
 10
45.264699
 20
227.261079
 30
0.0
 10
45.155325
 20
227.071637
 30
0.0
  0
SPLINE
  5
389
100
AcDbEntity
  8
0
 62
7
100
AcDbSpline
 70
8
 71
3
 72
8
 73
4
 74
0
 40
0
 40
0
 40
0
 40
0
 40
1
 40
1
 40
1
 40
1
 10
45.155325
 20
227.071637
 30
0.0
 10
45.045951
 20
226.882196
 30
0.0
 10
44.843819
 20
226.765495
 30
0.0
 10
44.625071
 20
226.765495
 30
0.0
  0
LINE
  5
38a
100
AcDbEntity
  8
0
 62
7
100
AcDbLine
 10
44.625071
 20
226.765495
 30
0.0
 11
44.625071
 21
226.765495
 31
0.0
  0
SPLINE
  5
38b
100
AcDbEntity
  8
0
 62
7
100
AcDbSpline
 70
8
 71
3
 72
8
 73
4
 74
0
 40
0
 40
0
 40
0
 40
0
 40
1
 40
1
 40
1
 40
1
 10
41.039456
 20
219.333577
 30
0.0
 10
40.884778
 20
219.488255
 30
0.0
 10
40.824369
 20
219.713703
 30
0.0
 10
40.880985
 20
219.924998
 30
0.0
  0
SPLINE
  5
38c
100
AcDbEntity
  8
0
 62
7
100
AcDbSpline
 70
8
 71
3
 72
8
 73
4
 74
0
 40
0
 40
0
 40
0
 40
0
 40
1
 40
1
 40
1
 40
1
 10
40.880985
 20
219.924998
 30
0.0
 10
40.937601
 20
220.136292
 30
0.0
 10
41.102641
 20
220.301332
 30
0.0
 10
41.313935
 20
220.357948
 30
0.0
  0
SPLINE
  5
38d
100
AcDbEntity
  8
0
 62
7
100
AcDbSpline
 70
8
 71
3
 72
8
 73
4
 74
0
 40
0
 40
0
 40
0
 40
0
 40
1
 40
1
 40
1
 40
1
 10
41.313935
 20
220.357948
 30
0.0
 10
41.525230
 20
220.414564
 30
0.0
 10
41.750678
 20
220.354155
 30
0.0
 10
41.905357
 20
220.199477
 30
0.0
  0
SPLINE
  5
38e
100
AcDbEntity
  8
0
 62
7
100
AcDbSpline
 70
8
 71
3
 72
8
 73
4
 74
0
 40
0
 40
0
 40
0
 40
0
 40
1
 40
1
 40
1
 40
1
 10
41.905357
 20
220.199477
 30
0.0
 10
42.060035
 20
220.044799
 30
0.0
 10
42.120444
 20
219.819350
 30
0.0
 10
42.063827
 20
219.608056
 30
0.0
  0
SPLINE
  5
38f
100
AcDbEntity
  8
0
 62
7
100
AcDbSpline
 70
8
 71
3
 72
8
 73
4
 74
0
 40
0
 40
0
 40
0
 40
0
 40
1
 40
1
 40
1
 40
1
 10
42.063827
 20
219.608056
 30
0.0
 10
42.007211
 20
219.396762
 30
0.0
 10
41.842172
 20
219.231722
 30
0.0
 10
41.630877
 20
219.175106
 30
0.0
  0
SPLINE
  5
390
100
AcDbEntity
  8
0
 62
7
100
AcDbSpline
 70
8
 71
3
 72
8
 73
4
 74
0
 40
0
 40
0
 40
0
 40
0
 40
1
 40
1
 40
1
 40
1
 10
41.630877
 20
219.175106
 30
0.0
 10
41.419583
 20
219.118490
 30
0.0
 10
41.194134
 20
219.178898
 30
0.0
 10
41.039456
 20
219.333577
 30
0.0
  0
LINE
  5
391
100
AcDbEntity
  8
0
 62
7
100
AcDbLine
 10
41.039456
 20
219.333577
 30
0.0
 11
41.039456
 21
219.333577
 31
0.0
  0
SPLINE
  5
392
100
AcDbEntity
  8
0
 62
1
100
AcDbSpline
 70
8
 71
3
 72
8
 73
4
 74
0
 40
0
 40
0
 40
0
 40
0
 40
1
 40
1
 40
1
 40
1
 10
32.266510
 20
240.686908
 30
0.0
 10
32.084096
 20
240.686908
 30
0.0
 10
31.901411
 20
240.598871
 30
0.0
 10
31.791252
 20
240.483225
 30
0.0
  0
SPLINE
  5
393
100
AcDbEntity
  8
0
 62
1
100
AcDbSpline
 70
8
 71
3
 72
8
 73
4
 74
0
 40
0
 40
0
 40
0
 40
0
 40
1
 40
1
 40
1
 40
1
 10
31.791252
 20
240.483225
 30
0.0
 10
31.681094
 20
240.367574
 30
0.0
 10
31.627876
 20
240.234997
 30
0.0
 10
31.602999
 20
240.106718
 30
0.0
  0
LINE
  5
394
100
AcDbEntity
  8
0
 62
1
100
AcDbLine
 10
31.602999
 20
240.106718
 30
0.0
 11
31.022803
 21
237.122450
 31
0.0
  0
LINE
  5
395
100
AcDbEntity
  8
0
 62
1
100
AcDbLine
 10
31.022803
 20
237.122450
 30
0.0
 11
28.982883
 21
236.279942
 31
0.0
  0
LINE
  5
396
100
AcDbEntity
  8
0
 62
1
100
AcDbLine
 10
28.982883
 20
236.279942
 30
0.0
 11
26.461539
 21
237.980388
 31
0.0
  0
LINE
  5
397
100
AcDbEntity
  8
0
 62
1
100
AcDbLine
 10
26.461539
 20
237.980388
 30
0.0
 11
26.455026
 21
237.971162
 31
0.0
  0
SPLINE
  5
398
100
AcDbEntity
  8
0
 62
1
100
AcDbSpline
 70
8
 71
3
 72
8
 73
4
 74
0
 40
0
 40
0
 40
0
 40
0
 40
1
 40
1
 40
1
 40
1
 10
26.455026
 20
237.971162
 30
0.0
 10
26.194246
 20
238.167393
 30
0.0
 10
25.817782
 20
238.157856
 30
0.0
 10
25.581662
 20
237.921787
 30
0.0
  0
LINE
  5
399
100
AcDbEntity
  8
0
 62
1
100
AcDbLine
 10
25.581662
 20
237.921787
 30
0.0
 11
23.325712
 21
235.659663
 31
0.0
  0
LINE
  5
39a
100
AcDbEntity
  8
0
 62
1
100
AcDbLine
 10
23.325712
 20
235.659663
 30
0.0
 11
23.325712
 21
235.656624
 31
0.0
  0
SPLINE
  5
39b
100
AcDbEntity
  8
0
 62
1
100
AcDbSpline
 70
8
 71
3
 72
8
 73
4
 74
0
 40
0
 40
0
 40
0
 40
0
 40
1
 40
1
 40
1
 40
1
 10
23.325712
 20
235.656624
 30
0.0
 10
23.195951
 20
235.525636
 30
0.0
 10
23.127841
 20
235.330799
 30
0.0
 10
23.134375
 20
235.172105
 30
0.0
  0
SPLINE
  5
39c
100
AcDbEntity
  8
0
 62
1
100
AcDbSpline
 70
8
 71
3
 72
8
 73
4
 74
0
 40
0
 40
0
 40
0
 40
0
 40
1
 40
1
 40
1
 40
1
 10
23.134375
 20
235.172105
 30
0.0
 10
23.140888
 20
235.012656
 30
0.0
 10
23.196352
 20
234.884904
 30
0.0
 10
23.267078
 20
234.780169
 30
0.0
  0
LINE
  5
39d
100
AcDbEntity
  8
0
 62
1
100
AcDbLine
 10
23.267078
 20
234.780169
 30
0.0
 11
24.967525
 21
232.261904
 31
0.0
  0
LINE
  5
39e
100
AcDbEntity
  8
0
 62
1
100
AcDbLine
 10
24.967525
 20
232.261904
 30
0.0
 11
24.125019
 21
230.218898
 31
0.0
  0
LINE
  5
39f
100
AcDbEntity
  8
0
 62
1
100
AcDbLine
 10
24.125019
 20
230.218898
 30
0.0
 11
21.137665
 21
229.641796
 31
0.0
  0
LINE
  5
3a0
100
AcDbEntity
  8
0
 62
1
100
AcDbLine
 10
21.137665
 20
229.641796
 30
0.0
 11
21.140921
 21
229.632570
 31
0.0
  0
SPLINE
  5
3a1
100
AcDbEntity
  8
0
 62
1
100
AcDbSpline
 70
8
 71
3
 72
8
 73
4
 74
0
 40
0
 40
0
 40
0
 40
0
 40
1
 40
1
 40
1
 40
1
 10
21.140921
 20
229.632570
 30
0.0
 10
20.820920
 20
229.588275
 30
0.0
 10
20.554561
 20
229.322364
 30
0.0
 10
20.554561
 20
228.981401
 30
0.0
  0
LINE
  5
3a2
100
AcDbEntity
  8
0
 62
1
100
AcDbLine
 10
20.554561
 20
228.981401
 30
0.0
 11
20.554561
 21
225.784192
 31
0.0
  0
SPLINE
  5
3a3
100
AcDbEntity
  8
0
 62
1
100
AcDbSpline
 70
8
 71
3
 72
8
 73
4
 74
0
 40
0
 40
0
 40
0
 40
0
 40
1
 40
1
 40
1
 40
1
 10
20.554561
 20
225.784192
 30
0.0
 10
20.554626
 20
225.595202
 30
0.0
 10
20.654853
 20
225.405485
 30
0.0
 10
20.773673
 20
225.299672
 30
0.0
  0
SPLINE
  5
3a4
100
AcDbEntity
  8
0
 62
1
100
AcDbSpline
 70
8
 71
3
 72
8
 73
4
 74
0
 40
0
 40
0
 40
0
 40
0
 40
1
 40
1
 40
1
 40
1
 10
20.773673
 20
225.299672
 30
0.0
 10
20.892482
 20
225.193855
 30
0.0
 10
21.017250
 20
225.147190
 30
0.0
 10
21.137839
 20
225.123764
 30
0.0
  0
LINE
  5
3a5
100
AcDbEntity
  8
0
 62
1
100
AcDbLine
 10
21.137839
 20
225.123764
 30
0.0
 11
24.119017
 21
224.546661
 31
0.0
  0
LINE
  5
3a6
100
AcDbEntity
  8
0
 62
1
100
AcDbLine
 10
24.119017
 20
224.546661
 30
0.0
 11
24.967699
 21
222.497484
 31
0.0
  0
LINE
  5
3a7
100
AcDbEntity
  8
0
 62
1
100
AcDbLine
 10
24.967699
 20
222.497484
 30
0.0
 11
23.267251
 21
219.979218
 31
0.0
  0
LINE
  5
3a8
100
AcDbEntity
  8
0
 62
1
100
AcDbLine
 10
23.267251
 20
219.979218
 30
0.0
 11
23.277020
 21
219.973031
 31
0.0
  0
SPLINE
  5
3a9
100
AcDbEntity
  8
0
 62
1
100
AcDbSpline
 70
8
 71
3
 72
8
 73
4
 74
0
 40
0
 40
0
 40
0
 40
0
 40
1
 40
1
 40
1
 40
1
 10
23.277020
 20
219.973031
 30
0.0
 10
23.088452
 20
219.716886
 30
0.0
 10
23.098893
 20
219.338407
 30
0.0
 10
23.326406
 20
219.108921
 30
0.0
  0
LINE
  5
3aa
100
AcDbEntity
  8
0
 62
1
100
AcDbLine
 10
23.326406
 20
219.108921
 30
0.0
 11
23.326406
 21
219.105882
 31
0.0
  0
LINE
  5
3ab
100
AcDbEntity
  8
0
 62
1
100
AcDbLine
 10
23.326406
 20
219.105882
 30
0.0
 11
25.582345
 21
216.843763
 31
0.0
  0
SPLINE
  5
3ac
100
AcDbEntity
  8
0
 62
1
100
AcDbSpline
 70
8
 71
3
 72
8
 73
4
 74
0
 40
0
 40
0
 40
0
 40
0
 40
1
 40
1
 40
1
 40
1
 10
25.582345
 20
216.843763
 30
0.0
 10
25.713354
 20
216.712812
 30
0.0
 10
25.910508
 20
216.645855
 30
0.0
 10
26.069955
 20
216.652425
 30
0.0
  0
SPLINE
  5
3ad
100
AcDbEntity
  8
0
 62
1
100
AcDbSpline
 70
8
 71
3
 72
8
 73
4
 74
0
 40
0
 40
0
 40
0
 40
0
 40
1
 40
1
 40
1
 40
1
 10
26.069955
 20
216.652425
 30
0.0
 10
26.229402
 20
216.658937
 30
0.0
 10
26.357133
 20
216.714413
 30
0.0
 10
26.461886
 20
216.785127
 30
0.0
  0
LINE
  5
3ae
100
AcDbEntity
  8
0
 62
1
100
AcDbLine
 10
26.461886
 20
216.785127
 30
0.0
 11
28.983241
 21
218.488660
 31
0.0
  0
LINE
  5
3af
100
AcDbEntity
  8
0
 62
1
100
AcDbLine
 10
28.983241
 20
218.488660
 30
0.0
 11
30.044870
 21
218.047346
 31
0.0
  0
SPLINE
  5
3b0
100
AcDbEntity
  8
0
 62
1
100
AcDbSpline
 70
8
 71
3
 72
8
 73
4
 74
0
 40
0
 40
0
 40
0
 40
0
 40
1
 40
1
 40
1
 40
1
 10
30.044870
 20
218.047346
 30
0.0
 10
30.159431
 20
217.999599
 30
0.0
 10
30.288292
 20
217.999454
 30
0.0
 10
30.402960
 20
218.046943
 30
0.0
  0
SPLINE
  5
3b1
100
AcDbEntity
  8
0
 62
1
100
AcDbSpline
 70
8
 71
3
 72
8
 73
4
 74
0
 40
0
 40
0
 40
0
 40
0
 40
1
 40
1
 40
1
 40
1
 10
30.402960
 20
218.046943
 30
0.0
 10
30.517628
 20
218.094433
 30
0.0
 10
30.608655
 20
218.185644
 30
0.0
 10
30.655913
 20
218.300407
 30
0.0
  0
LINE
  5
3b2
100
AcDbEntity
  8
0
 62
1
100
AcDbLine
 10
30.655913
 20
218.300407
 30
0.0
 11
32.936545
 21
223.892437
 31
0.0
  0
SPLINE
  5
3b3
100
AcDbEntity
  8
0
 62
1
100
AcDbSpline
 70
8
 71
3
 72
8
 73
4
 74
0
 40
0
 40
0
 40
0
 40
0
 40
1
 40
1
 40
1
 40
1
 10
32.936545
 20
223.892437
 30
0.0
 10
33.033937
 20
224.130192
 30
0.0
 10
32.920826
 20
224.401948
 30
0.0
 10
32.683503
 20
224.500387
 30
0.0
  0
SPLINE
  5
3b4
100
AcDbEntity
  8
0
 62
1
100
AcDbSpline
 70
8
 71
3
 72
8
 73
4
 74
0
 40
0
 40
0
 40
0
 40
0
 40
1
 40
1
 40
1
 40
1
 10
32.683503
 20
224.500387
 30
0.0
 10
31.548468
 20
224.965133
 30
0.0
 10
30.748509
 20
226.072338
 30
0.0
 10
30.748509
 20
227.379728
 30
0.0
  0
SPLINE
  5
3b5
100
AcDbEntity
  8
0
 62
1
100
AcDbSpline
 70
8
 71
3
 72
8
 73
4
 74
0
 40
0
 40
0
 40
0
 40
0
 40
1
 40
1
 40
1
 40
1
 10
30.748509
 20
227.379728
 30
0.0
 10
30.748509
 20
229.105864
 30
0.0
 10
32.136239
 20
230.496698
 30
0.0
 10
33.862389
 20
230.496698
 30
0.0
  0
SPLINE
  5
3b6
100
AcDbEntity
  8
0
 62
1
100
AcDbSpline
 70
8
 71
3
 72
8
 73
4
 74
0
 40
0
 40
0
 40
0
 40
0
 40
1
 40
1
 40
1
 40
1
 10
33.862389
 20
230.496698
 30
0.0
 10
35.588496
 20
230.496698
 30
0.0
 10
36.976280
 20
229.105857
 30
0.0
 10
36.976280
 20
227.379728
 30
0.0
  0
SPLINE
  5
3b7
100
AcDbEntity
  8
0
 62
1
100
AcDbSpline
 70
8
 71
3
 72
8
 73
4
 74
0
 40
0
 40
0
 40
0
 40
0
 40
1
 40
1
 40
1
 40
1
 10
36.976280
 20
227.379728
 30
0.0
 10
36.976280
 20
226.072338
 30
0.0
 10
36.176322
 20
224.965133
 30
0.0
 10
35.041286
 20
224.500387
 30
0.0
  0
SPLINE
  5
3b8
100
AcDbEntity
  8
0
 62
1
100
AcDbSpline
 70
8
 71
3
 72
8
 73
4
 74
0
 40
0
 40
0
 40
0
 40
0
 40
1
 40
1
 40
1
 40
1
 10
35.041286
 20
224.500387
 30
0.0
 10
34.803947
 20
224.401956
 30
0.0
 10
34.690824
 20
224.130188
 30
0.0
 10
34.788223
 20
223.892423
 30
0.0
  0
LINE
  5
3b9
100
AcDbEntity
  8
0
 62
1
100
AcDbLine
 10
34.788223
 20
223.892423
 30
0.0
 11
37.068855
 21
218.300392
 31
0.0
  0
SPLINE
  5
3ba
100
AcDbEntity
  8
0
 62
1
100
AcDbSpline
 70
8
 71
3
 72
8
 73
4
 74
0
 40
0
 40
0
 40
0
 40
0
 40
1
 40
1
 40
1
 40
1
 10
37.068855
 20
218.300392
 30
0.0
 10
37.116113
 20
218.185626
 30
0.0
 10
37.207141
 20
218.094413
 30
0.0
 10
37.321812
 20
218.046923
 30
0.0
  0
SPLINE
  5
3bb
100
AcDbEntity
  8
0
 62
1
100
AcDbSpline
 70
8
 71
3
 72
8
 73
4
 74
0
 40
0
 40
0
 40
0
 40
0
 40
1
 40
1
 40
1
 40
1
 10
37.321812
 20
218.046923
 30
0.0
 10
37.436482
 20
217.999434
 30
0.0
 10
37.565347
 20
217.999580
 30
0.0
 10
37.679909
 20
218.047331
 30
0.0
  0
LINE
  5
3bc
100
AcDbEntity
  8
0
 62
1
100
AcDbLine
 10
37.679909
 20
218.047331
 30
0.0
 11
38.741527
 21
218.488645
 31
0.0
  0
LINE
  5
3bd
100
AcDbEntity
  8
0
 62
1
100
AcDbLine
 10
38.741527
 20
218.488645
 30
0.0
 11
41.262882
 21
216.785112
 31
0.0
  0
LINE
  5
3be
100
AcDbEntity
  8
0
 62
1
100
AcDbLine
 10
41.262882
 20
216.785112
 30
0.0
 11
41.269394
 21
216.794338
 31
0.0
  0
SPLINE
  5
3bf
100
AcDbEntity
  8
0
 62
1
100
AcDbSpline
 70
8
 71
3
 72
8
 73
4
 74
0
 40
0
 40
0
 40
0
 40
0
 40
1
 40
1
 40
1
 40
1
 10
41.269394
 20
216.794338
 30
0.0
 10
41.530164
 20
216.598197
 30
0.0
 10
41.906628
 20
216.607524
 30
0.0
 10
42.142759
 20
216.843713
 30
0.0
  0
LINE
  5
3c0
100
AcDbEntity
  8
0
 62
1
100
AcDbLine
 10
42.142759
 20
216.843713
 30
0.0
 11
44.401791
 21
219.105832
 31
0.0
  0
SPLINE
  5
3c1
100
AcDbEntity
  8
0
 62
1
100
AcDbSpline
 70
8
 71
3
 72
8
 73
4
 74
0
 40
0
 40
0
 40
0
 40
0
 40
1
 40
1
 40
1
 40
1
 10
44.401791
 20
219.105832
 30
0.0
 10
44.529468
 20
219.233495
 30
0.0
 10
44.596829
 20
219.429467
 30
0.0
 10
44.590045
 20
219.590351
 30
0.0
  0
SPLINE
  5
3c2
100
AcDbEntity
  8
0
 62
1
100
AcDbSpline
 70
8
 71
3
 72
8
 73
4
 74
0
 40
0
 40
0
 40
0
 40
0
 40
1
 40
1
 40
1
 40
1
 10
44.590045
 20
219.590351
 30
0.0
 10
44.583533
 20
219.751235
 30
0.0
 10
44.525897
 20
219.877546
 30
0.0
 10
44.457343
 20
219.979201
 30
0.0
  0
LINE
  5
3c3
100
AcDbEntity
  8
0
 62
1
100
AcDbLine
 10
44.457343
 20
219.979201
 30
0.0
 11
42.756895
 21
222.500557
 31
0.0
  0
LINE
  5
3c4
100
AcDbEntity
  8
0
 62
1
100
AcDbLine
 10
42.756895
 20
222.500557
 30
0.0
 11
43.605578
 21
224.546649
 31
0.0
  0
LINE
  5
3c5
100
AcDbEntity
  8
0
 62
1
100
AcDbLine
 10
43.605578
 20
224.546649
 30
0.0
 11
46.589845
 21
225.123751
 31
0.0
  0
LINE
  5
3c6
100
AcDbEntity
  8
0
 62
1
100
AcDbLine
 10
46.589845
 20
225.123751
 30
0.0
 11
46.586588
 21
225.132977
 31
0.0
  0
SPLINE
  5
3c7
100
AcDbEntity
  8
0
 62
1
100
AcDbSpline
 70
8
 71
3
 72
8
 73
4
 74
0
 40
0
 40
0
 40
0
 40
0
 40
1
 40
1
 40
1
 40
1
 10
46.586588
 20
225.132977
 30
0.0
 10
46.906036
 20
225.178966
 30
0.0
 10
47.169866
 20
225.455195
 30
0.0
 10
47.169866
 20
225.784145
 30
0.0
  0
LINE
  5
3c8
100
AcDbEntity
  8
0
 62
1
100
AcDbLine
 10
47.169866
 20
225.784145
 30
0.0
 11
47.169866
 21
228.981354
 31
0.0
  0
SPLINE
  5
3c9
100
AcDbEntity
  8
0
 62
1
100
AcDbSpline
 70
8
 71
3
 72
8
 73
4
 74
0
 40
0
 40
0
 40
0
 40
0
 40
1
 40
1
 40
1
 40
1
 10
47.169866
 20
228.981354
 30
0.0
 10
47.169931
 20
229.163858
 30
0.0
 10
47.078149
 20
229.351098
 30
0.0
 10
46.960013
 20
229.459702
 30
0.0
  0
SPLINE
  5
3ca
100
AcDbEntity
  8
0
 62
1
100
AcDbSpline
 70
8
 71
3
 72
8
 73
4
 74
0
 40
0
 40
0
 40
0
 40
0
 40
1
 40
1
 40
1
 40
1
 10
46.960013
 20
229.459702
 30
0.0
 10
46.841920
 20
229.568305
 30
0.0
 10
46.711497
 20
229.618117
 30
0.0
 10
46.589682
 20
229.641782
 30
0.0
  0
LINE
  5
3cb
100
AcDbEntity
  8
0
 62
1
100
AcDbLine
 10
46.589682
 20
229.641782
 30
0.0
 11
43.599228
 21
230.221971
 31
0.0
  0
LINE
  5
3cc
100
AcDbEntity
  8
0
 62
1
100
AcDbLine
 10
43.599228
 20
230.221971
 30
0.0
 11
42.756721
 21
232.258804
 31
0.0
  0
LINE
  5
3cd
100
AcDbEntity
  8
0
 62
1
100
AcDbLine
 10
42.756721
 20
232.258804
 30
0.0
 11
44.457169
 21
234.780155
 31
0.0
  0
LINE
  5
3ce
100
AcDbEntity
  8
0
 62
1
100
AcDbLine
 10
44.457169
 20
234.780155
 30
0.0
 11
44.447400
 21
234.786342
 31
0.0
  0
SPLINE
  5
3cf
100
AcDbEntity
  8
0
 62
1
100
AcDbSpline
 70
8
 71
3
 72
8
 73
4
 74
0
 40
0
 40
0
 40
0
 40
0
 40
1
 40
1
 40
1
 40
1
 10
44.447400
 20
234.786342
 30
0.0
 10
44.645206
 20
235.047147
 30
0.0
 10
44.637825
 20
235.422990
 30
0.0
 10
44.401053
 20
235.659711
 30
0.0
  0
LINE
  5
3d0
100
AcDbEntity
  8
0
 62
1
100
AcDbLine
 10
44.401053
 20
235.659711
 30
0.0
 11
42.142010
 21
237.921824
 31
0.0
  0
SPLINE
  5
3d1
100
AcDbEntity
  8
0
 62
1
100
AcDbSpline
 70
8
 71
3
 72
8
 73
4
 74
0
 40
0
 40
0
 40
0
 40
0
 40
1
 40
1
 40
1
 40
1
 10
42.142010
 20
237.921824
 30
0.0
 10
42.011044
 20
238.052864
 30
0.0
 10
41.813847
 20
238.119733
 30
0.0
 10
41.654411
 20
238.113163
 30
0.0
  0
SPLINE
  5
3d2
100
AcDbEntity
  8
0
 62
1
100
AcDbSpline
 70
8
 71
3
 72
8
 73
4
 74
0
 40
0
 40
0
 40
0
 40
0
 40
1
 40
1
 40
1
 40
1
 10
41.654411
 20
238.113163
 30
0.0
 10
41.494964
 20
238.106542
 30
0.0
 10
41.367179
 20
238.051067
 30
0.0
 10
41.262469
 20
237.980460
 30
0.0
  0
LINE
  5
3d3
100
AcDbEntity
  8
0
 62
1
100
AcDbLine
 10
41.262469
 20
237.980460
 30
0.0
 11
38.744208
 21
236.280014
 31
0.0
  0
LINE
  5
3d4
100
AcDbEntity
  8
0
 62
1
100
AcDbLine
 10
38.744208
 20
236.280014
 30
0.0
 11
36.701205
 21
237.122522
 31
0.0
  0
LINE
  5
3d5
100
AcDbEntity
  8
0
 62
1
100
AcDbLine
 10
36.701205
 20
237.122522
 30
0.0
 11
36.124103
 21
240.106790
 31
0.0
  0
LINE
  5
3d6
100
AcDbEntity
  8
0
 62
1
100
AcDbLine
 10
36.124103
 20
240.106790
 30
0.0
 11
36.111729
 21
240.103751
 31
0.0
  0
SPLINE
  5
3d7
100
AcDbEntity
  8
0
 62
1
100
AcDbSpline
 70
8
 71
3
 72
8
 73
4
 74
0
 40
0
 40
0
 40
0
 40
0
 40
1
 40
1
 40
1
 40
1
 10
36.111729
 20
240.103751
 30
0.0
 10
36.067010
 20
240.424456
 30
0.0
 10
35.793454
 20
240.687028
 30
0.0
 10
35.463652
 20
240.687028
 30
0.0
  0
LINE
  5
3d8
100
AcDbEntity
  8
0
 62
1
100
AcDbLine
 10
35.463652
 20
240.687028
 30
0.0
 11
32.266521
 21
240.687028
 31
0.0
  0
LINE
  5
3d9
100
AcDbEntity
  8
0
 62
1
100
AcDbLine
 10
32.266521
 20
240.687028
 30
0.0
 11
32.266510
 21
240.686908
 31
0.0
  0
ENDSEC
  0
SECTION
  2
OBJECTS
  0
DICTIONARY
  5
C
330
0
100
AcDbDictionary
  3
ACAD_GROUP
350
D
  3
ACAD_MLINESTYLE
350
17
  0
DICTIONARY
  5
D
330
C
100
AcDbDictionary
  0
DICTIONARY
  5
1A
330
C
100
AcDbDictionary
  0
DICTIONARY
  5
17
330
C
100
AcDbDictionary
  3
STANDARD
350
18
  0
DICTIONARY
  5
19
330
C
100
AcDbDictionary
  0
ENDSEC
  0
EOF
