  0
SECTION
  2
HEADER
  9
$ACADVER
  1
AC1009
  9
$INSBASE
 10
0.0
 20
0.0
 30
0.0
  9
$EXTMIN
 10
0.0
 20
0.0
 30
0.0
  9
$EXTMAX
 10
0.0
 20
0.0
 30
0.0
  0
ENDSEC
  0
SECTION
  2
TABLES
  0
TABLE
  2
VPORT
 70
0
  0
ENDTAB
  0
TABLE
  2
LTYPE
 70
1
  0
LTYPE
  2
CONTINUOUS
 70
0
  3
Solid line
 72
65
 73
0
 40
0.0
  0
ENDTAB
  0
TABLE
  2
LAYER
 70
1
  0
LAYER
  2
0
 70
64
 62
7
  6
continuous
  0
ENDTAB
  0
TABLE
  2
STYLE
 70
1
  0
STYLE
  2
STANDARD
 70
0
 40
0
 41
1.0
 50
0.0
 71
0
 42
1
 3
ARIAL.TTF
 4

  0
ENDTAB
  0
TABLE
  2
VIEW
 70
0
  0
ENDTAB
  0
ENDSEC
  0
SECTION
  2
BLOCKS
  0
ENDSEC
  0
SECTION
  2
ENTITIES
  0
LINE
  8
0
 62
0
 10
93.0
 20
7.50555349947
 30
16.5
 11
93.0
 21
6.0
 31
16.5
  0
LINE
  8
0
 62
0
 10
7.5
 20
81.4544826719
 30
6.5
 11
68.1217782649
 21
46.4544826719
 31
6.5
  0
LINE
  8
0
 62
0
 10
84.6076951546
 20
6.0
 30
16.5
 11
-47.5
 21
82.2724133595
 31
16.5
  0
LINE
  8
0
 62
0
 10
-55.0
 20
-35.0
 30
11.5
 11
-55.0
 21
35.0
 31
11.5
  0
LINE
  8
0
 62
0
 10
-55.0
 20
-35.0
 30
6.5
 11
-55.0
 21
35.0
 31
6.5
  0
LINE
  8
0
 62
0
 10
93.0
 20
13.2
 30
11.5
 11
128.0
 21
13.2
 31
11.5
  0
LINE
  8
0
 62
0
 10
165.0
 20
0.0
 30
-3.5
 11
-82.5
 21
142.894191624
 31
-3.5
  0
LINE
  8
0
 62
0
 10
84.6076951546
 20
-6.0
 30
16.5
 11
93.0
 21
-6.0
 31
16.5
  0
LINE
  8
0
 62
0
 10
-82.5
 20
-142.894191624
 30
6.5
 11
165.0
 21
0.0
 31
6.5
  0
LINE
  8
0
 62
0
 10
7.0
 20
-82.0
 30
6.5
 11
67.6217782649
 21
-47.0
 31
6.5
  0
LINE
  8
0
 62
0
 10
7.5
 20
81.4544826719
 30
1.5
 11
68.1217782649
 21
46.4544826719
 31
1.5
  0
LINE
  8
0
 62
0
 10
58.1217782649
 20
-30.5455173281
 30
1.5
 11
67.6217782649
 21
-47.0
 31
1.5
  0
LINE
  8
0
 62
0
 10
93.0
 20
-1.15470053838
 30
11.5
 11
93.0
 21
-13.3
 31
11.5
  0
LINE
  8
0
 62
0
 10
95.0
 20
0.0
 30
6.5
 11
-47.5
 21
82.2724133595
 31
6.5
  0
LINE
  8
0
 62
0
 10
-47.5
 20
82.2724133595
 30
16.5
 11
-47.5
 21
-82.2724133595
 31
16.5
  0
LINE
  8
0
 62
0
 10
-2.0
 20
65.0
 30
11.5
 11
58.6217782649
 21
30.0
 31
11.5
  0
LINE
  8
0
 62
0
 10
-82.5
 20
-142.894191624
 30
1.5
 11
165.0
 21
0.0
 31
1.5
  0
LINE
  8
0
 62
0
 10
-82.5
 20
-142.894191624
 30
-3.5
 11
165.0
 21
0.0
 31
-3.5
  0
LINE
  8
0
 62
0
 10
-82.5
 20
142.894191624
 30
-3.5
 11
-82.5
 21
-142.894191624
 31
-3.5
  0
LINE
  8
0
 62
0
 10
7.5
 20
81.4544826719
 30
6.5
 11
-2.0
 21
65.0
 31
6.5
  0
LINE
  8
0
 62
0
 10
68.1217782649
 20
46.4544826719
 30
1.5
 11
58.6217782649
 21
30.0
 31
1.5
  0
LINE
  8
0
 62
0
 10
-47.5
 20
-82.2724133595
 30
-3.5
 11
95.0
 21
0.0
 31
-3.5
  0
LINE
  8
0
 62
0
 10
-55.0
 20
-35.0
 30
1.5
 11
-55.0
 21
35.0
 31
1.5
  0
LINE
  8
0
 62
0
 10
-74.0
 20
-35.0
 30
6.5
 11
-55.0
 21
-35.0
 31
6.5
  0
LINE
  8
0
 62
0
 10
-74.0
 20
-35.0
 30
1.5
 11
-74.0
 21
35.0
 31
1.5
  0
LINE
  8
0
 62
0
 10
-74.0
 20
35.0
 30
6.5
 11
-55.0
 21
35.0
 31
6.5
  0
LINE
  8
0
 62
0
 10
-82.5
 20
-142.894191624
 30
11.5
 11
165.0
 21
0.0
 31
11.5
  0
LINE
  8
0
 62
0
 10
-2.5
 20
-65.5455173281
 30
1.5
 11
7.0
 21
-82.0
 31
1.5
  0
LINE
  8
0
 62
0
 10
93.0
 20
7.50555349947
 30
16.5
 11
-53.0
 21
91.7986928012
 31
16.5
  0
LINE
  8
0
 62
0
 10
68.1217782649
 20
46.4544826719
 30
11.5
 11
58.6217782649
 21
30.0
 31
11.5
  0
LINE
  8
0
 62
0
 10
-82.5
 20
142.894191624
 30
1.5
 11
-82.5
 21
-142.894191624
 31
1.5
  0
LINE
  8
0
 62
0
 10
93.0
 20
13.2
 30
11.5
 11
93.0
 21
1.15470053838
 31
11.5
  0
LINE
  8
0
 62
0
 10
68.1217782649
 20
46.4544826719
 30
6.5
 11
58.6217782649
 21
30.0
 31
6.5
  0
LINE
  8
0
 62
0
 10
7.0
 20
-82.0
 30
1.5
 11
67.6217782649
 21
-47.0
 31
1.5
  0
LINE
  8
0
 62
0
 10
-47.5
 20
82.2724133595
 30
11.5
 11
-47.5
 21
-82.2724133595
 31
11.5
  0
LINE
  8
0
 62
0
 10
-47.5
 20
82.2724133595
 30
6.5
 11
-47.5
 21
-82.2724133595
 31
6.5
  0
LINE
  8
0
 62
0
 10
-2.5
 20
-65.5455173281
 30
6.5
 11
58.1217782649
 21
-30.5455173281
 31
6.5
  0
LINE
  8
0
 62
0
 10
-74.0
 20
-35.0
 30
11.5
 11
-74.0
 21
35.0
 31
11.5
  0
LINE
  8
0
 62
0
 10
-2.5
 20
-65.5455173281
 30
11.5
 11
7.0
 21
-82.0
 31
11.5
  0
LINE
  8
0
 62
0
 10
93.0
 20
-6.0
 30
16.5
 11
93.0
 21
-7.50555349947
 31
16.5
  0
LINE
  8
0
 62
0
 10
165.0
 20
0.0
 30
6.5
 11
-82.5
 21
142.894191624
 31
6.5
  0
LINE
  8
0
 62
0
 10
-47.5
 20
-82.2724133595
 30
11.5
 11
93.0
 21
-1.15470053838
 31
11.5
  0
LINE
  8
0
 62
0
 10
-53.0
 20
-91.7986928012
 30
16.5
 11
93.0
 21
-7.50555349947
 31
16.5
  0
LINE
  8
0
 62
0
 10
-47.5
 20
-82.2724133595
 30
16.5
 11
84.6076951546
 21
-6.0
 31
16.5
  0
LINE
  8
0
 62
0
 10
93.0
 20
-13.3
 30
11.5
 11
128.0
 21
-13.3
 31
11.5
  0
LINE
  8
0
 62
0
 10
7.5
 20
81.4544826719
 30
11.5
 11
68.1217782649
 21
46.4544826719
 31
11.5
  0
LINE
  8
0
 62
0
 10
-82.5
 20
-142.894191624
 30
16.5
 11
165.0
 21
0.0
 31
16.5
  0
LINE
  8
0
 62
0
 10
-74.0
 20
35.0
 30
1.5
 11
-55.0
 21
35.0
 31
1.5
  0
LINE
  8
0
 62
0
 10
-74.0
 20
-35.0
 30
6.5
 11
-74.0
 21
35.0
 31
6.5
  0
LINE
  8
0
 62
0
 10
-82.5
 20
142.894191624
 30
16.5
 11
-82.5
 21
-142.894191624
 31
16.5
  0
ARC
  8
0
 62
0
 10
122.0
 20
2.56e-15
 30
16.5
 40
15.0
 50
-60.0
 51
60.0
  0
LINE
  8
0
 62
0
 10
58.1217782649
 20
-30.5455173281
 30
6.5
 11
67.6217782649
 21
-47.0
 31
6.5
  0
LINE
  8
0
 62
0
 10
-82.5
 20
142.894191624
 30
6.5
 11
-82.5
 21
-142.894191624
 31
6.5
  0
LINE
  8
0
 62
0
 10
-53.5
 20
-118.645480318
 30
16.5
 11
129.5
 21
-12.9903810568
 31
16.5
  0
LINE
  8
0
 62
0
 10
-47.5
 20
-82.2724133595
 30
6.5
 11
95.0
 21
0.0
 31
6.5
  0
LINE
  8
0
 62
0
 10
-76.0
 20
105.655099262
 30
16.5
 11
-76.0
 21
-105.655099262
 31
16.5
  0
LINE
  8
0
 62
0
 10
95.0
 20
0.0
 30
1.5
 11
-47.5
 21
82.2724133595
 31
1.5
  0
LINE
  8
0
 62
0
 10
93.0
 20
1.15470053838
 30
11.5
 11
-47.5
 21
82.2724133595
 31
11.5
  0
LINE
  8
0
 62
0
 10
165.0
 20
0.0
 30
11.5
 11
-82.5
 21
142.894191624
 31
11.5
  0
LINE
  8
0
 62
0
 10
-2.0
 20
65.0
 30
6.5
 11
58.6217782649
 21
30.0
 31
6.5
  0
LINE
  8
0
 62
0
 10
-82.5
 20
142.894191624
 30
11.5
 11
-82.5
 21
-142.894191624
 31
11.5
  0
LINE
  8
0
 62
0
 10
165.0
 20
0.0
 30
16.5
 11
-82.5
 21
142.894191624
 31
16.5
  0
LINE
  8
0
 62
0
 10
129.5
 20
12.9903810568
 30
16.5
 11
-53.5
 21
118.645480318
 31
16.5
  0
LINE
  8
0
 62
0
 10
-2.5
 20
-65.5455173281
 30
11.5
 11
58.1217782649
 21
-30.5455173281
 31
11.5
  0
LINE
  8
0
 62
0
 10
-53.0
 20
91.7986928012
 30
16.5
 11
-53.0
 21
-91.7986928012
 31
16.5
  0
LINE
  8
0
 62
0
 10
128.0
 20
13.2
 30
11.5
 11
128.0
 21
-13.3
 31
11.5
  0
LINE
  8
0
 62
0
 10
-74.0
 20
-35.0
 30
11.5
 11
-55.0
 21
-35.0
 31
11.5
  0
LINE
  8
0
 62
0
 10
84.6076951546
 20
6.0
 30
16.5
 11
93.0
 21
6.0
 31
16.5
  0
LINE
  8
0
 62
0
 10
-2.5
 20
-65.5455173281
 30
1.5
 11
58.1217782649
 21
-30.5455173281
 31
1.5
  0
LINE
  8
0
 62
0
 10
7.5
 20
81.4544826719
 30
11.5
 11
-2.0
 21
65.0
 31
11.5
  0
ARC
  8
0
 62
0
 10
-61.0
 20
-105.655099262
 30
16.5
 40
15.0
 50
-180.0
 51
-60.0
  0
LINE
  8
0
 62
0
 10
-47.5
 20
-82.2724133595
 30
1.5
 11
95.0
 21
0.0
 31
1.5
  0
LINE
  8
0
 62
0
 10
7.5
 20
81.4544826719
 30
1.5
 11
-2.0
 21
65.0
 31
1.5
  0
LINE
  8
0
 62
0
 10
-47.5
 20
82.2724133595
 30
-3.5
 11
-47.5
 21
-82.2724133595
 31
-3.5
  0
LINE
  8
0
 62
0
 10
95.0
 20
0.0
 30
-3.5
 11
-47.5
 21
82.2724133595
 31
-3.5
  0
LINE
  8
0
 62
0
 10
58.1217782649
 20
-30.5455173281
 30
11.5
 11
67.6217782649
 21
-47.0
 31
11.5
  0
LINE
  8
0
 62
0
 10
7.0
 20
-82.0
 30
11.5
 11
67.6217782649
 21
-47.0
 31
11.5
  0
ARC
  8
0
 62
0
 10
-61.0
 20
105.655099262
 30
16.5
 40
15.0
 50
60.0
 51
-180.0
  0
LINE
  8
0
 62
0
 10
165.0
 20
0.0
 30
1.5
 11
-82.5
 21
142.894191624
 31
1.5
  0
LINE
  8
0
 62
0
 10
-2.0
 20
65.0
 30
1.5
 11
58.6217782649
 21
30.0
 31
1.5
  0
LINE
  8
0
 62
0
 10
-74.0
 20
-35.0
 30
1.5
 11
-55.0
 21
-35.0
 31
1.5
  0
LINE
  8
0
 62
0
 10
-74.0
 20
35.0
 30
11.5
 11
-55.0
 21
35.0
 31
11.5
  0
LINE
  8
0
 62
0
 10
-2.5
 20
-65.5455173281
 30
6.5
 11
7.0
 21
-82.0
 31
6.5
  0
LINE
  8
0
 62
0
 10
-47.5
 20
82.2724133595
 30
1.5
 11
-47.5
 21
-82.2724133595
 31
1.5
  0
ENDSEC
  0
EOF
