  0
SECTION
  2
HEADER
  9
$ACADVER
  1
AC1009
  9
$INSBASE
 10
0.0
 20
0.0
 30
0.0
  9
$EXTMIN
 10
0.0
 20
0.0
 30
0.0
  9
$EXTMAX
 10
0.0
 20
0.0
 30
0.0
  0
ENDSEC
  0
SECTION
  2
TABLES
  0
TABLE
  2
VPORT
 70
0
  0
ENDTAB
  0
TABLE
  2
LTYPE
 70
1
  0
LTYPE
  2
CONTINUOUS
 70
0
  3
Solid line
 72
65
 73
0
 40
0.0
  0
ENDTAB
  0
TABLE
  2
LAYER
 70
1
  0
LAYER
  2
0
 70
64
 62
7
  6
continuous
  0
ENDTAB
  0
TABLE
  2
STYLE
 70
1
  0
STYLE
  2
STANDARD
 70
0
 40
0
 41
1.0
 50
0.0
 71
0
 42
1
 3
ARIAL.TTF
 4

  0
ENDTAB
  0
TABLE
  2
VIEW
 70
0
  0
ENDTAB
  0
ENDSEC
  0
SECTION
  2
BLOCKS
  0
BLOCK
  8
Body_Slices
  2
MYLAYER001
 70
0
 10
0.0
 20
0.0
 30
0.0
  3
MYLAYER001
  0
POLYLINE
  8
Body_Slices
 62
0
 70
1
 66
1
 10
0.0
 20
0.0
 30
0.0
  0
VERTEX
  8
Body_Slices
 10
170.0
 20
-137.394191624
 30
0.0
  0
VERTEX
  8
Body_Slices
 10
160.473720558
 20
-131.894191624
 30
0.0
  0
VERTEX
  8
Body_Slices
 10
160.473720558
 20
131.894191624
 30
0.0
  0
VERTEX
  8
Body_Slices
 10
170.0
 20
137.394191624
 30
0.0
  0
VERTEX
  8
Body_Slices
 10
398.447441117
 20
5.5
 30
0.0
  0
VERTEX
  8
Body_Slices
 10
398.447441117
 20
-5.5
 30
0.0
  0
SEQEND
  8
Body_Slices
  0
CIRCLE
  8
Body_Slices
 62
0
 10
380.653212483
 20
10.0
 30
0.0
 40
1.0
  0
CIRCLE
  8
Body_Slices
 62
0
 10
343.473720558
 20
-3.553e-14
 30
0.0
 40
1.0
  0
POLYLINE
  8
Body_Slices
 62
0
 70
1
 66
1
 10
0.0
 20
0.0
 30
0.0
  0
VERTEX
  8
Body_Slices
 10
377.973720558
 20
1.5
 30
0.0
  0
VERTEX
  8
Body_Slices
 10
365.973720558
 20
1.5
 30
0.0
 42
1.0
  0
VERTEX
  8
Body_Slices
 10
365.973720558
 20
-1.5
 30
0.0
  0
VERTEX
  8
Body_Slices
 10
377.973720558
 20
-1.5
 30
0.0
 42
1.0
  0
SEQEND
  8
Body_Slices
  0
CIRCLE
  8
Body_Slices
 62
0
 10
192.973720558
 20
68.6025403784
 30
0.0
 40
1.0
  0
CIRCLE
  8
Body_Slices
 62
0
 10
182.794228634
 20
124.233937587
 30
0.0
 40
1.0
  0
CIRCLE
  8
Body_Slices
 62
0
 10
327.38526329
 20
-9.0
 30
0.0
 40
1.0
  0
CIRCLE
  8
Body_Slices
 62
0
 10
320.691867558
 20
-46.862854
 30
0.0
 40
1.0
  0
CIRCLE
  8
Body_Slices
 62
0
 10
282.598720558
 20
68.6325132499
 30
0.0
 40
1.0
  0
CIRCLE
  8
Body_Slices
 62
0
 10
168.698803058
 20
-128.647930838
 30
0.0
 40
2.0
  0
CIRCLE
  8
Body_Slices
 62
0
 10
192.723720558
 20
87.0355530803
 30
0.0
 40
1.0
  0
CIRCLE
  8
Body_Slices
 62
0
 10
165.473720558
 20
-114.233937587
 30
0.0
 40
1.0
  0
CIRCLE
  8
Body_Slices
 62
0
 10
163.723720558
 20
0.0
 30
0.0
 40
1.0
  0
CIRCLE
  8
Body_Slices
 62
0
 10
391.523555558
 20
0.0
 30
0.0
 40
2.0
  0
CIRCLE
  8
Body_Slices
 62
0
 10
380.653212483
 20
-10.0
 30
0.0
 40
1.0
  0
CIRCLE
  8
Body_Slices
 62
0
 10
327.38526329
 20
9.0
 30
0.0
 40
1.0
  0
POLYLINE
  8
Body_Slices
 62
0
 70
1
 66
1
 10
0.0
 20
0.0
 30
0.0
  0
VERTEX
  8
Body_Slices
 10
195.473720558
 20
-82.2724133595
 30
0.0
  0
VERTEX
  8
Body_Slices
 10
337.973720558
 20
0.0
 30
0.0
  0
VERTEX
  8
Body_Slices
 10
195.473720558
 20
82.2724133595
 30
0.0
  0
SEQEND
  8
Body_Slices
  0
CIRCLE
  8
Body_Slices
 62
0
 10
268.098720558
 20
-43.5177765402
 30
0.0
 40
1.0
  0
CIRCLE
  8
Body_Slices
 62
0
 10
282.598720558
 20
-68.6325132499
 30
0.0
 40
1.0
  0
CIRCLE
  8
Body_Slices
 62
0
 10
208.562177826
 20
77.6025403784
 30
0.0
 40
1.0
  0
CIRCLE
  8
Body_Slices
 62
0
 10
268.098720558
 20
43.5177765402
 30
0.0
 40
1.0
  0
CIRCLE
  8
Body_Slices
 62
0
 10
208.562177826
 20
-77.6025403784
 30
0.0
 40
1.0
  0
CIRCLE
  8
Body_Slices
 62
0
 10
344.964046558
 20
-32.5289
 30
0.0
 40
1.0
  0
CIRCLE
  8
Body_Slices
 62
0
 10
182.794228634
 20
-124.233937587
 30
0.0
 40
1.0
  0
CIRCLE
  8
Body_Slices
 62
0
 10
192.973720558
 20
-68.6025403784
 30
0.0
 40
1.0
  0
CIRCLE
  8
Body_Slices
 62
0
 10
192.723720558
 20
-87.0355530803
 30
0.0
 40
1.0
  0
CIRCLE
  8
Body_Slices
 62
0
 10
192.723720558
 20
0.0
 30
0.0
 40
1.0
  0
CIRCLE
  8
Body_Slices
 62
0
 10
165.473720558
 20
114.233937587
 30
0.0
 40
1.0
  0
CIRCLE
  8
Body_Slices
 62
0
 10
168.698803058
 20
128.647930838
 30
0.0
 40
2.0
  0
ENDBLK
  0
ENDSEC
  0
SECTION
  2
ENTITIES
  0
INSERT
  2
MYLAYER001
  8
Body_Slices
 62
0
 10
0.0
 20
0.0
 30
0.0
  0
ENDSEC
  0
EOF
