  0
SECTION
  2
HEADER
  9
$ACADVER
  1
AC1009
  9
$INSBASE
 10
0.0
 20
0.0
 30
0.0
  9
$EXTMIN
 10
0.0
 20
0.0
 30
0.0
  9
$EXTMAX
 10
0.0
 20
0.0
 30
0.0
  0
ENDSEC
  0
SECTION
  2
TABLES
  0
TABLE
  2
VPORT
 70
0
  0
ENDTAB
  0
TABLE
  2
LTYPE
 70
1
  0
LTYPE
  2
CONTINUOUS
 70
0
  3
Solid line
 72
65
 73
0
 40
0.0
  0
ENDTAB
  0
TABLE
  2
LAYER
 70
1
  0
LAYER
  2
0
 70
64
 62
7
  6
continuous
  0
ENDTAB
  0
TABLE
  2
STYLE
 70
1
  0
STYLE
  2
STANDARD
 70
0
 40
0
 41
1.0
 50
0.0
 71
0
 42
1
 3
ARIAL.TTF
 4

  0
ENDTAB
  0
TABLE
  2
VIEW
 70
0
  0
ENDTAB
  0
ENDSEC
  0
SECTION
  2
BLOCKS
  0
BLOCK
  8
Body_Slices
  2
MYLAYER
 70
0
 10
0.0
 20
0.0
 30
0.0
  3
MYLAYER
  0
POLYLINE
  8
Body_Slices
 62
0
 70
1
 66
1
 10
0.0
 20
0.0
 30
0.0
  0
VERTEX
  8
Body_Slices
 10
-72.9737205584
 20
-137.394191624
 30
0.0
  0
VERTEX
  8
Body_Slices
 10
-82.5
 20
-131.894191624
 30
0.0
  0
VERTEX
  8
Body_Slices
 10
-82.5
 20
131.894191624
 30
0.0
  0
VERTEX
  8
Body_Slices
 10
-72.9737205584
 20
137.394191624
 30
0.0
  0
VERTEX
  8
Body_Slices
 10
155.473720558
 20
5.5
 30
0.0
  0
VERTEX
  8
Body_Slices
 10
155.473720558
 20
-5.5
 30
0.0
  0
SEQEND
  8
Body_Slices
  0
POLYLINE
  8
Body_Slices
 62
0
 70
1
 66
1
 10
0.0
 20
0.0
 30
0.0
  0
VERTEX
  8
Body_Slices
 10
-70.5
 20
122.109581934
 30
0.0
  0
VERTEX
  8
Body_Slices
 10
-70.5
 20
-122.109581934
 30
0.0
  0
VERTEX
  8
Body_Slices
 10
141.0
 20
0.0
 30
0.0
  0
SEQEND
  8
Body_Slices
  0
CIRCLE
  8
Body_Slices
 62
0
 10
137.679491924
 20
10.0
 30
0.0
 40
1.0
  0
CIRCLE
  8
Body_Slices
 62
0
 10
137.679491924
 20
-10.0
 30
0.0
 40
1.0
  0
CIRCLE
  8
Body_Slices
 62
0
 10
-79.25
 20
0.0
 30
0.0
 40
1.0
  0
CIRCLE
  8
Body_Slices
 62
0
 10
-77.5
 20
114.233937587
 30
0.0
 40
1.0
  0
CIRCLE
  8
Body_Slices
 62
0
 10
-74.2749175
 20
128.647930838
 30
0.0
 40
2.0
  0
CIRCLE
  8
Body_Slices
 62
0
 10
-60.1794919243
 20
-124.233937587
 30
0.0
 40
1.0
  0
CIRCLE
  8
Body_Slices
 62
0
 10
-77.5
 20
-114.233937587
 30
0.0
 40
1.0
  0
CIRCLE
  8
Body_Slices
 62
0
 10
-60.1794919243
 20
124.233937587
 30
0.0
 40
1.0
  0
CIRCLE
  8
Body_Slices
 62
0
 10
101.990326
 20
-32.5289
 30
0.0
 40
1.0
  0
CIRCLE
  8
Body_Slices
 62
0
 10
39.625
 20
68.6325132499
 30
0.0
 40
1.0
  0
CIRCLE
  8
Body_Slices
 62
0
 10
39.625
 20
-68.6325132499
 30
0.0
 40
1.0
  0
CIRCLE
  8
Body_Slices
 62
0
 10
77.718147
 20
-46.862854
 30
0.0
 40
1.0
  0
CIRCLE
  8
Body_Slices
 62
0
 10
-74.2749175
 20
-128.647930838
 30
0.0
 40
2.0
  0
CIRCLE
  8
Body_Slices
 62
0
 10
148.549835
 20
0.0
 30
0.0
 40
2.0
  0
POLYLINE
  8
Body_Slices
 62
0
 70
1
 66
1
 10
0.0
 20
0.0
 30
0.0
  0
VERTEX
  8
Body_Slices
 10
-59.5
 20
-103.05702305
 30
0.0
  0
VERTEX
  8
Body_Slices
 10
119.0
 20
0.0
 30
0.0
  0
VERTEX
  8
Body_Slices
 10
-59.5
 20
103.05702305
 30
0.0
  0
SEQEND
  8
Body_Slices
  0
CIRCLE
  8
Body_Slices
 62
0
 10
-50.25
 20
0.0
 30
0.0
 40
1.0
  0
CIRCLE
  8
Body_Slices
 62
0
 10
100.5
 20
-3.5527136788e-14
 30
0.0
 40
1.0
  0
CIRCLE
  8
Body_Slices
 62
0
 10
-50.0
 20
68.6025403784
 30
0.0
 40
1.0
  0
CIRCLE
  8
Body_Slices
 62
0
 10
-34.4115427319
 20
77.6025403784
 30
0.0
 40
1.0
  0
CIRCLE
  8
Body_Slices
 62
0
 10
-50.25
 20
87.0355530803
 30
0.0
 40
1.0
  0
CIRCLE
  8
Body_Slices
 62
0
 10
84.4115427319
 20
-9.0
 30
0.0
 40
1.0
  0
CIRCLE
  8
Body_Slices
 62
0
 10
-50.25
 20
-87.0355530803
 30
0.0
 40
1.0
  0
CIRCLE
  8
Body_Slices
 62
0
 10
-50.0
 20
-68.6025403784
 30
0.0
 40
1.0
  0
POLYLINE
  8
Body_Slices
 62
0
 70
1
 66
1
 10
0.0
 20
0.0
 30
0.0
  0
VERTEX
  8
Body_Slices
 10
-47.5
 20
-82.2724133595
 30
0.0
  0
VERTEX
  8
Body_Slices
 10
95.0
 20
0.0
 30
0.0
  0
VERTEX
  8
Body_Slices
 10
-47.5
 20
82.2724133595
 30
0.0
  0
SEQEND
  8
Body_Slices
  0
CIRCLE
  8
Body_Slices
 62
0
 10
25.125
 20
-43.5177765402
 30
0.0
 40
1.0
  0
CIRCLE
  8
Body_Slices
 62
0
 10
84.4115427319
 20
9.0
 30
0.0
 40
1.0
  0
CIRCLE
  8
Body_Slices
 62
0
 10
25.125
 20
43.5177765402
 30
0.0
 40
1.0
  0
CIRCLE
  8
Body_Slices
 62
0
 10
-34.4115427319
 20
-77.6025403784
 30
0.0
 40
1.0
  0
ENDBLK
  0
BLOCK
  8
Body_Slices
  2
MYLAYER004
 70
0
 10
0.0
 20
0.0
 30
0.0
  3
MYLAYER004
  0
POLYLINE
  8
Body_Slices
 62
0
 70
1
 66
1
 10
0.0
 20
0.0
 30
0.0
  0
VERTEX
  8
Body_Slices
 10
150.473720558
 20
564.778196637
 30
0.0
  0
VERTEX
  8
Body_Slices
 10
150.473720558
 20
563.209740785
 30
0.0
  0
VERTEX
  8
Body_Slices
 10
120.473720558
 20
563.209740785
 30
0.0
  0
VERTEX
  8
Body_Slices
 10
120.473720558
 20
555.943792211
 30
0.0
  0
VERTEX
  8
Body_Slices
 10
150.473720558
 20
555.943792211
 30
0.0
  0
VERTEX
  8
Body_Slices
 10
150.473720558
 20
554.375336359
 30
1.7763568394e-15
  0
VERTEX
  8
Body_Slices
 10
155.473720558
 20
554.375336359
 30
1.7763568394e-15
  0
VERTEX
  8
Body_Slices
 10
155.473720558
 20
554.076766498
 30
0.0
  0
VERTEX
  8
Body_Slices
 10
98.4895258628
 20
521.176926351
 30
0.0
  0
VERTEX
  8
Body_Slices
 10
95.9895258628
 20
525.50705337
 30
0.0
  0
VERTEX
  8
Body_Slices
 10
94.9682122917
 20
524.917397704
 30
0.0
  0
VERTEX
  8
Body_Slices
 10
87.4682122917
 20
537.907778761
 30
0.0
  0
VERTEX
  8
Body_Slices
 10
75.3438566388
 20
530.907778761
 30
0.0
  0
VERTEX
  8
Body_Slices
 10
82.8438566388
 20
517.917397704
 30
0.0
  0
VERTEX
  8
Body_Slices
 10
82.1331194022
 20
517.50705337
 30
0.0
  0
VERTEX
  8
Body_Slices
 10
84.6331194022
 20
513.176926351
 30
0.0
  0
VERTEX
  8
Body_Slices
 10
-72.9737205584
 20
422.182574873
 30
0.0
  0
VERTEX
  8
Body_Slices
 10
-82.5
 20
427.682574873
 30
0.0
  0
VERTEX
  8
Body_Slices
 10
-82.5
 20
691.470958122
 30
0.0
  0
VERTEX
  8
Body_Slices
 10
-72.9737205584
 20
696.970958122
 30
0.0
  0
VERTEX
  8
Body_Slices
 10
155.473720558
 20
565.076766498
 30
0.0
  0
VERTEX
  8
Body_Slices
 10
155.473720558
 20
564.778196637
 30
0.0
  0
SEQEND
  8
Body_Slices
  0
CIRCLE
  8
Body_Slices
 62
0
 10
-79.25
 20
559.576766498
 30
0.0
 40
1.0
  0
CIRCLE
  8
Body_Slices
 62
0
 10
-77.5
 20
445.342828911
 30
0.0
 40
1.0
  0
CIRCLE
  8
Body_Slices
 62
0
 10
-50.0
 20
490.974226119
 30
0.0
 40
1.0
  0
CIRCLE
  8
Body_Slices
 62
0
 10
137.679491924
 20
569.576766498
 30
0.0
 40
1.0
  0
CIRCLE
  8
Body_Slices
 62
0
 10
-74.2749175
 20
430.92883566
 30
0.0
 40
2.0
  0
CIRCLE
  8
Body_Slices
 62
0
 10
-60.1794919243
 20
435.342828911
 30
0.0
 40
1.0
  0
CIRCLE
  8
Body_Slices
 62
0
 10
-34.4115427319
 20
481.974226119
 30
0.0
 40
1.0
  0
CIRCLE
  8
Body_Slices
 62
0
 10
-50.0
 20
628.179306876
 30
0.0
 40
1.0
  0
CIRCLE
  8
Body_Slices
 62
0
 10
-50.25
 20
472.541213417
 30
0.0
 40
1.0
  0
CIRCLE
  8
Body_Slices
 62
0
 10
137.679491924
 20
549.576766498
 30
0.0
 40
1.0
  0
POLYLINE
  8
Body_Slices
 62
0
 70
1
 66
1
 10
0.0
 20
0.0
 30
0.0
  0
VERTEX
  8
Body_Slices
 10
-55.0
 20
594.576766498
 30
0.0
  0
VERTEX
  8
Body_Slices
 10
-74.0
 20
594.576766498
 30
0.0
  0
VERTEX
  8
Body_Slices
 10
-74.0
 20
524.576766498
 30
0.0
  0
VERTEX
  8
Body_Slices
 10
-55.0
 20
524.576766498
 30
0.0
  0
SEQEND
  8
Body_Slices
  0
CIRCLE
  8
Body_Slices
 62
0
 10
-50.25
 20
559.576766498
 30
0.0
 40
1.0
  0
CIRCLE
  8
Body_Slices
 62
0
 10
-34.4115427319
 20
637.179306876
 30
0.0
 40
1.0
  0
CIRCLE
  8
Body_Slices
 62
0
 10
84.4115427319
 20
550.576766498
 30
0.0
 40
1.0
  0
POLYLINE
  8
Body_Slices
 62
0
 70
1
 66
1
 10
0.0
 20
0.0
 30
0.0
  0
VERTEX
  8
Body_Slices
 10
-47.5
 20
477.304353138
 30
0.0
  0
VERTEX
  8
Body_Slices
 10
95.0
 20
559.576766498
 30
0.0
  0
VERTEX
  8
Body_Slices
 10
-47.5
 20
641.849179857
 30
0.0
  0
SEQEND
  8
Body_Slices
  0
CIRCLE
  8
Body_Slices
 62
0
 10
77.718147
 20
512.713912498
 30
0.0
 40
1.0
  0
POLYLINE
  8
Body_Slices
 62
0
 70
1
 66
1
 10
0.0
 20
0.0
 30
0.0
  0
VERTEX
  8
Body_Slices
 10
67.6217782649
 20
512.576766498
 30
8.881784197e-16
  0
VERTEX
  8
Body_Slices
 10
58.1217782649
 20
529.03124917
 30
8.881784197e-16
  0
VERTEX
  8
Body_Slices
 10
-2.5
 20
494.03124917
 30
0.0
  0
VERTEX
  8
Body_Slices
 10
7.0
 20
477.576766498
 30
0.0
  0
SEQEND
  8
Body_Slices
  0
CIRCLE
  8
Body_Slices
 62
0
 10
39.625
 20
490.944253248
 30
0.0
 40
1.0
  0
CIRCLE
  8
Body_Slices
 62
0
 10
25.125
 20
516.058989958
 30
0.0
 40
1.0
  0
POLYLINE
  8
Body_Slices
 62
0
 70
1
 66
1
 10
0.0
 20
0.0
 30
0.0
  0
VERTEX
  8
Body_Slices
 10
58.6217782649
 20
589.576766498
 30
8.881784197e-16
  0
VERTEX
  8
Body_Slices
 10
68.1217782649
 20
606.03124917
 30
8.881784197e-16
  0
VERTEX
  8
Body_Slices
 10
7.5
 20
641.03124917
 30
0.0
  0
VERTEX
  8
Body_Slices
 10
-2.0
 20
624.576766498
 30
0.0
  0
SEQEND
  8
Body_Slices
  0
CIRCLE
  8
Body_Slices
 62
0
 10
25.125
 20
603.094543038
 30
0.0
 40
1.0
  0
CIRCLE
  8
Body_Slices
 62
0
 10
39.625
 20
628.209279748
 30
0.0
 40
1.0
  0
CIRCLE
  8
Body_Slices
 62
0
 10
84.4115427319
 20
568.576766498
 30
0.0
 40
1.0
  0
CIRCLE
  8
Body_Slices
 62
0
 10
100.5
 20
559.576766498
 30
0.0
 40
1.0
  0
CIRCLE
  8
Body_Slices
 62
0
 10
101.990326
 20
527.047866498
 30
0.0
 40
1.0
  0
CIRCLE
  8
Body_Slices
 62
0
 10
-60.1794919243
 20
683.810704084
 30
0.0
 40
1.0
  0
CIRCLE
  8
Body_Slices
 62
0
 10
-50.25
 20
646.612319578
 30
0.0
 40
1.0
  0
CIRCLE
  8
Body_Slices
 62
0
 10
-77.5
 20
673.810704084
 30
0.0
 40
1.0
  0
CIRCLE
  8
Body_Slices
 62
0
 10
-74.2749175
 20
688.224697336
 30
0.0
 40
2.0
  0
ENDBLK
  0
BLOCK
  8
Body_Slices
  2
MYLAYER003
 70
0
 10
0.0
 20
0.0
 30
0.0
  3
MYLAYER003
  0
POLYLINE
  8
Body_Slices
 62
0
 70
1
 66
1
 10
0.0
 20
0.0
 30
0.0
  0
VERTEX
  8
Body_Slices
 10
393.447441117
 20
284.513818874
 30
0.0
  0
VERTEX
  8
Body_Slices
 10
393.447441117
 20
282.687506658
 30
0.0
  0
VERTEX
  8
Body_Slices
 10
363.447441117
 20
282.687506658
 30
0.0
  0
VERTEX
  8
Body_Slices
 10
363.447441117
 20
276.88925984
 30
8.881784197e-16
  0
VERTEX
  8
Body_Slices
 10
393.447441117
 20
276.88925984
 30
8.881784197e-16
  0
VERTEX
  8
Body_Slices
 10
393.447441117
 20
275.062947624
 30
0.0
  0
VERTEX
  8
Body_Slices
 10
398.447441117
 20
275.062947624
 30
0.0
  0
VERTEX
  8
Body_Slices
 10
398.447441117
 20
274.288383249
 30
0.0
  0
VERTEX
  8
Body_Slices
 10
341.463246421
 20
241.388543102
 30
0.0
  0
VERTEX
  8
Body_Slices
 10
338.963246421
 20
245.718670121
 30
0.0
  0
VERTEX
  8
Body_Slices
 10
325.106839961
 20
237.718670121
 30
0.0
  0
VERTEX
  8
Body_Slices
 10
327.606839961
 20
233.388543102
 30
0.0
  0
VERTEX
  8
Body_Slices
 10
170.0
 20
142.394191624
 30
0.0
  0
VERTEX
  8
Body_Slices
 10
160.473720558
 20
147.894191624
 30
0.0
  0
VERTEX
  8
Body_Slices
 10
160.473720558
 20
411.682574873
 30
0.0
  0
VERTEX
  8
Body_Slices
 10
170.0
 20
417.182574873
 30
0.0
  0
VERTEX
  8
Body_Slices
 10
398.447441117
 20
285.288383249
 30
0.0
  0
VERTEX
  8
Body_Slices
 10
398.447441117
 20
284.513818874
 30
0.0
  0
SEQEND
  8
Body_Slices
  0
CIRCLE
  8
Body_Slices
 62
0
 10
192.973720558
 20
211.18584287
 30
0.0
 40
1.0
  0
CIRCLE
  8
Body_Slices
 62
0
 10
344.964046558
 20
247.259483249
 30
0.0
 40
1.0
  0
CIRCLE
  8
Body_Slices
 62
0
 10
192.723720558
 20
366.823936329
 30
0.0
 40
1.0
  0
CIRCLE
  8
Body_Slices
 62
0
 10
380.653212483
 20
269.788383249
 30
0.0
 40
1.0
  0
CIRCLE
  8
Body_Slices
 62
0
 10
192.973720558
 20
348.390923627
 30
0.0
 40
1.0
  0
CIRCLE
  8
Body_Slices
 62
0
 10
182.794228634
 20
404.022320835
 30
0.0
 40
1.0
  0
CIRCLE
  8
Body_Slices
 62
0
 10
168.698803058
 20
151.140452411
 30
0.0
 40
2.0
  0
CIRCLE
  8
Body_Slices
 62
0
 10
208.562177826
 20
202.18584287
 30
0.0
 40
1.0
  0
CIRCLE
  8
Body_Slices
 62
0
 10
192.723720558
 20
192.752830169
 30
0.0
 40
1.0
  0
CIRCLE
  8
Body_Slices
 62
0
 10
343.473720558
 20
279.788383249
 30
0.0
 40
1.0
  0
CIRCLE
  8
Body_Slices
 62
0
 10
165.473720558
 20
165.554445662
 30
0.0
 40
1.0
  0
CIRCLE
  8
Body_Slices
 62
0
 10
192.723720558
 20
279.788383249
 30
0.0
 40
1.0
  0
CIRCLE
  8
Body_Slices
 62
0
 10
268.098720558
 20
236.270606709
 30
0.0
 40
1.0
  0
CIRCLE
  8
Body_Slices
 62
0
 10
282.598720558
 20
211.155869999
 30
0.0
 40
1.0
  0
POLYLINE
  8
Body_Slices
 62
0
 70
1
 66
1
 10
0.0
 20
0.0
 30
0.0
  0
VERTEX
  8
Body_Slices
 10
310.595498823
 20
232.788383249
 30
0.0
  0
VERTEX
  8
Body_Slices
 10
301.095498823
 20
249.242865921
 30
0.0
  0
VERTEX
  8
Body_Slices
 10
240.473720558
 20
214.242865921
 30
0.0
  0
VERTEX
  8
Body_Slices
 10
249.973720558
 20
197.788383249
 30
0.0
  0
SEQEND
  8
Body_Slices
  0
CIRCLE
  8
Body_Slices
 62
0
 10
208.562177826
 20
357.390923627
 30
0.0
 40
1.0
  0
CIRCLE
  8
Body_Slices
 62
0
 10
268.098720558
 20
323.306159789
 30
0.0
 40
1.0
  0
CIRCLE
  8
Body_Slices
 62
0
 10
282.598720558
 20
348.420896499
 30
0.0
 40
1.0
  0
POLYLINE
  8
Body_Slices
 62
0
 70
1
 66
1
 10
0.0
 20
0.0
 30
0.0
  0
VERTEX
  8
Body_Slices
 10
301.595498823
 20
309.788383249
 30
0.0
  0
VERTEX
  8
Body_Slices
 10
311.095498823
 20
326.242865921
 30
0.0
  0
VERTEX
  8
Body_Slices
 10
250.473720558
 20
361.242865921
 30
0.0
  0
VERTEX
  8
Body_Slices
 10
240.973720558
 20
344.788383249
 30
0.0
  0
SEQEND
  8
Body_Slices
  0
CIRCLE
  8
Body_Slices
 62
0
 10
182.794228634
 20
155.554445662
 30
0.0
 40
1.0
  0
POLYLINE
  8
Body_Slices
 62
0
 70
1
 66
1
 10
0.0
 20
0.0
 30
0.0
  0
VERTEX
  8
Body_Slices
 10
187.973720558
 20
314.788383249
 30
0.0
  0
VERTEX
  8
Body_Slices
 10
168.973720558
 20
314.788383249
 30
0.0
  0
VERTEX
  8
Body_Slices
 10
168.973720558
 20
244.788383249
 30
0.0
  0
VERTEX
  8
Body_Slices
 10
187.973720558
 20
244.788383249
 30
0.0
  0
SEQEND
  8
Body_Slices
  0
CIRCLE
  8
Body_Slices
 62
0
 10
165.473720558
 20
394.022320835
 30
0.0
 40
1.0
  0
CIRCLE
  8
Body_Slices
 62
0
 10
163.723720558
 20
279.788383249
 30
0.0
 40
1.0
  0
CIRCLE
  8
Body_Slices
 62
0
 10
327.38526329
 20
288.788383249
 30
0.0
 40
1.0
  0
POLYLINE
  8
Body_Slices
 62
0
 70
1
 66
1
 10
0.0
 20
0.0
 30
0.0
  0
VERTEX
  8
Body_Slices
 10
195.473720558
 20
197.515969889
 30
0.0
  0
VERTEX
  8
Body_Slices
 10
337.973720558
 20
279.788383249
 30
0.0
  0
VERTEX
  8
Body_Slices
 10
195.473720558
 20
362.060796608
 30
0.0
  0
SEQEND
  8
Body_Slices
  0
CIRCLE
  8
Body_Slices
 62
0
 10
327.38526329
 20
270.788383249
 30
0.0
 40
1.0
  0
CIRCLE
  8
Body_Slices
 62
0
 10
320.691867558
 20
232.925529249
 30
0.0
 40
1.0
  0
CIRCLE
  8
Body_Slices
 62
0
 10
168.698803058
 20
408.436314087
 30
0.0
 40
2.0
  0
CIRCLE
  8
Body_Slices
 62
0
 10
380.653212483
 20
289.788383249
 30
0.0
 40
1.0
  0
ENDBLK
  0
BLOCK
  8
Body_Slices
  2
MYLAYER002
 70
0
 10
0.0
 20
0.0
 30
0.0
  3
MYLAYER002
  0
POLYLINE
  8
Body_Slices
 62
0
 70
1
 66
1
 10
0.0
 20
0.0
 30
0.0
  0
VERTEX
  8
Body_Slices
 10
-72.9737205584
 20
142.394191624
 30
0.0
  0
VERTEX
  8
Body_Slices
 10
-82.5
 20
147.894191624
 30
0.0
  0
VERTEX
  8
Body_Slices
 10
-82.5
 20
411.682574873
 30
0.0
  0
VERTEX
  8
Body_Slices
 10
-72.9737205584
 20
417.182574873
 30
0.0
  0
VERTEX
  8
Body_Slices
 10
155.473720558
 20
285.288383249
 30
0.0
  0
VERTEX
  8
Body_Slices
 10
155.473720558
 20
274.288383249
 30
0.0
  0
SEQEND
  8
Body_Slices
  0
CIRCLE
  8
Body_Slices
 62
0
 10
39.625
 20
348.420896499
 30
0.0
 40
1.0
  0
CIRCLE
  8
Body_Slices
 62
0
 10
137.679491924
 20
269.788383249
 30
0.0
 40
1.0
  0
CIRCLE
  8
Body_Slices
 62
0
 10
148.549835
 20
279.788383249
 30
0.0
 40
2.0
  0
CIRCLE
  8
Body_Slices
 62
0
 10
-50.25
 20
366.823936329
 30
0.0
 40
1.0
  0
CIRCLE
  8
Body_Slices
 62
0
 10
-77.5
 20
165.554445662
 30
0.0
 40
1.0
  0
POLYLINE
  8
Body_Slices
 62
0
 70
1
 66
1
 10
0.0
 20
0.0
 30
0.0
  0
VERTEX
  8
Body_Slices
 10
135.0
 20
281.288383249
 30
0.0
  0
VERTEX
  8
Body_Slices
 10
123.0
 20
281.288383249
 30
0.0
 42
1.0
  0
VERTEX
  8
Body_Slices
 10
123.0
 20
278.288383249
 30
0.0
  0
VERTEX
  8
Body_Slices
 10
135.0
 20
278.288383249
 30
0.0
 42
1.0
  0
SEQEND
  8
Body_Slices
  0
POLYLINE
  8
Body_Slices
 62
0
 70
1
 66
1
 10
0.0
 20
0.0
 30
0.0
  0
VERTEX
  8
Body_Slices
 10
-55.0
 20
314.788383249
 30
0.0
  0
VERTEX
  8
Body_Slices
 10
-74.0
 20
314.788383249
 30
0.0
  0
VERTEX
  8
Body_Slices
 10
-74.0
 20
244.788383249
 30
0.0
  0
VERTEX
  8
Body_Slices
 10
-55.0
 20
244.788383249
 30
0.0
  0
SEQEND
  8
Body_Slices
  0
CIRCLE
  8
Body_Slices
 62
0
 10
-34.4115427319
 20
202.18584287
 30
0.0
 40
1.0
  0
CIRCLE
  8
Body_Slices
 62
0
 10
-60.1794919243
 20
404.022320835
 30
0.0
 40
1.0
  0
CIRCLE
  8
Body_Slices
 62
0
 10
-74.2749175
 20
408.436314087
 30
0.0
 40
2.0
  0
CIRCLE
  8
Body_Slices
 62
0
 10
137.679491924
 20
289.788383249
 30
0.0
 40
1.0
  0
CIRCLE
  8
Body_Slices
 62
0
 10
-77.5
 20
394.022320835
 30
0.0
 40
1.0
  0
POLYLINE
  8
Body_Slices
 62
0
 70
1
 66
1
 10
0.0
 20
0.0
 30
0.0
  0
VERTEX
  8
Body_Slices
 10
58.6217782649
 20
309.788383249
 30
2.22044604925e-16
  0
VERTEX
  8
Body_Slices
 10
68.1217782649
 20
326.242865921
 30
2.22044604925e-16
  0
VERTEX
  8
Body_Slices
 10
7.5
 20
361.242865921
 30
0.0
  0
VERTEX
  8
Body_Slices
 10
-2.0
 20
344.788383249
 30
0.0
  0
SEQEND
  8
Body_Slices
  0
CIRCLE
  8
Body_Slices
 62
0
 10
84.4115427319
 20
288.788383249
 30
0.0
 40
1.0
  0
CIRCLE
  8
Body_Slices
 62
0
 10
101.990326
 20
247.259483249
 30
0.0
 40
1.0
  0
CIRCLE
  8
Body_Slices
 62
0
 10
100.5
 20
279.788383249
 30
0.0
 40
1.0
  0
POLYLINE
  8
Body_Slices
 62
0
 70
1
 66
1
 10
0.0
 20
0.0
 30
0.0
  0
VERTEX
  8
Body_Slices
 10
67.6217782649
 20
232.788383249
 30
2.22044604925e-16
  0
VERTEX
  8
Body_Slices
 10
58.1217782649
 20
249.242865921
 30
2.22044604925e-16
  0
VERTEX
  8
Body_Slices
 10
-2.5
 20
214.242865921
 30
0.0
  0
VERTEX
  8
Body_Slices
 10
7.0
 20
197.788383249
 30
0.0
  0
SEQEND
  8
Body_Slices
  0
CIRCLE
  8
Body_Slices
 62
0
 10
25.125
 20
236.270606709
 30
0.0
 40
1.0
  0
CIRCLE
  8
Body_Slices
 62
0
 10
39.625
 20
211.155869999
 30
0.0
 40
1.0
  0
POLYLINE
  8
Body_Slices
 62
0
 70
1
 66
1
 10
0.0
 20
0.0
 30
0.0
  0
VERTEX
  8
Body_Slices
 10
-47.5
 20
197.515969889
 30
0.0
  0
VERTEX
  8
Body_Slices
 10
95.0
 20
279.788383249
 30
0.0
  0
VERTEX
  8
Body_Slices
 10
-47.5
 20
362.060796608
 30
0.0
  0
SEQEND
  8
Body_Slices
  0
CIRCLE
  8
Body_Slices
 62
0
 10
84.4115427319
 20
270.788383249
 30
0.0
 40
1.0
  0
CIRCLE
  8
Body_Slices
 62
0
 10
77.718147
 20
232.925529249
 30
0.0
 40
1.0
  0
CIRCLE
  8
Body_Slices
 62
0
 10
25.125
 20
323.306159789
 30
0.0
 40
1.0
  0
CIRCLE
  8
Body_Slices
 62
0
 10
-34.4115427319
 20
357.390923627
 30
0.0
 40
1.0
  0
CIRCLE
  8
Body_Slices
 62
0
 10
-50.0
 20
348.390923627
 30
0.0
 40
1.0
  0
CIRCLE
  8
Body_Slices
 62
0
 10
-50.0
 20
211.18584287
 30
0.0
 40
1.0
  0
CIRCLE
  8
Body_Slices
 62
0
 10
-50.25
 20
279.788383249
 30
0.0
 40
1.0
  0
CIRCLE
  8
Body_Slices
 62
0
 10
-74.2749175
 20
151.140452411
 30
0.0
 40
2.0
  0
CIRCLE
  8
Body_Slices
 62
0
 10
-60.1794919243
 20
155.554445662
 30
0.0
 40
1.0
  0
CIRCLE
  8
Body_Slices
 62
0
 10
-50.25
 20
192.752830169
 30
0.0
 40
1.0
  0
CIRCLE
  8
Body_Slices
 62
0
 10
-79.25
 20
279.788383249
 30
0.0
 40
1.0
  0
ENDBLK
  0
BLOCK
  8
Body_Slices
  2
MYLAYER001
 70
0
 10
0.0
 20
0.0
 30
0.0
  3
MYLAYER001
  0
POLYLINE
  8
Body_Slices
 62
0
 70
1
 66
1
 10
0.0
 20
0.0
 30
0.0
  0
VERTEX
  8
Body_Slices
 10
170.0
 20
-137.394191624
 30
0.0
  0
VERTEX
  8
Body_Slices
 10
160.473720558
 20
-131.894191624
 30
0.0
  0
VERTEX
  8
Body_Slices
 10
160.473720558
 20
131.894191624
 30
0.0
  0
VERTEX
  8
Body_Slices
 10
170.0
 20
137.394191624
 30
0.0
  0
VERTEX
  8
Body_Slices
 10
398.447441117
 20
5.5
 30
0.0
  0
VERTEX
  8
Body_Slices
 10
398.447441117
 20
-5.5
 30
0.0
  0
SEQEND
  8
Body_Slices
  0
CIRCLE
  8
Body_Slices
 62
0
 10
380.653212483
 20
10.0
 30
0.0
 40
1.0
  0
CIRCLE
  8
Body_Slices
 62
0
 10
343.473720558
 20
-3.5527136788e-14
 30
0.0
 40
1.0
  0
POLYLINE
  8
Body_Slices
 62
0
 70
1
 66
1
 10
0.0
 20
0.0
 30
0.0
  0
VERTEX
  8
Body_Slices
 10
377.973720558
 20
1.5
 30
0.0
  0
VERTEX
  8
Body_Slices
 10
365.973720558
 20
1.5
 30
0.0
 42
1.0
  0
VERTEX
  8
Body_Slices
 10
365.973720558
 20
-1.5
 30
0.0
  0
VERTEX
  8
Body_Slices
 10
377.973720558
 20
-1.5
 30
0.0
 42
1.0
  0
SEQEND
  8
Body_Slices
  0
CIRCLE
  8
Body_Slices
 62
0
 10
192.973720558
 20
68.6025403784
 30
0.0
 40
1.0
  0
CIRCLE
  8
Body_Slices
 62
0
 10
182.794228634
 20
124.233937587
 30
0.0
 40
1.0
  0
CIRCLE
  8
Body_Slices
 62
0
 10
327.38526329
 20
-9.0
 30
0.0
 40
1.0
  0
CIRCLE
  8
Body_Slices
 62
0
 10
320.691867558
 20
-46.862854
 30
0.0
 40
1.0
  0
CIRCLE
  8
Body_Slices
 62
0
 10
282.598720558
 20
68.6325132499
 30
0.0
 40
1.0
  0
CIRCLE
  8
Body_Slices
 62
0
 10
168.698803058
 20
-128.647930838
 30
0.0
 40
2.0
  0
CIRCLE
  8
Body_Slices
 62
0
 10
192.723720558
 20
87.0355530803
 30
0.0
 40
1.0
  0
CIRCLE
  8
Body_Slices
 62
0
 10
165.473720558
 20
-114.233937587
 30
0.0
 40
1.0
  0
CIRCLE
  8
Body_Slices
 62
0
 10
163.723720558
 20
0.0
 30
0.0
 40
1.0
  0
CIRCLE
  8
Body_Slices
 62
0
 10
391.523555558
 20
0.0
 30
0.0
 40
2.0
  0
CIRCLE
  8
Body_Slices
 62
0
 10
380.653212483
 20
-10.0
 30
0.0
 40
1.0
  0
CIRCLE
  8
Body_Slices
 62
0
 10
327.38526329
 20
9.0
 30
0.0
 40
1.0
  0
POLYLINE
  8
Body_Slices
 62
0
 70
1
 66
1
 10
0.0
 20
0.0
 30
0.0
  0
VERTEX
  8
Body_Slices
 10
195.473720558
 20
-82.2724133595
 30
0.0
  0
VERTEX
  8
Body_Slices
 10
337.973720558
 20
0.0
 30
0.0
  0
VERTEX
  8
Body_Slices
 10
195.473720558
 20
82.2724133595
 30
0.0
  0
SEQEND
  8
Body_Slices
  0
CIRCLE
  8
Body_Slices
 62
0
 10
268.098720558
 20
-43.5177765402
 30
0.0
 40
1.0
  0
CIRCLE
  8
Body_Slices
 62
0
 10
282.598720558
 20
-68.6325132499
 30
0.0
 40
1.0
  0
CIRCLE
  8
Body_Slices
 62
0
 10
208.562177826
 20
77.6025403784
 30
0.0
 40
1.0
  0
CIRCLE
  8
Body_Slices
 62
0
 10
268.098720558
 20
43.5177765402
 30
0.0
 40
1.0
  0
CIRCLE
  8
Body_Slices
 62
0
 10
208.562177826
 20
-77.6025403784
 30
0.0
 40
1.0
  0
CIRCLE
  8
Body_Slices
 62
0
 10
344.964046558
 20
-32.5289
 30
0.0
 40
1.0
  0
CIRCLE
  8
Body_Slices
 62
0
 10
182.794228634
 20
-124.233937587
 30
0.0
 40
1.0
  0
CIRCLE
  8
Body_Slices
 62
0
 10
192.973720558
 20
-68.6025403784
 30
0.0
 40
1.0
  0
CIRCLE
  8
Body_Slices
 62
0
 10
192.723720558
 20
-87.0355530803
 30
0.0
 40
1.0
  0
CIRCLE
  8
Body_Slices
 62
0
 10
192.723720558
 20
0.0
 30
0.0
 40
1.0
  0
CIRCLE
  8
Body_Slices
 62
0
 10
165.473720558
 20
114.233937587
 30
0.0
 40
1.0
  0
CIRCLE
  8
Body_Slices
 62
0
 10
168.698803058
 20
128.647930838
 30
0.0
 40
2.0
  0
ENDBLK
  0
BLOCK
  8
Body_Slices
  2
MYLAYER005
 70
0
 10
0.0
 20
0.0
 30
0.0
  3
MYLAYER005
  0
POLYLINE
  8
Body_Slices
 62
0
 70
1
 66
1
 10
0.0
 20
0.0
 30
0.0
  0
VERTEX
  8
Body_Slices
 10
393.447441117
 20
563.288909967
 30
0.0
  0
VERTEX
  8
Body_Slices
 10
393.447441117
 20
560.123268427
 30
0.0
 42
7.18000312693
  0
VERTEX
  8
Body_Slices
 10
393.447441117
 20
559.030264569
 30
0.0
  0
VERTEX
  8
Body_Slices
 10
393.447441117
 20
555.864623028
 30
0.0
  0
VERTEX
  8
Body_Slices
 10
398.447441117
 20
555.864623028
 30
0.0
  0
VERTEX
  8
Body_Slices
 10
398.447441117
 20
554.076766498
 30
0.0
  0
VERTEX
  8
Body_Slices
 10
341.463246421
 20
521.176926351
 30
0.0
  0
VERTEX
  8
Body_Slices
 10
338.963246421
 20
525.50705337
 30
0.0
  0
VERTEX
  8
Body_Slices
 10
337.94193285
 20
524.917397704
 30
0.0
  0
VERTEX
  8
Body_Slices
 10
330.44193285
 20
537.907778761
 30
0.0
  0
VERTEX
  8
Body_Slices
 10
318.317577197
 20
530.907778761
 30
0.0
  0
VERTEX
  8
Body_Slices
 10
325.817577197
 20
517.917397704
 30
0.0
  0
VERTEX
  8
Body_Slices
 10
325.106839961
 20
517.50705337
 30
0.0
  0
VERTEX
  8
Body_Slices
 10
327.606839961
 20
513.176926351
 30
0.0
  0
VERTEX
  8
Body_Slices
 10
170.0
 20
422.182574873
 30
0.0
  0
VERTEX
  8
Body_Slices
 10
160.473720558
 20
427.682574873
 30
0.0
  0
VERTEX
  8
Body_Slices
 10
160.473720558
 20
691.470958122
 30
0.0
  0
VERTEX
  8
Body_Slices
 10
170.0
 20
696.970958122
 30
0.0
  0
VERTEX
  8
Body_Slices
 10
398.447441117
 20
565.076766498
 30
0.0
  0
VERTEX
  8
Body_Slices
 10
398.447441117
 20
563.288909967
 30
0.0
  0
SEQEND
  8
Body_Slices
  0
CIRCLE
  8
Body_Slices
 62
0
 10
282.598720558
 20
628.209279748
 30
0.0
 40
1.0
  0
POLYLINE
  8
Body_Slices
 62
0
 70
1
 66
1
 10
0.0
 20
0.0
 30
0.0
  0
VERTEX
  8
Body_Slices
 10
301.595498823
 20
589.576766498
 30
0.0
  0
VERTEX
  8
Body_Slices
 10
311.095498823
 20
606.03124917
 30
0.0
  0
VERTEX
  8
Body_Slices
 10
250.473720558
 20
641.03124917
 30
0.0
  0
VERTEX
  8
Body_Slices
 10
240.973720558
 20
624.576766498
 30
0.0
  0
SEQEND
  8
Body_Slices
  0
CIRCLE
  8
Body_Slices
 62
0
 10
165.473720558
 20
673.810704084
 30
0.0
 40
1.0
  0
CIRCLE
  8
Body_Slices
 62
0
 10
182.794228634
 20
683.810704084
 30
0.0
 40
1.0
  0
CIRCLE
  8
Body_Slices
 62
0
 10
168.698803058
 20
430.92883566
 30
0.0
 40
2.0
  0
CIRCLE
  8
Body_Slices
 62
0
 10
192.973720558
 20
628.179306876
 30
0.0
 40
1.0
  0
CIRCLE
  8
Body_Slices
 62
0
 10
344.964046558
 20
527.047866498
 30
0.0
 40
1.0
  0
CIRCLE
  8
Body_Slices
 62
0
 10
380.653212483
 20
569.576766498
 30
0.0
 40
1.0
  0
CIRCLE
  8
Body_Slices
 62
0
 10
182.794228634
 20
435.342828911
 30
0.0
 40
1.0
  0
CIRCLE
  8
Body_Slices
 62
0
 10
327.38526329
 20
550.576766498
 30
0.0
 40
1.0
  0
CIRCLE
  8
Body_Slices
 62
0
 10
168.698803058
 20
688.224697336
 30
0.0
 40
2.0
  0
CIRCLE
  8
Body_Slices
 62
0
 10
208.562177826
 20
481.974226119
 30
0.0
 40
1.0
  0
POLYLINE
  8
Body_Slices
 62
0
 70
1
 66
1
 10
0.0
 20
0.0
 30
0.0
  0
VERTEX
  8
Body_Slices
 10
310.595498823
 20
512.576766498
 30
0.0
  0
VERTEX
  8
Body_Slices
 10
301.095498823
 20
529.03124917
 30
0.0
  0
VERTEX
  8
Body_Slices
 10
240.473720558
 20
494.03124917
 30
0.0
  0
VERTEX
  8
Body_Slices
 10
249.973720558
 20
477.576766498
 30
0.0
  0
SEQEND
  8
Body_Slices
  0
POLYLINE
  8
Body_Slices
 62
0
 70
1
 66
1
 10
0.0
 20
0.0
 30
0.0
  0
VERTEX
  8
Body_Slices
 10
335.973720558
 20
572.776766498
 30
0.0
  0
VERTEX
  8
Body_Slices
 10
370.973720558
 20
572.776766498
 30
0.0
  0
VERTEX
  8
Body_Slices
 10
370.973720558
 20
561.076766498
 30
0.0
  0
VERTEX
  8
Body_Slices
 10
377.973720558
 20
561.076766498
 30
0.0
 42
-1.0
  0
VERTEX
  8
Body_Slices
 10
377.973720558
 20
558.076766498
 30
0.0
  0
VERTEX
  8
Body_Slices
 10
370.973720558
 20
558.076766498
 30
0.0
  0
VERTEX
  8
Body_Slices
 10
370.973720558
 20
546.276766498
 30
0.0
  0
VERTEX
  8
Body_Slices
 10
335.973720558
 20
546.276766498
 30
0.0
  0
VERTEX
  8
Body_Slices
 10
335.973720558
 20
558.422065959
 30
0.0
  0
VERTEX
  8
Body_Slices
 10
195.473720558
 20
477.304353138
 30
0.0
  0
VERTEX
  8
Body_Slices
 10
195.473720558
 20
641.849179857
 30
0.0
  0
VERTEX
  8
Body_Slices
 10
335.973720558
 20
560.731467036
 30
0.0
  0
SEQEND
  8
Body_Slices
  0
CIRCLE
  8
Body_Slices
 62
0
 10
208.562177826
 20
637.179306876
 30
0.0
 40
1.0
  0
CIRCLE
  8
Body_Slices
 62
0
 10
327.38526329
 20
568.576766498
 30
0.0
 40
1.0
  0
CIRCLE
  8
Body_Slices
 62
0
 10
268.098720558
 20
603.094543038
 30
0.0
 40
1.0
  0
CIRCLE
  8
Body_Slices
 62
0
 10
320.691867558
 20
512.713912498
 30
0.0
 40
1.0
  0
CIRCLE
  8
Body_Slices
 62
0
 10
282.598720558
 20
490.944253248
 30
0.0
 40
1.0
  0
CIRCLE
  8
Body_Slices
 62
0
 10
268.098720558
 20
516.058989958
 30
0.0
 40
1.0
  0
POLYLINE
  8
Body_Slices
 62
0
 70
1
 66
1
 10
0.0
 20
0.0
 30
0.0
  0
VERTEX
  8
Body_Slices
 10
187.973720558
 20
594.576766498
 30
0.0
  0
VERTEX
  8
Body_Slices
 10
168.973720558
 20
594.576766498
 30
0.0
  0
VERTEX
  8
Body_Slices
 10
168.973720558
 20
524.576766498
 30
0.0
  0
VERTEX
  8
Body_Slices
 10
187.973720558
 20
524.576766498
 30
0.0
  0
SEQEND
  8
Body_Slices
  0
CIRCLE
  8
Body_Slices
 62
0
 10
165.473720558
 20
445.342828911
 30
0.0
 40
1.0
  0
CIRCLE
  8
Body_Slices
 62
0
 10
192.723720558
 20
472.541213417
 30
0.0
 40
1.0
  0
CIRCLE
  8
Body_Slices
 62
0
 10
192.973720558
 20
490.974226119
 30
0.0
 40
1.0
  0
CIRCLE
  8
Body_Slices
 62
0
 10
163.723720558
 20
559.576766498
 30
0.0
 40
1.0
  0
CIRCLE
  8
Body_Slices
 62
0
 10
192.723720558
 20
559.576766498
 30
0.0
 40
1.0
  0
CIRCLE
  8
Body_Slices
 62
0
 10
192.723720558
 20
646.612319578
 30
0.0
 40
1.0
  0
CIRCLE
  8
Body_Slices
 62
0
 10
380.653212483
 20
549.576766498
 30
0.0
 40
1.0
  0
ENDBLK
  0
BLOCK
  8
Body_Slices
  2
MYLAYER007
 70
0
 10
0.0
 20
0.0
 30
0.0
  3
MYLAYER007
  0
POLYLINE
  8
Body_Slices
 62
0
 70
1
 66
1
 10
0.0
 20
0.0
 30
0.0
  0
VERTEX
  8
Body_Slices
 10
170.0
 20
701.970958122
 30
0.0
  0
VERTEX
  8
Body_Slices
 10
160.473720558
 20
707.470958122
 30
0.0
  0
VERTEX
  8
Body_Slices
 10
160.473720558
 20
971.259341371
 30
0.0
  0
VERTEX
  8
Body_Slices
 10
170.0
 20
976.759341371
 30
0.0
  0
VERTEX
  8
Body_Slices
 10
398.447441117
 20
844.865149747
 30
0.0
  0
VERTEX
  8
Body_Slices
 10
398.447441117
 20
833.865149747
 30
0.0
  0
SEQEND
  8
Body_Slices
  0
CIRCLE
  8
Body_Slices
 62
0
 10
163.723720558
 20
839.365149747
 30
0.0
 40
1.0
  0
CIRCLE
  8
Body_Slices
 62
0
 10
391.523555558
 20
839.365149747
 30
0.0
 40
2.0
  0
CIRCLE
  8
Body_Slices
 62
0
 10
168.698803058
 20
968.013080585
 30
0.0
 40
2.0
  0
CIRCLE
  8
Body_Slices
 62
0
 10
182.794228634
 20
715.13121216
 30
0.0
 40
1.0
  0
CIRCLE
  8
Body_Slices
 62
0
 10
165.473720558
 20
725.13121216
 30
0.0
 40
1.0
  0
CIRCLE
  8
Body_Slices
 62
0
 10
320.691867558
 20
792.502295747
 30
0.0
 40
1.0
  0
CIRCLE
  8
Body_Slices
 62
0
 10
282.598720558
 20
770.732636497
 30
0.0
 40
1.0
  0
CIRCLE
  8
Body_Slices
 62
0
 10
282.598720558
 20
907.997662997
 30
0.0
 40
1.0
  0
CIRCLE
  8
Body_Slices
 62
0
 10
182.794228634
 20
963.599087333
 30
0.0
 40
1.0
  0
CIRCLE
  8
Body_Slices
 62
0
 10
165.473720558
 20
953.599087333
 30
0.0
 40
1.0
  0
CIRCLE
  8
Body_Slices
 62
0
 10
344.964046558
 20
806.836249747
 30
0.0
 40
1.0
  0
CIRCLE
  8
Body_Slices
 62
0
 10
168.698803058
 20
710.717218909
 30
0.0
 40
2.0
  0
CIRCLE
  8
Body_Slices
 62
0
 10
380.653212483
 20
849.365149747
 30
0.0
 40
1.0
  0
POLYLINE
  8
Body_Slices
 62
0
 70
1
 66
1
 10
0.0
 20
0.0
 30
0.0
  0
VERTEX
  8
Body_Slices
 10
166.973720558
 20
945.020249008
 30
0.0
  0
VERTEX
  8
Body_Slices
 10
166.973720558
 20
733.710050485
 30
0.0
 42
0.57735026919
  0
VERTEX
  8
Body_Slices
 10
189.473720558
 20
720.719669428
 30
0.0
  0
VERTEX
  8
Body_Slices
 10
372.473720558
 20
826.37476869
 30
0.0
 42
0.57735026919
  0
VERTEX
  8
Body_Slices
 10
372.473720558
 20
852.355530803
 30
0.0
  0
VERTEX
  8
Body_Slices
 10
189.473720558
 20
958.010630065
 30
0.0
 42
0.57735026919
  0
SEQEND
  8
Body_Slices
  0
CIRCLE
  8
Body_Slices
 62
0
 10
380.653212483
 20
829.365149747
 30
0.0
 40
1.0
  0
POLYLINE
  8
Body_Slices
 62
0
 70
1
 66
1
 10
0.0
 20
0.0
 30
0.0
  0
VERTEX
  8
Body_Slices
 10
195.473720558
 20
757.092736387
 30
0.0
  0
VERTEX
  8
Body_Slices
 10
327.581415713
 20
833.365149747
 30
0.0
  0
VERTEX
  8
Body_Slices
 10
335.973720558
 20
833.365149747
 30
0.0
  0
VERTEX
  8
Body_Slices
 10
335.973720558
 20
831.859596247
 30
0.0
  0
VERTEX
  8
Body_Slices
 10
189.973720558
 20
747.566456945
 30
0.0
  0
VERTEX
  8
Body_Slices
 10
189.973720558
 20
931.163842548
 30
0.0
  0
VERTEX
  8
Body_Slices
 10
335.973720558
 20
846.870703246
 30
0.0
  0
VERTEX
  8
Body_Slices
 10
335.973720558
 20
845.365149747
 30
0.0
  0
VERTEX
  8
Body_Slices
 10
327.581415713
 20
845.365149747
 30
0.0
  0
VERTEX
  8
Body_Slices
 10
195.473720558
 20
921.637563106
 30
0.0
  0
SEQEND
  8
Body_Slices
  0
CIRCLE
  8
Body_Slices
 62
0
 10
192.723720558
 20
752.329596666
 30
0.0
 40
1.0
  0
CIRCLE
  8
Body_Slices
 62
0
 10
192.723720558
 20
926.400702827
 30
0.0
 40
1.0
  0
CIRCLE
  8
Body_Slices
 62
0
 10
268.098720558
 20
882.882926287
 30
0.0
 40
1.0
  0
CIRCLE
  8
Body_Slices
 62
0
 10
192.973720558
 20
770.762609368
 30
0.0
 40
1.0
  0
CIRCLE
  8
Body_Slices
 62
0
 10
208.562177826
 20
761.762609368
 30
0.0
 40
1.0
  0
CIRCLE
  8
Body_Slices
 62
0
 10
268.098720558
 20
795.847373206
 30
0.0
 40
1.0
  0
CIRCLE
  8
Body_Slices
 62
0
 10
192.723720558
 20
839.365149747
 30
0.0
 40
1.0
  0
CIRCLE
  8
Body_Slices
 62
0
 10
208.562177826
 20
916.967690125
 30
0.0
 40
1.0
  0
CIRCLE
  8
Body_Slices
 62
0
 10
192.973720558
 20
907.967690125
 30
0.0
 40
1.0
  0
CIRCLE
  8
Body_Slices
 62
0
 10
327.38526329
 20
848.365149747
 30
0.0
 40
1.0
  0
CIRCLE
  8
Body_Slices
 62
0
 10
327.38526329
 20
830.365149747
 30
0.0
 40
1.0
  0
ENDBLK
  0
BLOCK
  8
Body_Slices
  2
MYLAYER006
 70
0
 10
0.0
 20
0.0
 30
0.0
  3
MYLAYER006
  0
POLYLINE
  8
Body_Slices
 62
0
 70
1
 66
1
 10
0.0
 20
0.0
 30
0.0
  0
VERTEX
  8
Body_Slices
 10
98.4895258628
 20
800.9653096
 30
0.0
  0
VERTEX
  8
Body_Slices
 10
95.9895258628
 20
805.295436618
 30
0.0
  0
VERTEX
  8
Body_Slices
 10
94.9682122917
 20
804.705780953
 30
0.0
  0
VERTEX
  8
Body_Slices
 10
94.2182122917
 20
806.004819059
 30
0.0
  0
VERTEX
  8
Body_Slices
 10
129.5
 20
826.37476869
 30
0.0
 42
0.57735026919
  0
VERTEX
  8
Body_Slices
 10
129.5
 20
852.355530803
 30
0.0
  0
VERTEX
  8
Body_Slices
 10
-53.5
 20
958.010630065
 30
0.0
 42
0.57735026919
  0
VERTEX
  8
Body_Slices
 10
-76.0
 20
945.020249008
 30
0.0
  0
VERTEX
  8
Body_Slices
 10
-76.0
 20
733.710050485
 30
0.0
 42
0.57735026919
  0
VERTEX
  8
Body_Slices
 10
-53.5
 20
720.719669428
 30
0.0
  0
VERTEX
  8
Body_Slices
 10
82.0938566388
 20
799.004819059
 30
0.0
  0
VERTEX
  8
Body_Slices
 10
82.8438566388
 20
797.705780953
 30
0.0
  0
VERTEX
  8
Body_Slices
 10
82.1331194022
 20
797.295436618
 30
0.0
  0
VERTEX
  8
Body_Slices
 10
84.6331194022
 20
792.9653096
 30
0.0
  0
VERTEX
  8
Body_Slices
 10
-72.9737205584
 20
701.970958122
 30
0.0
  0
VERTEX
  8
Body_Slices
 10
-82.5
 20
707.470958122
 30
0.0
  0
VERTEX
  8
Body_Slices
 10
-82.5
 20
971.259341371
 30
0.0
  0
VERTEX
  8
Body_Slices
 10
-72.9737205584
 20
976.759341371
 30
0.0
  0
VERTEX
  8
Body_Slices
 10
155.473720558
 20
844.865149747
 30
0.0
  0
VERTEX
  8
Body_Slices
 10
155.473720558
 20
833.865149747
 30
0.0
  0
SEQEND
  8
Body_Slices
  0
CIRCLE
  8
Body_Slices
 62
0
 10
-77.5
 20
725.13121216
 30
0.0
 40
1.0
  0
CIRCLE
  8
Body_Slices
 62
0
 10
148.549835
 20
839.365149747
 30
0.0
 40
2.0
  0
CIRCLE
  8
Body_Slices
 62
0
 10
-77.5
 20
953.599087333
 30
0.0
 40
1.0
  0
CIRCLE
  8
Body_Slices
 62
0
 10
39.625
 20
907.997662997
 30
0.0
 40
1.0
  0
CIRCLE
  8
Body_Slices
 62
0
 10
-79.25
 20
839.365149747
 30
0.0
 40
1.0
  0
CIRCLE
  8
Body_Slices
 62
0
 10
39.625
 20
770.732636497
 30
0.0
 40
1.0
  0
CIRCLE
  8
Body_Slices
 62
0
 10
77.718147
 20
792.502295747
 30
0.0
 40
1.0
  0
CIRCLE
  8
Body_Slices
 62
0
 10
137.679491924
 20
829.365149747
 30
0.0
 40
1.0
  0
CIRCLE
  8
Body_Slices
 62
0
 10
101.990326
 20
806.836249747
 30
0.0
 40
1.0
  0
CIRCLE
  8
Body_Slices
 62
0
 10
137.679491924
 20
849.365149747
 30
0.0
 40
1.0
  0
CIRCLE
  8
Body_Slices
 62
0
 10
-74.2749175
 20
968.013080585
 30
0.0
 40
2.0
  0
CIRCLE
  8
Body_Slices
 62
0
 10
-60.1794919243
 20
963.599087333
 30
0.0
 40
1.0
  0
CIRCLE
  8
Body_Slices
 62
0
 10
-74.2749175
 20
710.717218909
 30
0.0
 40
2.0
  0
CIRCLE
  8
Body_Slices
 62
0
 10
-60.1794919243
 20
715.13121216
 30
0.0
 40
1.0
  0
POLYLINE
  8
Body_Slices
 62
0
 70
1
 66
1
 10
0.0
 20
0.0
 30
0.0
  0
VERTEX
  8
Body_Slices
 10
-47.5
 20
757.092736387
 30
0.0
  0
VERTEX
  8
Body_Slices
 10
93.0
 20
838.210449208
 30
0.0
  0
VERTEX
  8
Body_Slices
 10
93.0
 20
831.859596247
 30
0.0
  0
VERTEX
  8
Body_Slices
 10
-53.0
 20
747.566456945
 30
0.0
  0
VERTEX
  8
Body_Slices
 10
-53.0
 20
931.163842548
 30
0.0
  0
VERTEX
  8
Body_Slices
 10
93.0
 20
846.870703246
 30
0.0
  0
VERTEX
  8
Body_Slices
 10
93.0
 20
840.519850285
 30
0.0
  0
VERTEX
  8
Body_Slices
 10
-47.5
 20
921.637563106
 30
0.0
  0
SEQEND
  8
Body_Slices
  0
CIRCLE
  8
Body_Slices
 62
0
 10
-50.0
 20
907.967690125
 30
0.0
 40
1.0
  0
CIRCLE
  8
Body_Slices
 62
0
 10
-50.0
 20
770.762609368
 30
0.0
 40
1.0
  0
CIRCLE
  8
Body_Slices
 62
0
 10
-50.25
 20
752.329596666
 30
0.0
 40
1.0
  0
CIRCLE
  8
Body_Slices
 62
0
 10
-34.4115427319
 20
761.762609368
 30
0.0
 40
1.0
  0
CIRCLE
  8
Body_Slices
 62
0
 10
84.4115427319
 20
830.365149747
 30
0.0
 40
1.0
  0
CIRCLE
  8
Body_Slices
 62
0
 10
84.4115427319
 20
848.365149747
 30
0.0
 40
1.0
  0
CIRCLE
  8
Body_Slices
 62
0
 10
-34.4115427319
 20
916.967690125
 30
0.0
 40
1.0
  0
CIRCLE
  8
Body_Slices
 62
0
 10
-50.25
 20
839.365149747
 30
0.0
 40
1.0
  0
CIRCLE
  8
Body_Slices
 62
0
 10
25.125
 20
795.847373206
 30
0.0
 40
1.0
  0
CIRCLE
  8
Body_Slices
 62
0
 10
25.125
 20
882.882926287
 30
0.0
 40
1.0
  0
CIRCLE
  8
Body_Slices
 62
0
 10
-50.25
 20
926.400702827
 30
0.0
 40
1.0
  0
ENDBLK
  0
ENDSEC
  0
SECTION
  2
ENTITIES
  0
INSERT
  2
MYLAYER
  8
Body_Slices
 62
0
 10
0.0
 20
0.0
 30
0.0
  0
INSERT
  2
MYLAYER004
  8
Body_Slices
 62
0
 10
0.0
 20
0.0
 30
0.0
  0
INSERT
  2
MYLAYER003
  8
Body_Slices
 62
0
 10
0.0
 20
0.0
 30
0.0
  0
INSERT
  2
MYLAYER002
  8
Body_Slices
 62
0
 10
0.0
 20
0.0
 30
0.0
  0
INSERT
  2
MYLAYER001
  8
Body_Slices
 62
0
 10
0.0
 20
0.0
 30
0.0
  0
INSERT
  2
MYLAYER005
  8
Body_Slices
 62
0
 10
0.0
 20
0.0
 30
0.0
  0
INSERT
  2
MYLAYER007
  8
Body_Slices
 62
0
 10
0.0
 20
0.0
 30
0.0
  0
INSERT
  2
MYLAYER006
  8
Body_Slices
 62
0
 10
0.0
 20
0.0
 30
0.0
  0
ENDSEC
  0
EOF
