999
dxfrw 0.6.3
  0
SECTION
  2
HEADER
  9
$ACADVER
  1
AC1021
  9
$DWGCODEPAGE
  3
ANSI_1252
  9
$INSBASE
 10
0
 20
0
 30
0
  9
$EXTMIN
 10
393.857823
 20
19.075315
 30
0
  9
$EXTMAX
 10
572.110366
 20
327.817771
 30
0
  9
$LIMMIN
 10
0
 20
0
  9
$LIMMAX
 10
420
 20
297
  9
$ORTHOMODE
 70
    0
  9
$REGENMODE
 70
    1
  9
$FILLMODE
 70
    1
  9
$QTEXTMODE
 70
    0
  9
$MIRRTEXT
 70
    0
  9
$LTSCALE
 40
1
  9
$ATTMODE
 70
    0
  9
$TEXTSIZE
 40
2.5
  9
$TRACEWID
 40
15.68
  9
$TEXTSTYLE
  7
STANDARD
  9
$CLAYER
  8
0
  9
$CELTYPE
  6
BYLAYER
  9
$CECOLOR
 62
  256
  9
$CELTSCALE
 40
1
  9
$DISPSILH
 70
    0
  9
$DIMSCALE
 40
2.5
  9
$DIMASZ
 40
2.5
  9
$DIMEXO
 40
0.625
  9
$DIMDLI
 40
3.75
  9
$DIMRND
 40
0
  9
$DIMDLE
 40
0
  9
$DIMEXE
 40
1.25
  9
$DIMTP
 40
0
  9
$DIMTM
 40
0
  9
$DIMTXT
 40
2.5
  9
$DIMCEN
 40
2.5
  9
$DIMTSZ
 40
0
  9
$DIMTOL
 70
    0
  9
$DIMLIM
 70
    0
  9
$DIMTIH
 70
    0
  9
$DIMTOH
 70
    0
  9
$DIMSE1
 70
    0
  9
$DIMSE2
 70
    0
  9
$DIMTAD
 70
    1
  9
$DIMZIN
 70
    8
  9
$DIMBLK
  1

  9
$DIMASO
 70
    1
  9
$DIMSHO
 70
    1
  9
$DIMPOST
  1

  9
$DIMAPOST
  1

  9
$DIMALT
 70
    0
  9
$DIMALTD
 70
    3
  9
$DIMALTF
 40
0.03937
  9
$DIMLFAC
 40
1
  9
$DIMTOFL
 70
    1
  9
$DIMTVP
 40
0
  9
$DIMTIX
 70
    0
  9
$DIMSOXD
 70
    0
  9
$DIMSAH
 70
    0
  9
$DIMBLK1
  1

  9
$DIMBLK2
  1

  9
$DIMSTYLE
  2
Standard
  9
$DIMCLRD
 70
    0
  9
$DIMCLRE
 70
    0
  9
$DIMCLRT
 70
    0
  9
$DIMTFAC
 40
1
  9
$DIMGAP
 40
0.625
  9
$DIMJUST
 70
    0
  9
$DIMSD1
 70
    0
  9
$DIMSD2
 70
    0
  9
$DIMTOLJ
 70
    0
  9
$DIMTZIN
 70
    8
  9
$DIMALTZ
 70
    0
  9
$DIMALTTZ
 70
    0
  9
$DIMUPT
 70
    0
  9
$DIMDEC
 70
    2
  9
$DIMTDEC
 70
    2
  9
$DIMALTU
 70
    2
  9
$DIMALTTD
 70
    3
  9
$DIMTXSTY
  7
STANDARD
  9
$DIMAUNIT
 70
    0
  9
$DIMADEC
 70
    0
  9
$DIMALTRND
 40
0
  9
$DIMAZIN
 70
    0
  9
$DIMDSEP
 70
   44
  9
$DIMATFIT
 70
    3
  9
$DIMFRAC
 70
    0
  9
$DIMLDRBLK
  1
STANDARD
  9
$DIMLUNIT
 70
    2
  9
$DIMLWD
 70
   -2
  9
$DIMLWE
 70
   -2
  9
$DIMTMOVE
 70
    0
  9
$DIMFXL
 40
1
  9
$DIMFXLON
 70
    0
  9
$DIMJOGANG
 40
0.7854
  9
$DIMTFILL
 70
    0
  9
$DIMTFILLCLR
 70
    0
  9
$DIMARCSYM
 70
    0
  9
$DIMLTYPE
  6

  9
$DIMLTEX1
  6

  9
$DIMLTEX2
  6

  9
$LUNITS
 70
    2
  9
$LUPREC
 70
    4
  9
$SKETCHINC
 40
1
  9
$FILLETRAD
 40
0
  9
$AUNITS
 70
    0
  9
$AUPREC
 70
    2
  9
$MENU
  1
.
  9
$ELEVATION
 40
0
  9
$PELEVATION
 40
0
  9
$THICKNESS
 40
0
  9
$LIMCHECK
 70
    0
  9
$CHAMFERA
 40
0
  9
$CHAMFERB
 40
0
  9
$CHAMFERC
 40
0
  9
$CHAMFERD
 40
0
  9
$SKPOLY
 70
    0
  9
$USRTIMER
 70
    1
  9
$ANGBASE
 50
0
  9
$ANGDIR
 70
    0
  9
$PDMODE
 70
   34
  9
$PDSIZE
 40
0
  9
$PLINEWID
 40
0
  9
$SPLFRAME
 70
    0
  9
$SPLINETYPE
 70
    2
  9
$SPLINESEGS
 70
    8
  9
$HANDSEED
  5
20000
  9
$SURFTAB1
 70
    6
  9
$SURFTAB2
 70
    6
  9
$SURFTYPE
 70
    6
  9
$SURFU
 70
    6
  9
$SURFV
 70
    6
  9
$UCSBASE
  2

  9
$UCSNAME
  2

  9
$UCSORG
 10
0
 20
0
 30
0
  9
$UCSXDIR
 10
1
 20
0
 30
0
  9
$UCSYDIR
 10
0
 20
1
 30
0
  9
$UCSORTHOREF
  2

  9
$UCSORTHOVIEW
 70
    0
  9
$UCSORGTOP
 10
0
 20
0
 30
0
  9
$UCSORGBOTTOM
 10
0
 20
0
 30
0
  9
$UCSORGLEFT
 10
0
 20
0
 30
0
  9
$UCSORGRIGHT
 10
0
 20
0
 30
0
  9
$UCSORGFRONT
 10
0
 20
0
 30
0
  9
$UCSORGBACK
 10
0
 20
0
 30
0
  9
$PUCSBASE
  2

  9
$PUCSNAME
  2

  9
$PUCSORG
 10
0
 20
0
 30
0
  9
$PUCSXDIR
 10
1
 20
0
 30
0
  9
$PUCSYDIR
 10
0
 20
1
 30
0
  9
$PUCSORTHOREF
  2

  9
$PUCSORTHOVIEW
 70
    0
  9
$PUCSORGTOP
 10
0
 20
0
 30
0
  9
$PUCSORGBOTTOM
 10
0
 20
0
 30
0
  9
$PUCSORGLEFT
 10
0
 20
0
 30
0
  9
$PUCSORGRIGHT
 10
0
 20
0
 30
0
  9
$PUCSORGFRONT
 10
0
 20
0
 30
0
  9
$PUCSORGBACK
 10
0
 20
0
 30
0
  9
$USERI1
 70
    0
  9
$USERI2
 70
    0
  9
$USERI3
 70
    0
  9
$USERI4
 70
    0
  9
$USERI5
 70
    0
  9
$USERR1
 40
0
  9
$USERR2
 40
0
  9
$USERR3
 40
0
  9
$USERR4
 40
0
  9
$USERR5
 40
0
  9
$WORLDVIEW
 70
    1
  9
$SHADEDGE
 70
    3
  9
$SHADEDIF
 70
   70
  9
$TILEMODE
 70
    1
  9
$MAXACTVP
 70
   64
  9
$PINSBASE
 10
0
 20
0
 30
0
  9
$PLIMCHECK
 70
    0
  9
$PEXTMIN
 10
0
 20
0
 30
0
  9
$PEXTMAX
 10
0
 20
0
 30
0
  9
$GRIDMODE
 70
    0
  9
$SNAPSTYLE
 70
    0
  9
$PLIMMIN
 10
0
 20
0
  9
$PLIMMAX
 10
210
 20
297
  9
$UNITMODE
 70
    0
  9
$VISRETAIN
 70
    1
  9
$PLINEGEN
 70
    0
  9
$PSLTSCALE
 70
    1
  9
$TREEDEPTH
 70
 3020
  9
$CMLSTYLE
  2
Standard
  9
$CMLJUST
 70
    0
  9
$CMLSCALE
 40
20
  9
$PROXYGRAPHICS
 70
    1
  9
$MEASUREMENT
 70
    1
  9
$CELWEIGHT
370
   -1
  9
$ENDCAPS
280
    0
  9
$JOINSTYLE
280
    0
  9
$LWDISPLAY
290
    0
  9
$INSUNITS
 70
    4
  9
$HYPERLINKBASE
  1

  9
$STYLESHEET
  1

  9
$XEDIT
290
    1
  9
$CEPSNTYPE
380
    0
  9
$PSTYLEMODE
290
    1
  9
$EXTNAMES
290
    1
  9
$PSVPSCALE
 40
1
  9
$OLESTARTUP
290
    0
  9
$SORTENTS
280
  127
  9
$INDEXCTL
280
    0
  9
$HIDETEXT
280
    1
  9
$XCLIPFRAME
290
    0
  9
$HALOGAP
280
    0
  9
$OBSCOLOR
 70
  257
  9
$OBSLTYPE
280
    0
  9
$INTERSECTIONDISPLAY
280
    0
  9
$INTERSECTIONCOLOR
 70
  257
  9
$DIMASSOC
280
    1
  9
$PROJECTNAME
  1

  9
$CAMERADISPLAY
290
    0
  9
$LENSLENGTH
 40
50
  9
$CAMERAHEIGHT
 40
0
  9
$STEPSPERSEC
 40
2
  9
$STEPSIZE
 40
50
  9
$3DDWFPREC
 40
2
  9
$PSOLWIDTH
 40
5
  9
$PSOLHEIGHT
 40
80
  9
$LOFTANG1
 40
1.570796326794897
  9
$LOFTANG2
 40
1.570796326794897
  9
$LOFTMAG1
 40
0
  9
$LOFTMAG2
 40
0
  9
$LOFTPARAM
 70
    7
  9
$LOFTNORMALS
280
    1
  9
$LATITUDE
 40
1
  9
$LONGITUDE
 40
1
  9
$NORTHDIRECTION
 40
0
  9
$TIMEZONE
 70
-8000
  9
$LIGHTGLYPHDISPLAY
280
    1
  9
$TILEMODELIGHTSYNCH
280
    1
  9
$SOLIDHIST
280
    1
  9
$SHOWHIST
280
    1
  9
$DWFFRAME
280
    2
  9
$DGNFRAME
280
    0
  9
$REALWORLDSCALE
290
    1
  9
$INTERFERECOLOR
 62
    1
  9
$CSHADOW
280
    0
  9
$SHADOWPLANELOCATION
 40
0
  0
ENDSEC
  0
SECTION
  2
CLASSES
  0
ENDSEC
  0
SECTION
  2
TABLES
  0
TABLE
  2
VPORT
  5
8
330
0
100
AcDbSymbolTable
 70
    1
  0
VPORT
  5
31
330
2
100
AcDbSymbolTableRecord
100
AcDbViewportTableRecord
  2
*ACTIVE
 70
    0
 10
0
 20
0
 11
1
 21
1
 12
366.5421724893318
 22
224.8232383286153
 13
0
 23
0
 14
10
 24
10
 15
10
 25
10
 16
0
 26
0
 36
1
 17
0
 27
0
 37
0
 40
636.7315285521141
 41
1.679697351828499
 42
50
 43
0
 44
0
 50
0
 51
0
 71
    0
 72
  100
 73
    1
 74
    3
 75
    0
 76
    0
 77
    0
 78
    0
281
    0
 65
    1
110
0
120
0
130
0
111
1
121
0
131
0
112
0
122
1
132
0
 79
    0
146
0
348
10020
 60
    7
 61
    5
292
1
282
    1
141
0
142
0
 63
  250
421
3358443
  0
ENDTAB
  0
TABLE
  2
LTYPE
  5
5
330
0
100
AcDbSymbolTable
 70
    4
  0
LTYPE
  5
14
330
5
100
AcDbSymbolTableRecord
100
AcDbLinetypeTableRecord
  2
ByBlock
 70
    0
  3

 72
   65
 73
    0
 40
0
  0
LTYPE
  5
15
330
5
100
AcDbSymbolTableRecord
100
AcDbLinetypeTableRecord
  2
ByLayer
 70
    0
  3

 72
   65
 73
    0
 40
0
  0
LTYPE
  5
16
330
5
100
AcDbSymbolTableRecord
100
AcDbLinetypeTableRecord
  2
Continuous
 70
    0
  3
Solid line
 72
   65
 73
    0
 40
0
  0
LTYPE
  5
32
330
5
100
AcDbSymbolTableRecord
100
AcDbLinetypeTableRecord
  2
DOT
 70
    0
  3
Dot . . . . . . . . . . . . . . . . . . . . . .
 72
   65
 73
    2
 40
6.35
 49
0
 74
    0
 49
-6.35
 74
    0
  0
LTYPE
  5
33
330
5
100
AcDbSymbolTableRecord
100
AcDbLinetypeTableRecord
  2
DOTTINY
 70
    0
  3
Dot (.15x) .....................................
 72
   65
 73
    2
 40
0.9525
 49
0
 74
    0
 49
-0.9525
 74
    0
  0
LTYPE
  5
34
330
5
100
AcDbSymbolTableRecord
100
AcDbLinetypeTableRecord
  2
DOT2
 70
    0
  3
Dot (.5x) .....................................
 72
   65
 73
    2
 40
3.175
 49
0
 74
    0
 49
-3.175
 74
    0
  0
LTYPE
  5
35
330
5
100
AcDbSymbolTableRecord
100
AcDbLinetypeTableRecord
  2
DOTX2
 70
    0
  3
Dot (2x) .  .  .  .  .  .  .  .  .  .  .  .  .
 72
   65
 73
    2
 40
12.7
 49
0
 74
    0
 49
-12.7
 74
    0
  0
LTYPE
  5
36
330
5
100
AcDbSymbolTableRecord
100
AcDbLinetypeTableRecord
  2
DASHED
 70
    0
  3
Dashed _ _ _ _ _ _ _ _ _ _ _ _ _ _ _ _ _
 72
   65
 73
    2
 40
19.05
 49
12.7
 74
    0
 49
-6.35
 74
    0
  0
LTYPE
  5
37
330
5
100
AcDbSymbolTableRecord
100
AcDbLinetypeTableRecord
  2
DASHEDTINY
 70
    0
  3
Dashed (.15x) _ _ _ _ _ _ _ _ _ _ _ _ _ _ _ _ _
 72
   65
 73
    2
 40
2.8575
 49
1.905
 74
    0
 49
-0.9525
 74
    0
  0
LTYPE
  5
38
330
5
100
AcDbSymbolTableRecord
100
AcDbLinetypeTableRecord
  2
DASHED2
 70
    0
  3
Dashed (.5x) _ _ _ _ _ _ _ _ _ _ _ _ _ _ _ _ _
 72
   65
 73
    2
 40
9.524999999999999
 49
6.35
 74
    0
 49
-3.175
 74
    0
  0
LTYPE
  5
39
330
5
100
AcDbSymbolTableRecord
100
AcDbLinetypeTableRecord
  2
DASHEDX2
 70
    0
  3
Dashed (2x) ____  ____  ____  ____  ____  ___
 72
   65
 73
    2
 40
38.09999999999999
 49
25.4
 74
    0
 49
-12.7
 74
    0
  0
LTYPE
  5
3A
330
5
100
AcDbSymbolTableRecord
100
AcDbLinetypeTableRecord
  2
DASHDOT
 70
    0
  3
Dash dot __ . __ . __ . __ . __ . __ . __ . __
 72
   65
 73
    4
 40
25.4
 49
12.7
 74
    0
 49
-6.35
 74
    0
 49
0
 74
    0
 49
-6.35
 74
    0
  0
LTYPE
  5
3B
330
5
100
AcDbSymbolTableRecord
100
AcDbLinetypeTableRecord
  2
DASHDOTTINY
 70
    0
  3
Dash dot (.15x) _._._._._._._._._._._._._._._.
 72
   65
 73
    4
 40
3.81
 49
1.905
 74
    0
 49
-0.9525
 74
    0
 49
0
 74
    0
 49
-0.9525
 74
    0
  0
LTYPE
  5
3C
330
5
100
AcDbSymbolTableRecord
100
AcDbLinetypeTableRecord
  2
DASHDOT2
 70
    0
  3
Dash dot (.5x) _._._._._._._._._._._._._._._.
 72
   65
 73
    4
 40
12.7
 49
6.35
 74
    0
 49
-3.175
 74
    0
 49
0
 74
    0
 49
-3.175
 74
    0
  0
LTYPE
  5
3D
330
5
100
AcDbSymbolTableRecord
100
AcDbLinetypeTableRecord
  2
DASHDOTX2
 70
    0
  3
Dash dot (2x) ____  .  ____  .  ____  .  ___
 72
   65
 73
    4
 40
50.8
 49
25.4
 74
    0
 49
-12.7
 74
    0
 49
0
 74
    0
 49
-12.7
 74
    0
  0
LTYPE
  5
3E
330
5
100
AcDbSymbolTableRecord
100
AcDbLinetypeTableRecord
  2
DIVIDE
 70
    0
  3
Divide ____ . . ____ . . ____ . . ____ . . ____
 72
   65
 73
    6
 40
31.75
 49
12.7
 74
    0
 49
-6.35
 74
    0
 49
0
 74
    0
 49
-6.35
 74
    0
 49
0
 74
    0
 49
-6.35
 74
    0
  0
LTYPE
  5
3F
330
5
100
AcDbSymbolTableRecord
100
AcDbLinetypeTableRecord
  2
DIVIDETINY
 70
    0
  3
Divide (.15x) __..__..__..__..__..__..__..__.._
 72
   65
 73
    6
 40
4.7625
 49
1.905
 74
    0
 49
-0.9525
 74
    0
 49
0
 74
    0
 49
-0.9525
 74
    0
 49
0
 74
    0
 49
-0.9525
 74
    0
  0
LTYPE
  5
40
330
5
100
AcDbSymbolTableRecord
100
AcDbLinetypeTableRecord
  2
DIVIDE2
 70
    0
  3
Divide (.5x) __..__..__..__..__..__..__..__.._
 72
   65
 73
    6
 40
15.875
 49
6.35
 74
    0
 49
-3.175
 74
    0
 49
0
 74
    0
 49
-3.175
 74
    0
 49
0
 74
    0
 49
-3.175
 74
    0
  0
LTYPE
  5
41
330
5
100
AcDbSymbolTableRecord
100
AcDbLinetypeTableRecord
  2
DIVIDEX2
 70
    0
  3
Divide (2x) ________  .  .  ________  .  .  _
 72
   65
 73
    6
 40
63.5
 49
25.4
 74
    0
 49
-12.7
 74
    0
 49
0
 74
    0
 49
-12.7
 74
    0
 49
0
 74
    0
 49
-12.7
 74
    0
  0
LTYPE
  5
42
330
5
100
AcDbSymbolTableRecord
100
AcDbLinetypeTableRecord
  2
BORDER
 70
    0
  3
Border __ __ . __ __ . __ __ . __ __ . __ __ .
 72
   65
 73
    6
 40
44.45
 49
12.7
 74
    0
 49
-6.35
 74
    0
 49
12.7
 74
    0
 49
-6.35
 74
    0
 49
0
 74
    0
 49
-6.35
 74
    0
  0
LTYPE
  5
43
330
5
100
AcDbSymbolTableRecord
100
AcDbLinetypeTableRecord
  2
BORDERTINY
 70
    0
  3
Border (.15x) __.__.__.__.__.__.__.__.__.__.__.
 72
   65
 73
    6
 40
6.6675
 49
1.905
 74
    0
 49
-0.9525
 74
    0
 49
1.905
 74
    0
 49
-0.9525
 74
    0
 49
0
 74
    0
 49
-0.9525
 74
    0
  0
LTYPE
  5
44
330
5
100
AcDbSymbolTableRecord
100
AcDbLinetypeTableRecord
  2
BORDER2
 70
    0
  3
Border (.5x) __.__.__.__.__.__.__.__.__.__.__.
 72
   65
 73
    6
 40
22.225
 49
6.35
 74
    0
 49
-3.175
 74
    0
 49
6.35
 74
    0
 49
-3.175
 74
    0
 49
0
 74
    0
 49
-3.175
 74
    0
  0
LTYPE
  5
45
330
5
100
AcDbSymbolTableRecord
100
AcDbLinetypeTableRecord
  2
BORDERX2
 70
    0
  3
Border (2x) ____  ____  .  ____  ____  .  ___
 72
   65
 73
    6
 40
88.89999999999999
 49
25.4
 74
    0
 49
-12.7
 74
    0
 49
25.4
 74
    0
 49
-12.7
 74
    0
 49
0
 74
    0
 49
-12.7
 74
    0
  0
LTYPE
  5
46
330
5
100
AcDbSymbolTableRecord
100
AcDbLinetypeTableRecord
  2
CENTER
 70
    0
  3
Center ____ _ ____ _ ____ _ ____ _ ____ _ ____
 72
   65
 73
    4
 40
50.8
 49
31.75
 74
    0
 49
-6.35
 74
    0
 49
6.35
 74
    0
 49
-6.35
 74
    0
  0
LTYPE
  5
47
330
5
100
AcDbSymbolTableRecord
100
AcDbLinetypeTableRecord
  2
CENTERTINY
 70
    0
  3
Center (.15x) ___ _ ___ _ ___ _ ___ _ ___ _ ___
 72
   65
 73
    4
 40
7.619999999999999
 49
4.7625
 74
    0
 49
-0.9525
 74
    0
 49
0.9525
 74
    0
 49
-0.9525
 74
    0
  0
LTYPE
  5
48
330
5
100
AcDbSymbolTableRecord
100
AcDbLinetypeTableRecord
  2
CENTER2
 70
    0
  3
Center (.5x) ___ _ ___ _ ___ _ ___ _ ___ _ ___
 72
   65
 73
    4
 40
28.575
 49
19.05
 74
    0
 49
-3.175
 74
    0
 49
3.175
 74
    0
 49
-3.175
 74
    0
  0
LTYPE
  5
49
330
5
100
AcDbSymbolTableRecord
100
AcDbLinetypeTableRecord
  2
CENTERX2
 70
    0
  3
Center (2x) ________  __  ________  __  _____
 72
   65
 73
    4
 40
101.6
 49
63.5
 74
    0
 49
-12.7
 74
    0
 49
12.7
 74
    0
 49
-12.7
 74
    0
  0
ENDTAB
  0
TABLE
  2
LAYER
  5
2
330
0
100
AcDbSymbolTable
 70
    1
  0
LAYER
  5
10
330
2
100
AcDbSymbolTableRecord
100
AcDbLayerTableRecord
  2
0
 70
    0
 62
    7
  6
CONTINUOUS
370
   -3
390
F
  0
LAYER
  5
4A
330
2
100
AcDbSymbolTableRecord
100
AcDbLayerTableRecord
  2
Body_Slices
 70
    0
 62
    7
  6
CONTINUOUS
370
   -3
390
F
  0
ENDTAB
  0
TABLE
  2
STYLE
  5
3
330
0
100
AcDbSymbolTable
 70
    3
  0
STYLE
  5
4B
330
2
100
AcDbSymbolTableRecord
100
AcDbTextStyleTableRecord
  2
Standard
 70
    0
 40
0
 41
1
 50
0
 71
    0
 42
1
  3
txt
  4

  0
ENDTAB
  0
TABLE
  2
VIEW
  5
6
330
0
100
AcDbSymbolTable
 70
    0
  0
ENDTAB
  0
TABLE
  2
UCS
  5
7
330
0
100
AcDbSymbolTable
 70
    0
  0
ENDTAB
  0
TABLE
  2
APPID
  5
9
330
0
100
AcDbSymbolTable
 70
    1
  0
APPID
  5
12
330
9
100
AcDbSymbolTableRecord
100
AcDbRegAppTableRecord
  2
ACAD
 70
    0
  0
APPID
  5
4C
330
9
100
AcDbSymbolTableRecord
100
AcDbRegAppTableRecord
  2
LibreCad
 70
    0
  0
ENDTAB
  0
TABLE
  2
DIMSTYLE
  5
A
330
0
100
AcDbSymbolTable
 70
    1
100
AcDbDimStyleTable
 71
    1
  0
DIMSTYLE
105
4D
330
A
100
AcDbSymbolTableRecord
100
AcDbDimStyleTableRecord
  2
Standard
 70
    0
 40
1
 41
2.5
 42
0.625
 43
0.38
 44
1.25
 45
0
 46
0
 47
0
 48
0
 49
1
140
2.5
141
0.09
142
2.5
143
25.4
144
1
145
0
146
1
147
0.625
148
0
 71
    0
 72
    0
 73
    0
 74
    1
 75
    0
 76
    0
 77
    0
 78
    1
 79
    0
170
    0
171
    2
172
    0
173
    0
174
    0
175
    0
176
    0
177
    0
178
    0
179
    0
271
    2
272
    4
273
    2
274
    2
275
    0
276
    0
277
    2
278
    0
279
    0
280
    0
281
    0
282
    0
283
    1
284
    0
285
    0
286
    0
288
    0
289
    3
340
standard
341

371
   -2
372
   -2
  0
ENDTAB
  0
TABLE
  2
BLOCK_RECORD
  5
1
330
0
100
AcDbSymbolTable
 70
    2
  0
BLOCK_RECORD
  5
1F
330
1
100
AcDbSymbolTableRecord
100
AcDbBlockTableRecord
  2
*Model_Space
 70
    0
280
    1
281
    0
  0
BLOCK_RECORD
  5
1E
330
1
100
AcDbSymbolTableRecord
100
AcDbBlockTableRecord
  2
*Paper_Space
 70
    0
280
    1
281
    0
  0
ENDTAB
  0
ENDSEC
  0
SECTION
  2
BLOCKS
  0
BLOCK
  5
20
330
1F
100
AcDbEntity
  8
0
100
AcDbBlockBegin
  2
*Model_Space
 70
    0
 10
0
 20
0
 30
0
  3
*Model_Space
  1

  0
ENDBLK
  5
21
330
1F
100
AcDbEntity
  8
0
100
AcDbBlockEnd
  0
BLOCK
  5
1C
330
1B
100
AcDbEntity
  8
0
100
AcDbBlockBegin
  2
*Paper_Space
 70
    0
 10
0
 20
0
 30
0
  3
*Paper_Space
  1

  0
ENDBLK
  5
1D
330
1F
100
AcDbEntity
  8
0
100
AcDbBlockEnd
  0
ENDSEC
  0
SECTION
  2
ENTITIES
  0
LINE
  5
4E
100
AcDbEntity
  8
Body_Slices
  6
ByLayer
 62
    7
370
   -1
100
AcDbLine
 10
564.060365
 20
173.446543
 11
572.110366
 21
159.503535
  0
LINE
  5
4F
100
AcDbEntity
  8
Body_Slices
  6
ByLayer
 62
    7
370
   -1
100
AcDbLine
 10
572.110366
 20
159.503535
 11
491.034095
 21
19.075315
  0
LINE
  5
50
100
AcDbEntity
  8
Body_Slices
  6
ByLayer
 62
    7
370
   -1
100
AcDbLine
 10
491.034095
 20
19.075315
 11
474.934096
 21
19.075317
  0
LINE
  5
51
100
AcDbEntity
  8
Body_Slices
  6
ByLayer
 62
    7
370
   -1
100
AcDbLine
 10
474.934096
 20
19.075317
 11
393.857826
 21
159.503535
  0
LINE
  5
52
100
AcDbEntity
  8
Body_Slices
  6
ByLayer
 62
    7
370
   -1
100
AcDbLine
 10
393.857826
 20
159.503535
 11
401.907826
 21
173.446544
  0
LINE
  5
53
100
AcDbEntity
  8
Body_Slices
  6
ByLayer
 62
    7
370
   -1
100
AcDbLine
 10
401.907826
 20
173.446544
 11
564.060365
 21
173.446543
  0
SPLINE
  5
54
100
AcDbEntity
  8
Body_Slices
  6
ByLayer
 62
    7
370
   -1
100
AcDbSpline
210
0
220
0
230
0
 70
    8
 71
    3
 72
    8
 73
    4
 74
    0
 42
1e-07
 43
1e-07
 40
0
 40
0
 40
0
 40
0
 40
1
 40
1
 40
1
 40
1
 10
470.409095
 20
36.240733
 30
0
 10
469.836676
 20
36.571628
 30
0
 10
469.131179
 20
36.57188
 30
0
 10
468.558524
 20
36.241393
 30
0
  0
SPLINE
  5
55
100
AcDbEntity
  8
Body_Slices
  6
ByLayer
 62
    7
370
   -1
100
AcDbSpline
210
0
220
0
230
0
 70
    8
 71
    3
 72
    8
 73
    4
 74
    0
 42
1e-07
 43
1e-07
 40
0
 40
0
 40
0
 40
0
 40
1
 40
1
 40
1
 40
1
 10
468.558524
 20
36.241393
 30
0
 10
467.985869
 20
35.910907
 30
0
 10
467.63312
 20
35.299929
 30
0
 10
467.633238
 20
34.638752
 30
0
  0
SPLINE
  5
56
100
AcDbEntity
  8
Body_Slices
  6
ByLayer
 62
    7
370
   -1
100
AcDbSpline
210
0
220
0
230
0
 70
    8
 71
    3
 72
    8
 73
    4
 74
    0
 42
1e-07
 43
1e-07
 40
0
 40
0
 40
0
 40
0
 40
1
 40
1
 40
1
 40
1
 10
467.633238
 20
34.638752
 30
0
 10
467.633356
 20
33.977575
 30
0
 10
467.986322
 20
33.366722
 30
0
 10
468.559095
 20
33.03644
 30
0
  0
SPLINE
  5
57
100
AcDbEntity
  8
Body_Slices
  6
ByLayer
 62
    7
370
   -1
100
AcDbSpline
210
0
220
0
230
0
 70
    8
 71
    3
 72
    8
 73
    4
 74
    0
 42
1e-07
 43
1e-07
 40
0
 40
0
 40
0
 40
0
 40
1
 40
1
 40
1
 40
1
 10
468.559095
 20
33.03644
 30
0
 10
469.131514
 20
32.705545
 30
0
 10
469.837011
 20
32.705294
 30
0
 10
470.409666
 20
33.03578
 30
0
  0
SPLINE
  5
58
100
AcDbEntity
  8
Body_Slices
  6
ByLayer
 62
    7
370
   -1
100
AcDbSpline
210
0
220
0
230
0
 70
    8
 71
    3
 72
    8
 73
    4
 74
    0
 42
1e-07
 43
1e-07
 40
0
 40
0
 40
0
 40
0
 40
1
 40
1
 40
1
 40
1
 10
470.409666
 20
33.03578
 30
0
 10
470.982321
 20
33.366266
 30
0
 10
471.33507
 20
33.977245
 30
0
 10
471.334952
 20
34.638422
 30
0
  0
SPLINE
  5
59
100
AcDbEntity
  8
Body_Slices
  6
ByLayer
 62
    7
370
   -1
100
AcDbSpline
210
0
220
0
230
0
 70
    8
 71
    3
 72
    8
 73
    4
 74
    0
 42
1e-07
 43
1e-07
 40
0
 40
0
 40
0
 40
0
 40
1
 40
1
 40
1
 40
1
 10
471.334952
 20
34.638422
 30
0
 10
471.334834
 20
35.299599
 30
0
 10
470.981868
 20
35.910451
 30
0
 10
470.409095
 20
36.240733
 30
0
  0
LINE
  5
5A
100
AcDbEntity
  8
Body_Slices
  6
ByLayer
 62
    7
370
   -1
100
AcDbLine
 10
470.409095
 20
36.240733
 11
470.409095
 21
36.240733
  0
SPLINE
  5
5B
100
AcDbEntity
  8
Body_Slices
  6
ByLayer
 62
    7
370
   -1
100
AcDbSpline
210
0
220
0
230
0
 70
    8
 71
    3
 72
    8
 73
    4
 74
    0
 42
1e-07
 43
1e-07
 40
0
 40
0
 40
0
 40
0
 40
1
 40
1
 40
1
 40
1
 10
425.041387
 20
149.062986
 30
0
 10
425.505488
 20
148.795037
 30
0
 10
426.077285
 20
148.795037
 30
0
 10
426.541387
 20
149.062986
 30
0
  0
SPLINE
  5
5C
100
AcDbEntity
  8
Body_Slices
  6
ByLayer
 62
    7
370
   -1
100
AcDbSpline
210
0
220
0
230
0
 70
    8
 71
    3
 72
    8
 73
    4
 74
    0
 42
1e-07
 43
1e-07
 40
0
 40
0
 40
0
 40
0
 40
1
 40
1
 40
1
 40
1
 10
426.541387
 20
149.062986
 30
0
 10
427.005488
 20
149.330935
 30
0
 10
427.291387
 20
149.826126
 30
0
 10
427.291387
 20
150.362024
 30
0
  0
SPLINE
  5
5D
100
AcDbEntity
  8
Body_Slices
  6
ByLayer
 62
    7
370
   -1
100
AcDbSpline
210
0
220
0
230
0
 70
    8
 71
    3
 72
    8
 73
    4
 74
    0
 42
1e-07
 43
1e-07
 40
0
 40
0
 40
0
 40
0
 40
1
 40
1
 40
1
 40
1
 10
427.291387
 20
150.362024
 30
0
 10
427.291387
 20
150.897922
 30
0
 10
427.005488
 20
151.393113
 30
0
 10
426.541387
 20
151.661062
 30
0
  0
LINE
  5
5E
100
AcDbEntity
  8
Body_Slices
  6
ByLayer
 62
    7
370
   -1
100
AcDbLine
 10
426.541387
 20
151.661062
 11
410.086903
 21
161.161063
  0
SPLINE
  5
5F
100
AcDbEntity
  8
Body_Slices
  6
ByLayer
 62
    7
370
   -1
100
AcDbSpline
210
0
220
0
230
0
 70
    8
 71
    3
 72
    8
 73
    4
 74
    0
 42
1e-07
 43
1e-07
 40
0
 40
0
 40
0
 40
0
 40
1
 40
1
 40
1
 40
1
 10
410.086903
 20
161.161063
 30
0
 10
409.622801
 20
161.429012
 30
0
 10
409.051004
 20
161.429012
 30
0
 10
408.586903
 20
161.161063
 30
0
  0
SPLINE
  5
60
100
AcDbEntity
  8
Body_Slices
  6
ByLayer
 62
    7
370
   -1
100
AcDbSpline
210
0
220
0
230
0
 70
    8
 71
    3
 72
    8
 73
    4
 74
    0
 42
1e-07
 43
1e-07
 40
0
 40
0
 40
0
 40
0
 40
1
 40
1
 40
1
 40
1
 10
408.586903
 20
161.161063
 30
0
 10
408.122801
 20
160.893114
 30
0
 10
407.836903
 20
160.397923
 30
0
 10
407.836903
 20
159.862025
 30
0
  0
SPLINE
  5
61
100
AcDbEntity
  8
Body_Slices
  6
ByLayer
 62
    7
370
   -1
100
AcDbSpline
210
0
220
0
230
0
 70
    8
 71
    3
 72
    8
 73
    4
 74
    0
 42
1e-07
 43
1e-07
 40
0
 40
0
 40
0
 40
0
 40
1
 40
1
 40
1
 40
1
 10
407.836903
 20
159.862025
 30
0
 10
407.836903
 20
159.326126
 30
0
 10
408.122801
 20
158.830936
 30
0
 10
408.586903
 20
158.562987
 30
0
  0
LINE
  5
62
100
AcDbEntity
  8
Body_Slices
  6
ByLayer
 62
    7
370
   -1
100
AcDbLine
 10
408.586903
 20
158.562987
 11
425.041387
 21
149.062986
  0
SPLINE
  5
63
100
AcDbEntity
  8
Body_Slices
  6
ByLayer
 62
    7
370
   -1
100
AcDbSpline
210
0
220
0
230
0
 70
    8
 71
    3
 72
    8
 73
    4
 74
    0
 42
1e-07
 43
1e-07
 40
0
 40
0
 40
0
 40
0
 40
1
 40
1
 40
1
 40
1
 10
497.409096
 20
36.240735
 30
0
 10
496.836703
 20
36.571206
 30
0
 10
496.131487
 20
36.571206
 30
0
 10
495.559094
 20
36.240735
 30
0
  0
SPLINE
  5
64
100
AcDbEntity
  8
Body_Slices
  6
ByLayer
 62
    7
370
   -1
100
AcDbSpline
210
0
220
0
230
0
 70
    8
 71
    3
 72
    8
 73
    4
 74
    0
 42
1e-07
 43
1e-07
 40
0
 40
0
 40
0
 40
0
 40
1
 40
1
 40
1
 40
1
 10
495.559094
 20
36.240735
 30
0
 10
494.986702
 20
35.910265
 30
0
 10
494.634094
 20
35.299529
 30
0
 10
494.634094
 20
34.638588
 30
0
  0
SPLINE
  5
65
100
AcDbEntity
  8
Body_Slices
  6
ByLayer
 62
    7
370
   -1
100
AcDbSpline
210
0
220
0
230
0
 70
    8
 71
    3
 72
    8
 73
    4
 74
    0
 42
1e-07
 43
1e-07
 40
0
 40
0
 40
0
 40
0
 40
1
 40
1
 40
1
 40
1
 10
494.634094
 20
34.638588
 30
0
 10
494.634094
 20
33.977646
 30
0
 10
494.986702
 20
33.36691
 30
0
 10
495.559094
 20
33.03644
 30
0
  0
SPLINE
  5
66
100
AcDbEntity
  8
Body_Slices
  6
ByLayer
 62
    7
370
   -1
100
AcDbSpline
210
0
220
0
230
0
 70
    8
 71
    3
 72
    8
 73
    4
 74
    0
 42
1e-07
 43
1e-07
 40
0
 40
0
 40
0
 40
0
 40
1
 40
1
 40
1
 40
1
 10
495.559094
 20
33.03644
 30
0
 10
496.131487
 20
32.705969
 30
0
 10
496.836703
 20
32.705969
 30
0
 10
497.409096
 20
33.03644
 30
0
  0
SPLINE
  5
67
100
AcDbEntity
  8
Body_Slices
  6
ByLayer
 62
    7
370
   -1
100
AcDbSpline
210
0
220
0
230
0
 70
    8
 71
    3
 72
    8
 73
    4
 74
    0
 42
1e-07
 43
1e-07
 40
0
 40
0
 40
0
 40
0
 40
1
 40
1
 40
1
 40
1
 10
497.409096
 20
33.03644
 30
0
 10
497.981488
 20
33.36691
 30
0
 10
498.334096
 20
33.977646
 30
0
 10
498.334096
 20
34.638588
 30
0
  0
SPLINE
  5
68
100
AcDbEntity
  8
Body_Slices
  6
ByLayer
 62
    7
370
   -1
100
AcDbSpline
210
0
220
0
230
0
 70
    8
 71
    3
 72
    8
 73
    4
 74
    0
 42
1e-07
 43
1e-07
 40
0
 40
0
 40
0
 40
0
 40
1
 40
1
 40
1
 40
1
 10
498.334096
 20
34.638588
 30
0
 10
498.334096
 20
35.299529
 30
0
 10
497.981488
 20
35.910265
 30
0
 10
497.409096
 20
36.240735
 30
0
  0
LINE
  5
69
100
AcDbEntity
  8
Body_Slices
  6
ByLayer
 62
    7
370
   -1
100
AcDbLine
 10
497.409096
 20
36.240735
 11
497.409096
 21
36.240735
  0
LINE
  5
6A
100
AcDbEntity
  8
Body_Slices
  6
ByLayer
 62
    7
370
   -1
100
AcDbLine
 10
433.109095
 20
141.518341
 11
478.984095
 21
62.060509
  0
LINE
  5
6B
100
AcDbEntity
  8
Body_Slices
  6
ByLayer
 62
    7
370
   -1
100
AcDbLine
 10
478.984095
 20
62.060509
 11
486.984095
 21
62.060509
  0
LINE
  5
6C
100
AcDbEntity
  8
Body_Slices
  6
ByLayer
 62
    7
370
   -1
100
AcDbLine
 10
486.984095
 20
62.060509
 11
532.859096
 21
141.518342
  0
LINE
  5
6D
100
AcDbEntity
  8
Body_Slices
  6
ByLayer
 62
    7
370
   -1
100
AcDbLine
 10
532.859096
 20
141.518342
 11
528.859096
 21
148.446545
  0
LINE
  5
6E
100
AcDbEntity
  8
Body_Slices
  6
ByLayer
 62
    7
370
   -1
100
AcDbLine
 10
528.859096
 20
148.446545
 11
437.109094
 21
148.446544
  0
LINE
  5
6F
100
AcDbEntity
  8
Body_Slices
  6
ByLayer
 62
    7
370
   -1
100
AcDbLine
 10
437.109094
 20
148.446544
 11
433.109095
 21
141.518341
  0
SPLINE
  5
70
100
AcDbEntity
  8
Body_Slices
  6
ByLayer
 62
    7
370
   -1
100
AcDbSpline
210
0
220
0
230
0
 70
    8
 71
    3
 72
    8
 73
    4
 74
    0
 42
1e-07
 43
1e-07
 40
0
 40
0
 40
0
 40
0
 40
1
 40
1
 40
1
 40
1
 10
405.536013
 20
148.604208
 30
0
 10
404.963621
 20
148.934679
 30
0
 10
404.258405
 20
148.934679
 30
0
 10
403.686013
 20
148.604208
 30
0
  0
SPLINE
  5
71
100
AcDbEntity
  8
Body_Slices
  6
ByLayer
 62
    7
370
   -1
100
AcDbSpline
210
0
220
0
230
0
 70
    8
 71
    3
 72
    8
 73
    4
 74
    0
 42
1e-07
 43
1e-07
 40
0
 40
0
 40
0
 40
0
 40
1
 40
1
 40
1
 40
1
 10
403.686013
 20
148.604208
 30
0
 10
403.113621
 20
148.273737
 30
0
 10
402.761013
 20
147.663002
 30
0
 10
402.761013
 20
147.002061
 30
0
  0
SPLINE
  5
72
100
AcDbEntity
  8
Body_Slices
  6
ByLayer
 62
    7
370
   -1
100
AcDbSpline
210
0
220
0
230
0
 70
    8
 71
    3
 72
    8
 73
    4
 74
    0
 42
1e-07
 43
1e-07
 40
0
 40
0
 40
0
 40
0
 40
1
 40
1
 40
1
 40
1
 10
402.761013
 20
147.002061
 30
0
 10
402.761013
 20
146.34112
 30
0
 10
403.113621
 20
145.730385
 30
0
 10
403.686013
 20
145.399914
 30
0
  0
SPLINE
  5
73
100
AcDbEntity
  8
Body_Slices
  6
ByLayer
 62
    7
370
   -1
100
AcDbSpline
210
0
220
0
230
0
 70
    8
 71
    3
 72
    8
 73
    4
 74
    0
 42
1e-07
 43
1e-07
 40
0
 40
0
 40
0
 40
0
 40
1
 40
1
 40
1
 40
1
 10
403.686013
 20
145.399914
 30
0
 10
404.258405
 20
145.069443
 30
0
 10
404.963621
 20
145.069443
 30
0
 10
405.536013
 20
145.399914
 30
0
  0
SPLINE
  5
74
100
AcDbEntity
  8
Body_Slices
  6
ByLayer
 62
    7
370
   -1
100
AcDbSpline
210
0
220
0
230
0
 70
    8
 71
    3
 72
    8
 73
    4
 74
    0
 42
1e-07
 43
1e-07
 40
0
 40
0
 40
0
 40
0
 40
1
 40
1
 40
1
 40
1
 10
405.536013
 20
145.399914
 30
0
 10
406.108405
 20
145.730385
 30
0
 10
406.461014
 20
146.34112
 30
0
 10
406.461014
 20
147.002061
 30
0
  0
SPLINE
  5
75
100
AcDbEntity
  8
Body_Slices
  6
ByLayer
 62
    7
370
   -1
100
AcDbSpline
210
0
220
0
230
0
 70
    8
 71
    3
 72
    8
 73
    4
 74
    0
 42
1e-07
 43
1e-07
 40
0
 40
0
 40
0
 40
0
 40
1
 40
1
 40
1
 40
1
 10
406.461014
 20
147.002061
 30
0
 10
406.461013
 20
147.663002
 30
0
 10
406.108405
 20
148.273737
 30
0
 10
405.536013
 20
148.604208
 30
0
  0
LINE
  5
76
100
AcDbEntity
  8
Body_Slices
  6
ByLayer
 62
    7
370
   -1
100
AcDbLine
 10
405.536013
 20
148.604208
 11
405.536013
 21
148.604208
  0
SPLINE
  5
77
100
AcDbEntity
  8
Body_Slices
  6
ByLayer
 62
    7
370
   -1
100
AcDbSpline
210
0
220
0
230
0
 70
    8
 71
    3
 72
    8
 73
    4
 74
    0
 42
1e-07
 43
1e-07
 40
0
 40
0
 40
0
 40
0
 40
1
 40
1
 40
1
 40
1
 10
548.782177
 20
171.986894
 30
0
 10
548.209758
 20
172.317789
 30
0
 10
547.504261
 20
172.31804
 30
0
 10
546.931606
 20
171.987554
 30
0
  0
SPLINE
  5
78
100
AcDbEntity
  8
Body_Slices
  6
ByLayer
 62
    7
370
   -1
100
AcDbSpline
210
0
220
0
230
0
 70
    8
 71
    3
 72
    8
 73
    4
 74
    0
 42
1e-07
 43
1e-07
 40
0
 40
0
 40
0
 40
0
 40
1
 40
1
 40
1
 40
1
 10
546.931606
 20
171.987554
 30
0
 10
546.358951
 20
171.657068
 30
0
 10
546.006203
 20
171.046089
 30
0
 10
546.006321
 20
170.384912
 30
0
  0
SPLINE
  5
79
100
AcDbEntity
  8
Body_Slices
  6
ByLayer
 62
    7
370
   -1
100
AcDbSpline
210
0
220
0
230
0
 70
    8
 71
    3
 72
    8
 73
    4
 74
    0
 42
1e-07
 43
1e-07
 40
0
 40
0
 40
0
 40
0
 40
1
 40
1
 40
1
 40
1
 10
546.006321
 20
170.384912
 30
0
 10
546.006438
 20
169.723735
 30
0
 10
546.359405
 20
169.112883
 30
0
 10
546.932178
 20
168.782601
 30
0
  0
SPLINE
  5
7A
100
AcDbEntity
  8
Body_Slices
  6
ByLayer
 62
    7
370
   -1
100
AcDbSpline
210
0
220
0
230
0
 70
    8
 71
    3
 72
    8
 73
    4
 74
    0
 42
1e-07
 43
1e-07
 40
0
 40
0
 40
0
 40
0
 40
1
 40
1
 40
1
 40
1
 10
546.932178
 20
168.782601
 30
0
 10
547.504597
 20
168.451706
 30
0
 10
548.210094
 20
168.451454
 30
0
 10
548.782749
 20
168.781941
 30
0
  0
SPLINE
  5
7B
100
AcDbEntity
  8
Body_Slices
  6
ByLayer
 62
    7
370
   -1
100
AcDbSpline
210
0
220
0
230
0
 70
    8
 71
    3
 72
    8
 73
    4
 74
    0
 42
1e-07
 43
1e-07
 40
0
 40
0
 40
0
 40
0
 40
1
 40
1
 40
1
 40
1
 10
548.782749
 20
168.781941
 30
0
 10
549.355404
 20
169.112427
 30
0
 10
549.708152
 20
169.723405
 30
0
 10
549.708034
 20
170.384582
 30
0
  0
SPLINE
  5
7C
100
AcDbEntity
  8
Body_Slices
  6
ByLayer
 62
    7
370
   -1
100
AcDbSpline
210
0
220
0
230
0
 70
    8
 71
    3
 72
    8
 73
    4
 74
    0
 42
1e-07
 43
1e-07
 40
0
 40
0
 40
0
 40
0
 40
1
 40
1
 40
1
 40
1
 10
549.708034
 20
170.384582
 30
0
 10
549.707916
 20
171.045759
 30
0
 10
549.35495
 20
171.656612
 30
0
 10
548.782177
 20
171.986894
 30
0
  0
LINE
  5
7D
100
AcDbEntity
  8
Body_Slices
  6
ByLayer
 62
    7
370
   -1
100
AcDbLine
 10
548.782177
 20
171.986894
 11
548.782177
 21
171.986894
  0
SPLINE
  5
7E
100
AcDbEntity
  8
Body_Slices
  6
ByLayer
 62
    7
370
   -1
100
AcDbSpline
210
0
220
0
230
0
 70
    8
 71
    3
 72
    8
 73
    4
 74
    0
 42
1e-07
 43
1e-07
 40
0
 40
0
 40
0
 40
0
 40
1
 40
1
 40
1
 40
1
 10
419.036013
 20
171.986894
 30
0
 10
418.463621
 20
172.317365
 30
0
 10
417.758405
 20
172.317365
 30
0
 10
417.186013
 20
171.986894
 30
0
  0
SPLINE
  5
7F
100
AcDbEntity
  8
Body_Slices
  6
ByLayer
 62
    7
370
   -1
100
AcDbSpline
210
0
220
0
230
0
 70
    8
 71
    3
 72
    8
 73
    4
 74
    0
 42
1e-07
 43
1e-07
 40
0
 40
0
 40
0
 40
0
 40
1
 40
1
 40
1
 40
1
 10
417.186013
 20
171.986894
 30
0
 10
416.613621
 20
171.656423
 30
0
 10
416.261013
 20
171.045688
 30
0
 10
416.261013
 20
170.384747
 30
0
  0
SPLINE
  5
80
100
AcDbEntity
  8
Body_Slices
  6
ByLayer
 62
    7
370
   -1
100
AcDbSpline
210
0
220
0
230
0
 70
    8
 71
    3
 72
    8
 73
    4
 74
    0
 42
1e-07
 43
1e-07
 40
0
 40
0
 40
0
 40
0
 40
1
 40
1
 40
1
 40
1
 10
416.261013
 20
170.384747
 30
0
 10
416.261013
 20
169.723806
 30
0
 10
416.613621
 20
169.113071
 30
0
 10
417.186013
 20
168.7826
 30
0
  0
SPLINE
  5
81
100
AcDbEntity
  8
Body_Slices
  6
ByLayer
 62
    7
370
   -1
100
AcDbSpline
210
0
220
0
230
0
 70
    8
 71
    3
 72
    8
 73
    4
 74
    0
 42
1e-07
 43
1e-07
 40
0
 40
0
 40
0
 40
0
 40
1
 40
1
 40
1
 40
1
 10
417.186013
 20
168.7826
 30
0
 10
417.758405
 20
168.452129
 30
0
 10
418.463621
 20
168.452129
 30
0
 10
419.036013
 20
168.7826
 30
0
  0
SPLINE
  5
82
100
AcDbEntity
  8
Body_Slices
  6
ByLayer
 62
    7
370
   -1
100
AcDbSpline
210
0
220
0
230
0
 70
    8
 71
    3
 72
    8
 73
    4
 74
    0
 42
1e-07
 43
1e-07
 40
0
 40
0
 40
0
 40
0
 40
1
 40
1
 40
1
 40
1
 10
419.036013
 20
168.7826
 30
0
 10
419.608405
 20
169.113071
 30
0
 10
419.961013
 20
169.723806
 30
0
 10
419.961013
 20
170.384747
 30
0
  0
SPLINE
  5
83
100
AcDbEntity
  8
Body_Slices
  6
ByLayer
 62
    7
370
   -1
100
AcDbSpline
210
0
220
0
230
0
 70
    8
 71
    3
 72
    8
 73
    4
 74
    0
 42
1e-07
 43
1e-07
 40
0
 40
0
 40
0
 40
0
 40
1
 40
1
 40
1
 40
1
 10
419.961013
 20
170.384747
 30
0
 10
419.961013
 20
171.045688
 30
0
 10
419.608405
 20
171.656423
 30
0
 10
419.036013
 20
171.986894
 30
0
  0
LINE
  5
84
100
AcDbEntity
  8
Body_Slices
  6
ByLayer
 62
    7
370
   -1
100
AcDbLine
 10
419.036013
 20
171.986894
 11
419.036013
 21
171.986894
  0
SPLINE
  5
85
100
AcDbEntity
  8
Body_Slices
  6
ByLayer
 62
    7
370
   -1
100
AcDbSpline
210
0
220
0
230
0
 70
    8
 71
    3
 72
    8
 73
    4
 74
    0
 42
1e-07
 43
1e-07
 40
0
 40
0
 40
0
 40
0
 40
1
 40
1
 40
1
 40
1
 10
562.282177
 20
148.604209
 30
0
 10
561.709785
 20
148.93468
 30
0
 10
561.0045679999999
 20
148.93468
 30
0
 10
560.432176
 20
148.604209
 30
0
  0
SPLINE
  5
86
100
AcDbEntity
  8
Body_Slices
  6
ByLayer
 62
    7
370
   -1
100
AcDbSpline
210
0
220
0
230
0
 70
    8
 71
    3
 72
    8
 73
    4
 74
    0
 42
1e-07
 43
1e-07
 40
0
 40
0
 40
0
 40
0
 40
1
 40
1
 40
1
 40
1
 10
560.432176
 20
148.604209
 30
0
 10
559.859784
 20
148.273738
 30
0
 10
559.507176
 20
147.663003
 30
0
 10
559.507176
 20
147.002061
 30
0
  0
SPLINE
  5
87
100
AcDbEntity
  8
Body_Slices
  6
ByLayer
 62
    7
370
   -1
100
AcDbSpline
210
0
220
0
230
0
 70
    8
 71
    3
 72
    8
 73
    4
 74
    0
 42
1e-07
 43
1e-07
 40
0
 40
0
 40
0
 40
0
 40
1
 40
1
 40
1
 40
1
 10
559.507176
 20
147.002061
 30
0
 10
559.507176
 20
146.341119
 30
0
 10
559.859784
 20
145.730384
 30
0
 10
560.432176
 20
145.399913
 30
0
  0
SPLINE
  5
88
100
AcDbEntity
  8
Body_Slices
  6
ByLayer
 62
    7
370
   -1
100
AcDbSpline
210
0
220
0
230
0
 70
    8
 71
    3
 72
    8
 73
    4
 74
    0
 42
1e-07
 43
1e-07
 40
0
 40
0
 40
0
 40
0
 40
1
 40
1
 40
1
 40
1
 10
560.432176
 20
145.399913
 30
0
 10
561.0045679999999
 20
145.069442
 30
0
 10
561.709785
 20
145.069442
 30
0
 10
562.282177
 20
145.399913
 30
0
  0
SPLINE
  5
89
100
AcDbEntity
  8
Body_Slices
  6
ByLayer
 62
    7
370
   -1
100
AcDbSpline
210
0
220
0
230
0
 70
    8
 71
    3
 72
    8
 73
    4
 74
    0
 42
1e-07
 43
1e-07
 40
0
 40
0
 40
0
 40
0
 40
1
 40
1
 40
1
 40
1
 10
562.282177
 20
145.399913
 30
0
 10
562.854569
 20
145.730384
 30
0
 10
563.207178
 20
146.341119
 30
0
 10
563.207178
 20
147.002061
 30
0
  0
SPLINE
  5
8A
100
AcDbEntity
  8
Body_Slices
  6
ByLayer
 62
    7
370
   -1
100
AcDbSpline
210
0
220
0
230
0
 70
    8
 71
    3
 72
    8
 73
    4
 74
    0
 42
1e-07
 43
1e-07
 40
0
 40
0
 40
0
 40
0
 40
1
 40
1
 40
1
 40
1
 10
563.207178
 20
147.002061
 30
0
 10
563.207178
 20
147.663003
 30
0
 10
562.854569
 20
148.273738
 30
0
 10
562.282177
 20
148.604209
 30
0
  0
LINE
  5
8B
100
AcDbEntity
  8
Body_Slices
  6
ByLayer
 62
    7
370
   -1
100
AcDbLine
 10
562.282177
 20
148.604209
 11
562.282177
 21
148.604209
  0
LINE
  5
8C
100
AcDbEntity
  8
Body_Slices
  6
ByLayer
 62
    7
370
   -1
100
AcDbLine
 10
474.934093
 20
327.817769
 11
491.034093
 21
327.817771
  0
LINE
  5
8D
100
AcDbEntity
  8
Body_Slices
  6
ByLayer
 62
    7
370
   -1
100
AcDbLine
 10
491.034093
 20
327.817771
 11
572.110364
 21
187.389551
  0
LINE
  5
8E
100
AcDbEntity
  8
Body_Slices
  6
ByLayer
 62
    7
370
   -1
100
AcDbLine
 10
572.110364
 20
187.389551
 11
564.0603620000001
 21
173.446543
  0
LINE
  5
8F
100
AcDbEntity
  8
Body_Slices
  6
ByLayer
 62
    7
370
   -1
100
AcDbLine
 10
564.0603620000001
 20
173.446543
 11
401.907823
 21
173.446542
  0
LINE
  5
90
100
AcDbEntity
  8
Body_Slices
  6
ByLayer
 62
    7
370
   -1
100
AcDbLine
 10
401.907823
 20
173.446542
 11
393.857823
 21
187.389552
  0
LINE
  5
91
100
AcDbEntity
  8
Body_Slices
  6
ByLayer
 62
    7
370
   -1
100
AcDbLine
 10
393.857823
 20
187.389552
 11
474.934093
 21
327.817769
  0
SPLINE
  5
92
100
AcDbEntity
  8
Body_Slices
  6
ByLayer
 62
    7
370
   -1
100
AcDbSpline
210
0
220
0
230
0
 70
    8
 71
    3
 72
    8
 73
    4
 74
    0
 42
1e-07
 43
1e-07
 40
0
 40
0
 40
0
 40
0
 40
1
 40
1
 40
1
 40
1
 10
546.932175
 20
178.110486
 30
0
 10
546.359402
 20
177.780203
 30
0
 10
546.006436
 20
177.169351
 30
0
 10
546.006318
 20
176.508174
 30
0
  0
SPLINE
  5
93
100
AcDbEntity
  8
Body_Slices
  6
ByLayer
 62
    7
370
   -1
100
AcDbSpline
210
0
220
0
230
0
 70
    8
 71
    3
 72
    8
 73
    4
 74
    0
 42
1e-07
 43
1e-07
 40
0
 40
0
 40
0
 40
0
 40
1
 40
1
 40
1
 40
1
 10
546.006318
 20
176.508174
 30
0
 10
546.0062
 20
175.846997
 30
0
 10
546.3589490000001
 20
175.236019
 30
0
 10
546.931604
 20
174.905532
 30
0
  0
SPLINE
  5
94
100
AcDbEntity
  8
Body_Slices
  6
ByLayer
 62
    7
370
   -1
100
AcDbSpline
210
0
220
0
230
0
 70
    8
 71
    3
 72
    8
 73
    4
 74
    0
 42
1e-07
 43
1e-07
 40
0
 40
0
 40
0
 40
0
 40
1
 40
1
 40
1
 40
1
 10
546.931604
 20
174.905532
 30
0
 10
547.504259
 20
174.575046
 30
0
 10
548.209756
 20
174.575297
 30
0
 10
548.7821750000001
 20
174.906192
 30
0
  0
SPLINE
  5
95
100
AcDbEntity
  8
Body_Slices
  6
ByLayer
 62
    7
370
   -1
100
AcDbSpline
210
0
220
0
230
0
 70
    8
 71
    3
 72
    8
 73
    4
 74
    0
 42
1e-07
 43
1e-07
 40
0
 40
0
 40
0
 40
0
 40
1
 40
1
 40
1
 40
1
 10
548.7821750000001
 20
174.906192
 30
0
 10
549.354948
 20
175.236474
 30
0
 10
549.707914
 20
175.847327
 30
0
 10
549.708032
 20
176.508504
 30
0
  0
SPLINE
  5
96
100
AcDbEntity
  8
Body_Slices
  6
ByLayer
 62
    7
370
   -1
100
AcDbSpline
210
0
220
0
230
0
 70
    8
 71
    3
 72
    8
 73
    4
 74
    0
 42
1e-07
 43
1e-07
 40
0
 40
0
 40
0
 40
0
 40
1
 40
1
 40
1
 40
1
 10
549.708032
 20
176.508504
 30
0
 10
549.70815
 20
177.169681
 30
0
 10
549.355401
 20
177.780659
 30
0
 10
548.782746
 20
178.111145
 30
0
  0
SPLINE
  5
97
100
AcDbEntity
  8
Body_Slices
  6
ByLayer
 62
    7
370
   -1
100
AcDbSpline
210
0
220
0
230
0
 70
    8
 71
    3
 72
    8
 73
    4
 74
    0
 42
1e-07
 43
1e-07
 40
0
 40
0
 40
0
 40
0
 40
1
 40
1
 40
1
 40
1
 10
548.782746
 20
178.111145
 30
0
 10
548.210091
 20
178.441632
 30
0
 10
547.504594
 20
178.44138
 30
0
 10
546.932175
 20
178.110486
 30
0
  0
LINE
  5
98
100
AcDbEntity
  8
Body_Slices
  6
ByLayer
 62
    7
370
   -1
100
AcDbLine
 10
546.932175
 20
178.110486
 11
546.932175
 21
178.110486
  0
SPLINE
  5
99
100
AcDbEntity
  8
Body_Slices
  6
ByLayer
 62
    7
370
   -1
100
AcDbSpline
210
0
220
0
230
0
 70
    8
 71
    3
 72
    8
 73
    4
 74
    0
 42
1e-07
 43
1e-07
 40
0
 40
0
 40
0
 40
0
 40
1
 40
1
 40
1
 40
1
 10
426.541384
 20
195.232024
 30
0
 10
427.005486
 20
195.499973
 30
0
 10
427.291384
 20
195.995164
 30
0
 10
427.291384
 20
196.531062
 30
0
  0
SPLINE
  5
9A
100
AcDbEntity
  8
Body_Slices
  6
ByLayer
 62
    7
370
   -1
100
AcDbSpline
210
0
220
0
230
0
 70
    8
 71
    3
 72
    8
 73
    4
 74
    0
 42
1e-07
 43
1e-07
 40
0
 40
0
 40
0
 40
0
 40
1
 40
1
 40
1
 40
1
 10
427.291384
 20
196.531062
 30
0
 10
427.291384
 20
197.066961
 30
0
 10
427.005486
 20
197.562151
 30
0
 10
426.541384
 20
197.8301
 30
0
  0
SPLINE
  5
9B
100
AcDbEntity
  8
Body_Slices
  6
ByLayer
 62
    7
370
   -1
100
AcDbSpline
210
0
220
0
230
0
 70
    8
 71
    3
 72
    8
 73
    4
 74
    0
 42
1e-07
 43
1e-07
 40
0
 40
0
 40
0
 40
0
 40
1
 40
1
 40
1
 40
1
 10
426.541384
 20
197.8301
 30
0
 10
426.077283
 20
198.098049
 30
0
 10
425.505486
 20
198.098049
 30
0
 10
425.041384
 20
197.8301
 30
0
  0
LINE
  5
9C
100
AcDbEntity
  8
Body_Slices
  6
ByLayer
 62
    7
370
   -1
100
AcDbLine
 10
425.041384
 20
197.8301
 11
408.5869
 21
188.330099
  0
SPLINE
  5
9D
100
AcDbEntity
  8
Body_Slices
  6
ByLayer
 62
    7
370
   -1
100
AcDbSpline
210
0
220
0
230
0
 70
    8
 71
    3
 72
    8
 73
    4
 74
    0
 42
1e-07
 43
1e-07
 40
0
 40
0
 40
0
 40
0
 40
1
 40
1
 40
1
 40
1
 10
408.5869
 20
188.330099
 30
0
 10
408.122799
 20
188.06215
 30
0
 10
407.8369
 20
187.56696
 30
0
 10
407.8369
 20
187.031061
 30
0
  0
SPLINE
  5
9E
100
AcDbEntity
  8
Body_Slices
  6
ByLayer
 62
    7
370
   -1
100
AcDbSpline
210
0
220
0
230
0
 70
    8
 71
    3
 72
    8
 73
    4
 74
    0
 42
1e-07
 43
1e-07
 40
0
 40
0
 40
0
 40
0
 40
1
 40
1
 40
1
 40
1
 10
407.8369
 20
187.031061
 30
0
 10
407.8369
 20
186.495163
 30
0
 10
408.122799
 20
185.999973
 30
0
 10
408.5869
 20
185.732023
 30
0
  0
SPLINE
  5
9F
100
AcDbEntity
  8
Body_Slices
  6
ByLayer
 62
    7
370
   -1
100
AcDbSpline
210
0
220
0
230
0
 70
    8
 71
    3
 72
    8
 73
    4
 74
    0
 42
1e-07
 43
1e-07
 40
0
 40
0
 40
0
 40
0
 40
1
 40
1
 40
1
 40
1
 10
408.5869
 20
185.732023
 30
0
 10
409.051002
 20
185.464074
 30
0
 10
409.622799
 20
185.464074
 30
0
 10
410.0869
 20
185.732023
 30
0
  0
LINE
  5
A0
100
AcDbEntity
  8
Body_Slices
  6
ByLayer
 62
    7
370
   -1
100
AcDbLine
 10
410.0869
 20
185.732023
 11
426.541384
 21
195.232024
  0
SPLINE
  5
A1
100
AcDbEntity
  8
Body_Slices
  6
ByLayer
 62
    7
370
   -1
100
AcDbSpline
210
0
220
0
230
0
 70
    8
 71
    3
 72
    8
 73
    4
 74
    0
 42
1e-07
 43
1e-07
 40
0
 40
0
 40
0
 40
0
 40
1
 40
1
 40
1
 40
1
 10
560.432174
 20
201.493173
 30
0
 10
559.859781
 20
201.162702
 30
0
 10
559.507173
 20
200.551967
 30
0
 10
559.507173
 20
199.891025
 30
0
  0
SPLINE
  5
A2
100
AcDbEntity
  8
Body_Slices
  6
ByLayer
 62
    7
370
   -1
100
AcDbSpline
210
0
220
0
230
0
 70
    8
 71
    3
 72
    8
 73
    4
 74
    0
 42
1e-07
 43
1e-07
 40
0
 40
0
 40
0
 40
0
 40
1
 40
1
 40
1
 40
1
 10
559.507173
 20
199.891025
 30
0
 10
559.507173
 20
199.230083
 30
0
 10
559.859781
 20
198.619348
 30
0
 10
560.432174
 20
198.288877
 30
0
  0
SPLINE
  5
A3
100
AcDbEntity
  8
Body_Slices
  6
ByLayer
 62
    7
370
   -1
100
AcDbSpline
210
0
220
0
230
0
 70
    8
 71
    3
 72
    8
 73
    4
 74
    0
 42
1e-07
 43
1e-07
 40
0
 40
0
 40
0
 40
0
 40
1
 40
1
 40
1
 40
1
 10
560.432174
 20
198.288877
 30
0
 10
561.004566
 20
197.958406
 30
0
 10
561.709782
 20
197.958406
 30
0
 10
562.2821750000001
 20
198.288877
 30
0
  0
SPLINE
  5
A4
100
AcDbEntity
  8
Body_Slices
  6
ByLayer
 62
    7
370
   -1
100
AcDbSpline
210
0
220
0
230
0
 70
    8
 71
    3
 72
    8
 73
    4
 74
    0
 42
1e-07
 43
1e-07
 40
0
 40
0
 40
0
 40
0
 40
1
 40
1
 40
1
 40
1
 10
562.2821750000001
 20
198.288877
 30
0
 10
562.854567
 20
198.619348
 30
0
 10
563.207175
 20
199.230083
 30
0
 10
563.207175
 20
199.891025
 30
0
  0
SPLINE
  5
A5
100
AcDbEntity
  8
Body_Slices
  6
ByLayer
 62
    7
370
   -1
100
AcDbSpline
210
0
220
0
230
0
 70
    8
 71
    3
 72
    8
 73
    4
 74
    0
 42
1e-07
 43
1e-07
 40
0
 40
0
 40
0
 40
0
 40
1
 40
1
 40
1
 40
1
 10
563.207175
 20
199.891025
 30
0
 10
563.207175
 20
200.551967
 30
0
 10
562.854567
 20
201.162702
 30
0
 10
562.2821750000001
 20
201.493173
 30
0
  0
SPLINE
  5
A6
100
AcDbEntity
  8
Body_Slices
  6
ByLayer
 62
    7
370
   -1
100
AcDbSpline
210
0
220
0
230
0
 70
    8
 71
    3
 72
    8
 73
    4
 74
    0
 42
1e-07
 43
1e-07
 40
0
 40
0
 40
0
 40
0
 40
1
 40
1
 40
1
 40
1
 10
562.2821750000001
 20
201.493173
 30
0
 10
561.709782
 20
201.823644
 30
0
 10
561.004566
 20
201.823644
 30
0
 10
560.432174
 20
201.493173
 30
0
  0
LINE
  5
A7
100
AcDbEntity
  8
Body_Slices
  6
ByLayer
 62
    7
370
   -1
100
AcDbLine
 10
560.432174
 20
201.493173
 11
560.432174
 21
201.493173
  0
LINE
  5
A8
100
AcDbEntity
  8
Body_Slices
  6
ByLayer
 62
    7
370
   -1
100
AcDbLine
 10
437.109092
 20
198.446542
 11
528.859093
 21
198.446542
  0
LINE
  5
A9
100
AcDbEntity
  8
Body_Slices
  6
ByLayer
 62
    7
370
   -1
100
AcDbLine
 10
528.859093
 20
198.446542
 11
532.859093
 21
205.374745
  0
LINE
  5
AA
100
AcDbEntity
  8
Body_Slices
  6
ByLayer
 62
    7
370
   -1
100
AcDbLine
 10
532.859093
 20
205.374745
 11
486.984092
 21
284.832577
  0
LINE
  5
AB
100
AcDbEntity
  8
Body_Slices
  6
ByLayer
 62
    7
370
   -1
100
AcDbLine
 10
486.984092
 20
284.832577
 11
478.984093
 21
284.832577
  0
LINE
  5
AC
100
AcDbEntity
  8
Body_Slices
  6
ByLayer
 62
    7
370
   -1
100
AcDbLine
 10
478.984093
 20
284.832577
 11
433.109092
 21
205.374745
  0
LINE
  5
AD
100
AcDbEntity
  8
Body_Slices
  6
ByLayer
 62
    7
370
   -1
100
AcDbLine
 10
433.109092
 20
205.374745
 11
437.109092
 21
198.446542
  0
SPLINE
  5
AE
100
AcDbEntity
  8
Body_Slices
  6
ByLayer
 62
    7
370
   -1
100
AcDbSpline
210
0
220
0
230
0
 70
    8
 71
    3
 72
    8
 73
    4
 74
    0
 42
1e-07
 43
1e-07
 40
0
 40
0
 40
0
 40
0
 40
1
 40
1
 40
1
 40
1
 10
417.186011
 20
178.110486
 30
0
 10
416.613619
 20
177.780016
 30
0
 10
416.261011
 20
177.169281
 30
0
 10
416.261011
 20
176.508339
 30
0
  0
SPLINE
  5
AF
100
AcDbEntity
  8
Body_Slices
  6
ByLayer
 62
    7
370
   -1
100
AcDbSpline
210
0
220
0
230
0
 70
    8
 71
    3
 72
    8
 73
    4
 74
    0
 42
1e-07
 43
1e-07
 40
0
 40
0
 40
0
 40
0
 40
1
 40
1
 40
1
 40
1
 10
416.261011
 20
176.508339
 30
0
 10
416.261011
 20
175.847398
 30
0
 10
416.613619
 20
175.236663
 30
0
 10
417.186011
 20
174.906192
 30
0
  0
SPLINE
  5
B0
100
AcDbEntity
  8
Body_Slices
  6
ByLayer
 62
    7
370
   -1
100
AcDbSpline
210
0
220
0
230
0
 70
    8
 71
    3
 72
    8
 73
    4
 74
    0
 42
1e-07
 43
1e-07
 40
0
 40
0
 40
0
 40
0
 40
1
 40
1
 40
1
 40
1
 10
417.186011
 20
174.906192
 30
0
 10
417.758403
 20
174.575722
 30
0
 10
418.463619
 20
174.575722
 30
0
 10
419.036011
 20
174.906192
 30
0
  0
SPLINE
  5
B1
100
AcDbEntity
  8
Body_Slices
  6
ByLayer
 62
    7
370
   -1
100
AcDbSpline
210
0
220
0
230
0
 70
    8
 71
    3
 72
    8
 73
    4
 74
    0
 42
1e-07
 43
1e-07
 40
0
 40
0
 40
0
 40
0
 40
1
 40
1
 40
1
 40
1
 10
419.036011
 20
174.906192
 30
0
 10
419.608403
 20
175.236663
 30
0
 10
419.961011
 20
175.847398
 30
0
 10
419.961011
 20
176.508339
 30
0
  0
SPLINE
  5
B2
100
AcDbEntity
  8
Body_Slices
  6
ByLayer
 62
    7
370
   -1
100
AcDbSpline
210
0
220
0
230
0
 70
    8
 71
    3
 72
    8
 73
    4
 74
    0
 42
1e-07
 43
1e-07
 40
0
 40
0
 40
0
 40
0
 40
1
 40
1
 40
1
 40
1
 10
419.961011
 20
176.508339
 30
0
 10
419.961011
 20
177.169281
 30
0
 10
419.608403
 20
177.780016
 30
0
 10
419.036011
 20
178.110486
 30
0
  0
SPLINE
  5
B3
100
AcDbEntity
  8
Body_Slices
  6
ByLayer
 62
    7
370
   -1
100
AcDbSpline
210
0
220
0
230
0
 70
    8
 71
    3
 72
    8
 73
    4
 74
    0
 42
1e-07
 43
1e-07
 40
0
 40
0
 40
0
 40
0
 40
1
 40
1
 40
1
 40
1
 10
419.036011
 20
178.110486
 30
0
 10
418.463619
 20
178.440957
 30
0
 10
417.758403
 20
178.440957
 30
0
 10
417.186011
 20
178.110486
 30
0
  0
LINE
  5
B4
100
AcDbEntity
  8
Body_Slices
  6
ByLayer
 62
    7
370
   -1
100
AcDbLine
 10
417.186011
 20
178.110486
 11
417.186011
 21
178.110486
  0
SPLINE
  5
B5
100
AcDbEntity
  8
Body_Slices
  6
ByLayer
 62
    7
370
   -1
100
AcDbSpline
210
0
220
0
230
0
 70
    8
 71
    3
 72
    8
 73
    4
 74
    0
 42
1e-07
 43
1e-07
 40
0
 40
0
 40
0
 40
0
 40
1
 40
1
 40
1
 40
1
 10
468.559093
 20
313.856646
 30
0
 10
467.98632
 20
313.526364
 30
0
 10
467.633354
 20
312.915512
 30
0
 10
467.633236
 20
312.254335
 30
0
  0
SPLINE
  5
B6
100
AcDbEntity
  8
Body_Slices
  6
ByLayer
 62
    7
370
   -1
100
AcDbSpline
210
0
220
0
230
0
 70
    8
 71
    3
 72
    8
 73
    4
 74
    0
 42
1e-07
 43
1e-07
 40
0
 40
0
 40
0
 40
0
 40
1
 40
1
 40
1
 40
1
 10
467.633236
 20
312.254335
 30
0
 10
467.633118
 20
311.593158
 30
0
 10
467.985866
 20
310.982179
 30
0
 10
468.558521
 20
310.651693
 30
0
  0
SPLINE
  5
B7
100
AcDbEntity
  8
Body_Slices
  6
ByLayer
 62
    7
370
   -1
100
AcDbSpline
210
0
220
0
230
0
 70
    8
 71
    3
 72
    8
 73
    4
 74
    0
 42
1e-07
 43
1e-07
 40
0
 40
0
 40
0
 40
0
 40
1
 40
1
 40
1
 40
1
 10
468.558521
 20
310.651693
 30
0
 10
469.131176
 20
310.321207
 30
0
 10
469.836673
 20
310.321458
 30
0
 10
470.409092
 20
310.652353
 30
0
  0
SPLINE
  5
B8
100
AcDbEntity
  8
Body_Slices
  6
ByLayer
 62
    7
370
   -1
100
AcDbSpline
210
0
220
0
230
0
 70
    8
 71
    3
 72
    8
 73
    4
 74
    0
 42
1e-07
 43
1e-07
 40
0
 40
0
 40
0
 40
0
 40
1
 40
1
 40
1
 40
1
 10
470.409092
 20
310.652353
 30
0
 10
470.981865
 20
310.982635
 30
0
 10
471.334832
 20
311.593488
 30
0
 10
471.334949
 20
312.254665
 30
0
  0
SPLINE
  5
B9
100
AcDbEntity
  8
Body_Slices
  6
ByLayer
 62
    7
370
   -1
100
AcDbSpline
210
0
220
0
230
0
 70
    8
 71
    3
 72
    8
 73
    4
 74
    0
 42
1e-07
 43
1e-07
 40
0
 40
0
 40
0
 40
0
 40
1
 40
1
 40
1
 40
1
 10
471.334949
 20
312.254665
 30
0
 10
471.335067
 20
312.915841
 30
0
 10
470.982319
 20
313.52682
 30
0
 10
470.409664
 20
313.857306
 30
0
  0
SPLINE
  5
BA
100
AcDbEntity
  8
Body_Slices
  6
ByLayer
 62
    7
370
   -1
100
AcDbSpline
210
0
220
0
230
0
 70
    8
 71
    3
 72
    8
 73
    4
 74
    0
 42
1e-07
 43
1e-07
 40
0
 40
0
 40
0
 40
0
 40
1
 40
1
 40
1
 40
1
 10
470.409664
 20
313.857306
 30
0
 10
469.837009
 20
314.187793
 30
0
 10
469.131512
 20
314.187541
 30
0
 10
468.559093
 20
313.856646
 30
0
  0
LINE
  5
BB
100
AcDbEntity
  8
Body_Slices
  6
ByLayer
 62
    7
370
   -1
100
AcDbLine
 10
468.559093
 20
313.856646
 11
468.559093
 21
313.856646
  0
SPLINE
  5
BC
100
AcDbEntity
  8
Body_Slices
  6
ByLayer
 62
    7
370
   -1
100
AcDbSpline
210
0
220
0
230
0
 70
    8
 71
    3
 72
    8
 73
    4
 74
    0
 42
1e-07
 43
1e-07
 40
0
 40
0
 40
0
 40
0
 40
1
 40
1
 40
1
 40
1
 10
403.686011
 20
201.493172
 30
0
 10
403.113619
 20
201.162702
 30
0
 10
402.761011
 20
200.551967
 30
0
 10
402.761011
 20
199.891025
 30
0
  0
SPLINE
  5
BD
100
AcDbEntity
  8
Body_Slices
  6
ByLayer
 62
    7
370
   -1
100
AcDbSpline
210
0
220
0
230
0
 70
    8
 71
    3
 72
    8
 73
    4
 74
    0
 42
1e-07
 43
1e-07
 40
0
 40
0
 40
0
 40
0
 40
1
 40
1
 40
1
 40
1
 10
402.761011
 20
199.891025
 30
0
 10
402.761011
 20
199.230084
 30
0
 10
403.113619
 20
198.619349
 30
0
 10
403.686011
 20
198.288878
 30
0
  0
SPLINE
  5
BE
100
AcDbEntity
  8
Body_Slices
  6
ByLayer
 62
    7
370
   -1
100
AcDbSpline
210
0
220
0
230
0
 70
    8
 71
    3
 72
    8
 73
    4
 74
    0
 42
1e-07
 43
1e-07
 40
0
 40
0
 40
0
 40
0
 40
1
 40
1
 40
1
 40
1
 10
403.686011
 20
198.288878
 30
0
 10
404.258403
 20
197.958408
 30
0
 10
404.963619
 20
197.958408
 30
0
 10
405.536011
 20
198.288878
 30
0
  0
SPLINE
  5
BF
100
AcDbEntity
  8
Body_Slices
  6
ByLayer
 62
    7
370
   -1
100
AcDbSpline
210
0
220
0
230
0
 70
    8
 71
    3
 72
    8
 73
    4
 74
    0
 42
1e-07
 43
1e-07
 40
0
 40
0
 40
0
 40
0
 40
1
 40
1
 40
1
 40
1
 10
405.536011
 20
198.288878
 30
0
 10
406.108403
 20
198.619349
 30
0
 10
406.461011
 20
199.230084
 30
0
 10
406.461011
 20
199.891025
 30
0
  0
SPLINE
  5
C0
100
AcDbEntity
  8
Body_Slices
  6
ByLayer
 62
    7
370
   -1
100
AcDbSpline
210
0
220
0
230
0
 70
    8
 71
    3
 72
    8
 73
    4
 74
    0
 42
1e-07
 43
1e-07
 40
0
 40
0
 40
0
 40
0
 40
1
 40
1
 40
1
 40
1
 10
406.461011
 20
199.891025
 30
0
 10
406.461011
 20
200.551967
 30
0
 10
406.108403
 20
201.162702
 30
0
 10
405.536011
 20
201.493172
 30
0
  0
SPLINE
  5
C1
100
AcDbEntity
  8
Body_Slices
  6
ByLayer
 62
    7
370
   -1
100
AcDbSpline
210
0
220
0
230
0
 70
    8
 71
    3
 72
    8
 73
    4
 74
    0
 42
1e-07
 43
1e-07
 40
0
 40
0
 40
0
 40
0
 40
1
 40
1
 40
1
 40
1
 10
405.536011
 20
201.493172
 30
0
 10
404.963619
 20
201.823643
 30
0
 10
404.258403
 20
201.823643
 30
0
 10
403.686011
 20
201.493172
 30
0
  0
LINE
  5
C2
100
AcDbEntity
  8
Body_Slices
  6
ByLayer
 62
    7
370
   -1
100
AcDbLine
 10
403.686011
 20
201.493172
 11
403.686011
 21
201.493172
  0
SPLINE
  5
C3
100
AcDbEntity
  8
Body_Slices
  6
ByLayer
 62
    7
370
   -1
100
AcDbSpline
210
0
220
0
230
0
 70
    8
 71
    3
 72
    8
 73
    4
 74
    0
 42
1e-07
 43
1e-07
 40
0
 40
0
 40
0
 40
0
 40
1
 40
1
 40
1
 40
1
 10
495.559092
 20
313.856647
 30
0
 10
494.9867
 20
313.526176
 30
0
 10
494.634091
 20
312.91544
 30
0
 10
494.634091
 20
312.254499
 30
0
  0
SPLINE
  5
C4
100
AcDbEntity
  8
Body_Slices
  6
ByLayer
 62
    7
370
   -1
100
AcDbSpline
210
0
220
0
230
0
 70
    8
 71
    3
 72
    8
 73
    4
 74
    0
 42
1e-07
 43
1e-07
 40
0
 40
0
 40
0
 40
0
 40
1
 40
1
 40
1
 40
1
 10
494.634091
 20
312.254499
 30
0
 10
494.634091
 20
311.593557
 30
0
 10
494.9867
 20
310.982822
 30
0
 10
495.559092
 20
310.652351
 30
0
  0
SPLINE
  5
C5
100
AcDbEntity
  8
Body_Slices
  6
ByLayer
 62
    7
370
   -1
100
AcDbSpline
210
0
220
0
230
0
 70
    8
 71
    3
 72
    8
 73
    4
 74
    0
 42
1e-07
 43
1e-07
 40
0
 40
0
 40
0
 40
0
 40
1
 40
1
 40
1
 40
1
 10
495.559092
 20
310.652351
 30
0
 10
496.131484
 20
310.32188
 30
0
 10
496.836701
 20
310.32188
 30
0
 10
497.409093
 20
310.652351
 30
0
  0
SPLINE
  5
C6
100
AcDbEntity
  8
Body_Slices
  6
ByLayer
 62
    7
370
   -1
100
AcDbSpline
210
0
220
0
230
0
 70
    8
 71
    3
 72
    8
 73
    4
 74
    0
 42
1e-07
 43
1e-07
 40
0
 40
0
 40
0
 40
0
 40
1
 40
1
 40
1
 40
1
 10
497.409093
 20
310.652351
 30
0
 10
497.981485
 20
310.982822
 30
0
 10
498.334094
 20
311.593557
 30
0
 10
498.334094
 20
312.254499
 30
0
  0
SPLINE
  5
C7
100
AcDbEntity
  8
Body_Slices
  6
ByLayer
 62
    7
370
   -1
100
AcDbSpline
210
0
220
0
230
0
 70
    8
 71
    3
 72
    8
 73
    4
 74
    0
 42
1e-07
 43
1e-07
 40
0
 40
0
 40
0
 40
0
 40
1
 40
1
 40
1
 40
1
 10
498.334094
 20
312.254499
 30
0
 10
498.334094
 20
312.91544
 30
0
 10
497.981485
 20
313.526176
 30
0
 10
497.409093
 20
313.856647
 30
0
  0
SPLINE
  5
C8
100
AcDbEntity
  8
Body_Slices
  6
ByLayer
 62
    7
370
   -1
100
AcDbSpline
210
0
220
0
230
0
 70
    8
 71
    3
 72
    8
 73
    4
 74
    0
 42
1e-07
 43
1e-07
 40
0
 40
0
 40
0
 40
0
 40
1
 40
1
 40
1
 40
1
 10
497.409093
 20
313.856647
 30
0
 10
496.836701
 20
314.187117
 30
0
 10
496.131484
 20
314.187117
 30
0
 10
495.559092
 20
313.856647
 30
0
  0
LINE
  5
C9
100
AcDbEntity
  8
Body_Slices
  6
ByLayer
 62
    7
370
   -1
100
AcDbLine
 10
495.559092
 20
313.856647
 11
495.559092
 21
313.856647
  0
ENDSEC
  0
SECTION
  2
OBJECTS
  0
DICTIONARY
  5
C
330
0
100
AcDbDictionary
281
    1
  3
ACAD_GROUP
350
D
  0
DICTIONARY
  5
D
330
C
100
AcDbDictionary
281
    1
  0
ENDSEC
  0
EOF
