  0
SECTION
  2
HEADER
  9
$ACADVER
  1
AC1014
  9
$HANDSEED
  5
FFFF
  9
$MEASUREMENT
 70
     1
  0
ENDSEC
  0
SECTION
  2
TABLES
  0
TABLE
  2
VPORT
  5
8
330
0
100
AcDbSymbolTable
 70
     4
  0
VPORT
  5
2E
330
8
100
AcDbSymbolTableRecord
100
AcDbViewportTableRecord
  2
*ACTIVE
 70
     0
 10
0.0
 20
0.0
 11
1.0
 21
1.0
 12
210.0
 22
148.5
 13
0.0
 23
0.0
 14
10.0
 24
10.0
 15
10.0
 25
10.0
 16
0.0
 26
0.0
 36
1.0
 17
0.0
 27
0.0
 37
0.0
 40
341.0
 41
1.24
 42
50.0
 43
0.0
 44
0.0
 50
0.0
 51
0.0
 71
     0
 72
   100
 73
     1
 74
     3
 75
     0
 76
     0
 77
     0
 78
     0
  0
ENDTAB
  0
TABLE
  2
LTYPE
  5
5
330
0
100
AcDbSymbolTable
 70
     1
  0
LTYPE
  5
14
330
5
100
AcDbSymbolTableRecord
100
AcDbLinetypeTableRecord
  2
BYBLOCK
 70
     0
  3

 72
    65
 73
     0
 40
0.0
  0
LTYPE
  5
15
330
5
100
AcDbSymbolTableRecord
100
AcDbLinetypeTableRecord
  2
BYLAYER
 70
     0
  3

 72
    65
 73
     0
 40
0.0
  0
LTYPE
  5
16
330
5
100
AcDbSymbolTableRecord
100
AcDbLinetypeTableRecord
  2
CONTINUOUS
 70
     0
  3
Solid line
 72
    65
 73
     0
 40
0.0
  0
ENDTAB
  0
TABLE
  2
LAYER
  5
2
100
AcDbSymbolTable
 70
2
  0
LAYER
  5
50
100
AcDbSymbolTableRecord
100
AcDbLayerTableRecord
  2
0
 70
0
  6
CONTINUOUS
  0
LAYER
  5
51
100
AcDbSymbolTableRecord
100
AcDbLayerTableRecord
  2
Body_Slices
 70
0
  6
CONTINUOUS
  0
ENDTAB
  0
TABLE
  2
STYLE
  5
3
330
0
100
AcDbSymbolTable
 70
     1
  0
STYLE
  5
11
330
3
100
AcDbSymbolTableRecord
100
AcDbTextStyleTableRecord
  2
STANDARD
 70
     0
 40
0.0
 41
1.0
 50
0.0
 71
     0
 42
2.5
  3
txt
  4

  0
ENDTAB
  0
TABLE
  2
VIEW
  5
6
330
0
100
AcDbSymbolTable
 70
     0
  0
ENDTAB
  0
TABLE
  2
UCS
  5
7
330
0
100
AcDbSymbolTable
 70
     0
  0
ENDTAB
  0
TABLE
  2
APPID
  5
9
330
0
100
AcDbSymbolTable
 70
     2
  0
APPID
  5
12
330
9
100
AcDbSymbolTableRecord
100
AcDbRegAppTableRecord
  2
ACAD
 70
     0
  0
ENDTAB
  0
TABLE
  2
DIMSTYLE
  5
A
330
0
100
AcDbSymbolTable
 70
     1
  0
DIMSTYLE
105
27
330
A
100
AcDbSymbolTableRecord
100
AcDbDimStyleTableRecord
  2
ISO-25
 70
     0
  3

  4

  5

  6

  7

 40
1.0
 41
2.5
 42
0.625
 43
3.75
 44
1.25
 45
0.0
 46
0.0
 47
0.0
 48
0.0
140
2.5
141
2.5
142
0.0
143
0.03937007874016
144
1.0
145
0.0
146
1.0
147
0.625
 71
     0
 72
     0
 73
     0
 74
     0
 75
     0
 76
     0
 77
     1
 78
     8
170
     0
171
     3
172
     1
173
     0
174
     0
175
     0
176
     0
177
     0
178
     0
270
     2
271
     2
272
     2
273
     2
274
     3
340
11
275
     0
280
     0
281
     0
282
     0
283
     0
284
     8
285
     0
286
     0
287
     3
288
     0
  0
ENDTAB
  0
TABLE
  2
BLOCK_RECORD
  5
1
330
0
100
AcDbSymbolTable
 70
     1
  0
BLOCK_RECORD
  5
1F
330
1
100
AcDbSymbolTableRecord
100
AcDbBlockTableRecord
  2
*MODEL_SPACE
  0
BLOCK_RECORD
  5
1B
330
1
100
AcDbSymbolTableRecord
100
AcDbBlockTableRecord
  2
*PAPER_SPACE
  0
ENDTAB
  0
ENDSEC
  0
SECTION
  2
BLOCKS
  0
BLOCK
  5
20
330
1F
100
AcDbEntity
  8
0
100
AcDbBlockBegin
  2
*MODEL_SPACE
 70
     0
 10
0.0
 20
0.0
 30
0.0
  3
*MODEL_SPACE
  1

  0
ENDBLK
  5
21
330
1F
100
AcDbEntity
  8
0
100
AcDbBlockEnd
  0
BLOCK
  5
1C
330
1B
100
AcDbEntity
 67
     1
  8
0
100
AcDbBlockBegin
  2
*PAPER_SPACE
  1

  0
ENDBLK
  5
1D
330
1B
100
AcDbEntity
 67
     1
  8
0
100
AcDbBlockEnd
  0
ENDSEC
  0
SECTION
  2
ENTITIES
  0
LINE
  5
100
100
AcDbEntity
  8
Body_Slices
 62
7
100
AcDbLine
 10
564.060365
 20
173.446543
 30
0.0
 11
572.110366
 21
159.503535
 31
0.0
  0
LINE
  5
101
100
AcDbEntity
  8
Body_Slices
 62
7
100
AcDbLine
 10
572.110366
 20
159.503535
 30
0.0
 11
491.034095
 21
19.075315
 31
0.0
  0
LINE
  5
102
100
AcDbEntity
  8
Body_Slices
 62
7
100
AcDbLine
 10
491.034095
 20
19.075315
 30
0.0
 11
474.934096
 21
19.075317
 31
0.0
  0
LINE
  5
103
100
AcDbEntity
  8
Body_Slices
 62
7
100
AcDbLine
 10
474.934096
 20
19.075317
 30
0.0
 11
393.857826
 21
159.503535
 31
0.0
  0
LINE
  5
104
100
AcDbEntity
  8
Body_Slices
 62
7
100
AcDbLine
 10
393.857826
 20
159.503535
 30
0.0
 11
401.907826
 21
173.446544
 31
0.0
  0
LINE
  5
105
100
AcDbEntity
  8
Body_Slices
 62
7
100
AcDbLine
 10
401.907826
 20
173.446544
 30
0.0
 11
564.060365
 21
173.446543
 31
0.0
  0
SPLINE
  5
106
100
AcDbEntity
  8
Body_Slices
 62
7
100
AcDbSpline
 70
8
 71
3
 72
8
 73
4
 74
0
 40
0
 40
0
 40
0
 40
0
 40
1
 40
1
 40
1
 40
1
 10
470.409095
 20
36.240733
 30
0.0
 10
469.836676
 20
36.571628
 30
0.0
 10
469.131179
 20
36.571880
 30
0.0
 10
468.558524
 20
36.241393
 30
0.0
  0
SPLINE
  5
107
100
AcDbEntity
  8
Body_Slices
 62
7
100
AcDbSpline
 70
8
 71
3
 72
8
 73
4
 74
0
 40
0
 40
0
 40
0
 40
0
 40
1
 40
1
 40
1
 40
1
 10
468.558524
 20
36.241393
 30
0.0
 10
467.985869
 20
35.910907
 30
0.0
 10
467.633120
 20
35.299929
 30
0.0
 10
467.633238
 20
34.638752
 30
0.0
  0
SPLINE
  5
108
100
AcDbEntity
  8
Body_Slices
 62
7
100
AcDbSpline
 70
8
 71
3
 72
8
 73
4
 74
0
 40
0
 40
0
 40
0
 40
0
 40
1
 40
1
 40
1
 40
1
 10
467.633238
 20
34.638752
 30
0.0
 10
467.633356
 20
33.977575
 30
0.0
 10
467.986322
 20
33.366722
 30
0.0
 10
468.559095
 20
33.036440
 30
0.0
  0
SPLINE
  5
109
100
AcDbEntity
  8
Body_Slices
 62
7
100
AcDbSpline
 70
8
 71
3
 72
8
 73
4
 74
0
 40
0
 40
0
 40
0
 40
0
 40
1
 40
1
 40
1
 40
1
 10
468.559095
 20
33.036440
 30
0.0
 10
469.131514
 20
32.705545
 30
0.0
 10
469.837011
 20
32.705294
 30
0.0
 10
470.409666
 20
33.035780
 30
0.0
  0
SPLINE
  5
10a
100
AcDbEntity
  8
Body_Slices
 62
7
100
AcDbSpline
 70
8
 71
3
 72
8
 73
4
 74
0
 40
0
 40
0
 40
0
 40
0
 40
1
 40
1
 40
1
 40
1
 10
470.409666
 20
33.035780
 30
0.0
 10
470.982321
 20
33.366266
 30
0.0
 10
471.335070
 20
33.977245
 30
0.0
 10
471.334952
 20
34.638422
 30
0.0
  0
SPLINE
  5
10b
100
AcDbEntity
  8
Body_Slices
 62
7
100
AcDbSpline
 70
8
 71
3
 72
8
 73
4
 74
0
 40
0
 40
0
 40
0
 40
0
 40
1
 40
1
 40
1
 40
1
 10
471.334952
 20
34.638422
 30
0.0
 10
471.334834
 20
35.299599
 30
0.0
 10
470.981868
 20
35.910451
 30
0.0
 10
470.409095
 20
36.240733
 30
0.0
  0
LINE
  5
10c
100
AcDbEntity
  8
Body_Slices
 62
7
100
AcDbLine
 10
470.409095
 20
36.240733
 30
0.0
 11
470.409095
 21
36.240733
 31
0.0
  0
SPLINE
  5
10d
100
AcDbEntity
  8
Body_Slices
 62
7
100
AcDbSpline
 70
8
 71
3
 72
8
 73
4
 74
0
 40
0
 40
0
 40
0
 40
0
 40
1
 40
1
 40
1
 40
1
 10
425.041387
 20
149.062986
 30
0.0
 10
425.505488
 20
148.795037
 30
0.0
 10
426.077285
 20
148.795037
 30
0.0
 10
426.541387
 20
149.062986
 30
0.0
  0
SPLINE
  5
10e
100
AcDbEntity
  8
Body_Slices
 62
7
100
AcDbSpline
 70
8
 71
3
 72
8
 73
4
 74
0
 40
0
 40
0
 40
0
 40
0
 40
1
 40
1
 40
1
 40
1
 10
426.541387
 20
149.062986
 30
0.0
 10
427.005488
 20
149.330935
 30
0.0
 10
427.291387
 20
149.826126
 30
0.0
 10
427.291387
 20
150.362024
 30
0.0
  0
SPLINE
  5
10f
100
AcDbEntity
  8
Body_Slices
 62
7
100
AcDbSpline
 70
8
 71
3
 72
8
 73
4
 74
0
 40
0
 40
0
 40
0
 40
0
 40
1
 40
1
 40
1
 40
1
 10
427.291387
 20
150.362024
 30
0.0
 10
427.291387
 20
150.897922
 30
0.0
 10
427.005488
 20
151.393113
 30
0.0
 10
426.541387
 20
151.661062
 30
0.0
  0
LINE
  5
110
100
AcDbEntity
  8
Body_Slices
 62
7
100
AcDbLine
 10
426.541387
 20
151.661062
 30
0.0
 11
410.086903
 21
161.161063
 31
0.0
  0
SPLINE
  5
111
100
AcDbEntity
  8
Body_Slices
 62
7
100
AcDbSpline
 70
8
 71
3
 72
8
 73
4
 74
0
 40
0
 40
0
 40
0
 40
0
 40
1
 40
1
 40
1
 40
1
 10
410.086903
 20
161.161063
 30
0.0
 10
409.622801
 20
161.429012
 30
0.0
 10
409.051004
 20
161.429012
 30
0.0
 10
408.586903
 20
161.161063
 30
0.0
  0
SPLINE
  5
112
100
AcDbEntity
  8
Body_Slices
 62
7
100
AcDbSpline
 70
8
 71
3
 72
8
 73
4
 74
0
 40
0
 40
0
 40
0
 40
0
 40
1
 40
1
 40
1
 40
1
 10
408.586903
 20
161.161063
 30
0.0
 10
408.122801
 20
160.893114
 30
0.0
 10
407.836903
 20
160.397923
 30
0.0
 10
407.836903
 20
159.862025
 30
0.0
  0
SPLINE
  5
113
100
AcDbEntity
  8
Body_Slices
 62
7
100
AcDbSpline
 70
8
 71
3
 72
8
 73
4
 74
0
 40
0
 40
0
 40
0
 40
0
 40
1
 40
1
 40
1
 40
1
 10
407.836903
 20
159.862025
 30
0.0
 10
407.836903
 20
159.326126
 30
0.0
 10
408.122801
 20
158.830936
 30
0.0
 10
408.586903
 20
158.562987
 30
0.0
  0
LINE
  5
114
100
AcDbEntity
  8
Body_Slices
 62
7
100
AcDbLine
 10
408.586903
 20
158.562987
 30
0.0
 11
425.041387
 21
149.062986
 31
0.0
  0
SPLINE
  5
115
100
AcDbEntity
  8
Body_Slices
 62
7
100
AcDbSpline
 70
8
 71
3
 72
8
 73
4
 74
0
 40
0
 40
0
 40
0
 40
0
 40
1
 40
1
 40
1
 40
1
 10
497.409096
 20
36.240735
 30
0.0
 10
496.836703
 20
36.571206
 30
0.0
 10
496.131487
 20
36.571206
 30
0.0
 10
495.559094
 20
36.240735
 30
0.0
  0
SPLINE
  5
116
100
AcDbEntity
  8
Body_Slices
 62
7
100
AcDbSpline
 70
8
 71
3
 72
8
 73
4
 74
0
 40
0
 40
0
 40
0
 40
0
 40
1
 40
1
 40
1
 40
1
 10
495.559094
 20
36.240735
 30
0.0
 10
494.986702
 20
35.910265
 30
0.0
 10
494.634094
 20
35.299529
 30
0.0
 10
494.634094
 20
34.638588
 30
0.0
  0
SPLINE
  5
117
100
AcDbEntity
  8
Body_Slices
 62
7
100
AcDbSpline
 70
8
 71
3
 72
8
 73
4
 74
0
 40
0
 40
0
 40
0
 40
0
 40
1
 40
1
 40
1
 40
1
 10
494.634094
 20
34.638588
 30
0.0
 10
494.634094
 20
33.977646
 30
0.0
 10
494.986702
 20
33.366910
 30
0.0
 10
495.559094
 20
33.036440
 30
0.0
  0
SPLINE
  5
118
100
AcDbEntity
  8
Body_Slices
 62
7
100
AcDbSpline
 70
8
 71
3
 72
8
 73
4
 74
0
 40
0
 40
0
 40
0
 40
0
 40
1
 40
1
 40
1
 40
1
 10
495.559094
 20
33.036440
 30
0.0
 10
496.131487
 20
32.705969
 30
0.0
 10
496.836703
 20
32.705969
 30
0.0
 10
497.409096
 20
33.036440
 30
0.0
  0
SPLINE
  5
119
100
AcDbEntity
  8
Body_Slices
 62
7
100
AcDbSpline
 70
8
 71
3
 72
8
 73
4
 74
0
 40
0
 40
0
 40
0
 40
0
 40
1
 40
1
 40
1
 40
1
 10
497.409096
 20
33.036440
 30
0.0
 10
497.981488
 20
33.366910
 30
0.0
 10
498.334096
 20
33.977646
 30
0.0
 10
498.334096
 20
34.638588
 30
0.0
  0
SPLINE
  5
11a
100
AcDbEntity
  8
Body_Slices
 62
7
100
AcDbSpline
 70
8
 71
3
 72
8
 73
4
 74
0
 40
0
 40
0
 40
0
 40
0
 40
1
 40
1
 40
1
 40
1
 10
498.334096
 20
34.638588
 30
0.0
 10
498.334096
 20
35.299529
 30
0.0
 10
497.981488
 20
35.910265
 30
0.0
 10
497.409096
 20
36.240735
 30
0.0
  0
LINE
  5
11b
100
AcDbEntity
  8
Body_Slices
 62
7
100
AcDbLine
 10
497.409096
 20
36.240735
 30
0.0
 11
497.409096
 21
36.240735
 31
0.0
  0
LINE
  5
11c
100
AcDbEntity
  8
Body_Slices
 62
7
100
AcDbLine
 10
433.109095
 20
141.518341
 30
0.0
 11
478.984095
 21
62.060509
 31
0.0
  0
LINE
  5
11d
100
AcDbEntity
  8
Body_Slices
 62
7
100
AcDbLine
 10
478.984095
 20
62.060509
 30
0.0
 11
486.984095
 21
62.060509
 31
0.0
  0
LINE
  5
11e
100
AcDbEntity
  8
Body_Slices
 62
7
100
AcDbLine
 10
486.984095
 20
62.060509
 30
0.0
 11
532.859096
 21
141.518342
 31
0.0
  0
LINE
  5
11f
100
AcDbEntity
  8
Body_Slices
 62
7
100
AcDbLine
 10
532.859096
 20
141.518342
 30
0.0
 11
528.859096
 21
148.446545
 31
0.0
  0
LINE
  5
120
100
AcDbEntity
  8
Body_Slices
 62
7
100
AcDbLine
 10
528.859096
 20
148.446545
 30
0.0
 11
437.109094
 21
148.446544
 31
0.0
  0
LINE
  5
121
100
AcDbEntity
  8
Body_Slices
 62
7
100
AcDbLine
 10
437.109094
 20
148.446544
 30
0.0
 11
433.109095
 21
141.518341
 31
0.0
  0
SPLINE
  5
122
100
AcDbEntity
  8
Body_Slices
 62
7
100
AcDbSpline
 70
8
 71
3
 72
8
 73
4
 74
0
 40
0
 40
0
 40
0
 40
0
 40
1
 40
1
 40
1
 40
1
 10
405.536013
 20
148.604208
 30
0.0
 10
404.963621
 20
148.934679
 30
0.0
 10
404.258405
 20
148.934679
 30
0.0
 10
403.686013
 20
148.604208
 30
0.0
  0
SPLINE
  5
123
100
AcDbEntity
  8
Body_Slices
 62
7
100
AcDbSpline
 70
8
 71
3
 72
8
 73
4
 74
0
 40
0
 40
0
 40
0
 40
0
 40
1
 40
1
 40
1
 40
1
 10
403.686013
 20
148.604208
 30
0.0
 10
403.113621
 20
148.273737
 30
0.0
 10
402.761013
 20
147.663002
 30
0.0
 10
402.761013
 20
147.002061
 30
0.0
  0
SPLINE
  5
124
100
AcDbEntity
  8
Body_Slices
 62
7
100
AcDbSpline
 70
8
 71
3
 72
8
 73
4
 74
0
 40
0
 40
0
 40
0
 40
0
 40
1
 40
1
 40
1
 40
1
 10
402.761013
 20
147.002061
 30
0.0
 10
402.761013
 20
146.341120
 30
0.0
 10
403.113621
 20
145.730385
 30
0.0
 10
403.686013
 20
145.399914
 30
0.0
  0
SPLINE
  5
125
100
AcDbEntity
  8
Body_Slices
 62
7
100
AcDbSpline
 70
8
 71
3
 72
8
 73
4
 74
0
 40
0
 40
0
 40
0
 40
0
 40
1
 40
1
 40
1
 40
1
 10
403.686013
 20
145.399914
 30
0.0
 10
404.258405
 20
145.069443
 30
0.0
 10
404.963621
 20
145.069443
 30
0.0
 10
405.536013
 20
145.399914
 30
0.0
  0
SPLINE
  5
126
100
AcDbEntity
  8
Body_Slices
 62
7
100
AcDbSpline
 70
8
 71
3
 72
8
 73
4
 74
0
 40
0
 40
0
 40
0
 40
0
 40
1
 40
1
 40
1
 40
1
 10
405.536013
 20
145.399914
 30
0.0
 10
406.108405
 20
145.730385
 30
0.0
 10
406.461014
 20
146.341120
 30
0.0
 10
406.461014
 20
147.002061
 30
0.0
  0
SPLINE
  5
127
100
AcDbEntity
  8
Body_Slices
 62
7
100
AcDbSpline
 70
8
 71
3
 72
8
 73
4
 74
0
 40
0
 40
0
 40
0
 40
0
 40
1
 40
1
 40
1
 40
1
 10
406.461014
 20
147.002061
 30
0.0
 10
406.461013
 20
147.663002
 30
0.0
 10
406.108405
 20
148.273737
 30
0.0
 10
405.536013
 20
148.604208
 30
0.0
  0
LINE
  5
128
100
AcDbEntity
  8
Body_Slices
 62
7
100
AcDbLine
 10
405.536013
 20
148.604208
 30
0.0
 11
405.536013
 21
148.604208
 31
0.0
  0
SPLINE
  5
129
100
AcDbEntity
  8
Body_Slices
 62
7
100
AcDbSpline
 70
8
 71
3
 72
8
 73
4
 74
0
 40
0
 40
0
 40
0
 40
0
 40
1
 40
1
 40
1
 40
1
 10
548.782177
 20
171.986894
 30
0.0
 10
548.209758
 20
172.317789
 30
0.0
 10
547.504261
 20
172.318040
 30
0.0
 10
546.931606
 20
171.987554
 30
0.0
  0
SPLINE
  5
12a
100
AcDbEntity
  8
Body_Slices
 62
7
100
AcDbSpline
 70
8
 71
3
 72
8
 73
4
 74
0
 40
0
 40
0
 40
0
 40
0
 40
1
 40
1
 40
1
 40
1
 10
546.931606
 20
171.987554
 30
0.0
 10
546.358951
 20
171.657068
 30
0.0
 10
546.006203
 20
171.046089
 30
0.0
 10
546.006321
 20
170.384912
 30
0.0
  0
SPLINE
  5
12b
100
AcDbEntity
  8
Body_Slices
 62
7
100
AcDbSpline
 70
8
 71
3
 72
8
 73
4
 74
0
 40
0
 40
0
 40
0
 40
0
 40
1
 40
1
 40
1
 40
1
 10
546.006321
 20
170.384912
 30
0.0
 10
546.006438
 20
169.723735
 30
0.0
 10
546.359405
 20
169.112883
 30
0.0
 10
546.932178
 20
168.782601
 30
0.0
  0
SPLINE
  5
12c
100
AcDbEntity
  8
Body_Slices
 62
7
100
AcDbSpline
 70
8
 71
3
 72
8
 73
4
 74
0
 40
0
 40
0
 40
0
 40
0
 40
1
 40
1
 40
1
 40
1
 10
546.932178
 20
168.782601
 30
0.0
 10
547.504597
 20
168.451706
 30
0.0
 10
548.210094
 20
168.451454
 30
0.0
 10
548.782749
 20
168.781941
 30
0.0
  0
SPLINE
  5
12d
100
AcDbEntity
  8
Body_Slices
 62
7
100
AcDbSpline
 70
8
 71
3
 72
8
 73
4
 74
0
 40
0
 40
0
 40
0
 40
0
 40
1
 40
1
 40
1
 40
1
 10
548.782749
 20
168.781941
 30
0.0
 10
549.355404
 20
169.112427
 30
0.0
 10
549.708152
 20
169.723405
 30
0.0
 10
549.708034
 20
170.384582
 30
0.0
  0
SPLINE
  5
12e
100
AcDbEntity
  8
Body_Slices
 62
7
100
AcDbSpline
 70
8
 71
3
 72
8
 73
4
 74
0
 40
0
 40
0
 40
0
 40
0
 40
1
 40
1
 40
1
 40
1
 10
549.708034
 20
170.384582
 30
0.0
 10
549.707916
 20
171.045759
 30
0.0
 10
549.354950
 20
171.656612
 30
0.0
 10
548.782177
 20
171.986894
 30
0.0
  0
LINE
  5
12f
100
AcDbEntity
  8
Body_Slices
 62
7
100
AcDbLine
 10
548.782177
 20
171.986894
 30
0.0
 11
548.782177
 21
171.986894
 31
0.0
  0
SPLINE
  5
130
100
AcDbEntity
  8
Body_Slices
 62
7
100
AcDbSpline
 70
8
 71
3
 72
8
 73
4
 74
0
 40
0
 40
0
 40
0
 40
0
 40
1
 40
1
 40
1
 40
1
 10
419.036013
 20
171.986894
 30
0.0
 10
418.463621
 20
172.317365
 30
0.0
 10
417.758405
 20
172.317365
 30
0.0
 10
417.186013
 20
171.986894
 30
0.0
  0
SPLINE
  5
131
100
AcDbEntity
  8
Body_Slices
 62
7
100
AcDbSpline
 70
8
 71
3
 72
8
 73
4
 74
0
 40
0
 40
0
 40
0
 40
0
 40
1
 40
1
 40
1
 40
1
 10
417.186013
 20
171.986894
 30
0.0
 10
416.613621
 20
171.656423
 30
0.0
 10
416.261013
 20
171.045688
 30
0.0
 10
416.261013
 20
170.384747
 30
0.0
  0
SPLINE
  5
132
100
AcDbEntity
  8
Body_Slices
 62
7
100
AcDbSpline
 70
8
 71
3
 72
8
 73
4
 74
0
 40
0
 40
0
 40
0
 40
0
 40
1
 40
1
 40
1
 40
1
 10
416.261013
 20
170.384747
 30
0.0
 10
416.261013
 20
169.723806
 30
0.0
 10
416.613621
 20
169.113071
 30
0.0
 10
417.186013
 20
168.782600
 30
0.0
  0
SPLINE
  5
133
100
AcDbEntity
  8
Body_Slices
 62
7
100
AcDbSpline
 70
8
 71
3
 72
8
 73
4
 74
0
 40
0
 40
0
 40
0
 40
0
 40
1
 40
1
 40
1
 40
1
 10
417.186013
 20
168.782600
 30
0.0
 10
417.758405
 20
168.452129
 30
0.0
 10
418.463621
 20
168.452129
 30
0.0
 10
419.036013
 20
168.782600
 30
0.0
  0
SPLINE
  5
134
100
AcDbEntity
  8
Body_Slices
 62
7
100
AcDbSpline
 70
8
 71
3
 72
8
 73
4
 74
0
 40
0
 40
0
 40
0
 40
0
 40
1
 40
1
 40
1
 40
1
 10
419.036013
 20
168.782600
 30
0.0
 10
419.608405
 20
169.113071
 30
0.0
 10
419.961013
 20
169.723806
 30
0.0
 10
419.961013
 20
170.384747
 30
0.0
  0
SPLINE
  5
135
100
AcDbEntity
  8
Body_Slices
 62
7
100
AcDbSpline
 70
8
 71
3
 72
8
 73
4
 74
0
 40
0
 40
0
 40
0
 40
0
 40
1
 40
1
 40
1
 40
1
 10
419.961013
 20
170.384747
 30
0.0
 10
419.961013
 20
171.045688
 30
0.0
 10
419.608405
 20
171.656423
 30
0.0
 10
419.036013
 20
171.986894
 30
0.0
  0
LINE
  5
136
100
AcDbEntity
  8
Body_Slices
 62
7
100
AcDbLine
 10
419.036013
 20
171.986894
 30
0.0
 11
419.036013
 21
171.986894
 31
0.0
  0
SPLINE
  5
137
100
AcDbEntity
  8
Body_Slices
 62
7
100
AcDbSpline
 70
8
 71
3
 72
8
 73
4
 74
0
 40
0
 40
0
 40
0
 40
0
 40
1
 40
1
 40
1
 40
1
 10
562.282177
 20
148.604209
 30
0.0
 10
561.709785
 20
148.934680
 30
0.0
 10
561.004568
 20
148.934680
 30
0.0
 10
560.432176
 20
148.604209
 30
0.0
  0
SPLINE
  5
138
100
AcDbEntity
  8
Body_Slices
 62
7
100
AcDbSpline
 70
8
 71
3
 72
8
 73
4
 74
0
 40
0
 40
0
 40
0
 40
0
 40
1
 40
1
 40
1
 40
1
 10
560.432176
 20
148.604209
 30
0.0
 10
559.859784
 20
148.273738
 30
0.0
 10
559.507176
 20
147.663003
 30
0.0
 10
559.507176
 20
147.002061
 30
0.0
  0
SPLINE
  5
139
100
AcDbEntity
  8
Body_Slices
 62
7
100
AcDbSpline
 70
8
 71
3
 72
8
 73
4
 74
0
 40
0
 40
0
 40
0
 40
0
 40
1
 40
1
 40
1
 40
1
 10
559.507176
 20
147.002061
 30
0.0
 10
559.507176
 20
146.341119
 30
0.0
 10
559.859784
 20
145.730384
 30
0.0
 10
560.432176
 20
145.399913
 30
0.0
  0
SPLINE
  5
13a
100
AcDbEntity
  8
Body_Slices
 62
7
100
AcDbSpline
 70
8
 71
3
 72
8
 73
4
 74
0
 40
0
 40
0
 40
0
 40
0
 40
1
 40
1
 40
1
 40
1
 10
560.432176
 20
145.399913
 30
0.0
 10
561.004568
 20
145.069442
 30
0.0
 10
561.709785
 20
145.069442
 30
0.0
 10
562.282177
 20
145.399913
 30
0.0
  0
SPLINE
  5
13b
100
AcDbEntity
  8
Body_Slices
 62
7
100
AcDbSpline
 70
8
 71
3
 72
8
 73
4
 74
0
 40
0
 40
0
 40
0
 40
0
 40
1
 40
1
 40
1
 40
1
 10
562.282177
 20
145.399913
 30
0.0
 10
562.854569
 20
145.730384
 30
0.0
 10
563.207178
 20
146.341119
 30
0.0
 10
563.207178
 20
147.002061
 30
0.0
  0
SPLINE
  5
13c
100
AcDbEntity
  8
Body_Slices
 62
7
100
AcDbSpline
 70
8
 71
3
 72
8
 73
4
 74
0
 40
0
 40
0
 40
0
 40
0
 40
1
 40
1
 40
1
 40
1
 10
563.207178
 20
147.002061
 30
0.0
 10
563.207178
 20
147.663003
 30
0.0
 10
562.854569
 20
148.273738
 30
0.0
 10
562.282177
 20
148.604209
 30
0.0
  0
LINE
  5
13d
100
AcDbEntity
  8
Body_Slices
 62
7
100
AcDbLine
 10
562.282177
 20
148.604209
 30
0.0
 11
562.282177
 21
148.604209
 31
0.0
  0
LINE
  5
13e
100
AcDbEntity
  8
Body_Slices
 62
7
100
AcDbLine
 10
474.934093
 20
327.817769
 30
0.0
 11
491.034093
 21
327.817771
 31
0.0
  0
LINE
  5
13f
100
AcDbEntity
  8
Body_Slices
 62
7
100
AcDbLine
 10
491.034093
 20
327.817771
 30
0.0
 11
572.110364
 21
187.389551
 31
0.0
  0
LINE
  5
140
100
AcDbEntity
  8
Body_Slices
 62
7
100
AcDbLine
 10
572.110364
 20
187.389551
 30
0.0
 11
564.060362
 21
173.446543
 31
0.0
  0
LINE
  5
141
100
AcDbEntity
  8
Body_Slices
 62
7
100
AcDbLine
 10
564.060362
 20
173.446543
 30
0.0
 11
401.907823
 21
173.446542
 31
0.0
  0
LINE
  5
142
100
AcDbEntity
  8
Body_Slices
 62
7
100
AcDbLine
 10
401.907823
 20
173.446542
 30
0.0
 11
393.857823
 21
187.389552
 31
0.0
  0
LINE
  5
143
100
AcDbEntity
  8
Body_Slices
 62
7
100
AcDbLine
 10
393.857823
 20
187.389552
 30
0.0
 11
474.934093
 21
327.817769
 31
0.0
  0
SPLINE
  5
144
100
AcDbEntity
  8
Body_Slices
 62
7
100
AcDbSpline
 70
8
 71
3
 72
8
 73
4
 74
0
 40
0
 40
0
 40
0
 40
0
 40
1
 40
1
 40
1
 40
1
 10
546.932175
 20
178.110486
 30
0.0
 10
546.359402
 20
177.780203
 30
0.0
 10
546.006436
 20
177.169351
 30
0.0
 10
546.006318
 20
176.508174
 30
0.0
  0
SPLINE
  5
145
100
AcDbEntity
  8
Body_Slices
 62
7
100
AcDbSpline
 70
8
 71
3
 72
8
 73
4
 74
0
 40
0
 40
0
 40
0
 40
0
 40
1
 40
1
 40
1
 40
1
 10
546.006318
 20
176.508174
 30
0.0
 10
546.006200
 20
175.846997
 30
0.0
 10
546.358949
 20
175.236019
 30
0.0
 10
546.931604
 20
174.905532
 30
0.0
  0
SPLINE
  5
146
100
AcDbEntity
  8
Body_Slices
 62
7
100
AcDbSpline
 70
8
 71
3
 72
8
 73
4
 74
0
 40
0
 40
0
 40
0
 40
0
 40
1
 40
1
 40
1
 40
1
 10
546.931604
 20
174.905532
 30
0.0
 10
547.504259
 20
174.575046
 30
0.0
 10
548.209756
 20
174.575297
 30
0.0
 10
548.782175
 20
174.906192
 30
0.0
  0
SPLINE
  5
147
100
AcDbEntity
  8
Body_Slices
 62
7
100
AcDbSpline
 70
8
 71
3
 72
8
 73
4
 74
0
 40
0
 40
0
 40
0
 40
0
 40
1
 40
1
 40
1
 40
1
 10
548.782175
 20
174.906192
 30
0.0
 10
549.354948
 20
175.236474
 30
0.0
 10
549.707914
 20
175.847327
 30
0.0
 10
549.708032
 20
176.508504
 30
0.0
  0
SPLINE
  5
148
100
AcDbEntity
  8
Body_Slices
 62
7
100
AcDbSpline
 70
8
 71
3
 72
8
 73
4
 74
0
 40
0
 40
0
 40
0
 40
0
 40
1
 40
1
 40
1
 40
1
 10
549.708032
 20
176.508504
 30
0.0
 10
549.708150
 20
177.169681
 30
0.0
 10
549.355401
 20
177.780659
 30
0.0
 10
548.782746
 20
178.111145
 30
0.0
  0
SPLINE
  5
149
100
AcDbEntity
  8
Body_Slices
 62
7
100
AcDbSpline
 70
8
 71
3
 72
8
 73
4
 74
0
 40
0
 40
0
 40
0
 40
0
 40
1
 40
1
 40
1
 40
1
 10
548.782746
 20
178.111145
 30
0.0
 10
548.210091
 20
178.441632
 30
0.0
 10
547.504594
 20
178.441380
 30
0.0
 10
546.932175
 20
178.110486
 30
0.0
  0
LINE
  5
14a
100
AcDbEntity
  8
Body_Slices
 62
7
100
AcDbLine
 10
546.932175
 20
178.110486
 30
0.0
 11
546.932175
 21
178.110486
 31
0.0
  0
SPLINE
  5
14b
100
AcDbEntity
  8
Body_Slices
 62
7
100
AcDbSpline
 70
8
 71
3
 72
8
 73
4
 74
0
 40
0
 40
0
 40
0
 40
0
 40
1
 40
1
 40
1
 40
1
 10
426.541384
 20
195.232024
 30
0.0
 10
427.005486
 20
195.499973
 30
0.0
 10
427.291384
 20
195.995164
 30
0.0
 10
427.291384
 20
196.531062
 30
0.0
  0
SPLINE
  5
14c
100
AcDbEntity
  8
Body_Slices
 62
7
100
AcDbSpline
 70
8
 71
3
 72
8
 73
4
 74
0
 40
0
 40
0
 40
0
 40
0
 40
1
 40
1
 40
1
 40
1
 10
427.291384
 20
196.531062
 30
0.0
 10
427.291384
 20
197.066961
 30
0.0
 10
427.005486
 20
197.562151
 30
0.0
 10
426.541384
 20
197.830100
 30
0.0
  0
SPLINE
  5
14d
100
AcDbEntity
  8
Body_Slices
 62
7
100
AcDbSpline
 70
8
 71
3
 72
8
 73
4
 74
0
 40
0
 40
0
 40
0
 40
0
 40
1
 40
1
 40
1
 40
1
 10
426.541384
 20
197.830100
 30
0.0
 10
426.077283
 20
198.098049
 30
0.0
 10
425.505486
 20
198.098049
 30
0.0
 10
425.041384
 20
197.830100
 30
0.0
  0
LINE
  5
14e
100
AcDbEntity
  8
Body_Slices
 62
7
100
AcDbLine
 10
425.041384
 20
197.830100
 30
0.0
 11
408.586900
 21
188.330099
 31
0.0
  0
SPLINE
  5
14f
100
AcDbEntity
  8
Body_Slices
 62
7
100
AcDbSpline
 70
8
 71
3
 72
8
 73
4
 74
0
 40
0
 40
0
 40
0
 40
0
 40
1
 40
1
 40
1
 40
1
 10
408.586900
 20
188.330099
 30
0.0
 10
408.122799
 20
188.062150
 30
0.0
 10
407.836900
 20
187.566960
 30
0.0
 10
407.836900
 20
187.031061
 30
0.0
  0
SPLINE
  5
150
100
AcDbEntity
  8
Body_Slices
 62
7
100
AcDbSpline
 70
8
 71
3
 72
8
 73
4
 74
0
 40
0
 40
0
 40
0
 40
0
 40
1
 40
1
 40
1
 40
1
 10
407.836900
 20
187.031061
 30
0.0
 10
407.836900
 20
186.495163
 30
0.0
 10
408.122799
 20
185.999973
 30
0.0
 10
408.586900
 20
185.732023
 30
0.0
  0
SPLINE
  5
151
100
AcDbEntity
  8
Body_Slices
 62
7
100
AcDbSpline
 70
8
 71
3
 72
8
 73
4
 74
0
 40
0
 40
0
 40
0
 40
0
 40
1
 40
1
 40
1
 40
1
 10
408.586900
 20
185.732023
 30
0.0
 10
409.051002
 20
185.464074
 30
0.0
 10
409.622799
 20
185.464074
 30
0.0
 10
410.086900
 20
185.732023
 30
0.0
  0
LINE
  5
152
100
AcDbEntity
  8
Body_Slices
 62
7
100
AcDbLine
 10
410.086900
 20
185.732023
 30
0.0
 11
426.541384
 21
195.232024
 31
0.0
  0
SPLINE
  5
153
100
AcDbEntity
  8
Body_Slices
 62
7
100
AcDbSpline
 70
8
 71
3
 72
8
 73
4
 74
0
 40
0
 40
0
 40
0
 40
0
 40
1
 40
1
 40
1
 40
1
 10
560.432174
 20
201.493173
 30
0.0
 10
559.859781
 20
201.162702
 30
0.0
 10
559.507173
 20
200.551967
 30
0.0
 10
559.507173
 20
199.891025
 30
0.0
  0
SPLINE
  5
154
100
AcDbEntity
  8
Body_Slices
 62
7
100
AcDbSpline
 70
8
 71
3
 72
8
 73
4
 74
0
 40
0
 40
0
 40
0
 40
0
 40
1
 40
1
 40
1
 40
1
 10
559.507173
 20
199.891025
 30
0.0
 10
559.507173
 20
199.230083
 30
0.0
 10
559.859781
 20
198.619348
 30
0.0
 10
560.432174
 20
198.288877
 30
0.0
  0
SPLINE
  5
155
100
AcDbEntity
  8
Body_Slices
 62
7
100
AcDbSpline
 70
8
 71
3
 72
8
 73
4
 74
0
 40
0
 40
0
 40
0
 40
0
 40
1
 40
1
 40
1
 40
1
 10
560.432174
 20
198.288877
 30
0.0
 10
561.004566
 20
197.958406
 30
0.0
 10
561.709782
 20
197.958406
 30
0.0
 10
562.282175
 20
198.288877
 30
0.0
  0
SPLINE
  5
156
100
AcDbEntity
  8
Body_Slices
 62
7
100
AcDbSpline
 70
8
 71
3
 72
8
 73
4
 74
0
 40
0
 40
0
 40
0
 40
0
 40
1
 40
1
 40
1
 40
1
 10
562.282175
 20
198.288877
 30
0.0
 10
562.854567
 20
198.619348
 30
0.0
 10
563.207175
 20
199.230083
 30
0.0
 10
563.207175
 20
199.891025
 30
0.0
  0
SPLINE
  5
157
100
AcDbEntity
  8
Body_Slices
 62
7
100
AcDbSpline
 70
8
 71
3
 72
8
 73
4
 74
0
 40
0
 40
0
 40
0
 40
0
 40
1
 40
1
 40
1
 40
1
 10
563.207175
 20
199.891025
 30
0.0
 10
563.207175
 20
200.551967
 30
0.0
 10
562.854567
 20
201.162702
 30
0.0
 10
562.282175
 20
201.493173
 30
0.0
  0
SPLINE
  5
158
100
AcDbEntity
  8
Body_Slices
 62
7
100
AcDbSpline
 70
8
 71
3
 72
8
 73
4
 74
0
 40
0
 40
0
 40
0
 40
0
 40
1
 40
1
 40
1
 40
1
 10
562.282175
 20
201.493173
 30
0.0
 10
561.709782
 20
201.823644
 30
0.0
 10
561.004566
 20
201.823644
 30
0.0
 10
560.432174
 20
201.493173
 30
0.0
  0
LINE
  5
159
100
AcDbEntity
  8
Body_Slices
 62
7
100
AcDbLine
 10
560.432174
 20
201.493173
 30
0.0
 11
560.432174
 21
201.493173
 31
0.0
  0
LINE
  5
15a
100
AcDbEntity
  8
Body_Slices
 62
7
100
AcDbLine
 10
437.109092
 20
198.446542
 30
0.0
 11
528.859093
 21
198.446542
 31
0.0
  0
LINE
  5
15b
100
AcDbEntity
  8
Body_Slices
 62
7
100
AcDbLine
 10
528.859093
 20
198.446542
 30
0.0
 11
532.859093
 21
205.374745
 31
0.0
  0
LINE
  5
15c
100
AcDbEntity
  8
Body_Slices
 62
7
100
AcDbLine
 10
532.859093
 20
205.374745
 30
0.0
 11
486.984092
 21
284.832577
 31
0.0
  0
LINE
  5
15d
100
AcDbEntity
  8
Body_Slices
 62
7
100
AcDbLine
 10
486.984092
 20
284.832577
 30
0.0
 11
478.984093
 21
284.832577
 31
0.0
  0
LINE
  5
15e
100
AcDbEntity
  8
Body_Slices
 62
7
100
AcDbLine
 10
478.984093
 20
284.832577
 30
0.0
 11
433.109092
 21
205.374745
 31
0.0
  0
LINE
  5
15f
100
AcDbEntity
  8
Body_Slices
 62
7
100
AcDbLine
 10
433.109092
 20
205.374745
 30
0.0
 11
437.109092
 21
198.446542
 31
0.0
  0
SPLINE
  5
160
100
AcDbEntity
  8
Body_Slices
 62
7
100
AcDbSpline
 70
8
 71
3
 72
8
 73
4
 74
0
 40
0
 40
0
 40
0
 40
0
 40
1
 40
1
 40
1
 40
1
 10
417.186011
 20
178.110486
 30
0.0
 10
416.613619
 20
177.780016
 30
0.0
 10
416.261011
 20
177.169281
 30
0.0
 10
416.261011
 20
176.508339
 30
0.0
  0
SPLINE
  5
161
100
AcDbEntity
  8
Body_Slices
 62
7
100
AcDbSpline
 70
8
 71
3
 72
8
 73
4
 74
0
 40
0
 40
0
 40
0
 40
0
 40
1
 40
1
 40
1
 40
1
 10
416.261011
 20
176.508339
 30
0.0
 10
416.261011
 20
175.847398
 30
0.0
 10
416.613619
 20
175.236663
 30
0.0
 10
417.186011
 20
174.906192
 30
0.0
  0
SPLINE
  5
162
100
AcDbEntity
  8
Body_Slices
 62
7
100
AcDbSpline
 70
8
 71
3
 72
8
 73
4
 74
0
 40
0
 40
0
 40
0
 40
0
 40
1
 40
1
 40
1
 40
1
 10
417.186011
 20
174.906192
 30
0.0
 10
417.758403
 20
174.575722
 30
0.0
 10
418.463619
 20
174.575722
 30
0.0
 10
419.036011
 20
174.906192
 30
0.0
  0
SPLINE
  5
163
100
AcDbEntity
  8
Body_Slices
 62
7
100
AcDbSpline
 70
8
 71
3
 72
8
 73
4
 74
0
 40
0
 40
0
 40
0
 40
0
 40
1
 40
1
 40
1
 40
1
 10
419.036011
 20
174.906192
 30
0.0
 10
419.608403
 20
175.236663
 30
0.0
 10
419.961011
 20
175.847398
 30
0.0
 10
419.961011
 20
176.508339
 30
0.0
  0
SPLINE
  5
164
100
AcDbEntity
  8
Body_Slices
 62
7
100
AcDbSpline
 70
8
 71
3
 72
8
 73
4
 74
0
 40
0
 40
0
 40
0
 40
0
 40
1
 40
1
 40
1
 40
1
 10
419.961011
 20
176.508339
 30
0.0
 10
419.961011
 20
177.169281
 30
0.0
 10
419.608403
 20
177.780016
 30
0.0
 10
419.036011
 20
178.110486
 30
0.0
  0
SPLINE
  5
165
100
AcDbEntity
  8
Body_Slices
 62
7
100
AcDbSpline
 70
8
 71
3
 72
8
 73
4
 74
0
 40
0
 40
0
 40
0
 40
0
 40
1
 40
1
 40
1
 40
1
 10
419.036011
 20
178.110486
 30
0.0
 10
418.463619
 20
178.440957
 30
0.0
 10
417.758403
 20
178.440957
 30
0.0
 10
417.186011
 20
178.110486
 30
0.0
  0
LINE
  5
166
100
AcDbEntity
  8
Body_Slices
 62
7
100
AcDbLine
 10
417.186011
 20
178.110486
 30
0.0
 11
417.186011
 21
178.110486
 31
0.0
  0
SPLINE
  5
167
100
AcDbEntity
  8
Body_Slices
 62
7
100
AcDbSpline
 70
8
 71
3
 72
8
 73
4
 74
0
 40
0
 40
0
 40
0
 40
0
 40
1
 40
1
 40
1
 40
1
 10
468.559093
 20
313.856646
 30
0.0
 10
467.986320
 20
313.526364
 30
0.0
 10
467.633354
 20
312.915512
 30
0.0
 10
467.633236
 20
312.254335
 30
0.0
  0
SPLINE
  5
168
100
AcDbEntity
  8
Body_Slices
 62
7
100
AcDbSpline
 70
8
 71
3
 72
8
 73
4
 74
0
 40
0
 40
0
 40
0
 40
0
 40
1
 40
1
 40
1
 40
1
 10
467.633236
 20
312.254335
 30
0.0
 10
467.633118
 20
311.593158
 30
0.0
 10
467.985866
 20
310.982179
 30
0.0
 10
468.558521
 20
310.651693
 30
0.0
  0
SPLINE
  5
169
100
AcDbEntity
  8
Body_Slices
 62
7
100
AcDbSpline
 70
8
 71
3
 72
8
 73
4
 74
0
 40
0
 40
0
 40
0
 40
0
 40
1
 40
1
 40
1
 40
1
 10
468.558521
 20
310.651693
 30
0.0
 10
469.131176
 20
310.321207
 30
0.0
 10
469.836673
 20
310.321458
 30
0.0
 10
470.409092
 20
310.652353
 30
0.0
  0
SPLINE
  5
16a
100
AcDbEntity
  8
Body_Slices
 62
7
100
AcDbSpline
 70
8
 71
3
 72
8
 73
4
 74
0
 40
0
 40
0
 40
0
 40
0
 40
1
 40
1
 40
1
 40
1
 10
470.409092
 20
310.652353
 30
0.0
 10
470.981865
 20
310.982635
 30
0.0
 10
471.334832
 20
311.593488
 30
0.0
 10
471.334949
 20
312.254665
 30
0.0
  0
SPLINE
  5
16b
100
AcDbEntity
  8
Body_Slices
 62
7
100
AcDbSpline
 70
8
 71
3
 72
8
 73
4
 74
0
 40
0
 40
0
 40
0
 40
0
 40
1
 40
1
 40
1
 40
1
 10
471.334949
 20
312.254665
 30
0.0
 10
471.335067
 20
312.915841
 30
0.0
 10
470.982319
 20
313.526820
 30
0.0
 10
470.409664
 20
313.857306
 30
0.0
  0
SPLINE
  5
16c
100
AcDbEntity
  8
Body_Slices
 62
7
100
AcDbSpline
 70
8
 71
3
 72
8
 73
4
 74
0
 40
0
 40
0
 40
0
 40
0
 40
1
 40
1
 40
1
 40
1
 10
470.409664
 20
313.857306
 30
0.0
 10
469.837009
 20
314.187793
 30
0.0
 10
469.131512
 20
314.187541
 30
0.0
 10
468.559093
 20
313.856646
 30
0.0
  0
LINE
  5
16d
100
AcDbEntity
  8
Body_Slices
 62
7
100
AcDbLine
 10
468.559093
 20
313.856646
 30
0.0
 11
468.559093
 21
313.856646
 31
0.0
  0
SPLINE
  5
16e
100
AcDbEntity
  8
Body_Slices
 62
7
100
AcDbSpline
 70
8
 71
3
 72
8
 73
4
 74
0
 40
0
 40
0
 40
0
 40
0
 40
1
 40
1
 40
1
 40
1
 10
403.686011
 20
201.493172
 30
0.0
 10
403.113619
 20
201.162702
 30
0.0
 10
402.761011
 20
200.551967
 30
0.0
 10
402.761011
 20
199.891025
 30
0.0
  0
SPLINE
  5
16f
100
AcDbEntity
  8
Body_Slices
 62
7
100
AcDbSpline
 70
8
 71
3
 72
8
 73
4
 74
0
 40
0
 40
0
 40
0
 40
0
 40
1
 40
1
 40
1
 40
1
 10
402.761011
 20
199.891025
 30
0.0
 10
402.761011
 20
199.230084
 30
0.0
 10
403.113619
 20
198.619349
 30
0.0
 10
403.686011
 20
198.288878
 30
0.0
  0
SPLINE
  5
170
100
AcDbEntity
  8
Body_Slices
 62
7
100
AcDbSpline
 70
8
 71
3
 72
8
 73
4
 74
0
 40
0
 40
0
 40
0
 40
0
 40
1
 40
1
 40
1
 40
1
 10
403.686011
 20
198.288878
 30
0.0
 10
404.258403
 20
197.958408
 30
0.0
 10
404.963619
 20
197.958408
 30
0.0
 10
405.536011
 20
198.288878
 30
0.0
  0
SPLINE
  5
171
100
AcDbEntity
  8
Body_Slices
 62
7
100
AcDbSpline
 70
8
 71
3
 72
8
 73
4
 74
0
 40
0
 40
0
 40
0
 40
0
 40
1
 40
1
 40
1
 40
1
 10
405.536011
 20
198.288878
 30
0.0
 10
406.108403
 20
198.619349
 30
0.0
 10
406.461011
 20
199.230084
 30
0.0
 10
406.461011
 20
199.891025
 30
0.0
  0
SPLINE
  5
172
100
AcDbEntity
  8
Body_Slices
 62
7
100
AcDbSpline
 70
8
 71
3
 72
8
 73
4
 74
0
 40
0
 40
0
 40
0
 40
0
 40
1
 40
1
 40
1
 40
1
 10
406.461011
 20
199.891025
 30
0.0
 10
406.461011
 20
200.551967
 30
0.0
 10
406.108403
 20
201.162702
 30
0.0
 10
405.536011
 20
201.493172
 30
0.0
  0
SPLINE
  5
173
100
AcDbEntity
  8
Body_Slices
 62
7
100
AcDbSpline
 70
8
 71
3
 72
8
 73
4
 74
0
 40
0
 40
0
 40
0
 40
0
 40
1
 40
1
 40
1
 40
1
 10
405.536011
 20
201.493172
 30
0.0
 10
404.963619
 20
201.823643
 30
0.0
 10
404.258403
 20
201.823643
 30
0.0
 10
403.686011
 20
201.493172
 30
0.0
  0
LINE
  5
174
100
AcDbEntity
  8
Body_Slices
 62
7
100
AcDbLine
 10
403.686011
 20
201.493172
 30
0.0
 11
403.686011
 21
201.493172
 31
0.0
  0
SPLINE
  5
175
100
AcDbEntity
  8
Body_Slices
 62
7
100
AcDbSpline
 70
8
 71
3
 72
8
 73
4
 74
0
 40
0
 40
0
 40
0
 40
0
 40
1
 40
1
 40
1
 40
1
 10
495.559092
 20
313.856647
 30
0.0
 10
494.986700
 20
313.526176
 30
0.0
 10
494.634091
 20
312.915440
 30
0.0
 10
494.634091
 20
312.254499
 30
0.0
  0
SPLINE
  5
176
100
AcDbEntity
  8
Body_Slices
 62
7
100
AcDbSpline
 70
8
 71
3
 72
8
 73
4
 74
0
 40
0
 40
0
 40
0
 40
0
 40
1
 40
1
 40
1
 40
1
 10
494.634091
 20
312.254499
 30
0.0
 10
494.634091
 20
311.593557
 30
0.0
 10
494.986700
 20
310.982822
 30
0.0
 10
495.559092
 20
310.652351
 30
0.0
  0
SPLINE
  5
177
100
AcDbEntity
  8
Body_Slices
 62
7
100
AcDbSpline
 70
8
 71
3
 72
8
 73
4
 74
0
 40
0
 40
0
 40
0
 40
0
 40
1
 40
1
 40
1
 40
1
 10
495.559092
 20
310.652351
 30
0.0
 10
496.131484
 20
310.321880
 30
0.0
 10
496.836701
 20
310.321880
 30
0.0
 10
497.409093
 20
310.652351
 30
0.0
  0
SPLINE
  5
178
100
AcDbEntity
  8
Body_Slices
 62
7
100
AcDbSpline
 70
8
 71
3
 72
8
 73
4
 74
0
 40
0
 40
0
 40
0
 40
0
 40
1
 40
1
 40
1
 40
1
 10
497.409093
 20
310.652351
 30
0.0
 10
497.981485
 20
310.982822
 30
0.0
 10
498.334094
 20
311.593557
 30
0.0
 10
498.334094
 20
312.254499
 30
0.0
  0
SPLINE
  5
179
100
AcDbEntity
  8
Body_Slices
 62
7
100
AcDbSpline
 70
8
 71
3
 72
8
 73
4
 74
0
 40
0
 40
0
 40
0
 40
0
 40
1
 40
1
 40
1
 40
1
 10
498.334094
 20
312.254499
 30
0.0
 10
498.334094
 20
312.915440
 30
0.0
 10
497.981485
 20
313.526176
 30
0.0
 10
497.409093
 20
313.856647
 30
0.0
  0
SPLINE
  5
17a
100
AcDbEntity
  8
Body_Slices
 62
7
100
AcDbSpline
 70
8
 71
3
 72
8
 73
4
 74
0
 40
0
 40
0
 40
0
 40
0
 40
1
 40
1
 40
1
 40
1
 10
497.409093
 20
313.856647
 30
0.0
 10
496.836701
 20
314.187117
 30
0.0
 10
496.131484
 20
314.187117
 30
0.0
 10
495.559092
 20
313.856647
 30
0.0
  0
LINE
  5
17b
100
AcDbEntity
  8
Body_Slices
 62
7
100
AcDbLine
 10
495.559092
 20
313.856647
 30
0.0
 11
495.559092
 21
313.856647
 31
0.0
  0
ENDSEC
  0
SECTION
  2
OBJECTS
  0
DICTIONARY
  5
C
330
0
100
AcDbDictionary
  3
ACAD_GROUP
350
D
  3
ACAD_MLINESTYLE
350
17
  0
DICTIONARY
  5
D
330
C
100
AcDbDictionary
  0
DICTIONARY
  5
1A
330
C
100
AcDbDictionary
  0
DICTIONARY
  5
17
330
C
100
AcDbDictionary
  3
STANDARD
350
18
  0
DICTIONARY
  5
19
330
C
100
AcDbDictionary
  0
ENDSEC
  0
EOF
