  0
SECTION
  2
HEADER
  9
$ACADVER
  1
AC1009
  9
$INSBASE
 10
0.0
 20
0.0
 30
0.0
  9
$EXTMIN
 10
0.0
 20
0.0
 30
0.0
  9
$EXTMAX
 10
0.0
 20
0.0
 30
0.0
  0
ENDSEC
  0
SECTION
  2
TABLES
  0
TABLE
  2
VPORT
 70
0
  0
ENDTAB
  0
TABLE
  2
LTYPE
 70
1
  0
LTYPE
  2
CONTINUOUS
 70
0
  3
Solid line
 72
65
 73
0
 40
0.0
  0
ENDTAB
  0
TABLE
  2
LAYER
 70
1
  0
LAYER
  2
0
 70
64
 62
7
  6
continuous
  0
ENDTAB
  0
TABLE
  2
STYLE
 70
1
  0
STYLE
  2
STANDARD
 70
0
 40
0
 41
1.0
 50
0.0
 71
0
 42
1
 3
ARIAL.TTF
 4

  0
ENDTAB
  0
TABLE
  2
VIEW
 70
0
  0
ENDTAB
  0
ENDSEC
  0
SECTION
  2
BLOCKS
  0
BLOCK
  8
Body_Slices
  2
MYLAYER
 70
0
 10
0.0
 20
0.0
 30
0.0
  3
MYLAYER
  0
POLYLINE
  8
Body_Slices
 62
0
 70
1
 66
1
 10
0.0
 20
0.0
 30
0.0
  0
VERTEX
  8
Body_Slices
 10
12.2520825623
 20
47.4882620088
 30
0.0
  0
VERTEX
  8
Body_Slices
 10
47.2520825623
 20
-13.1335162562
 30
0.0
  0
VERTEX
  8
Body_Slices
 10
49.6336524227
 20
-11.7585162562
 30
0.0
  0
VERTEX
  8
Body_Slices
 10
54.7410254038
 20
-20.6047457526
 30
0.0
 42
-0.0491527570221
  0
VERTEX
  8
Body_Slices
 10
55.6313428633
 20
-22.5699884767
 30
0.0
  0
VERTEX
  8
Body_Slices
 10
47.3618548156
 20
-36.8931619279
 30
0.0
 42
-0.0491527570221
  0
VERTEX
  8
Body_Slices
 10
45.2147459622
 20
-37.1047457526
 30
0.0
  0
VERTEX
  8
Body_Slices
 10
35.0
 20
-37.1047457526
 30
0.0
  0
VERTEX
  8
Body_Slices
 10
35.0
 20
-34.3547457526
 30
0.0
  0
VERTEX
  8
Body_Slices
 10
-35.0
 20
-34.3547457526
 30
0.0
  0
VERTEX
  8
Body_Slices
 10
-35.0
 20
-37.1047457526
 30
0.0
  0
VERTEX
  8
Body_Slices
 10
-45.2147459622
 20
-37.1047457526
 30
0.0
 42
-0.57735026919
  0
VERTEX
  8
Body_Slices
 10
-54.7410254038
 20
-20.6047457526
 30
0.0
  0
VERTEX
  8
Body_Slices
 10
-49.6336524227
 20
-11.7585162562
 30
0.0
  0
VERTEX
  8
Body_Slices
 10
-47.2520825623
 20
-13.1335162562
 30
0.0
  0
VERTEX
  8
Body_Slices
 10
-12.2520825623
 20
47.4882620088
 30
0.0
  0
VERTEX
  8
Body_Slices
 10
-14.6336524227
 20
48.8632620088
 30
0.0
  0
VERTEX
  8
Body_Slices
 10
-9.52627944163
 20
57.7094915052
 30
0.0
 42
-0.57735026919
  0
VERTEX
  8
Body_Slices
 10
9.52627944163
 20
57.7094915052
 30
0.0
  0
VERTEX
  8
Body_Slices
 10
14.6336524227
 20
48.8632620088
 30
0.0
  0
SEQEND
  8
Body_Slices
  0
POLYLINE
  8
Body_Slices
 62
0
 70
1
 66
1
 10
0.0
 20
0.0
 30
0.0
  0
VERTEX
  8
Body_Slices
 10
-4.0
 20
55.2812882749
 30
0.0
  0
VERTEX
  8
Body_Slices
 10
-49.875
 20
-24.1765425223
 30
0.0
  0
VERTEX
  8
Body_Slices
 10
-45.875
 20
-31.1047457526
 30
0.0
  0
VERTEX
  8
Body_Slices
 10
45.875
 20
-31.1047457526
 30
0.0
  0
VERTEX
  8
Body_Slices
 10
49.875
 20
-24.1765425223
 30
0.0
  0
VERTEX
  8
Body_Slices
 10
4.0
 20
55.2812882749
 30
0.0
  0
SEQEND
  8
Body_Slices
  0
POLYLINE
  8
Body_Slices
 62
0
 70
1
 66
1
 10
0.0
 20
0.0
 30
0.0
  0
VERTEX
  8
Body_Slices
 10
89.1262701892
 20
-42.1617367517
 30
0.0
  0
VERTEX
  8
Body_Slices
 10
81.0762701892
 20
-56.1047457526
 30
0.0
  0
VERTEX
  8
Body_Slices
 10
-81.0762701892
 20
-56.1047457526
 30
0.0
  0
VERTEX
  8
Body_Slices
 10
-89.1262701892
 20
-42.1617367517
 30
0.0
  0
VERTEX
  8
Body_Slices
 10
-8.05
 20
98.2664825043
 30
0.0
  0
VERTEX
  8
Body_Slices
 10
8.05
 20
98.2664825043
 30
2.22044604925e-16
  0
SEQEND
  8
Body_Slices
  0
CIRCLE
  8
Body_Slices
 62
0
 10
78.3730815495
 20
-29.6602624617
 30
0.0
 40
1.85
  0
POLYLINE
  8
Body_Slices
 62
0
 70
1
 66
1
 10
0.0
 20
0.0
 30
0.0
  0
VERTEX
  8
Body_Slices
 10
-25.8919826719
 20
55.3632620088
 30
0.0
  0
VERTEX
  8
Body_Slices
 10
-28.2735525323
 20
56.7382620088
 30
0.0
  0
VERTEX
  8
Body_Slices
 10
-63.2735525323
 20
-3.88351625616
 30
0.0
  0
VERTEX
  8
Body_Slices
 10
-60.8919826719
 20
-5.25851625616
 30
0.0
  0
VERTEX
  8
Body_Slices
 10
-75.5256350946
 20
-30.6047457526
 30
0.0
 42
0.57735026919
  0
VERTEX
  8
Body_Slices
 10
-64.2673048454
 20
-50.1047457526
 30
0.0
  0
VERTEX
  8
Body_Slices
 10
-35.0
 20
-50.1047457526
 30
0.0
  0
VERTEX
  8
Body_Slices
 10
-35.0
 20
-52.8547457526
 30
0.0
  0
VERTEX
  8
Body_Slices
 10
35.0
 20
-52.8547457526
 30
0.0
  0
VERTEX
  8
Body_Slices
 10
35.0
 20
-50.1047457526
 30
0.0
  0
VERTEX
  8
Body_Slices
 10
64.2673048454
 20
-50.1047457526
 30
0.0
 42
0.0217857447586
  0
VERTEX
  8
Body_Slices
 10
65.3985518202
 20
-50.0554322318
 30
0.0
  0
VERTEX
  8
Body_Slices
 10
68.6882593378
 20
-51.9547457526
 30
0.0
  0
VERTEX
  8
Body_Slices
 10
70.7592171832
 20
-48.3677415441
 30
0.0
 42
0.26833412378
  0
VERTEX
  8
Body_Slices
 10
77.2673014924
 20
-37.0954088605
 30
0.0
  0
VERTEX
  8
Body_Slices
 10
79.3382593378
 20
-33.508404652
 30
0.0
  0
VERTEX
  8
Body_Slices
 10
76.0485518202
 20
-31.6090911312
 30
0.0
 42
0.0217857447586
  0
VERTEX
  8
Body_Slices
 10
75.5256350946
 20
-30.6047457526
 30
0.0
  0
VERTEX
  8
Body_Slices
 10
60.8919826719
 20
-5.25851625616
 30
0.0
  0
VERTEX
  8
Body_Slices
 10
63.2735525323
 20
-3.88351625616
 30
0.0
  0
VERTEX
  8
Body_Slices
 10
28.2735525323
 20
56.7382620088
 30
0.0
  0
VERTEX
  8
Body_Slices
 10
25.8919826719
 20
55.3632620088
 30
0.0
  0
VERTEX
  8
Body_Slices
 10
11.2583302492
 20
80.7094915052
 30
0.0
 42
0.57735026919
  0
VERTEX
  8
Body_Slices
 10
-11.2583302492
 20
80.7094915052
 30
0.0
  0
SEQEND
  8
Body_Slices
  0
CIRCLE
  8
Body_Slices
 62
0
 10
-13.5
 20
82.7032108255
 30
0.0
 40
1.85
  0
CIRCLE
  8
Body_Slices
 62
0
 10
-64.8730815495
 20
-53.0429483639
 30
0.0
 40
1.85
  0
CIRCLE
  8
Body_Slices
 62
0
 10
13.5
 20
82.7032108255
 30
0.0
 40
1.85
  0
CIRCLE
  8
Body_Slices
 62
0
 10
64.8730815495
 20
-53.0429483639
 30
0.0
 40
1.85
  0
CIRCLE
  8
Body_Slices
 62
0
 10
-78.3730815495
 20
-29.6602624617
 30
0.0
 40
1.85
  0
ENDBLK
  0
BLOCK
  8
Body_Slices
  2
MYLAYER005
 70
0
 10
0.0
 20
0.0
 30
0.0
  3
MYLAYER005
  0
POLYLINE
  8
Body_Slices
 62
0
 70
1
 66
1
 10
0.0
 20
0.0
 30
0.0
  0
VERTEX
  8
Body_Slices
 10
455.631350946
 20
117.209491505
 30
0.0
  0
VERTEX
  8
Body_Slices
 10
447.581350946
 20
103.266482504
 30
0.0
  0
VERTEX
  8
Body_Slices
 10
285.428810568
 20
103.266482504
 30
0.0
  0
VERTEX
  8
Body_Slices
 10
277.378810568
 20
117.209491505
 30
0.0
  0
VERTEX
  8
Body_Slices
 10
358.455080757
 20
257.637710761
 30
0.0
  0
VERTEX
  8
Body_Slices
 10
374.555080757
 20
257.637710761
 30
0.0
  0
SEQEND
  8
Body_Slices
  0
POLYLINE
  8
Body_Slices
 62
0
 70
1
 66
1
 10
0.0
 20
0.0
 30
0.0
  0
VERTEX
  8
Body_Slices
 10
365.005080757
 20
225.411680399
 30
0.0
 42
1.0
  0
VERTEX
  8
Body_Slices
 10
368.005080757
 20
225.411680399
 30
0.0
  0
VERTEX
  8
Body_Slices
 10
368.005080757
 20
244.411680399
 30
0.0
 42
1.0
  0
VERTEX
  8
Body_Slices
 10
365.005080757
 20
244.411680399
 30
0.0
  0
SEQEND
  8
Body_Slices
  0
CIRCLE
  8
Body_Slices
 62
0
 10
288.131999207
 20
129.710965795
 30
0.0
 40
1.85
  0
POLYLINE
  8
Body_Slices
 62
0
 70
1
 66
1
 10
0.0
 20
0.0
 30
0.0
  0
VERTEX
  8
Body_Slices
 10
401.505080757
 20
106.516482504
 30
0.0
  0
VERTEX
  8
Body_Slices
 10
401.505080757
 20
125.016482504
 30
0.0
  0
VERTEX
  8
Body_Slices
 10
331.505080757
 20
125.016482504
 30
0.0
  0
VERTEX
  8
Body_Slices
 10
331.505080757
 20
106.516482504
 30
0.0
  0
SEQEND
  8
Body_Slices
  0
CIRCLE
  8
Body_Slices
 62
0
 10
301.631999207
 20
106.328279893
 30
0.0
 40
1.85
  0
POLYLINE
  8
Body_Slices
 62
0
 70
1
 66
1
 10
0.0
 20
0.0
 30
0.0
  0
VERTEX
  8
Body_Slices
 10
413.757163319
 20
146.237712001
 30
0.0
  0
VERTEX
  8
Body_Slices
 10
429.778633289
 20
155.487712001
 30
0.0
  0
VERTEX
  8
Body_Slices
 10
394.778633289
 20
216.109490266
 30
0.0
  0
VERTEX
  8
Body_Slices
 10
378.757163319
 20
206.859490266
 30
0.0
  0
SEQEND
  8
Body_Slices
  0
CIRCLE
  8
Body_Slices
 62
0
 10
353.005080757
 20
242.074439082
 30
0.0
 40
1.85
  0
POLYLINE
  8
Body_Slices
 62
0
 70
1
 66
1
 10
0.0
 20
0.0
 30
0.0
  0
VERTEX
  8
Body_Slices
 10
303.231528225
 20
155.487712001
 30
0.0
  0
VERTEX
  8
Body_Slices
 10
319.252998195
 20
146.237712001
 30
0.0
  0
VERTEX
  8
Body_Slices
 10
354.252998195
 20
206.859490266
 30
0.0
  0
VERTEX
  8
Body_Slices
 10
338.231528225
 20
216.109490266
 30
0.0
  0
SEQEND
  8
Body_Slices
  0
CIRCLE
  8
Body_Slices
 62
0
 10
380.005080757
 20
242.074439082
 30
0.0
 40
1.85
  0
POLYLINE
  8
Body_Slices
 62
0
 70
1
 66
1
 10
0.0
 20
0.0
 30
0.0
  0
VERTEX
  8
Body_Slices
 10
445.843340095
 20
125.862823605
 30
0.0
  0
VERTEX
  8
Body_Slices
 10
423.326679596
 20
138.862823605
 30
0.0
  0
VERTEX
  8
Body_Slices
 10
412.676679596
 20
120.416482504
 30
0.0
  0
VERTEX
  8
Body_Slices
 10
435.193340095
 20
107.416482504
 30
0.0
  0
SEQEND
  8
Body_Slices
  0
CIRCLE
  8
Body_Slices
 62
0
 10
444.878162306
 20
129.710965795
 30
0.0
 40
1.85
  0
POLYLINE
  8
Body_Slices
 62
0
 70
1
 66
1
 10
0.0
 20
0.0
 30
0.0
  0
VERTEX
  8
Body_Slices
 10
362.505080757
 20
214.652516532
 30
0.0
  0
VERTEX
  8
Body_Slices
 10
316.630080757
 20
135.194685735
 30
0.0
  0
VERTEX
  8
Body_Slices
 10
320.630080757
 20
128.266482504
 30
0.0
  0
VERTEX
  8
Body_Slices
 10
412.380080757
 20
128.266482504
 30
0.0
  0
VERTEX
  8
Body_Slices
 10
416.380080757
 20
135.194685735
 30
0.0
  0
VERTEX
  8
Body_Slices
 10
370.505080757
 20
214.652516532
 30
0.0
  0
SEQEND
  8
Body_Slices
  0
CIRCLE
  8
Body_Slices
 62
0
 10
431.378162306
 20
106.328279893
 30
0.0
 40
1.85
  0
ENDBLK
  0
BLOCK
  8
Body_Slices
  2
MYLAYER006
 70
0
 10
0.0
 20
0.0
 30
0.0
  3
MYLAYER006
  0
POLYLINE
  8
Body_Slices
 62
0
 70
1
 66
1
 10
0.0
 20
0.0
 30
0.0
  0
VERTEX
  8
Body_Slices
 10
89.1262701892
 20
276.580719762
 30
0.0
  0
VERTEX
  8
Body_Slices
 10
81.0762701892
 20
262.637710761
 30
0.0
  0
VERTEX
  8
Body_Slices
 10
-81.0762701892
 20
262.637710761
 30
0.0
  0
VERTEX
  8
Body_Slices
 10
-89.1262701892
 20
276.580719762
 30
0.0
  0
VERTEX
  8
Body_Slices
 10
-8.05
 20
417.008939018
 30
0.0
  0
VERTEX
  8
Body_Slices
 10
8.05
 20
417.008939018
 30
0.0
  0
SEQEND
  8
Body_Slices
  0
CIRCLE
  8
Body_Slices
 62
0
 10
-78.3730815495
 20
289.082194052
 30
0.0
 40
1.85
  0
POLYLINE
  8
Body_Slices
 62
0
 70
1
 66
1
 10
0.0
 20
0.0
 30
0.0
  0
VERTEX
  8
Body_Slices
 10
-1.5
 20
384.782908656
 30
0.0
 42
1.0
  0
VERTEX
  8
Body_Slices
 10
1.5
 20
384.782908656
 30
0.0
  0
VERTEX
  8
Body_Slices
 10
1.5
 20
403.782908656
 30
0.0
 42
1.0
  0
VERTEX
  8
Body_Slices
 10
-1.5
 20
403.782908656
 30
0.0
  0
SEQEND
  8
Body_Slices
  0
CIRCLE
  8
Body_Slices
 62
0
 10
-64.8730815495
 20
265.69950815
 30
0.0
 40
1.85
  0
POLYLINE
  8
Body_Slices
 62
0
 70
1
 66
1
 10
0.0
 20
0.0
 30
0.0
  0
VERTEX
  8
Body_Slices
 10
-4.0
 20
374.023744789
 30
0.0
  0
VERTEX
  8
Body_Slices
 10
-49.875
 20
294.565913991
 30
0.0
  0
VERTEX
  8
Body_Slices
 10
-45.875
 20
287.637710761
 30
0.0
  0
VERTEX
  8
Body_Slices
 10
45.875
 20
287.637710761
 30
0.0
  0
VERTEX
  8
Body_Slices
 10
49.875
 20
294.565913991
 30
0.0
  0
VERTEX
  8
Body_Slices
 10
4.0
 20
374.023744789
 30
0.0
  0
SEQEND
  8
Body_Slices
  0
CIRCLE
  8
Body_Slices
 62
0
 10
-13.5
 20
401.445667339
 30
0.0
 40
1.85
  0
CIRCLE
  8
Body_Slices
 62
0
 10
78.3730815495
 20
289.082194052
 30
0.0
 40
1.85
  0
CIRCLE
  8
Body_Slices
 62
0
 10
13.5
 20
401.445667339
 30
0.0
 40
1.85
  0
CIRCLE
  8
Body_Slices
 62
0
 10
64.8730815495
 20
265.69950815
 30
0.0
 40
1.85
  0
ENDBLK
  0
BLOCK
  8
Body_Slices
  2
MYLAYER002
 70
0
 10
0.0
 20
0.0
 30
0.0
  3
MYLAYER002
  0
POLYLINE
  8
Body_Slices
 62
0
 70
1
 66
1
 10
0.0
 20
0.0
 30
0.0
  0
VERTEX
  8
Body_Slices
 10
368.005080757
 20
71.2664825043
 30
0.0
  0
VERTEX
  8
Body_Slices
 10
375.255080757
 20
71.2664825043
 30
0.0
  0
VERTEX
  8
Body_Slices
 10
375.255080757
 20
94.7664825043
 30
0.0
  0
VERTEX
  8
Body_Slices
 10
370.505080757
 20
94.7664825043
 30
0.0
  0
VERTEX
  8
Body_Slices
 10
370.505080757
 20
98.2664825043
 30
0.0
  0
VERTEX
  8
Body_Slices
 10
374.555080757
 20
98.2664825043
 30
8.881784197e-16
  0
VERTEX
  8
Body_Slices
 10
455.631350946
 20
-42.1617367517
 30
0.0
  0
VERTEX
  8
Body_Slices
 10
447.581350946
 20
-56.1047457526
 30
0.0
  0
VERTEX
  8
Body_Slices
 10
285.428810568
 20
-56.1047457526
 30
0.0
  0
VERTEX
  8
Body_Slices
 10
277.378810568
 20
-42.1617367517
 30
0.0
  0
VERTEX
  8
Body_Slices
 10
358.455080757
 20
98.2664825043
 30
0.0
  0
VERTEX
  8
Body_Slices
 10
362.505080757
 20
98.2664825043
 30
0.0
  0
VERTEX
  8
Body_Slices
 10
362.505080757
 20
94.7664825043
 30
0.0
  0
VERTEX
  8
Body_Slices
 10
357.755080757
 20
94.7664825043
 30
0.0
  0
VERTEX
  8
Body_Slices
 10
357.755080757
 20
71.2664825043
 30
0.0
  0
VERTEX
  8
Body_Slices
 10
365.005080757
 20
71.2664825043
 30
0.0
  0
VERTEX
  8
Body_Slices
 10
365.005080757
 20
66.0404521425
 30
0.0
 42
1.0
  0
VERTEX
  8
Body_Slices
 10
368.005080757
 20
66.0404521425
 30
0.0
  0
SEQEND
  8
Body_Slices
  0
POLYLINE
  8
Body_Slices
 62
0
 70
1
 66
1
 10
0.0
 20
0.0
 30
0.0
  0
VERTEX
  8
Body_Slices
 10
445.843340095
 20
-33.508404652
 30
0.0
  0
VERTEX
  8
Body_Slices
 10
423.326679596
 20
-20.508404652
 30
0.0
  0
VERTEX
  8
Body_Slices
 10
412.676679596
 20
-38.9547457526
 30
0.0
  0
VERTEX
  8
Body_Slices
 10
435.193340095
 20
-51.9547457526
 30
0.0
  0
SEQEND
  8
Body_Slices
  0
CIRCLE
  8
Body_Slices
 62
0
 10
431.378162306
 20
-53.0429483639
 30
0.0
 40
1.85
  0
CIRCLE
  8
Body_Slices
 62
0
 10
301.631999207
 20
-53.0429483639
 30
0.0
 40
1.85
  0
POLYLINE
  8
Body_Slices
 62
0
 70
1
 66
1
 10
0.0
 20
0.0
 30
0.0
  0
VERTEX
  8
Body_Slices
 10
401.505080757
 20
-52.8547457526
 30
0.0
  0
VERTEX
  8
Body_Slices
 10
401.505080757
 20
-34.3547457526
 30
0.0
  0
VERTEX
  8
Body_Slices
 10
331.505080757
 20
-34.3547457526
 30
0.0
  0
VERTEX
  8
Body_Slices
 10
331.505080757
 20
-52.8547457526
 30
0.0
  0
SEQEND
  8
Body_Slices
  0
POLYLINE
  8
Body_Slices
 62
0
 70
1
 66
1
 10
0.0
 20
0.0
 30
0.0
  0
VERTEX
  8
Body_Slices
 10
362.505080757
 20
55.2812882749
 30
0.0
  0
VERTEX
  8
Body_Slices
 10
316.630080757
 20
-24.1765425223
 30
0.0
  0
VERTEX
  8
Body_Slices
 10
320.630080757
 20
-31.1047457526
 30
0.0
  0
VERTEX
  8
Body_Slices
 10
412.380080757
 20
-31.1047457526
 30
0.0
  0
VERTEX
  8
Body_Slices
 10
416.380080757
 20
-24.1765425223
 30
0.0
  0
VERTEX
  8
Body_Slices
 10
370.505080757
 20
55.2812882749
 30
0.0
  0
SEQEND
  8
Body_Slices
  0
POLYLINE
  8
Body_Slices
 62
0
 70
1
 66
1
 10
0.0
 20
0.0
 30
0.0
  0
VERTEX
  8
Body_Slices
 10
413.757163319
 20
-13.1335162562
 30
0.0
  0
VERTEX
  8
Body_Slices
 10
429.778633289
 20
-3.88351625616
 30
0.0
  0
VERTEX
  8
Body_Slices
 10
394.778633289
 20
56.7382620088
 30
0.0
  0
VERTEX
  8
Body_Slices
 10
378.757163319
 20
47.4882620088
 30
0.0
  0
SEQEND
  8
Body_Slices
  0
POLYLINE
  8
Body_Slices
 62
0
 70
1
 66
1
 10
0.0
 20
0.0
 30
0.0
  0
VERTEX
  8
Body_Slices
 10
303.231528225
 20
-3.88351625616
 30
0.0
  0
VERTEX
  8
Body_Slices
 10
319.252998195
 20
-13.1335162562
 30
0.0
  0
VERTEX
  8
Body_Slices
 10
354.252998195
 20
47.4882620088
 30
0.0
  0
VERTEX
  8
Body_Slices
 10
338.231528225
 20
56.7382620088
 30
0.0
  0
SEQEND
  8
Body_Slices
  0
CIRCLE
  8
Body_Slices
 62
0
 10
444.878162306
 20
-29.6602624617
 30
0.0
 40
1.85
  0
CIRCLE
  8
Body_Slices
 62
0
 10
288.131999207
 20
-29.6602624617
 30
0.0
 40
1.85
  0
CIRCLE
  8
Body_Slices
 62
0
 10
353.005080757
 20
82.7032108255
 30
0.0
 40
1.85
  0
CIRCLE
  8
Body_Slices
 62
0
 10
380.005080757
 20
82.7032108255
 30
0.0
 40
1.85
  0
ENDBLK
  0
BLOCK
  8
Body_Slices
  2
MYLAYER004
 70
0
 10
0.0
 20
0.0
 30
0.0
  3
MYLAYER004
  0
POLYLINE
  8
Body_Slices
 62
0
 70
1
 66
1
 10
0.0
 20
0.0
 30
0.0
  0
VERTEX
  8
Body_Slices
 10
272.378810568
 20
117.209491505
 30
0.0
  0
VERTEX
  8
Body_Slices
 10
264.328810568
 20
103.266482504
 30
0.0
  0
VERTEX
  8
Body_Slices
 10
102.176270189
 20
103.266482504
 30
0.0
  0
VERTEX
  8
Body_Slices
 10
94.1262701892
 20
117.209491505
 30
0.0
  0
VERTEX
  8
Body_Slices
 10
175.202540378
 20
257.637710761
 30
0.0
  0
VERTEX
  8
Body_Slices
 10
191.302540378
 20
257.637710761
 30
1.7763568394e-15
  0
SEQEND
  8
Body_Slices
  0
POLYLINE
  8
Body_Slices
 62
0
 70
1
 66
1
 10
0.0
 20
0.0
 30
0.0
  0
VERTEX
  8
Body_Slices
 10
181.752540378
 20
225.411680399
 30
0.0
 42
1.0
  0
VERTEX
  8
Body_Slices
 10
184.752540378
 20
225.411680399
 30
0.0
  0
VERTEX
  8
Body_Slices
 10
184.752540378
 20
244.411680399
 30
0.0
 42
1.0
  0
VERTEX
  8
Body_Slices
 10
181.752540378
 20
244.411680399
 30
0.0
  0
SEQEND
  8
Body_Slices
  0
CIRCLE
  8
Body_Slices
 62
0
 10
104.879458829
 20
129.710965795
 30
0.0
 40
1.85
  0
POLYLINE
  8
Body_Slices
 62
0
 70
1
 66
1
 10
0.0
 20
0.0
 30
0.0
  0
VERTEX
  8
Body_Slices
 10
218.252540378
 20
106.516482504
 30
0.0
  0
VERTEX
  8
Body_Slices
 10
218.252540378
 20
125.016482504
 30
0.0
  0
VERTEX
  8
Body_Slices
 10
148.252540378
 20
125.016482504
 30
0.0
  0
VERTEX
  8
Body_Slices
 10
148.252540378
 20
106.516482504
 30
0.0
  0
SEQEND
  8
Body_Slices
  0
CIRCLE
  8
Body_Slices
 62
0
 10
118.379458829
 20
106.328279893
 30
0.0
 40
1.85
  0
POLYLINE
  8
Body_Slices
 62
0
 70
1
 66
1
 10
0.0
 20
0.0
 30
0.0
  0
VERTEX
  8
Body_Slices
 10
230.504622941
 20
146.237712001
 30
0.0
  0
VERTEX
  8
Body_Slices
 10
246.526092911
 20
155.487712001
 30
0.0
  0
VERTEX
  8
Body_Slices
 10
211.526092911
 20
216.109490266
 30
0.0
  0
VERTEX
  8
Body_Slices
 10
195.504622941
 20
206.859490266
 30
0.0
  0
SEQEND
  8
Body_Slices
  0
CIRCLE
  8
Body_Slices
 62
0
 10
169.752540378
 20
242.074439082
 30
0.0
 40
1.85
  0
POLYLINE
  8
Body_Slices
 62
0
 70
1
 66
1
 10
0.0
 20
0.0
 30
0.0
  0
VERTEX
  8
Body_Slices
 10
119.978987846
 20
155.487712001
 30
0.0
  0
VERTEX
  8
Body_Slices
 10
136.000457816
 20
146.237712001
 30
0.0
  0
VERTEX
  8
Body_Slices
 10
171.000457816
 20
206.859490266
 30
0.0
  0
VERTEX
  8
Body_Slices
 10
154.978987846
 20
216.109490266
 30
0.0
  0
SEQEND
  8
Body_Slices
  0
CIRCLE
  8
Body_Slices
 62
0
 10
196.752540378
 20
242.074439082
 30
0.0
 40
1.85
  0
POLYLINE
  8
Body_Slices
 62
0
 70
1
 66
1
 10
0.0
 20
0.0
 30
0.0
  0
VERTEX
  8
Body_Slices
 10
262.590799716
 20
125.862823605
 30
0.0
  0
VERTEX
  8
Body_Slices
 10
240.074139218
 20
138.862823605
 30
0.0
  0
VERTEX
  8
Body_Slices
 10
229.424139218
 20
120.416482504
 30
0.0
  0
VERTEX
  8
Body_Slices
 10
251.940799716
 20
107.416482504
 30
0.0
  0
SEQEND
  8
Body_Slices
  0
CIRCLE
  8
Body_Slices
 62
0
 10
261.625621928
 20
129.710965795
 30
0.0
 40
1.85
  0
POLYLINE
  8
Body_Slices
 62
0
 70
1
 66
1
 10
0.0
 20
0.0
 30
0.0
  0
VERTEX
  8
Body_Slices
 10
179.252540378
 20
214.652516532
 30
0.0
  0
VERTEX
  8
Body_Slices
 10
133.377540378
 20
135.194685735
 30
0.0
  0
VERTEX
  8
Body_Slices
 10
137.377540378
 20
128.266482504
 30
0.0
  0
VERTEX
  8
Body_Slices
 10
229.127540378
 20
128.266482504
 30
0.0
  0
VERTEX
  8
Body_Slices
 10
233.127540378
 20
135.194685735
 30
0.0
  0
VERTEX
  8
Body_Slices
 10
187.252540378
 20
214.652516532
 30
0.0
  0
SEQEND
  8
Body_Slices
  0
CIRCLE
  8
Body_Slices
 62
0
 10
248.125621928
 20
106.328279893
 30
0.0
 40
1.85
  0
ENDBLK
  0
BLOCK
  8
Body_Slices
  2
MYLAYER001
 70
0
 10
0.0
 20
0.0
 30
0.0
  3
MYLAYER001
  0
POLYLINE
  8
Body_Slices
 62
0
 70
1
 66
1
 10
0.0
 20
0.0
 30
0.0
  0
VERTEX
  8
Body_Slices
 10
195.504622941
 20
47.4882620088
 30
0.0
  0
VERTEX
  8
Body_Slices
 10
230.504622941
 20
-13.1335162562
 30
0.0
  0
VERTEX
  8
Body_Slices
 10
232.886192801
 20
-11.7585162562
 30
0.0
  0
VERTEX
  8
Body_Slices
 10
237.993565782
 20
-20.6047457526
 30
0.0
 42
-0.0491527570221
  0
VERTEX
  8
Body_Slices
 10
238.883883242
 20
-22.5699884767
 30
0.0
  0
VERTEX
  8
Body_Slices
 10
230.614395194
 20
-36.8931619279
 30
0.0
 42
-0.0491527570221
  0
VERTEX
  8
Body_Slices
 10
228.467286341
 20
-37.1047457526
 30
0.0
  0
VERTEX
  8
Body_Slices
 10
218.252540378
 20
-37.1047457526
 30
0.0
  0
VERTEX
  8
Body_Slices
 10
218.252540378
 20
-34.3547457526
 30
0.0
  0
VERTEX
  8
Body_Slices
 10
148.252540378
 20
-34.3547457526
 30
0.0
  0
VERTEX
  8
Body_Slices
 10
148.252540378
 20
-37.1047457526
 30
0.0
  0
VERTEX
  8
Body_Slices
 10
138.037794416
 20
-37.1047457526
 30
0.0
 42
-0.57735026919
  0
VERTEX
  8
Body_Slices
 10
128.511514975
 20
-20.6047457526
 30
0.0
  0
VERTEX
  8
Body_Slices
 10
133.618887956
 20
-11.7585162562
 30
0.0
  0
VERTEX
  8
Body_Slices
 10
136.000457816
 20
-13.1335162562
 30
0.0
  0
VERTEX
  8
Body_Slices
 10
171.000457816
 20
47.4882620088
 30
0.0
  0
VERTEX
  8
Body_Slices
 10
168.618887956
 20
48.8632620088
 30
0.0
  0
VERTEX
  8
Body_Slices
 10
173.726260937
 20
57.7094915052
 30
0.0
 42
-0.57735026919
  0
VERTEX
  8
Body_Slices
 10
192.77881982
 20
57.7094915052
 30
0.0
  0
VERTEX
  8
Body_Slices
 10
197.886192801
 20
48.8632620088
 30
0.0
  0
SEQEND
  8
Body_Slices
  0
POLYLINE
  8
Body_Slices
 62
0
 70
1
 66
1
 10
0.0
 20
0.0
 30
0.0
  0
VERTEX
  8
Body_Slices
 10
179.252540378
 20
55.2812882749
 30
0.0
  0
VERTEX
  8
Body_Slices
 10
133.377540378
 20
-24.1765425223
 30
0.0
  0
VERTEX
  8
Body_Slices
 10
137.377540378
 20
-31.1047457526
 30
0.0
  0
VERTEX
  8
Body_Slices
 10
229.127540378
 20
-31.1047457526
 30
0.0
  0
VERTEX
  8
Body_Slices
 10
233.127540378
 20
-24.1765425223
 30
0.0
  0
VERTEX
  8
Body_Slices
 10
187.252540378
 20
55.2812882749
 30
0.0
  0
SEQEND
  8
Body_Slices
  0
POLYLINE
  8
Body_Slices
 62
0
 70
1
 66
1
 10
0.0
 20
0.0
 30
0.0
  0
VERTEX
  8
Body_Slices
 10
272.378810568
 20
-42.1617367517
 30
0.0
  0
VERTEX
  8
Body_Slices
 10
264.328810568
 20
-56.1047457526
 30
0.0
  0
VERTEX
  8
Body_Slices
 10
102.176270189
 20
-56.1047457526
 30
0.0
  0
VERTEX
  8
Body_Slices
 10
94.1262701892
 20
-42.1617367517
 30
0.0
  0
VERTEX
  8
Body_Slices
 10
175.202540378
 20
98.2664825043
 30
0.0
  0
VERTEX
  8
Body_Slices
 10
191.302540378
 20
98.2664825043
 30
0.0
  0
SEQEND
  8
Body_Slices
  0
CIRCLE
  8
Body_Slices
 62
0
 10
261.625621928
 20
-29.6602624617
 30
0.0
 40
1.85
  0
POLYLINE
  8
Body_Slices
 62
0
 70
1
 66
1
 10
0.0
 20
0.0
 30
0.0
  0
VERTEX
  8
Body_Slices
 10
157.360557707
 20
55.3632620088
 30
0.0
  0
VERTEX
  8
Body_Slices
 10
154.978987846
 20
56.7382620088
 30
0.0
  0
VERTEX
  8
Body_Slices
 10
119.978987846
 20
-3.88351625616
 30
0.0
  0
VERTEX
  8
Body_Slices
 10
122.360557707
 20
-5.25851625616
 30
0.0
  0
VERTEX
  8
Body_Slices
 10
107.726905284
 20
-30.6047457526
 30
0.0
 42
0.57735026919
  0
VERTEX
  8
Body_Slices
 10
118.985235533
 20
-50.1047457526
 30
0.0
  0
VERTEX
  8
Body_Slices
 10
148.252540378
 20
-50.1047457526
 30
0.0
  0
VERTEX
  8
Body_Slices
 10
148.252540378
 20
-52.8547457526
 30
0.0
  0
VERTEX
  8
Body_Slices
 10
218.252540378
 20
-52.8547457526
 30
0.0
  0
VERTEX
  8
Body_Slices
 10
218.252540378
 20
-50.1047457526
 30
0.0
  0
VERTEX
  8
Body_Slices
 10
247.519845224
 20
-50.1047457526
 30
0.0
 42
0.0217857447586
  0
VERTEX
  8
Body_Slices
 10
248.651092199
 20
-50.0554322318
 30
0.0
  0
VERTEX
  8
Body_Slices
 10
251.940799716
 20
-51.9547457526
 30
0.0
  0
VERTEX
  8
Body_Slices
 10
254.011757562
 20
-48.3677415441
 30
0.0
 42
0.26833412378
  0
VERTEX
  8
Body_Slices
 10
260.519841871
 20
-37.0954088605
 30
0.0
  0
VERTEX
  8
Body_Slices
 10
262.590799716
 20
-33.508404652
 30
0.0
  0
VERTEX
  8
Body_Slices
 10
259.301092199
 20
-31.6090911312
 30
0.0
 42
0.0217857447586
  0
VERTEX
  8
Body_Slices
 10
258.778175473
 20
-30.6047457526
 30
0.0
  0
VERTEX
  8
Body_Slices
 10
244.14452305
 20
-5.25851625616
 30
0.0
  0
VERTEX
  8
Body_Slices
 10
246.526092911
 20
-3.88351625616
 30
0.0
  0
VERTEX
  8
Body_Slices
 10
211.526092911
 20
56.7382620088
 30
0.0
  0
VERTEX
  8
Body_Slices
 10
209.14452305
 20
55.3632620088
 30
0.0
  0
VERTEX
  8
Body_Slices
 10
194.510870628
 20
80.7094915052
 30
0.0
 42
0.57735026919
  0
VERTEX
  8
Body_Slices
 10
171.994210129
 20
80.7094915052
 30
0.0
  0
SEQEND
  8
Body_Slices
  0
CIRCLE
  8
Body_Slices
 62
0
 10
169.752540378
 20
82.7032108255
 30
0.0
 40
1.85
  0
CIRCLE
  8
Body_Slices
 62
0
 10
118.379458829
 20
-53.0429483639
 30
0.0
 40
1.85
  0
CIRCLE
  8
Body_Slices
 62
0
 10
196.752540378
 20
82.7032108255
 30
0.0
 40
1.85
  0
CIRCLE
  8
Body_Slices
 62
0
 10
248.125621928
 20
-53.0429483639
 30
0.0
 40
1.85
  0
CIRCLE
  8
Body_Slices
 62
0
 10
104.879458829
 20
-29.6602624617
 30
0.0
 40
1.85
  0
ENDBLK
  0
BLOCK
  8
Body_Slices
  2
MYLAYER003
 70
0
 10
0.0
 20
0.0
 30
0.0
  3
MYLAYER003
  0
POLYLINE
  8
Body_Slices
 62
0
 70
1
 66
1
 10
0.0
 20
0.0
 30
0.0
  0
VERTEX
  8
Body_Slices
 10
1.5
 20
230.637710761
 30
0.0
  0
VERTEX
  8
Body_Slices
 10
8.75
 20
230.637710761
 30
0.0
  0
VERTEX
  8
Body_Slices
 10
8.75
 20
254.137710761
 30
0.0
  0
VERTEX
  8
Body_Slices
 10
4.0
 20
254.137710761
 30
0.0
  0
VERTEX
  8
Body_Slices
 10
4.0
 20
257.637710761
 30
0.0
  0
VERTEX
  8
Body_Slices
 10
8.05
 20
257.637710761
 30
0.0
  0
VERTEX
  8
Body_Slices
 10
89.1262701892
 20
117.209491505
 30
0.0
  0
VERTEX
  8
Body_Slices
 10
81.0762701892
 20
103.266482504
 30
0.0
  0
VERTEX
  8
Body_Slices
 10
-81.0762701892
 20
103.266482504
 30
0.0
  0
VERTEX
  8
Body_Slices
 10
-89.1262701892
 20
117.209491505
 30
0.0
  0
VERTEX
  8
Body_Slices
 10
-8.05
 20
257.637710761
 30
0.0
  0
VERTEX
  8
Body_Slices
 10
-4.0
 20
257.637710761
 30
0.0
  0
VERTEX
  8
Body_Slices
 10
-4.0
 20
254.137710761
 30
0.0
  0
VERTEX
  8
Body_Slices
 10
-8.75
 20
254.137710761
 30
0.0
  0
VERTEX
  8
Body_Slices
 10
-8.75
 20
230.637710761
 30
0.0
  0
VERTEX
  8
Body_Slices
 10
-1.5
 20
230.637710761
 30
0.0
  0
VERTEX
  8
Body_Slices
 10
-1.5
 20
225.411680399
 30
0.0
 42
1.0
  0
VERTEX
  8
Body_Slices
 10
1.5
 20
225.411680399
 30
0.0
  0
SEQEND
  8
Body_Slices
  0
POLYLINE
  8
Body_Slices
 62
0
 70
1
 66
1
 10
0.0
 20
0.0
 30
0.0
  0
VERTEX
  8
Body_Slices
 10
79.3382593378
 20
125.862823605
 30
0.0
  0
VERTEX
  8
Body_Slices
 10
56.8215988394
 20
138.862823605
 30
0.0
  0
VERTEX
  8
Body_Slices
 10
46.1715988394
 20
120.416482504
 30
0.0
  0
VERTEX
  8
Body_Slices
 10
68.6882593378
 20
107.416482504
 30
0.0
  0
SEQEND
  8
Body_Slices
  0
CIRCLE
  8
Body_Slices
 62
0
 10
64.8730815495
 20
106.328279893
 30
0.0
 40
1.85
  0
CIRCLE
  8
Body_Slices
 62
0
 10
-64.8730815495
 20
106.328279893
 30
0.0
 40
1.85
  0
POLYLINE
  8
Body_Slices
 62
0
 70
1
 66
1
 10
0.0
 20
0.0
 30
0.0
  0
VERTEX
  8
Body_Slices
 10
35.0
 20
106.516482504
 30
0.0
  0
VERTEX
  8
Body_Slices
 10
35.0
 20
125.016482504
 30
0.0
  0
VERTEX
  8
Body_Slices
 10
-35.0
 20
125.016482504
 30
0.0
  0
VERTEX
  8
Body_Slices
 10
-35.0
 20
106.516482504
 30
0.0
  0
SEQEND
  8
Body_Slices
  0
POLYLINE
  8
Body_Slices
 62
0
 70
1
 66
1
 10
0.0
 20
0.0
 30
0.0
  0
VERTEX
  8
Body_Slices
 10
-4.0
 20
214.652516532
 30
0.0
  0
VERTEX
  8
Body_Slices
 10
-49.875
 20
135.194685735
 30
0.0
  0
VERTEX
  8
Body_Slices
 10
-45.875
 20
128.266482504
 30
0.0
  0
VERTEX
  8
Body_Slices
 10
45.875
 20
128.266482504
 30
0.0
  0
VERTEX
  8
Body_Slices
 10
49.875
 20
135.194685735
 30
0.0
  0
VERTEX
  8
Body_Slices
 10
4.0
 20
214.652516532
 30
0.0
  0
SEQEND
  8
Body_Slices
  0
POLYLINE
  8
Body_Slices
 62
0
 70
1
 66
1
 10
0.0
 20
0.0
 30
0.0
  0
VERTEX
  8
Body_Slices
 10
47.2520825623
 20
146.237712001
 30
0.0
  0
VERTEX
  8
Body_Slices
 10
63.2735525323
 20
155.487712001
 30
0.0
  0
VERTEX
  8
Body_Slices
 10
28.2735525323
 20
216.109490266
 30
0.0
  0
VERTEX
  8
Body_Slices
 10
12.2520825623
 20
206.859490266
 30
0.0
  0
SEQEND
  8
Body_Slices
  0
POLYLINE
  8
Body_Slices
 62
0
 70
1
 66
1
 10
0.0
 20
0.0
 30
0.0
  0
VERTEX
  8
Body_Slices
 10
-63.2735525323
 20
155.487712001
 30
0.0
  0
VERTEX
  8
Body_Slices
 10
-47.2520825623
 20
146.237712001
 30
0.0
  0
VERTEX
  8
Body_Slices
 10
-12.2520825623
 20
206.859490266
 30
0.0
  0
VERTEX
  8
Body_Slices
 10
-28.2735525323
 20
216.109490266
 30
0.0
  0
SEQEND
  8
Body_Slices
  0
CIRCLE
  8
Body_Slices
 62
0
 10
78.3730815495
 20
129.710965795
 30
0.0
 40
1.85
  0
CIRCLE
  8
Body_Slices
 62
0
 10
-78.3730815495
 20
129.710965795
 30
0.0
 40
1.85
  0
CIRCLE
  8
Body_Slices
 62
0
 10
-13.5
 20
242.074439082
 30
0.0
 40
1.85
  0
CIRCLE
  8
Body_Slices
 62
0
 10
13.5
 20
242.074439082
 30
0.0
 40
1.85
  0
ENDBLK
  0
BLOCK
  8
Body_Slices
  2
MYLAYER007
 70
0
 10
0.0
 20
0.0
 30
0.0
  3
MYLAYER007
  0
POLYLINE
  8
Body_Slices
 62
0
 70
1
 66
1
 10
0.0
 20
0.0
 30
0.0
  0
VERTEX
  8
Body_Slices
 10
272.378810568
 20
276.580719762
 30
0.0
  0
VERTEX
  8
Body_Slices
 10
264.328810568
 20
262.637710761
 30
0.0
  0
VERTEX
  8
Body_Slices
 10
102.176270189
 20
262.637710761
 30
0.0
  0
VERTEX
  8
Body_Slices
 10
94.1262701892
 20
276.580719762
 30
0.0
  0
VERTEX
  8
Body_Slices
 10
175.202540378
 20
417.008939018
 30
0.0
  0
VERTEX
  8
Body_Slices
 10
191.302540378
 20
417.008939018
 30
0.0
  0
SEQEND
  8
Body_Slices
  0
CIRCLE
  8
Body_Slices
 62
0
 10
261.625621928
 20
289.082194052
 30
0.0
 40
1.85
  0
CIRCLE
  8
Body_Slices
 62
0
 10
248.125621928
 20
265.69950815
 30
0.0
 40
1.85
  0
CIRCLE
  8
Body_Slices
 62
0
 10
169.752540378
 20
401.445667339
 30
0.0
 40
1.85
  0
CIRCLE
  8
Body_Slices
 62
0
 10
118.379458829
 20
265.69950815
 30
0.0
 40
1.85
  0
CIRCLE
  8
Body_Slices
 62
0
 10
196.752540378
 20
401.445667339
 30
0.0
 40
1.85
  0
POLYLINE
  8
Body_Slices
 62
0
 70
1
 66
1
 10
0.0
 20
0.0
 30
0.0
  0
VERTEX
  8
Body_Slices
 10
117.253184725
 20
269.637710761
 30
0.0
 42
-0.57735026919
  0
VERTEX
  8
Body_Slices
 10
107.726905284
 20
286.137710761
 30
0.0
  0
VERTEX
  8
Body_Slices
 10
173.726260937
 20
400.451948019
 30
0.0
 42
-0.57735026919
  0
VERTEX
  8
Body_Slices
 10
192.77881982
 20
400.451948019
 30
0.0
  0
VERTEX
  8
Body_Slices
 10
258.778175473
 20
286.137710761
 30
0.0
 42
-0.57735026919
  0
VERTEX
  8
Body_Slices
 10
249.251896031
 20
269.637710761
 30
0.0
  0
SEQEND
  8
Body_Slices
  0
CIRCLE
  8
Body_Slices
 62
0
 10
104.879458829
 20
289.082194052
 30
0.0
 40
1.85
  0
POLYLINE
  8
Body_Slices
 62
0
 70
1
 66
1
 10
0.0
 20
0.0
 30
0.0
  0
VERTEX
  8
Body_Slices
 10
228.467286341
 20
280.637710761
 30
0.0
  0
VERTEX
  8
Body_Slices
 10
138.037794416
 20
280.637710761
 30
0.0
 42
-0.57735026919
  0
VERTEX
  8
Body_Slices
 10
127.645489571
 20
298.637710761
 30
0.0
  0
VERTEX
  8
Body_Slices
 10
172.860235533
 20
376.951948019
 30
0.0
 42
-0.57735026919
  0
VERTEX
  8
Body_Slices
 10
193.644845224
 20
376.951948019
 30
0.0
  0
VERTEX
  8
Body_Slices
 10
238.859591186
 20
298.637710761
 30
0.0
 42
-0.57735026919
  0
SEQEND
  8
Body_Slices
  0
POLYLINE
  8
Body_Slices
 62
0
 70
1
 66
1
 10
0.0
 20
0.0
 30
0.0
  0
VERTEX
  8
Body_Slices
 10
179.252540378
 20
374.023744789
 30
0.0
  0
VERTEX
  8
Body_Slices
 10
133.377540378
 20
294.565913991
 30
0.0
  0
VERTEX
  8
Body_Slices
 10
137.377540378
 20
287.637710761
 30
0.0
  0
VERTEX
  8
Body_Slices
 10
229.127540378
 20
287.637710761
 30
0.0
  0
VERTEX
  8
Body_Slices
 10
233.127540378
 20
294.565913991
 30
0.0
  0
VERTEX
  8
Body_Slices
 10
187.252540378
 20
374.023744789
 30
0.0
  0
SEQEND
  8
Body_Slices
  0
ENDBLK
  0
ENDSEC
  0
SECTION
  2
ENTITIES
  0
INSERT
  2
MYLAYER
  8
Body_Slices
 62
0
 10
0.0
 20
0.0
 30
0.0
  0
INSERT
  2
MYLAYER005
  8
Body_Slices
 62
0
 10
0.0
 20
0.0
 30
0.0
  0
INSERT
  2
MYLAYER006
  8
Body_Slices
 62
0
 10
0.0
 20
0.0
 30
0.0
  0
INSERT
  2
MYLAYER002
  8
Body_Slices
 62
0
 10
0.0
 20
0.0
 30
0.0
  0
INSERT
  2
MYLAYER004
  8
Body_Slices
 62
0
 10
0.0
 20
0.0
 30
0.0
  0
INSERT
  2
MYLAYER001
  8
Body_Slices
 62
0
 10
0.0
 20
0.0
 30
0.0
  0
INSERT
  2
MYLAYER003
  8
Body_Slices
 62
0
 10
0.0
 20
0.0
 30
0.0
  0
INSERT
  2
MYLAYER007
  8
Body_Slices
 62
0
 10
0.0
 20
0.0
 30
0.0
  0
ENDSEC
  0
EOF
