<svg xmlns:lc="http://www.librecad.org" xmlns:dc="http://purl.org/dc/elements/1.1/" xmlns:cc="http://creativecommons.org/ns#" xmlns:rdf="http://www.w3.org/1999/02/22-rdf-syntax-ns#" xmlns:svg="http://www.w3.org/2000/svg" xmlns="http://www.w3.org/2000/svg" version="1.1" id="svg2" viewBox="0 0 639.42771 1272.7883" height="3232.8826cm" width="1624.1464cm"><g transform="translate(0 0)"><rect y="49.454987" x="46.666641" height="1182.2223" width="545.55554" id="rect4155" style="fill:none;stroke:none" class="bin" transform="translate(-46.666641 -49.454987)"/><g transform="translate(-322.2138842 -79.31743) rotate(0)"><path d="M 331.7401642 354.10581 L 322.2138842 348.60581 L 322.2138842 84.81743 L 331.7401642 79.31743 L 560.1876042 211.21162 L 560.1876042 222.21162 L 331.7401642 354.10581 z" id="path410"/><circle cx="325.4638842" cy="216.71162" r="1" id="circle412" class="null hole"/><circle cx="553.2637242" cy="216.71162" r="2" id="circle414" class="null hole"/><circle cx="330.43895419999996" cy="88.06369000000001" r="2" id="circle416" class="null hole"/><circle cx="344.5343842" cy="340.94556" r="1" id="circle418" class="null hole"/><circle cx="327.2138842" cy="330.94556" r="1" id="circle420" class="null hole"/><circle cx="482.4320242" cy="263.574474" r="1" id="circle422" class="null hole"/><circle cx="444.3388842" cy="285.344135" r="1" id="circle424" class="null hole"/><circle cx="444.3388842" cy="148.07910500000003" r="1" id="circle426" class="null hole"/><circle cx="344.5343842" cy="92.47768" r="1" id="circle428" class="null hole"/><circle cx="327.2138842" cy="102.47768" r="1" id="circle430" class="null hole"/><circle cx="506.70421419999997" cy="249.24052" r="1" id="circle432" class="null hole"/><circle cx="330.43895419999996" cy="345.35955" r="2" id="circle434" class="null hole"/><circle cx="542.3933642" cy="206.71162" r="1" id="circle436" class="null hole"/><path d="M 328.7138842 111.05652 L 328.7138842 322.36672 A 15 15 0 0 0 351.2138842 335.3571 L 534.2138841999999 229.702001 A 15 15 0 0 0 534.2138841999999 203.72123900000003 L 351.21388419999994 98.06614 A 15 15 0 0 0 328.71388419999994 111.05652 z" id="path438" class="null hole"/><path d="M 357.2138842 298.984033 L 489.32158419999996 222.71162 L 497.71388419999994 222.71162 L 497.71388419999994 224.2171735 L 351.71388419999994 308.510313 L 351.71388419999994 124.91292700000001 L 497.71388419999994 209.20606650000002 L 497.71388419999994 210.71162 L 489.32158419999996 210.71162 L 357.21388419999994 134.439207 L 357.21388419999994 298.984033 z" id="path442"/><circle cx="354.4638842" cy="303.747173" r="1" id="circle444" class="null hole"/><circle cx="354.4638842" cy="129.67606700000002" r="1" id="circle446" class="null hole"/><circle cx="429.8388842" cy="173.193844" r="1" id="circle448" class="null hole"/><circle cx="354.7138842" cy="285.314159" r="1" id="circle450" class="null hole"/><circle cx="370.3023242" cy="294.314159" r="1" id="circle452" class="null hole"/><circle cx="429.8388842" cy="260.229396" r="1" id="circle454" class="null hole"/><circle cx="354.4638842" cy="216.71162" r="1" id="circle456" class="null hole"/><circle cx="370.3023242" cy="139.109081" r="1" id="circle458" class="null hole"/><circle cx="354.7138842" cy="148.109081" r="1" id="circle460" class="null hole"/><circle cx="489.12541419999997" cy="207.71162" r="1" id="circle462" class="null hole"/><circle cx="489.12541419999997" cy="225.71162" r="1" id="circle464" class="null hole"/><circle cx="542.3933642" cy="226.71162" r="1" id="circle440" class="null hole"/></g><g transform="translate(560.1876042000001 1341.8651502999999) rotate(180)"><path d="M 331.7401642 1193.4709599999999 L 322.2138842 1187.9709599999999 L 322.2138842 924.1825799999999 L 331.7401642 918.6825799999999 L 560.1876042 1050.57677 L 560.1876042 1061.57677 L 331.7401642 1193.4709599999999 z" id="path282"/><circle cx="542.3933642" cy="1046.07679" r="1" id="circle284" class="null hole"/><circle cx="505.2138842" cy="1056.07679" r="1" id="circle286" class="null hole"/><path d="M 539.7138841999999 1054.57677 L 527.7138841999999 1054.57677 A 1.5 1.5 0 0 0 527.7138841999999 1057.57677 L 539.7138841999999 1057.57677 A 1.5 1.5 0 0 0 539.7138841999999 1054.57677 z" id="path288" class="null hole"/><circle cx="354.7138842" cy="987.47425" r="1" id="circle290" class="null hole"/><circle cx="344.5343842" cy="931.84285" r="1" id="circle292" class="null hole"/><circle cx="489.12541419999997" cy="1065.07679" r="1" id="circle294" class="null hole"/><circle cx="482.4320242" cy="1102.93965" r="1" id="circle296" class="null hole"/><circle cx="444.3388842" cy="987.44429" r="1" id="circle298" class="null hole"/><circle cx="330.43895419999996" cy="1184.72468" r="2" id="circle300" class="null hole"/><circle cx="354.4638842" cy="969.0412100000001" r="1" id="circle302" class="null hole"/><circle cx="327.2138842" cy="1170.31068" r="1" id="circle304" class="null hole"/><circle cx="325.4638842" cy="1056.07679" r="1" id="circle306" class="null hole"/><circle cx="553.2637242" cy="1056.07679" r="2" id="circle308" class="null hole"/><circle cx="542.3933642" cy="1066.07679" r="1" id="circle310" class="null hole"/><circle cx="489.12541419999997" cy="1047.07679" r="1" id="circle312" class="null hole"/><path d="M 357.2138842 1138.34918 L 499.7138842 1056.07677 L 357.2138842 973.80436 L 357.2138842 1138.34918 z" id="path314" class="null hole"/><circle cx="429.8388842" cy="1099.59455" r="1" id="circle316" class="null hole"/><circle cx="444.3388842" cy="1124.7093" r="1" id="circle318" class="null hole"/><circle cx="370.3023242" cy="978.47425" r="1" id="circle320" class="null hole"/><circle cx="429.8388842" cy="1012.55897" r="1" id="circle322" class="null hole"/><circle cx="370.3023242" cy="1133.67933" r="1" id="circle324" class="null hole"/><circle cx="506.70421419999997" cy="1088.60566" r="1" id="circle326" class="null hole"/><circle cx="344.5343842" cy="1180.31068" r="1" id="circle328" class="null hole"/><circle cx="354.7138842" cy="1124.67933" r="1" id="circle330" class="null hole"/><circle cx="354.4638842" cy="1143.11232" r="1" id="circle332" class="null hole"/><circle cx="354.4638842" cy="1056.07679" r="1" id="circle334" class="null hole"/><circle cx="327.2138842" cy="941.84285" r="1" id="circle336" class="null hole"/><circle cx="330.43895419999996" cy="927.42884" r="2" id="circle338" class="null hole"/></g><g transform="translate(-79.24016420000001 -621.8941997) rotate(0)"><path d="M 88.7664432 1193.4709599999999 L 79.2401642 1187.9709599999999 L 79.2401642 924.1825799999999 L 88.7664432 918.6825799999999 L 317.2138842 1050.57677 L 317.2138842 1061.57677 L 88.76644320000001 1193.4709599999999 z" id="path14"/><path d="M 91.2401642 933.9671900000001 L 91.2401642 1178.18635 L 302.7401642 1056.07677 L 91.2401642 933.9671900000001 z" id="path16" class="null hole"/><path d="M 102.2401642 1159.13379 L 280.7401642 1056.07677 L 102.2401642 953.01975 L 102.2401642 1159.13379 z" id="path46"/><circle cx="111.4901642" cy="1056.07679" r="1" id="circle48" class="null hole"/><circle cx="262.2401642" cy="1056.07679" r="1" id="circle50" class="null hole"/><circle cx="111.7401642" cy="987.47425" r="1" id="circle52" class="null hole"/><circle cx="127.3286242" cy="978.47425" r="1" id="circle54" class="null hole"/><circle cx="111.4901642" cy="969.0412100000001" r="1" id="circle56" class="null hole"/><circle cx="246.1517042" cy="1065.07679" r="1" id="circle58" class="null hole"/><circle cx="111.4901642" cy="1143.11232" r="1" id="circle60" class="null hole"/><circle cx="111.7401642" cy="1124.67933" r="1" id="circle62" class="null hole"/><path d="M 114.2401642 1138.34918 L 256.7401642 1056.07677 L 114.2401642 973.8043600000001 L 114.2401642 1138.34918 z" id="path64" class="null hole"/><circle cx="186.8651642" cy="1099.59455" r="1" id="circle66" class="null hole"/><circle cx="246.1517042" cy="1047.07679" r="1" id="circle68" class="null hole"/><circle cx="186.8651642" cy="1012.55897" r="1" id="circle70" class="null hole"/><circle cx="127.3286242" cy="1133.67933" r="1" id="circle72" class="null hole"/><circle cx="299.4196642" cy="1046.07679" r="1" id="circle18" class="null hole"/><circle cx="299.4196642" cy="1066.07679" r="1" id="circle20" class="null hole"/><circle cx="82.4901642" cy="1056.07679" r="1" id="circle22" class="null hole"/><circle cx="84.2401642" cy="941.84285" r="1" id="circle24" class="null hole"/><circle cx="87.4652462" cy="927.42884" r="2" id="circle26" class="null hole"/><circle cx="101.5606742" cy="1180.31068" r="1" id="circle28" class="null hole"/><circle cx="84.2401642" cy="1170.31068" r="1" id="circle30" class="null hole"/><circle cx="101.5606742" cy="931.84285" r="1" id="circle32" class="null hole"/><circle cx="263.73049419999995" cy="1088.60566" r="1" id="circle34" class="null hole"/><circle cx="201.3651642" cy="987.44429" r="1" id="circle36" class="null hole"/><circle cx="201.3651642" cy="1124.7093" r="1" id="circle38" class="null hole"/><circle cx="239.45830420000001" cy="1102.93965" r="1" id="circle40" class="null hole"/><circle cx="87.4652462" cy="1184.72468" r="2" id="circle42" class="null hole"/><circle cx="310.2900042" cy="1056.07679" r="2" id="circle44" class="null hole"/></g><g transform="translate(-638.89419 1061.1152132000002) rotate(270)"><path d="M 555.1876042 771.56295 L 555.1876042 773.38926 L 525.1876042 773.38926 L 525.1876042 779.1875100000001 L 555.1876042 779.1875100000001 L 555.1876042 781.0138200000001 L 560.1876042 781.0138200000001 L 560.1876042 781.7883900000002 L 503.2034142 814.6882300000002 L 500.7034142 810.3581000000001 L 486.8470042 818.3581000000001 L 489.3470042 822.6882300000002 L 331.7401642 913.68258 L 322.2138842 908.18258 L 322.2138842 644.39419 L 331.7401642 638.89419 L 560.1876042 770.78839 L 560.1876042 771.56295 L 555.1876042 771.56295 z" id="path146"/><circle cx="354.7138842" cy="844.89094" r="1" id="circle148" class="null hole"/><circle cx="506.70421419999997" cy="808.81727" r="1" id="circle150" class="null hole"/><circle cx="354.4638842" cy="689.25282" r="1" id="circle152" class="null hole"/><circle cx="542.3933642" cy="786.2884" r="1" id="circle154" class="null hole"/><circle cx="354.7138842" cy="707.68583" r="1" id="circle156" class="null hole"/><circle cx="344.5343842" cy="652.05445" r="1" id="circle158" class="null hole"/><circle cx="330.43895419999996" cy="904.93629" r="2" id="circle160" class="null hole"/><circle cx="370.3023242" cy="853.89094" r="1" id="circle162" class="null hole"/><circle cx="354.4638842" cy="863.32392" r="1" id="circle164" class="null hole"/><circle cx="505.2138842" cy="776.2884" r="1" id="circle166" class="null hole"/><circle cx="327.2138842" cy="890.5223500000001" r="1" id="circle168" class="null hole"/><circle cx="354.4638842" cy="776.2884" r="1" id="circle170" class="null hole"/><circle cx="429.8388842" cy="819.8061600000001" r="1" id="circle172" class="null hole"/><circle cx="444.3388842" cy="844.92091" r="1" id="circle174" class="null hole"/><path d="M 472.3356642 823.28839 L 462.8356642 806.8339000000001 L 402.2138842 841.8339000000001 L 411.7138842 858.28839 L 472.3356642 823.28839 z" id="path176" class="null hole"/><circle cx="370.3023242" cy="698.68583" r="1" id="circle178" class="null hole"/><circle cx="429.8388842" cy="732.77058" r="1" id="circle180" class="null hole"/><circle cx="444.3388842" cy="707.65586" r="1" id="circle182" class="null hole"/><path d="M 463.3356642 746.28839 L 472.8356642 729.8339000000001 L 412.2138842 694.8339000000001 L 402.7138842 711.28839 L 463.3356642 746.2883900000002 z" id="path184" class="null hole"/><circle cx="344.5343842" cy="900.5223500000001" r="1" id="circle186" class="null hole"/><path d="M 349.7138842 741.28839 L 330.7138842 741.28839 L 330.7138842 811.28839 L 349.7138842 811.28839 L 349.7138842 741.28839 z" id="path188" class="null hole"/><circle cx="327.2138842" cy="662.05445" r="1" id="circle190" class="null hole"/><circle cx="325.4638842" cy="776.2884" r="1" id="circle192" class="null hole"/><circle cx="489.12541419999997" cy="767.2884" r="1" id="circle194" class="null hole"/><path d="M 357.2138842 858.5608000000001 L 499.7138842 776.28839 L 357.2138842 694.01597 L 357.2138842 858.5608 z" id="path196" class="null hole"/><circle cx="489.12541419999997" cy="785.2884" r="1" id="circle198" class="null hole"/><circle cx="482.4320242" cy="823.1512600000001" r="1" id="circle200" class="null hole"/><circle cx="330.43895419999996" cy="647.64045" r="2" id="circle202" class="null hole"/><circle cx="542.3933642" cy="766.2884" r="1" id="circle204" class="null hole"/></g><g transform="translate(354.10581 659.6611648) rotate(90)"><path d="M 260.2296942 255.11146000000002 L 257.7296942 250.78133300000002 L 256.7083742 251.370989 L 255.9583742 250.071951 L 291.2401642 229.702001 A 15 15 0 0 0 291.2401642 203.72123900000003 L 108.2401642 98.06614 A 15 15 0 0 0 85.7401642 111.05652 L 85.7401642 322.36672 A 15 15 0 0 0 108.2401642 335.3571 L 243.83402420000002 257.071951 L 244.58402420000002 258.370989 L 243.87328420000003 258.781333 L 246.37328420000003 263.11146 L 88.76644320000001 354.10581 L 79.24016420000001 348.60581 L 79.24016420000001 84.81743 L 88.76644320000001 79.31743 L 317.2138842 211.21162 L 317.2138842 222.21162 L 260.2296942 255.11146000000002 z" id="path472"/><circle cx="84.2401642" cy="330.94556" r="1" id="circle474" class="null hole"/><circle cx="310.2900042" cy="216.71162" r="2" id="circle476" class="null hole"/><circle cx="84.2401642" cy="102.47768" r="1" id="circle478" class="null hole"/><circle cx="201.3651642" cy="148.07910500000003" r="1" id="circle480" class="null hole"/><circle cx="82.4901642" cy="216.71162" r="1" id="circle482" class="null hole"/><circle cx="201.3651642" cy="285.344135" r="1" id="circle484" class="null hole"/><circle cx="239.45830420000001" cy="263.574474" r="1" id="circle486" class="null hole"/><circle cx="299.4196642" cy="226.71162" r="1" id="circle488" class="null hole"/><circle cx="263.73049419999995" cy="249.24052" r="1" id="circle490" class="null hole"/><circle cx="299.4196642" cy="206.71162" r="1" id="circle492" class="null hole"/><circle cx="87.4652462" cy="88.06369000000001" r="2" id="circle494" class="null hole"/><circle cx="101.5606742" cy="92.47768" r="1" id="circle496" class="null hole"/><circle cx="87.4652462" cy="345.35955" r="2" id="circle498" class="null hole"/><circle cx="101.5606742" cy="340.94556" r="1" id="circle500" class="null hole"/></g><g transform="translate(-79.24016420000001 267.3317080999999) rotate(0)"><path d="M 88.7664432 913.68258 L 79.2401642 908.18258 L 79.2401642 644.39419 L 88.7664432 638.89419 L 317.2138842 770.78839 L 317.2138842 781.78839 L 88.76644320000001 913.68258 z" id="path212"/><circle cx="201.3651642" cy="707.65586" r="1" id="circle214" class="null hole"/><circle cx="299.4196642" cy="786.2884" r="1" id="circle216" class="null hole"/><circle cx="310.2900042" cy="776.2884" r="2" id="circle218" class="null hole"/><circle cx="111.4901642" cy="689.25282" r="1" id="circle220" class="null hole"/><circle cx="84.2401642" cy="890.5223500000001" r="1" id="circle222" class="null hole"/><path d="M 296.7401642 774.78839 L 284.7401642 774.78839 A 1.5 1.5 0 0 0 284.7401642 777.78839 L 296.7401642 777.78839 A 1.5 1.5 0 0 0 296.7401642 774.78839 z" id="path224" class="null hole"/><path d="M 106.7401642 741.28839 L 87.7401642 741.28839 L 87.7401642 811.28839 L 106.7401642 811.28839 L 106.7401642 741.28839 z" id="path226" class="null hole"/><circle cx="127.3286242" cy="853.89094" r="1" id="circle228" class="null hole"/><circle cx="101.5606742" cy="652.05445" r="1" id="circle230" class="null hole"/><circle cx="87.4652462" cy="647.64045" r="2" id="circle232" class="null hole"/><circle cx="299.4196642" cy="766.2884" r="1" id="circle234" class="null hole"/><circle cx="84.2401642" cy="662.05445" r="1" id="circle236" class="null hole"/><path d="M 220.3619442 746.28839 L 229.8619442 729.8339000000001 L 169.2401642 694.8339000000001 L 159.7401642 711.28839 L 220.3619442 746.2883900000002 z" id="path238" class="null hole"/><circle cx="246.1517042" cy="767.2884" r="1" id="circle240" class="null hole"/><circle cx="263.73049419999995" cy="808.81727" r="1" id="circle242" class="null hole"/><circle cx="262.2401642" cy="776.2884" r="1" id="circle244" class="null hole"/><path d="M 229.3619442 823.28839 L 219.8619442 806.8339000000001 L 159.2401642 841.8339000000001 L 168.7401642 858.28839 L 229.3619442 823.28839 z" id="path246" class="null hole"/><circle cx="186.8651642" cy="819.8061600000001" r="1" id="circle248" class="null hole"/><circle cx="201.3651642" cy="844.92091" r="1" id="circle250" class="null hole"/><path d="M 114.2401642 858.5608000000001 L 256.7401642 776.28839 L 114.2401642 694.01597 L 114.2401642 858.5608 z" id="path252" class="null hole"/><circle cx="246.1517042" cy="785.2884" r="1" id="circle254" class="null hole"/><circle cx="239.45830420000001" cy="823.1512600000001" r="1" id="circle256" class="null hole"/><circle cx="186.8651642" cy="732.77058" r="1" id="circle258" class="null hole"/><circle cx="127.3286242" cy="698.68583" r="1" id="circle260" class="null hole"/><circle cx="111.7401642" cy="707.68583" r="1" id="circle262" class="null hole"/><circle cx="111.7401642" cy="844.89094" r="1" id="circle264" class="null hole"/><circle cx="111.4901642" cy="776.2884" r="1" id="circle266" class="null hole"/><circle cx="87.4652462" cy="904.93629" r="2" id="circle268" class="null hole"/><circle cx="101.5606742" cy="900.5223500000001" r="1" id="circle270" class="null hole"/><circle cx="111.4901642" cy="863.32392" r="1" id="circle272" class="null hole"/><circle cx="82.4901642" cy="776.2884" r="1" id="circle274" class="null hole"/></g><g transform="translate(705.0949329000001 1475.3881904999998) rotate(180)"><path d="M 555.1876042 492.78786 L 555.1876042 495.95349999999996 A 2 2 0 1 0 555.1876042 497.04651 L 555.1876042 500.21214999999995 L 560.1876042 500.21214999999995 L 560.1876042 502 L 503.2034142 534.8998399999999 L 500.7034142 530.56972 L 499.6820942 531.15937 L 492.1820942 518.1689899999999 L 480.0577442 525.1689899999999 L 487.5577442 538.15937 L 486.8470042 538.56972 L 489.3470042 542.8998399999999 L 331.7401642 633.89419 L 322.2138842 628.39419 L 322.2138842 364.60581 L 331.7401642 359.10581 L 560.1876042 491 L 560.1876042 492.78786 L 555.1876042 492.78786 z" id="path346"/><circle cx="444.3388842" cy="427.86749" r="1" id="circle348" class="null hole"/><path d="M 463.3356642 466.5 L 472.8356642 450.04552 L 412.2138842 415.04552 L 402.7138842 431.5 L 463.3356642 466.5 z" id="path350" class="null hole"/><circle cx="327.2138842" cy="382.26606000000004" r="1" id="circle352" class="null hole"/><circle cx="344.5343842" cy="372.26606000000004" r="1" id="circle354" class="null hole"/><circle cx="330.43895419999996" cy="625.14793" r="2" id="circle356" class="null hole"/><circle cx="354.7138842" cy="427.89746" r="1" id="circle358" class="null hole"/><circle cx="506.70421419999997" cy="529.02891" r="1" id="circle360" class="null hole"/><circle cx="542.3933642" cy="486.50001" r="1" id="circle362" class="null hole"/><circle cx="344.5343842" cy="620.73393" r="1" id="circle364" class="null hole"/><circle cx="489.12541419999997" cy="505.50001" r="1" id="circle366" class="null hole"/><circle cx="330.43895419999996" cy="367.85208" r="2" id="circle368" class="null hole"/><circle cx="370.3023242" cy="574.1025500000001" r="1" id="circle370" class="null hole"/><path d="M 472.3356642 543.5 L 462.8356642 527.04552 L 402.2138842 562.04552 L 411.7138842 578.5 L 472.3356642 543.5 z" id="path372" class="null hole"/><path d="M 497.7138842 483.29999999999995 L 532.7138841999999 483.29999999999995 L 532.7138841999999 495 L 539.7138841999999 495 A 1.5 1.5 0 1 1 539.7138841999999 498 L 532.7138841999999 498 L 532.7138841999999 509.79999999999995 L 497.71388419999994 509.79999999999995 L 497.71388419999994 497.65469999999993 L 357.21388419999994 578.77242 L 357.21388419999994 414.22758999999996 L 497.71388419999994 495.34529999999995 L 497.71388419999994 483.29999999999995 z" id="path374" class="null hole"/><circle cx="370.3023242" cy="418.89746" r="1" id="circle376" class="null hole"/><circle cx="489.12541419999997" cy="487.50001" r="1" id="circle378" class="null hole"/><circle cx="429.8388842" cy="452.98222" r="1" id="circle380" class="null hole"/><circle cx="482.4320242" cy="543.36287" r="1" id="circle382" class="null hole"/><circle cx="444.3388842" cy="565.13252" r="1" id="circle384" class="null hole"/><circle cx="429.8388842" cy="540.01777" r="1" id="circle386" class="null hole"/><path d="M 349.7138842 461.5 L 330.7138842 461.5 L 330.7138842 531.5 L 349.7138842 531.5 L 349.7138842 461.5 z" id="path388" class="null hole"/><circle cx="327.2138842" cy="610.73393" r="1" id="circle390" class="null hole"/><circle cx="354.4638842" cy="583.53556" r="1" id="circle392" class="null hole"/><circle cx="354.7138842" cy="565.1025500000001" r="1" id="circle394" class="null hole"/><circle cx="325.4638842" cy="496.50001" r="1" id="circle396" class="null hole"/><circle cx="354.4638842" cy="496.50001" r="1" id="circle398" class="null hole"/><circle cx="354.4638842" cy="409.46444" r="1" id="circle400" class="null hole"/><circle cx="542.3933642" cy="506.50001" r="1" id="circle402" class="null hole"/></g><g transform="translate(461.9919395 995.4891118) rotate(180)"><path d="M 312.2138842 491.29857000000004 L 312.2138842 492.86703 L 282.2138842 492.86703 L 282.2138842 500.13298 L 312.2138842 500.13298 L 312.2138842 501.70142999999996 L 317.2138842 501.70142999999996 L 317.2138842 502 L 260.2296942 534.8998399999999 L 257.7296942 530.56972 L 256.7083742 531.15937 L 249.2083742 518.1689899999999 L 237.08402420000002 525.1689899999999 L 244.58402420000002 538.15937 L 243.87328420000003 538.56972 L 246.37328420000003 542.8998399999999 L 88.76644320000001 633.89419 L 79.24016420000001 628.39419 L 79.24016420000001 364.6058099999999 L 88.76644320000001 359.1058099999999 L 317.2138842 491 L 317.2138842 491.2985699999999 L 312.2138842 491.2985699999999 z" id="path80"/><circle cx="82.4901642" cy="496.50001" r="1" id="circle82" class="null hole"/><circle cx="84.2401642" cy="610.73393" r="1" id="circle84" class="null hole"/><circle cx="111.7401642" cy="565.1025500000001" r="1" id="circle86" class="null hole"/><circle cx="299.4196642" cy="486.50001" r="1" id="circle88" class="null hole"/><circle cx="87.4652462" cy="625.14793" r="2" id="circle90" class="null hole"/><circle cx="101.5606742" cy="620.73393" r="1" id="circle92" class="null hole"/><circle cx="127.3286242" cy="574.1025500000001" r="1" id="circle94" class="null hole"/><circle cx="111.7401642" cy="427.89746" r="1" id="circle96" class="null hole"/><circle cx="111.4901642" cy="583.53556" r="1" id="circle98" class="null hole"/><circle cx="299.4196642" cy="506.50001" r="1" id="circle100" class="null hole"/><path d="M 106.7401642 461.5 L 87.7401642 461.5 L 87.7401642 531.5 L 106.7401642 531.5 L 106.7401642 461.5 z" id="path102" class="null hole"/><circle cx="111.4901642" cy="496.50001" r="1" id="circle104" class="null hole"/><circle cx="127.3286242" cy="418.89746" r="1" id="circle106" class="null hole"/><circle cx="246.1517042" cy="505.50001" r="1" id="circle108" class="null hole"/><path d="M 114.2401642 578.77242 L 256.7401642 496.5 L 114.2401642 414.22759 L 114.2401642 578.77242 z" id="path110" class="null hole"/><circle cx="239.45830420000001" cy="543.36287" r="1" id="circle112" class="null hole"/><path d="M 229.3619442 543.5 L 219.8619442 527.04552 L 159.2401642 562.04552 L 168.7401642 578.5 L 229.3619442 543.5 z" id="path114" class="null hole"/><circle cx="201.3651642" cy="565.13252" r="1" id="circle116" class="null hole"/><circle cx="186.8651642" cy="540.01777" r="1" id="circle118" class="null hole"/><path d="M 220.3619442 466.5 L 229.8619442 450.04552 L 169.2401642 415.04552 L 159.7401642 431.5 L 220.3619442 466.5 z" id="path120" class="null hole"/><circle cx="186.8651642" cy="452.98222" r="1" id="circle122" class="null hole"/><circle cx="201.3651642" cy="427.86749" r="1" id="circle124" class="null hole"/><circle cx="246.1517042" cy="487.50001" r="1" id="circle126" class="null hole"/><circle cx="262.2401642" cy="496.50001" r="1" id="circle128" class="null hole"/><circle cx="263.73049419999995" cy="529.02891" r="1" id="circle130" class="null hole"/><circle cx="101.5606742" cy="372.26606000000004" r="1" id="circle132" class="null hole"/><circle cx="111.4901642" cy="409.46444" r="1" id="circle134" class="null hole"/><circle cx="84.2401642" cy="382.26606000000004" r="1" id="circle136" class="null hole"/><circle cx="87.4652462" cy="367.85208" r="2" id="circle138" class="null hole"/></g><g transform="translate(436.26644600000003 308.510313) rotate(180)"><path d="M 114.2401642 298.984033 L 254.7401642 217.8663205 L 254.7401642 224.2171735 L 108.7401642 308.510313 L 108.7401642 124.91292700000001 L 254.7401642 209.20606650000002 L 254.7401642 215.5569195 L 114.2401642 134.439207 L 114.2401642 298.984033 z" id="path502"/><circle cx="111.7401642" cy="148.109081" r="1" id="circle504" class="null hole"/><circle cx="111.7401642" cy="285.314159" r="1" id="circle506" class="null hole"/><circle cx="111.4901642" cy="303.747173" r="1" id="circle508" class="null hole"/><circle cx="127.3286242" cy="294.314159" r="1" id="circle510" class="null hole"/><circle cx="246.1517042" cy="225.71162" r="1" id="circle512" class="null hole"/><circle cx="246.1517042" cy="207.71162" r="1" id="circle514" class="null hole"/><circle cx="127.3286242" cy="139.109081" r="1" id="circle516" class="null hole"/><circle cx="111.4901642" cy="216.71162" r="1" id="circle518" class="null hole"/><circle cx="186.8651642" cy="260.229396" r="1" id="circle520" class="null hole"/><circle cx="186.8651642" cy="173.193844" r="1" id="circle522" class="null hole"/><circle cx="111.4901642" cy="129.67606700000002" r="1" id="circle524" class="null hole"/></g></g></svg>