<?xml version="1.0" encoding="UTF-8" standalone="no"?>
<svg
   xmlns:lc="http://www.librecad.org"
   xmlns:dc="http://purl.org/dc/elements/1.1/"
   xmlns:cc="http://creativecommons.org/ns#"
   xmlns:rdf="http://www.w3.org/1999/02/22-rdf-syntax-ns#"
   xmlns:svg="http://www.w3.org/2000/svg"
   xmlns="http://www.w3.org/2000/svg"
   version="1.1"
   id="svg4434"
   viewBox="0 0 681.94744 1315.3083"
   height="1315.3083mm"
   width="681.94745mm">
  <metadata
     id="metadata4962">
    <rdf:RDF>
      <cc:Work
         rdf:about="">
        <dc:format>image/svg+xml</dc:format>
        <dc:type
           rdf:resource="http://purl.org/dc/dcmitype/StillImage" />
        <dc:title></dc:title>
      </cc:Work>
    </rdf:RDF>
  </metadata>
  <defs
     id="defs4960" />
  <rect
     y="49.882423"
     x="49.985645"
     height="1206.2325"
     width="573.51947"
     id="rect5242"
     style="fill:none;stroke:none" />
  <g
     transform="translate(18.000001,237.9715)"
     lc:blockname="MYLAYER"
     id="g4440"
     style="fill:none;stroke:#000000;stroke-width:1">
    <g
       lc:layername="0"
       lc:is_locked="false"
       lc:is_construction="false"
       id="g4442"
       style="fill:none;stroke:#000000;stroke-width:1" />
    <g
       lc:layername="Body_Slices"
       lc:is_locked="false"
       lc:is_construction="false"
       id="g4444"
       style="fill:none;stroke:#000000;stroke-width:1">
      <path
         d="m 92.026279,976.75934 -9.526279,-5.5 0,-263.78838 9.526279,-5.5 228.447441,131.89419 0,11 -228.447441,131.89419 z"
         id="path4446" />
      <path
         d="m 94.5,717.25557 0,244.21916 L 306,839.36515 94.5,717.25557 Z"
         id="path4448" />
      <circle
         cx="302.6795"
         cy="829.36517"
         r="1"
         id="circle4450" />
      <circle
         cx="302.6795"
         cy="849.36517"
         r="1"
         id="circle4452" />
      <circle
         cx="85.75"
         cy="839.36517"
         r="1"
         id="circle4454" />
      <circle
         cx="87.5"
         cy="725.13123"
         r="1"
         id="circle4456" />
      <circle
         cx="90.725082"
         cy="710.71722"
         r="2"
         id="circle4458" />
      <circle
         cx="104.82051"
         cy="963.59906"
         r="1"
         id="circle4460" />
      <circle
         cx="87.5"
         cy="953.59906"
         r="1"
         id="circle4462" />
      <circle
         cx="104.82051"
         cy="715.13123"
         r="1"
         id="circle4464" />
      <circle
         cx="266.99033"
         cy="871.89404"
         r="1"
         id="circle4466" />
      <circle
         cx="204.625"
         cy="770.73267"
         r="1"
         id="circle4468" />
      <circle
         cx="204.625"
         cy="907.99768"
         r="1"
         id="circle4470" />
      <circle
         cx="242.71814"
         cy="886.22803"
         r="1"
         id="circle4472" />
      <circle
         cx="90.725082"
         cy="968.01306"
         r="2"
         id="circle4474" />
      <circle
         cx="313.54984"
         cy="839.36517"
         r="2"
         id="circle4476" />
      <path
         d="M 105.5,942.42217 284,839.36515 105.5,736.30813 l 0,206.11404 z"
         id="path4478" />
      <circle
         cx="114.75"
         cy="839.36517"
         r="1"
         id="circle4480" />
      <circle
         cx="265.5"
         cy="839.36517"
         r="1"
         id="circle4482" />
      <circle
         cx="115"
         cy="770.76263"
         r="1"
         id="circle4484" />
      <circle
         cx="130.58846"
         cy="761.76263"
         r="1"
         id="circle4486" />
      <circle
         cx="114.75"
         cy="752.32959"
         r="1"
         id="circle4488" />
      <circle
         cx="249.41154"
         cy="848.36517"
         r="1"
         id="circle4490" />
      <circle
         cx="114.75"
         cy="926.4007"
         r="1"
         id="circle4492" />
      <circle
         cx="115"
         cy="907.96771"
         r="1"
         id="circle4494" />
      <path
         d="M 117.5,921.63756 260,839.36515 117.5,757.09274 l 0,164.54482 z"
         id="path4496" />
      <circle
         cx="190.125"
         cy="882.88293"
         r="1"
         id="circle4498" />
      <circle
         cx="249.41154"
         cy="830.36517"
         r="1"
         id="circle4500" />
      <circle
         cx="190.125"
         cy="795.84735"
         r="1"
         id="circle4502" />
      <circle
         cx="130.58846"
         cy="916.96771"
         r="1"
         id="circle4504" />
    </g>
  </g>
  <g
     transform="translate(18.000001,237.9715)"
     lc:blockname="MYLAYER004"
     id="g4506"
     style="fill:none;stroke:#000000;stroke-width:1">
    <g
       lc:layername="0"
       lc:is_locked="false"
       lc:is_construction="false"
       id="g4508"
       style="fill:none;stroke:#000000;stroke-width:1" />
    <g
       lc:layername="Body_Slices"
       lc:is_locked="false"
       lc:is_construction="false"
       id="g4510"
       style="fill:none;stroke:#000000;stroke-width:1">
      <path
         d="m 315.47372,274.58695 0,1.56846 -30,0 0,7.26595 30,0 0,1.56845 5,0 0,0.29857 -56.98419,32.89984 -2.5,-4.33012 -1.02132,0.58965 -7.5,-12.99038 -12.12435,7 7.5,12.99038 -0.71074,0.41035 2.5,4.33012 -157.606841,90.99435 -9.526279,-5.5 0,-263.78838 9.526279,-5.5 228.447441,131.89419 0,0.29857 -5,0 z"
         id="path4512" />
      <circle
         cx="85.75"
         cy="279.78839"
         r="1"
         id="circle4514" />
      <circle
         cx="87.5"
         cy="394.02231"
         r="1"
         id="circle4516" />
      <circle
         cx="115"
         cy="348.39093"
         r="1"
         id="circle4518" />
      <circle
         cx="302.6795"
         cy="269.78839"
         r="1"
         id="circle4520" />
      <circle
         cx="90.725082"
         cy="408.43631"
         r="2"
         id="circle4522" />
      <circle
         cx="104.82051"
         cy="404.02231"
         r="1"
         id="circle4524" />
      <circle
         cx="130.58846"
         cy="357.39093"
         r="1"
         id="circle4526" />
      <circle
         cx="115"
         cy="211.18584"
         r="1"
         id="circle4528" />
      <circle
         cx="114.75"
         cy="366.82394"
         r="1"
         id="circle4530" />
      <circle
         cx="302.6795"
         cy="289.78839"
         r="1"
         id="circle4532" />
      <path
         d="m 110,244.78838 -19,0 0,70 19,0 0,-70 z"
         id="path4534" />
      <circle
         cx="114.75"
         cy="279.78839"
         r="1"
         id="circle4536" />
      <circle
         cx="130.58846"
         cy="202.18584"
         r="1"
         id="circle4538" />
      <circle
         cx="249.41154"
         cy="288.78839"
         r="1"
         id="circle4540" />
      <path
         d="M 117.5,362.0608 260,279.78838 117.5,197.51597 l 0,164.54483 z"
         id="path4542" />
      <circle
         cx="242.71814"
         cy="326.65125"
         r="1"
         id="circle4544" />
      <path
         d="m 232.62178,326.78838 -9.5,-16.45448 -60.62178,35 9.5,16.45448 60.62178,-35 z"
         id="path4546" />
      <circle
         cx="204.625"
         cy="348.4209"
         r="1"
         id="circle4548" />
      <circle
         cx="190.125"
         cy="323.30615"
         r="1"
         id="circle4550" />
      <path
         d="m 223.62178,249.78838 9.5,-16.45448 -60.62178,-35 -9.5,16.45448 60.62178,35 z"
         id="path4552" />
      <circle
         cx="190.125"
         cy="236.2706"
         r="1"
         id="circle4554" />
      <circle
         cx="204.625"
         cy="211.15587"
         r="1"
         id="circle4556" />
      <circle
         cx="249.41154"
         cy="270.78839"
         r="1"
         id="circle4558" />
      <circle
         cx="265.5"
         cy="279.78839"
         r="1"
         id="circle4560" />
      <circle
         cx="266.99033"
         cy="312.31729"
         r="1"
         id="circle4562" />
      <circle
         cx="104.82051"
         cy="155.55444"
         r="1"
         id="circle4564" />
      <circle
         cx="114.75"
         cy="192.75282"
         r="1"
         id="circle4566" />
      <circle
         cx="87.5"
         cy="165.55444"
         r="1"
         id="circle4568" />
      <circle
         cx="90.725082"
         cy="151.14046"
         r="2"
         id="circle4570" />
    </g>
  </g>
  <g
     transform="translate(18.000001,237.9715)"
     lc:blockname="MYLAYER003"
     id="g4572"
     style="fill:none;stroke:#000000;stroke-width:1">
    <g
       lc:layername="0"
       lc:is_locked="false"
       lc:is_construction="false"
       id="g4574"
       style="fill:none;stroke:#000000;stroke-width:1" />
    <g
       lc:layername="Body_Slices"
       lc:is_locked="false"
       lc:is_construction="false"
       id="g4576"
       style="fill:none;stroke:#000000;stroke-width:1">
      <path
         d="m 558.44744,554.85133 0,1.82631 -30,0 0,5.79825 30,0 0,1.82631 5,0 0,0.77457 -56.98419,32.89984 -2.5,-4.33013 -13.85641,8 2.5,4.33013 L 335,696.97096 l -9.52628,-5.5 0,-263.78839 9.52628,-5.5 228.44744,131.8942 0,0.77456 -5,0 z"
         id="path4578" />
      <circle
         cx="357.97372"
         cy="628.17932"
         r="1"
         id="circle4580" />
      <circle
         cx="509.96405"
         cy="592.10565"
         r="1"
         id="circle4582" />
      <circle
         cx="357.72372"
         cy="472.5412"
         r="1"
         id="circle4584" />
      <circle
         cx="545.6532"
         cy="569.57678"
         r="1"
         id="circle4586" />
      <circle
         cx="357.97372"
         cy="490.97421"
         r="1"
         id="circle4588" />
      <circle
         cx="347.79422"
         cy="435.34283"
         r="1"
         id="circle4590" />
      <circle
         cx="333.69879"
         cy="688.22467"
         r="2"
         id="circle4592" />
      <circle
         cx="373.56216"
         cy="637.17932"
         r="1"
         id="circle4594" />
      <circle
         cx="357.72372"
         cy="646.6123"
         r="1"
         id="circle4596" />
      <circle
         cx="508.47372"
         cy="559.57678"
         r="1"
         id="circle4598" />
      <circle
         cx="330.47372"
         cy="673.81073"
         r="1"
         id="circle4600" />
      <circle
         cx="357.72372"
         cy="559.57678"
         r="1"
         id="circle4602" />
      <circle
         cx="433.09872"
         cy="603.09454"
         r="1"
         id="circle4604" />
      <circle
         cx="447.59872"
         cy="628.20929"
         r="1"
         id="circle4606" />
      <path
         d="m 475.5955,606.57677 -9.5,-16.45449 -60.62178,35 9.5,16.45449 60.62178,-35 z"
         id="path4608" />
      <circle
         cx="373.56216"
         cy="481.97421"
         r="1"
         id="circle4610" />
      <circle
         cx="433.09872"
         cy="516.05896"
         r="1"
         id="circle4612" />
      <circle
         cx="447.59872"
         cy="490.94424"
         r="1"
         id="circle4614" />
      <path
         d="m 466.5955,529.57677 9.5,-16.45449 -60.62178,-35 -9.5,16.45449 60.62178,35 z"
         id="path4616" />
      <circle
         cx="347.79422"
         cy="683.81073"
         r="1"
         id="circle4618" />
      <path
         d="m 352.97372,524.57677 -19,0 0,70 19,0 0,-70 z"
         id="path4620" />
      <circle
         cx="330.47372"
         cy="445.34283"
         r="1"
         id="circle4622" />
      <circle
         cx="328.72372"
         cy="559.57678"
         r="1"
         id="circle4624" />
      <circle
         cx="492.38525"
         cy="550.57678"
         r="1"
         id="circle4626" />
      <path
         d="m 360.47372,641.84918 142.5,-82.27241 -142.5,-82.27242 0,164.54483 z"
         id="path4628" />
      <circle
         cx="492.38525"
         cy="568.57678"
         r="1"
         id="circle4630" />
      <circle
         cx="485.69186"
         cy="606.43964"
         r="1"
         id="circle4632" />
      <circle
         cx="333.69879"
         cy="430.92883"
         r="2"
         id="circle4634" />
      <circle
         cx="545.6532"
         cy="549.57678"
         r="1"
         id="circle4636" />
    </g>
  </g>
  <g
     transform="translate(18.000001,237.9715)"
     lc:blockname="MYLAYER002"
     id="g4638"
     style="fill:none;stroke:#000000;stroke-width:1">
    <g
       lc:layername="0"
       lc:is_locked="false"
       lc:is_construction="false"
       id="g4640"
       style="fill:none;stroke:#000000;stroke-width:1" />
    <g
       lc:layername="Body_Slices"
       lc:is_locked="false"
       lc:is_construction="false"
       id="g4642"
       style="fill:none;stroke:#000000;stroke-width:1">
      <path
         d="m 92.026279,696.97096 -9.526279,-5.5 0,-263.78839 9.526279,-5.5 228.447441,131.8942 0,11 -228.447441,131.89419 z"
         id="path4644" />
      <circle
         cx="204.625"
         cy="490.94424"
         r="1"
         id="circle4646" />
      <circle
         cx="302.6795"
         cy="569.57678"
         r="1"
         id="circle4648" />
      <circle
         cx="313.54984"
         cy="559.57678"
         r="2"
         id="circle4650" />
      <circle
         cx="114.75"
         cy="472.5412"
         r="1"
         id="circle4652" />
      <circle
         cx="87.5"
         cy="673.81073"
         r="1"
         id="circle4654" />
      <path
         d="m 300,558.07677 -12,0 a 1.5,1.5 0 0 0 0,3 l 12,0 a 1.5,1.5 0 0 0 0,-3 z"
         id="path4656" />
      <path
         d="m 110,524.57677 -19,0 0,70 19,0 0,-70 z"
         id="path4658" />
      <circle
         cx="130.58846"
         cy="637.17932"
         r="1"
         id="circle4660" />
      <circle
         cx="104.82051"
         cy="435.34283"
         r="1"
         id="circle4662" />
      <circle
         cx="90.725082"
         cy="430.92883"
         r="2"
         id="circle4664" />
      <circle
         cx="302.6795"
         cy="549.57678"
         r="1"
         id="circle4666" />
      <circle
         cx="87.5"
         cy="445.34283"
         r="1"
         id="circle4668" />
      <path
         d="m 223.62178,529.57677 9.5,-16.45449 -60.62178,-35 -9.5,16.45449 60.62178,35 z"
         id="path4670" />
      <circle
         cx="249.41154"
         cy="550.57678"
         r="1"
         id="circle4672" />
      <circle
         cx="266.99033"
         cy="592.10565"
         r="1"
         id="circle4674" />
      <circle
         cx="265.5"
         cy="559.57678"
         r="1"
         id="circle4676" />
      <path
         d="m 232.62178,606.57677 -9.5,-16.45449 -60.62178,35 9.5,16.45449 60.62178,-35 z"
         id="path4678" />
      <circle
         cx="190.125"
         cy="603.09454"
         r="1"
         id="circle4680" />
      <circle
         cx="204.625"
         cy="628.20929"
         r="1"
         id="circle4682" />
      <path
         d="M 117.5,641.84918 260,559.57677 117.5,477.30435 l 0,164.54483 z"
         id="path4684" />
      <circle
         cx="249.41154"
         cy="568.57678"
         r="1"
         id="circle4686" />
      <circle
         cx="242.71814"
         cy="606.43964"
         r="1"
         id="circle4688" />
      <circle
         cx="190.125"
         cy="516.05896"
         r="1"
         id="circle4690" />
      <circle
         cx="130.58846"
         cy="481.97421"
         r="1"
         id="circle4692" />
      <circle
         cx="115"
         cy="490.97421"
         r="1"
         id="circle4694" />
      <circle
         cx="115"
         cy="628.17932"
         r="1"
         id="circle4696" />
      <circle
         cx="114.75"
         cy="559.57678"
         r="1"
         id="circle4698" />
      <circle
         cx="90.725082"
         cy="688.22467"
         r="2"
         id="circle4700" />
      <circle
         cx="104.82051"
         cy="683.81073"
         r="1"
         id="circle4702" />
      <circle
         cx="114.75"
         cy="646.6123"
         r="1"
         id="circle4704" />
      <circle
         cx="85.75"
         cy="559.57678"
         r="1"
         id="circle4706" />
    </g>
  </g>
  <g
     transform="translate(18.000001,237.9715)"
     lc:blockname="MYLAYER001"
     id="g4708"
     style="fill:none;stroke:#000000;stroke-width:1">
    <g
       lc:layername="0"
       lc:is_locked="false"
       lc:is_construction="false"
       id="g4710"
       style="fill:none;stroke:#000000;stroke-width:1" />
    <g
       lc:layername="Body_Slices"
       lc:is_locked="false"
       lc:is_construction="false"
       id="g4712"
       style="fill:none;stroke:#000000;stroke-width:1">
      <path
         d="m 335,976.75934 -9.52628,-5.5 0,-263.78838 9.52628,-5.5 228.44744,131.89419 0,11 L 335,976.75934 Z"
         id="path4714" />
      <circle
         cx="545.6532"
         cy="829.36517"
         r="1"
         id="circle4716" />
      <circle
         cx="508.47372"
         cy="839.36517"
         r="1"
         id="circle4718" />
      <path
         d="m 542.97372,837.86515 -12,0 a 1.5,1.5 0 0 0 0,3 l 12,0 a 1.5,1.5 0 0 0 0,-3 z"
         id="path4720" />
      <circle
         cx="357.97372"
         cy="770.76263"
         r="1"
         id="circle4722" />
      <circle
         cx="347.79422"
         cy="715.13123"
         r="1"
         id="circle4724" />
      <circle
         cx="492.38525"
         cy="848.36517"
         r="1"
         id="circle4726" />
      <circle
         cx="485.69186"
         cy="886.22803"
         r="1"
         id="circle4728" />
      <circle
         cx="447.59872"
         cy="770.73267"
         r="1"
         id="circle4730" />
      <circle
         cx="333.69879"
         cy="968.01306"
         r="2"
         id="circle4732" />
      <circle
         cx="357.72372"
         cy="752.32959"
         r="1"
         id="circle4734" />
      <circle
         cx="330.47372"
         cy="953.59906"
         r="1"
         id="circle4736" />
      <circle
         cx="328.72372"
         cy="839.36517"
         r="1"
         id="circle4738" />
      <circle
         cx="556.52356"
         cy="839.36517"
         r="2"
         id="circle4740" />
      <circle
         cx="545.6532"
         cy="849.36517"
         r="1"
         id="circle4742" />
      <circle
         cx="492.38525"
         cy="830.36517"
         r="1"
         id="circle4744" />
      <path
         d="m 360.47372,921.63756 142.5,-82.27241 -142.5,-82.27241 0,164.54482 z"
         id="path4746" />
      <circle
         cx="433.09872"
         cy="882.88293"
         r="1"
         id="circle4748" />
      <circle
         cx="447.59872"
         cy="907.99768"
         r="1"
         id="circle4750" />
      <circle
         cx="373.56216"
         cy="761.76263"
         r="1"
         id="circle4752" />
      <circle
         cx="433.09872"
         cy="795.84735"
         r="1"
         id="circle4754" />
      <circle
         cx="373.56216"
         cy="916.96771"
         r="1"
         id="circle4756" />
      <circle
         cx="509.96405"
         cy="871.89404"
         r="1"
         id="circle4758" />
      <circle
         cx="347.79422"
         cy="963.59906"
         r="1"
         id="circle4760" />
      <circle
         cx="357.97372"
         cy="907.96771"
         r="1"
         id="circle4762" />
      <circle
         cx="357.72372"
         cy="926.4007"
         r="1"
         id="circle4764" />
      <circle
         cx="357.72372"
         cy="839.36517"
         r="1"
         id="circle4766" />
      <circle
         cx="330.47372"
         cy="725.13123"
         r="1"
         id="circle4768" />
      <circle
         cx="333.69879"
         cy="710.71722"
         r="2"
         id="circle4770" />
    </g>
  </g>
  <g
     transform="translate(18.000001,237.9715)"
     lc:blockname="MYLAYER005"
     id="g4772"
     style="fill:none;stroke:#000000;stroke-width:1">
    <g
       lc:layername="0"
       lc:is_locked="false"
       lc:is_construction="false"
       id="g4774"
       style="fill:none;stroke:#000000;stroke-width:1" />
    <g
       lc:layername="Body_Slices"
       lc:is_locked="false"
       lc:is_construction="false"
       id="g4776"
       style="fill:none;stroke:#000000;stroke-width:1">
      <path
         d="m 558.44744,276.07624 0,3.16564 a 2,2 0 1 0 0,1.09301 l 0,3.16564 5,0 0,1.78785 -56.98419,32.89984 -2.5,-4.33012 -1.02132,0.58965 -7.5,-12.99038 -12.12435,7 7.5,12.99038 -0.71074,0.41035 2.5,4.33012 L 335,417.18257 l -9.52628,-5.5 0,-263.78838 9.52628,-5.5 228.44744,131.89419 0,1.78786 -5,0 z"
         id="path4778" />
      <circle
         cx="447.59872"
         cy="211.15587"
         r="1"
         id="circle4780" />
      <path
         d="m 466.5955,249.78838 9.5,-16.45448 -60.62178,-35 -9.5,16.45448 60.62178,35 z"
         id="path4782" />
      <circle
         cx="330.47372"
         cy="165.55444"
         r="1"
         id="circle4784" />
      <circle
         cx="347.79422"
         cy="155.55444"
         r="1"
         id="circle4786" />
      <circle
         cx="333.69879"
         cy="408.43631"
         r="2"
         id="circle4788" />
      <circle
         cx="357.97372"
         cy="211.18584"
         r="1"
         id="circle4790" />
      <circle
         cx="509.96405"
         cy="312.31729"
         r="1"
         id="circle4792" />
      <circle
         cx="545.6532"
         cy="269.78839"
         r="1"
         id="circle4794" />
      <circle
         cx="347.79422"
         cy="404.02231"
         r="1"
         id="circle4796" />
      <circle
         cx="492.38525"
         cy="288.78839"
         r="1"
         id="circle4798" />
      <circle
         cx="333.69879"
         cy="151.14046"
         r="2"
         id="circle4800" />
      <circle
         cx="373.56216"
         cy="357.39093"
         r="1"
         id="circle4802" />
      <path
         d="m 475.5955,326.78838 -9.5,-16.45448 -60.62178,35 9.5,16.45448 60.62178,-35 z"
         id="path4804" />
      <path
         d="m 500.97372,266.58838 35,0 0,11.7 7,0 a 1.5,1.5 0 1 1 0,3 l -7,0 0,11.8 -35,0 0,-12.1453 -140.5,81.11772 0,-164.54483 140.5,81.11771 0,-12.0453 z"
         id="path4806" />
      <circle
         cx="373.56216"
         cy="202.18584"
         r="1"
         id="circle4808" />
      <circle
         cx="492.38525"
         cy="270.78839"
         r="1"
         id="circle4810" />
      <circle
         cx="433.09872"
         cy="236.2706"
         r="1"
         id="circle4812" />
      <circle
         cx="485.69186"
         cy="326.65125"
         r="1"
         id="circle4814" />
      <circle
         cx="447.59872"
         cy="348.4209"
         r="1"
         id="circle4816" />
      <circle
         cx="433.09872"
         cy="323.30615"
         r="1"
         id="circle4818" />
      <path
         d="m 352.97372,244.78838 -19,0 0,70 19,0 0,-70 z"
         id="path4820" />
      <circle
         cx="330.47372"
         cy="394.02231"
         r="1"
         id="circle4822" />
      <circle
         cx="357.72372"
         cy="366.82394"
         r="1"
         id="circle4824" />
      <circle
         cx="357.97372"
         cy="348.39093"
         r="1"
         id="circle4826" />
      <circle
         cx="328.72372"
         cy="279.78839"
         r="1"
         id="circle4828" />
      <circle
         cx="357.72372"
         cy="279.78839"
         r="1"
         id="circle4830" />
      <circle
         cx="357.72372"
         cy="192.75282"
         r="1"
         id="circle4832" />
      <circle
         cx="545.6532"
         cy="289.78839"
         r="1"
         id="circle4834" />
    </g>
  </g>
  <g
     transform="translate(18.000001,237.9715)"
     lc:blockname="MYLAYER007"
     id="g4836"
     style="fill:none;stroke:#000000;stroke-width:1">
    <g
       lc:layername="0"
       lc:is_locked="false"
       lc:is_construction="false"
       id="g4838"
       style="fill:none;stroke:#000000;stroke-width:1" />
    <g
       lc:layername="Body_Slices"
       lc:is_locked="false"
       lc:is_construction="false"
       id="g4840"
       style="fill:none;stroke:#000000;stroke-width:1">
      <path
         d="m 335,137.39419 -9.52628,-5.5 0,-263.78838 9.52628,-5.5 L 563.44744,-5.5 l 0,11 L 335,137.39419 Z"
         id="path4842" />
      <circle
         cx="328.72372"
         cy="0"
         r="1"
         id="circle4844" />
      <circle
         cx="556.52356"
         cy="0"
         r="2"
         id="circle4846" />
      <circle
         cx="333.69879"
         cy="-128.64793"
         r="2"
         id="circle4848" />
      <circle
         cx="347.79422"
         cy="124.23394"
         r="1"
         id="circle4850" />
      <circle
         cx="330.47372"
         cy="114.23394"
         r="1"
         id="circle4852" />
      <circle
         cx="485.69186"
         cy="46.862854"
         r="1"
         id="circle4854" />
      <circle
         cx="447.59872"
         cy="68.632515"
         r="1"
         id="circle4856" />
      <circle
         cx="447.59872"
         cy="-68.632515"
         r="1"
         id="circle4858" />
      <circle
         cx="347.79422"
         cy="-124.23394"
         r="1"
         id="circle4860" />
      <circle
         cx="330.47372"
         cy="-114.23394"
         r="1"
         id="circle4862" />
      <circle
         cx="509.96405"
         cy="32.5289"
         r="1"
         id="circle4864" />
      <circle
         cx="333.69879"
         cy="128.64793"
         r="2"
         id="circle4866" />
      <circle
         cx="545.6532"
         cy="-10"
         r="1"
         id="circle4868" />
      <path
         d="m 331.97372,-105.6551 0,211.3102 a 15,15 0 0 0 22.5,12.99038 l 183,-105.655099 a 15,15 0 0 0 0,-25.980762 l -183,-105.655099 a 15,15 0 0 0 -22.5,12.99038 z"
         id="path4870" />
      <circle
         cx="545.6532"
         cy="10"
         r="1"
         id="circle4872" />
      <path
         d="M 360.47372,82.272413 492.58142,6 l 8.3923,0 0,1.5055535 -146,84.2931395 0,-183.597386 146,84.2931395 0,1.5055535 -8.3923,0 -132.1077,-76.272413 0,164.544826 z"
         id="path4874" />
      <circle
         cx="357.72372"
         cy="87.035553"
         r="1"
         id="circle4876" />
      <circle
         cx="357.72372"
         cy="-87.035553"
         r="1"
         id="circle4878" />
      <circle
         cx="433.09872"
         cy="-43.517776"
         r="1"
         id="circle4880" />
      <circle
         cx="357.97372"
         cy="68.602539"
         r="1"
         id="circle4882" />
      <circle
         cx="373.56216"
         cy="77.602539"
         r="1"
         id="circle4884" />
      <circle
         cx="433.09872"
         cy="43.517776"
         r="1"
         id="circle4886" />
      <circle
         cx="357.72372"
         cy="0"
         r="1"
         id="circle4888" />
      <circle
         cx="373.56216"
         cy="-77.602539"
         r="1"
         id="circle4890" />
      <circle
         cx="357.97372"
         cy="-68.602539"
         r="1"
         id="circle4892" />
      <circle
         cx="492.38525"
         cy="-9"
         r="1"
         id="circle4894" />
      <circle
         cx="492.38525"
         cy="9"
         r="1"
         id="circle4896" />
    </g>
  </g>
  <g
     transform="translate(18.000001,237.9715)"
     lc:blockname="MYLAYER006"
     id="g4898"
     style="fill:none;stroke:#000000;stroke-width:1">
    <g
       lc:layername="0"
       lc:is_locked="false"
       lc:is_construction="false"
       id="g4900"
       style="fill:none;stroke:#000000;stroke-width:1" />
    <g
       lc:layername="Body_Slices"
       lc:is_locked="false"
       lc:is_construction="false"
       id="g4902"
       style="fill:none;stroke:#000000;stroke-width:1">
      <path
         d="m 263.48953,38.39984 -2.5,-4.330127 -1.02132,0.589656 -0.75,-1.299038 L 294.5,12.990381 a 15,15 0 0 0 0,-25.980762 L 111.5,-118.64548 A 15,15 0 0 0 89,-105.6551 l 0,211.3102 a 15,15 0 0 0 22.5,12.99038 l 135.59386,-78.285149 0.75,1.299038 -0.71074,0.410344 2.5,4.330127 -157.606841,90.99435 -9.526279,-5.5 0,-263.78838 9.526279,-5.5 L 320.47372,-5.5 l 0,11 -56.98419,32.89984 z"
         id="path4904" />
      <circle
         cx="87.5"
         cy="114.23394"
         r="1"
         id="circle4906" />
      <circle
         cx="313.54984"
         cy="0"
         r="2"
         id="circle4908" />
      <circle
         cx="87.5"
         cy="-114.23394"
         r="1"
         id="circle4910" />
      <circle
         cx="204.625"
         cy="-68.632515"
         r="1"
         id="circle4912" />
      <circle
         cx="85.75"
         cy="0"
         r="1"
         id="circle4914" />
      <circle
         cx="204.625"
         cy="68.632515"
         r="1"
         id="circle4916" />
      <circle
         cx="242.71814"
         cy="46.862854"
         r="1"
         id="circle4918" />
      <circle
         cx="302.6795"
         cy="10"
         r="1"
         id="circle4920" />
      <circle
         cx="266.99033"
         cy="32.5289"
         r="1"
         id="circle4922" />
      <circle
         cx="302.6795"
         cy="-10"
         r="1"
         id="circle4924" />
      <circle
         cx="90.725082"
         cy="-128.64793"
         r="2"
         id="circle4926" />
      <circle
         cx="104.82051"
         cy="-124.23394"
         r="1"
         id="circle4928" />
      <circle
         cx="90.725082"
         cy="128.64793"
         r="2"
         id="circle4930" />
      <circle
         cx="104.82051"
         cy="124.23394"
         r="1"
         id="circle4932" />
      <path
         d="M 117.5,82.272413 258,1.1547005 l 0,6.350853 -146,84.2931395 0,-183.597386 146,84.2931395 0,6.350853 -140.5,-81.1177125 0,164.544826 z"
         id="path4934" />
      <circle
         cx="115"
         cy="-68.602539"
         r="1"
         id="circle4936" />
      <circle
         cx="115"
         cy="68.602539"
         r="1"
         id="circle4938" />
      <circle
         cx="114.75"
         cy="87.035553"
         r="1"
         id="circle4940" />
      <circle
         cx="130.58846"
         cy="77.602539"
         r="1"
         id="circle4942" />
      <circle
         cx="249.41154"
         cy="9"
         r="1"
         id="circle4944" />
      <circle
         cx="249.41154"
         cy="-9"
         r="1"
         id="circle4946" />
      <circle
         cx="130.58846"
         cy="-77.602539"
         r="1"
         id="circle4948" />
      <circle
         cx="114.75"
         cy="0"
         r="1"
         id="circle4950" />
      <circle
         cx="190.125"
         cy="43.517776"
         r="1"
         id="circle4952" />
      <circle
         cx="190.125"
         cy="-43.517776"
         r="1"
         id="circle4954" />
      <circle
         cx="114.75"
         cy="-87.035553"
         r="1"
         id="circle4956" />
    </g>
  </g>
</svg>
