<svg xmlns:lc="http://www.librecad.org" xmlns:dc="http://purl.org/dc/elements/1.1/" xmlns:cc="http://creativecommons.org/ns#" xmlns:rdf="http://www.w3.org/1999/02/22-rdf-syntax-ns#" xmlns:svg="http://www.w3.org/2000/svg" xmlns="http://www.w3.org/2000/svg" version="1.1" id="svg4434" viewBox="0 0 681.94744 1315.3083" height="131.53084cm" width="68.194748cm"><g transform="translate(0 0)"><rect y="2.5276048" x="69.71682" height="1308.8347" width="552.4729" id="rect5242" style="fill:none;stroke:none" class="bin" transform="translate(-69.71682 -2.5276048)"/><g transform="translate(338.4737210000001 1214.73084) rotate(180)"><path d="M 110.02628 1214.73084 L 100.500001 1209.23084 L 100.500001 945.4424599999999 L 110.02628 939.9424599999999 L 338.473721 1071.8366499999997 L 338.473721 1082.8366499999997 L 110.02628000000001 1214.7308399999997 z" id="path4446"/><path d="M 112.500001 955.22707 L 112.500001 1199.44623 L 324.000001 1077.33665 L 112.500001 955.22707 z" id="path4448" class="null hole"/><path d="M 123.500001 1180.39367 L 302.000001 1077.33665 L 123.500001 974.27963 L 123.500001 1180.39367 z" id="path4478"/><circle cx="132.750001" cy="1077.3366700000001" r="1" id="circle4480" class="null hole"/><circle cx="283.500001" cy="1077.3366700000001" r="1" id="circle4482" class="null hole"/><circle cx="133.000001" cy="1008.7341299999999" r="1" id="circle4484" class="null hole"/><circle cx="148.588461" cy="999.7341299999999" r="1" id="circle4486" class="null hole"/><circle cx="132.750001" cy="990.30109" r="1" id="circle4488" class="null hole"/><circle cx="267.411541" cy="1086.3366700000001" r="1" id="circle4490" class="null hole"/><circle cx="132.750001" cy="1164.3722" r="1" id="circle4492" class="null hole"/><circle cx="133.000001" cy="1145.93921" r="1" id="circle4494" class="null hole"/><path d="M 135.500001 1159.60906 L 278.000001 1077.33665 L 135.500001 995.06424 L 135.500001 1159.60906 z" id="path4496" class="null hole"/><circle cx="208.125001" cy="1120.8544299999999" r="1" id="circle4498" class="null hole"/><circle cx="267.411541" cy="1068.3366700000001" r="1" id="circle4500" class="null hole"/><circle cx="208.125001" cy="1033.81885" r="1" id="circle4502" class="null hole"/><circle cx="148.588461" cy="1154.93921" r="1" id="circle4504" class="null hole"/><circle cx="320.679501" cy="1067.3366700000001" r="1" id="circle4450" class="null hole"/><circle cx="320.679501" cy="1087.3366700000001" r="1" id="circle4452" class="null hole"/><circle cx="103.750001" cy="1077.3366700000001" r="1" id="circle4454" class="null hole"/><circle cx="105.500001" cy="963.10273" r="1" id="circle4456" class="null hole"/><circle cx="108.725083" cy="948.68872" r="2" id="circle4458" class="null hole"/><circle cx="122.820511" cy="1201.5705600000001" r="1" id="circle4460" class="null hole"/><circle cx="105.500001" cy="1191.5705600000001" r="1" id="circle4462" class="null hole"/><circle cx="122.820511" cy="953.10273" r="1" id="circle4464" class="null hole"/><circle cx="284.99033099999997" cy="1109.86554" r="1" id="circle4466" class="null hole"/><circle cx="222.625001" cy="1008.70417" r="1" id="circle4468" class="null hole"/><circle cx="222.625001" cy="1145.96918" r="1" id="circle4470" class="null hole"/><circle cx="260.718141" cy="1124.1995299999999" r="1" id="circle4472" class="null hole"/><circle cx="108.725083" cy="1205.9845599999999" r="2" id="circle4474" class="null hole"/><circle cx="331.549841" cy="1077.3366700000001" r="2" id="circle4476" class="null hole"/></g><g transform="translate(-343.47372100000007 -791.54827) rotate(0)"><path d="M 353.000001 1214.73084 L 343.473721 1209.23084 L 343.473721 945.4424599999999 L 353.000001 939.9424599999999 L 581.447441 1071.8366499999997 L 581.447441 1082.8366499999997 L 353.000001 1214.73084 z" id="path4714"/><circle cx="563.653201" cy="1067.3366700000001" r="1" id="circle4716" class="null hole"/><circle cx="526.4737210000001" cy="1077.3366700000001" r="1" id="circle4718" class="null hole"/><path d="M 560.973721 1075.83665 L 548.973721 1075.83665 A 1.5 1.5 0 0 0 548.973721 1078.83665 L 560.973721 1078.83665 A 1.5 1.5 0 0 0 560.973721 1075.83665 z" id="path4720" class="null hole"/><circle cx="375.973721" cy="1008.7341299999999" r="1" id="circle4722" class="null hole"/><circle cx="365.794221" cy="953.10273" r="1" id="circle4724" class="null hole"/><circle cx="510.385251" cy="1086.3366700000001" r="1" id="circle4726" class="null hole"/><circle cx="503.691861" cy="1124.1995299999999" r="1" id="circle4728" class="null hole"/><circle cx="465.598721" cy="1008.70417" r="1" id="circle4730" class="null hole"/><circle cx="351.69879099999997" cy="1205.9845599999999" r="2" id="circle4732" class="null hole"/><circle cx="375.723721" cy="990.30109" r="1" id="circle4734" class="null hole"/><circle cx="348.473721" cy="1191.5705600000001" r="1" id="circle4736" class="null hole"/><circle cx="346.723721" cy="1077.3366700000001" r="1" id="circle4738" class="null hole"/><circle cx="574.523561" cy="1077.3366700000001" r="2" id="circle4740" class="null hole"/><circle cx="563.653201" cy="1087.3366700000001" r="1" id="circle4742" class="null hole"/><circle cx="510.385251" cy="1068.3366700000001" r="1" id="circle4744" class="null hole"/><path d="M 378.473721 1159.60906 L 520.9737210000001 1077.33665 L 378.473721 995.0642399999999 L 378.473721 1159.6090599999998 z" id="path4746" class="null hole"/><circle cx="451.098721" cy="1120.8544299999999" r="1" id="circle4748" class="null hole"/><circle cx="465.598721" cy="1145.96918" r="1" id="circle4750" class="null hole"/><circle cx="391.562161" cy="999.7341299999999" r="1" id="circle4752" class="null hole"/><circle cx="451.098721" cy="1033.81885" r="1" id="circle4754" class="null hole"/><circle cx="391.562161" cy="1154.93921" r="1" id="circle4756" class="null hole"/><circle cx="527.964051" cy="1109.86554" r="1" id="circle4758" class="null hole"/><circle cx="365.794221" cy="1201.5705600000001" r="1" id="circle4760" class="null hole"/><circle cx="375.973721" cy="1145.93921" r="1" id="circle4762" class="null hole"/><circle cx="375.723721" cy="1164.3722" r="1" id="circle4764" class="null hole"/><circle cx="375.723721" cy="1077.3366700000001" r="1" id="circle4766" class="null hole"/><circle cx="348.473721" cy="963.10273" r="1" id="circle4768" class="null hole"/><circle cx="351.69879099999997" cy="948.68872" r="2" id="circle4770" class="null hole"/></g><g transform="translate(-343.47372100000007 322.60526000000004) rotate(0)"><path d="M 353.000001 375.36569 L 343.473721 369.86569 L 343.473721 106.07730999999998 L 353.000001 100.57730999999998 L 581.447441 232.4715 L 581.447441 243.4715 L 353.000001 375.36569 z" id="path4842"/><circle cx="346.723721" cy="237.9715" r="1" id="circle4844" class="null hole"/><circle cx="574.523561" cy="237.9715" r="2" id="circle4846" class="null hole"/><circle cx="351.69879099999997" cy="109.32356999999999" r="2" id="circle4848" class="null hole"/><circle cx="365.794221" cy="362.20544" r="1" id="circle4850" class="null hole"/><circle cx="348.473721" cy="352.20544" r="1" id="circle4852" class="null hole"/><circle cx="503.691861" cy="284.83435399999996" r="1" id="circle4854" class="null hole"/><circle cx="465.598721" cy="306.604015" r="1" id="circle4856" class="null hole"/><circle cx="465.598721" cy="169.33898499999998" r="1" id="circle4858" class="null hole"/><circle cx="365.794221" cy="113.73755999999999" r="1" id="circle4860" class="null hole"/><circle cx="348.473721" cy="123.73755999999999" r="1" id="circle4862" class="null hole"/><circle cx="527.964051" cy="270.5004" r="1" id="circle4864" class="null hole"/><circle cx="351.69879099999997" cy="366.61942999999997" r="2" id="circle4866" class="null hole"/><circle cx="563.653201" cy="227.9715" r="1" id="circle4868" class="null hole"/><path d="M 349.973721 132.3164 L 349.973721 343.6266 A 15 15 0 0 0 372.473721 356.61698 L 555.473721 250.961881 A 15 15 0 0 0 555.473721 224.98111899999998 L 372.47372099999995 119.32601999999999 A 15 15 0 0 0 349.97372099999995 132.3164 z" id="path4870" class="null hole"/><path d="M 378.473721 320.243913 L 510.581421 243.9715 L 518.973721 243.9715 L 518.973721 245.47705349999998 L 372.97372099999995 329.770193 L 372.97372099999995 146.17280699999998 L 518.973721 230.46594649999997 L 518.973721 231.9715 L 510.581421 231.9715 L 378.47372099999995 155.699087 L 378.47372099999995 320.243913 z" id="path4874"/><circle cx="375.723721" cy="325.007053" r="1" id="circle4876" class="null hole"/><circle cx="375.723721" cy="150.935947" r="1" id="circle4878" class="null hole"/><circle cx="451.098721" cy="194.453724" r="1" id="circle4880" class="null hole"/><circle cx="375.973721" cy="306.57403899999997" r="1" id="circle4882" class="null hole"/><circle cx="391.562161" cy="315.57403899999997" r="1" id="circle4884" class="null hole"/><circle cx="451.098721" cy="281.489276" r="1" id="circle4886" class="null hole"/><circle cx="375.723721" cy="237.9715" r="1" id="circle4888" class="null hole"/><circle cx="391.562161" cy="160.368961" r="1" id="circle4890" class="null hole"/><circle cx="375.973721" cy="169.368961" r="1" id="circle4892" class="null hole"/><circle cx="510.385251" cy="228.9715" r="1" id="circle4894" class="null hole"/><circle cx="510.385251" cy="246.9715" r="1" id="circle4896" class="null hole"/><circle cx="563.653201" cy="247.9715" r="1" id="circle4872" class="null hole"/></g><g transform="translate(-100.5 37.81687999999997) rotate(0)"><path d="M 110.02628 934.94246 L 100.500001 929.44246 L 100.500001 665.65407 L 110.02628 660.15407 L 338.473721 792.04827 L 338.473721 803.04827 L 110.02628000000001 934.94246 z" id="path4644"/><circle cx="222.625001" cy="728.9157399999999" r="1" id="circle4646" class="null hole"/><circle cx="320.679501" cy="807.54828" r="1" id="circle4648" class="null hole"/><circle cx="331.549841" cy="797.54828" r="2" id="circle4650" class="null hole"/><circle cx="132.750001" cy="710.5127" r="1" id="circle4652" class="null hole"/><circle cx="105.500001" cy="911.78223" r="1" id="circle4654" class="null hole"/><path d="M 318.000001 796.04827 L 306.000001 796.04827 A 1.5 1.5 0 0 0 306.000001 799.04827 L 318.000001 799.04827 A 1.5 1.5 0 0 0 318.000001 796.04827 z" id="path4656" class="null hole"/><path d="M 128.000001 762.54827 L 109.000001 762.54827 L 109.000001 832.54827 L 128.000001 832.54827 L 128.000001 762.54827 z" id="path4658" class="null hole"/><circle cx="148.588461" cy="875.15082" r="1" id="circle4660" class="null hole"/><circle cx="122.820511" cy="673.3143299999999" r="1" id="circle4662" class="null hole"/><circle cx="108.725083" cy="668.9003299999999" r="2" id="circle4664" class="null hole"/><circle cx="320.679501" cy="787.54828" r="1" id="circle4666" class="null hole"/><circle cx="105.500001" cy="683.3143299999999" r="1" id="circle4668" class="null hole"/><path d="M 241.621781 767.54827 L 251.121781 751.09378 L 190.500001 716.09378 L 181.000001 732.54827 L 241.621781 767.5482700000001 z" id="path4670" class="null hole"/><circle cx="267.411541" cy="788.54828" r="1" id="circle4672" class="null hole"/><circle cx="284.99033099999997" cy="830.07715" r="1" id="circle4674" class="null hole"/><circle cx="283.500001" cy="797.54828" r="1" id="circle4676" class="null hole"/><path d="M 250.621781 844.54827 L 241.121781 828.09378 L 180.500001 863.09378 L 190.000001 879.54827 L 250.621781 844.54827 z" id="path4678" class="null hole"/><circle cx="208.125001" cy="841.06604" r="1" id="circle4680" class="null hole"/><circle cx="222.625001" cy="866.18079" r="1" id="circle4682" class="null hole"/><path d="M 135.500001 879.82068 L 278.000001 797.54827 L 135.500001 715.27585 L 135.500001 879.8206799999999 z" id="path4684" class="null hole"/><circle cx="267.411541" cy="806.54828" r="1" id="circle4686" class="null hole"/><circle cx="260.718141" cy="844.41114" r="1" id="circle4688" class="null hole"/><circle cx="208.125001" cy="754.03046" r="1" id="circle4690" class="null hole"/><circle cx="148.588461" cy="719.94571" r="1" id="circle4692" class="null hole"/><circle cx="133.000001" cy="728.94571" r="1" id="circle4694" class="null hole"/><circle cx="133.000001" cy="866.15082" r="1" id="circle4696" class="null hole"/><circle cx="132.750001" cy="797.54828" r="1" id="circle4698" class="null hole"/><circle cx="108.725083" cy="926.1961699999999" r="2" id="circle4700" class="null hole"/><circle cx="122.820511" cy="921.78223" r="1" id="circle4702" class="null hole"/><circle cx="132.750001" cy="884.5838" r="1" id="circle4704" class="null hole"/><circle cx="103.750001" cy="797.54828" r="1" id="circle4706" class="null hole"/></g><g transform="translate(-343.47372100000007 592.3936500000001) rotate(0)"><path d="M 576.447441 514.04774 L 576.447441 517.2133799999999 A 2 2 0 1 0 576.447441 518.30639 L 576.447441 521.4720299999999 L 581.447441 521.4720299999999 L 581.447441 523.25988 L 524.463251 556.1597199999999 L 521.963251 551.8295999999999 L 520.9419310000001 552.4192499999999 L 513.4419310000001 539.42887 L 501.317581 546.42887 L 508.817581 559.4192499999999 L 508.10684100000003 559.8295999999999 L 510.60684100000003 564.1597199999999 L 353.000001 655.15407 L 343.473721 649.65407 L 343.473721 385.86569 L 353.000001 380.36569 L 581.447441 512.25988 L 581.447441 514.04774 L 576.447441 514.04774 z" id="path4778"/><circle cx="465.598721" cy="449.12737" r="1" id="circle4780" class="null hole"/><path d="M 484.595501 487.75987999999995 L 494.095501 471.30539999999996 L 433.473721 436.30539999999996 L 423.973721 452.75987999999995 L 484.595501 487.75987999999995 z" id="path4782" class="null hole"/><circle cx="348.473721" cy="403.52594" r="1" id="circle4784" class="null hole"/><circle cx="365.794221" cy="393.52594" r="1" id="circle4786" class="null hole"/><circle cx="351.69879099999997" cy="646.4078099999999" r="2" id="circle4788" class="null hole"/><circle cx="375.973721" cy="449.15734" r="1" id="circle4790" class="null hole"/><circle cx="527.964051" cy="550.2887900000001" r="1" id="circle4792" class="null hole"/><circle cx="563.653201" cy="507.75989" r="1" id="circle4794" class="null hole"/><circle cx="365.794221" cy="641.9938099999999" r="1" id="circle4796" class="null hole"/><circle cx="510.385251" cy="526.75989" r="1" id="circle4798" class="null hole"/><circle cx="351.69879099999997" cy="389.11195999999995" r="2" id="circle4800" class="null hole"/><circle cx="391.562161" cy="595.36243" r="1" id="circle4802" class="null hole"/><path d="M 493.595501 564.7598800000001 L 484.095501 548.3054 L 423.473721 583.3054 L 432.973721 599.7598800000001 L 493.595501 564.7598800000001 z" id="path4804" class="null hole"/><path d="M 518.9737210000001 504.55987999999996 L 553.973721 504.55987999999996 L 553.973721 516.25988 L 560.973721 516.25988 A 1.5 1.5 0 1 1 560.973721 519.25988 L 553.973721 519.25988 L 553.973721 531.05988 L 518.973721 531.05988 L 518.973721 518.9145799999999 L 378.47372099999995 600.0323 L 378.47372099999995 435.48747 L 518.973721 516.60518 L 518.973721 504.55987999999996 z" id="path4806" class="null hole"/><circle cx="391.562161" cy="440.15734" r="1" id="circle4808" class="null hole"/><circle cx="510.385251" cy="508.75989" r="1" id="circle4810" class="null hole"/><circle cx="451.098721" cy="474.2421" r="1" id="circle4812" class="null hole"/><circle cx="503.691861" cy="564.62275" r="1" id="circle4814" class="null hole"/><circle cx="465.598721" cy="586.3924" r="1" id="circle4816" class="null hole"/><circle cx="451.098721" cy="561.27765" r="1" id="circle4818" class="null hole"/><path d="M 370.973721 482.75987999999995 L 351.973721 482.75987999999995 L 351.973721 552.75988 L 370.973721 552.75988 L 370.973721 482.75987999999995 z" id="path4820" class="null hole"/><circle cx="348.473721" cy="631.9938099999999" r="1" id="circle4822" class="null hole"/><circle cx="375.723721" cy="604.79544" r="1" id="circle4824" class="null hole"/><circle cx="375.973721" cy="586.36243" r="1" id="circle4826" class="null hole"/><circle cx="346.723721" cy="517.75989" r="1" id="circle4828" class="null hole"/><circle cx="375.723721" cy="517.75989" r="1" id="circle4830" class="null hole"/><circle cx="375.723721" cy="430.72432000000003" r="1" id="circle4832" class="null hole"/><circle cx="563.653201" cy="527.75989" r="1" id="circle4834" class="null hole"/></g><g transform="translate(357.5155015 1215.7370529999998) rotate(180)"><path d="M 333.473721 512.55845 L 333.473721 514.12691 L 303.473721 514.12691 L 303.473721 521.3928599999999 L 333.473721 521.3928599999999 L 333.473721 522.9613099999999 L 338.473721 522.9613099999999 L 338.473721 523.25988 L 281.489531 556.1597199999999 L 278.989531 551.8295999999999 L 277.968211 552.4192499999999 L 270.468211 539.42887 L 258.343861 546.42887 L 265.843861 559.4192499999999 L 265.133121 559.8295999999999 L 267.633121 564.1597199999999 L 110.02628000000001 655.1540699999999 L 100.50000100000001 649.6540699999999 L 100.50000100000001 385.8656899999999 L 110.02628000000001 380.3656899999999 L 338.473721 512.25988 L 338.473721 512.55845 L 333.473721 512.55845 z" id="path4512"/><circle cx="103.750001" cy="517.75989" r="1" id="circle4514" class="null hole"/><circle cx="105.500001" cy="631.9938099999999" r="1" id="circle4516" class="null hole"/><circle cx="133.000001" cy="586.36243" r="1" id="circle4518" class="null hole"/><circle cx="320.679501" cy="507.75989" r="1" id="circle4520" class="null hole"/><circle cx="108.725083" cy="646.4078099999999" r="2" id="circle4522" class="null hole"/><circle cx="122.820511" cy="641.9938099999999" r="1" id="circle4524" class="null hole"/><circle cx="148.588461" cy="595.36243" r="1" id="circle4526" class="null hole"/><circle cx="133.000001" cy="449.15734" r="1" id="circle4528" class="null hole"/><circle cx="132.750001" cy="604.79544" r="1" id="circle4530" class="null hole"/><circle cx="320.679501" cy="527.75989" r="1" id="circle4532" class="null hole"/><path d="M 128.000001 482.75987999999995 L 109.000001 482.75987999999995 L 109.000001 552.75988 L 128.000001 552.75988 L 128.000001 482.75987999999995 z" id="path4534" class="null hole"/><circle cx="132.750001" cy="517.75989" r="1" id="circle4536" class="null hole"/><circle cx="148.588461" cy="440.15734" r="1" id="circle4538" class="null hole"/><circle cx="267.411541" cy="526.75989" r="1" id="circle4540" class="null hole"/><path d="M 135.500001 600.0323 L 278.000001 517.7598800000001 L 135.500001 435.48747000000003 L 135.500001 600.0323 z" id="path4542" class="null hole"/><circle cx="260.718141" cy="564.62275" r="1" id="circle4544" class="null hole"/><path d="M 250.621781 564.7598800000001 L 241.121781 548.3054 L 180.500001 583.3054 L 190.000001 599.7598800000001 L 250.621781 564.7598800000001 z" id="path4546" class="null hole"/><circle cx="222.625001" cy="586.3924" r="1" id="circle4548" class="null hole"/><circle cx="208.125001" cy="561.27765" r="1" id="circle4550" class="null hole"/><path d="M 241.621781 487.75987999999995 L 251.121781 471.30539999999996 L 190.500001 436.30539999999996 L 181.000001 452.75987999999995 L 241.621781 487.75987999999995 z" id="path4552" class="null hole"/><circle cx="208.125001" cy="474.2421" r="1" id="circle4554" class="null hole"/><circle cx="222.625001" cy="449.12737" r="1" id="circle4556" class="null hole"/><circle cx="267.411541" cy="508.75989" r="1" id="circle4558" class="null hole"/><circle cx="283.500001" cy="517.75989" r="1" id="circle4560" class="null hole"/><circle cx="284.99033099999997" cy="550.2887900000001" r="1" id="circle4562" class="null hole"/><circle cx="122.820511" cy="393.52594" r="1" id="circle4564" class="null hole"/><circle cx="132.750001" cy="430.72432000000003" r="1" id="circle4566" class="null hole"/><circle cx="105.500001" cy="403.52594" r="1" id="circle4568" class="null hole"/><circle cx="108.725083" cy="389.11195999999995" r="2" id="circle4570" class="null hole"/></g><g transform="translate(600.5000047000001 1220.7308375999999) rotate(180)"><path d="M 576.447441 792.82283 L 576.447441 794.64914 L 546.447441 794.64914 L 546.447441 800.44739 L 576.447441 800.44739 L 576.447441 802.2737000000001 L 581.447441 802.2737000000001 L 581.447441 803.0482700000001 L 524.463251 835.9481100000002 L 521.963251 831.6179800000001 L 508.10684100000003 839.6179800000001 L 510.60684100000003 843.9481100000002 L 353.000001 934.94246 L 343.473721 929.44246 L 343.473721 665.65407 L 353.000001 660.15407 L 581.447441 792.04827 L 581.447441 792.82283 L 576.447441 792.82283 z" id="path4578"/><circle cx="375.973721" cy="866.15082" r="1" id="circle4580" class="null hole"/><circle cx="527.964051" cy="830.07715" r="1" id="circle4582" class="null hole"/><circle cx="375.723721" cy="710.5127" r="1" id="circle4584" class="null hole"/><circle cx="563.653201" cy="807.54828" r="1" id="circle4586" class="null hole"/><circle cx="375.973721" cy="728.94571" r="1" id="circle4588" class="null hole"/><circle cx="365.794221" cy="673.3143299999999" r="1" id="circle4590" class="null hole"/><circle cx="351.69879099999997" cy="926.1961699999999" r="2" id="circle4592" class="null hole"/><circle cx="391.562161" cy="875.15082" r="1" id="circle4594" class="null hole"/><circle cx="375.723721" cy="884.5838" r="1" id="circle4596" class="null hole"/><circle cx="526.4737210000001" cy="797.54828" r="1" id="circle4598" class="null hole"/><circle cx="348.473721" cy="911.78223" r="1" id="circle4600" class="null hole"/><circle cx="375.723721" cy="797.54828" r="1" id="circle4602" class="null hole"/><circle cx="451.098721" cy="841.06604" r="1" id="circle4604" class="null hole"/><circle cx="465.598721" cy="866.18079" r="1" id="circle4606" class="null hole"/><path d="M 493.595501 844.54827 L 484.095501 828.09378 L 423.473721 863.09378 L 432.973721 879.54827 L 493.595501 844.54827 z" id="path4608" class="null hole"/><circle cx="391.562161" cy="719.94571" r="1" id="circle4610" class="null hole"/><circle cx="451.098721" cy="754.03046" r="1" id="circle4612" class="null hole"/><circle cx="465.598721" cy="728.9157399999999" r="1" id="circle4614" class="null hole"/><path d="M 484.595501 767.54827 L 494.095501 751.09378 L 433.473721 716.09378 L 423.973721 732.54827 L 484.595501 767.5482700000001 z" id="path4616" class="null hole"/><circle cx="365.794221" cy="921.78223" r="1" id="circle4618" class="null hole"/><path d="M 370.973721 762.54827 L 351.973721 762.54827 L 351.973721 832.54827 L 370.973721 832.54827 L 370.973721 762.54827 z" id="path4620" class="null hole"/><circle cx="348.473721" cy="683.3143299999999" r="1" id="circle4622" class="null hole"/><circle cx="346.723721" cy="797.54828" r="1" id="circle4624" class="null hole"/><circle cx="510.385251" cy="788.54828" r="1" id="circle4626" class="null hole"/><path d="M 378.473721 879.82068 L 520.9737210000001 797.54827 L 378.473721 715.27585 L 378.473721 879.8206799999999 z" id="path4628" class="null hole"/><circle cx="510.385251" cy="806.54828" r="1" id="circle4630" class="null hole"/><circle cx="503.691861" cy="844.41114" r="1" id="circle4632" class="null hole"/><circle cx="351.69879099999997" cy="668.9003299999999" r="2" id="circle4634" class="null hole"/><circle cx="563.653201" cy="787.54828" r="1" id="circle4636" class="null hole"/></g><g transform="translate(357.52628030000005 1210.7308401999999) rotate(180)"><path d="M 281.489531 276.37134 L 278.989531 272.04121299999997 L 277.968211 272.63086899999996 L 277.218211 271.33183099999997 L 312.500001 250.961881 A 15 15 0 0 0 312.500001 224.98111899999998 L 129.500001 119.32601999999999 A 15 15 0 0 0 107.000001 132.3164 L 107.000001 343.6266 A 15 15 0 0 0 129.500001 356.61698 L 265.093861 278.33183099999997 L 265.843861 279.630869 L 265.133121 280.04121299999997 L 267.633121 284.37134 L 110.02628000000001 375.36569 L 100.50000100000001 369.86569 L 100.50000100000001 106.07730999999998 L 110.02628000000001 100.57730999999998 L 338.473721 232.4715 L 338.473721 243.4715 L 281.489531 276.37134 z" id="path4904"/><circle cx="105.500001" cy="352.20544" r="1" id="circle4906" class="null hole"/><circle cx="331.549841" cy="237.9715" r="2" id="circle4908" class="null hole"/><circle cx="105.500001" cy="123.73755999999999" r="1" id="circle4910" class="null hole"/><circle cx="222.625001" cy="169.33898499999998" r="1" id="circle4912" class="null hole"/><circle cx="103.750001" cy="237.9715" r="1" id="circle4914" class="null hole"/><circle cx="222.625001" cy="306.604015" r="1" id="circle4916" class="null hole"/><circle cx="260.718141" cy="284.83435399999996" r="1" id="circle4918" class="null hole"/><circle cx="320.679501" cy="247.9715" r="1" id="circle4920" class="null hole"/><circle cx="284.99033099999997" cy="270.5004" r="1" id="circle4922" class="null hole"/><circle cx="320.679501" cy="227.9715" r="1" id="circle4924" class="null hole"/><circle cx="108.725083" cy="109.32356999999999" r="2" id="circle4926" class="null hole"/><circle cx="122.820511" cy="113.73755999999999" r="1" id="circle4928" class="null hole"/><circle cx="108.725083" cy="366.61942999999997" r="2" id="circle4930" class="null hole"/><circle cx="122.820511" cy="362.20544" r="1" id="circle4932" class="null hole"/></g><g transform="translate(351.3741193 1455.007507) rotate(180)"><path d="M 135.500001 320.243913 L 276.000001 239.12620049999998 L 276.000001 245.47705349999998 L 130.000001 329.770193 L 130.000001 146.17280699999998 L 276.000001 230.46594649999997 L 276.000001 236.81679949999997 L 135.500001 155.699087 L 135.500001 320.243913 z" id="path4934"/><circle cx="133.000001" cy="169.368961" r="1" id="circle4936" class="null hole"/><circle cx="133.000001" cy="306.57403899999997" r="1" id="circle4938" class="null hole"/><circle cx="132.750001" cy="325.007053" r="1" id="circle4940" class="null hole"/><circle cx="148.588461" cy="315.57403899999997" r="1" id="circle4942" class="null hole"/><circle cx="267.411541" cy="246.9715" r="1" id="circle4944" class="null hole"/><circle cx="267.411541" cy="228.9715" r="1" id="circle4946" class="null hole"/><circle cx="148.588461" cy="160.368961" r="1" id="circle4948" class="null hole"/><circle cx="132.750001" cy="237.9715" r="1" id="circle4950" class="null hole"/><circle cx="208.125001" cy="281.489276" r="1" id="circle4952" class="null hole"/><circle cx="208.125001" cy="194.453724" r="1" id="circle4954" class="null hole"/><circle cx="132.750001" cy="150.935947" r="1" id="circle4956" class="null hole"/></g></g></svg>