<?xml version="1.0"?>
<svg xmlns="http://www.w3.org/2000/svg" xmlns:lc="http://www.librecad.org" xmlns:xlink="http://www.w3.org/1999/xlink" width="480.94744112in" height="1114.15353299in" viewBox="0 0 480.94744112 1114.15353299">
    <g lc:layername="0" lc:is_locked="false" lc:is_construction="false" fill="none" stroke="black" stroke-width="1"/>
    <g lc:layername="Body_Slices" lc:is_locked="false" lc:is_construction="false" fill="none" stroke="black" stroke-width="1">
        <g lc:blockname="MYLAYER">
            <g lc:layername="0" lc:is_locked="false" lc:is_construction="false" fill="none" stroke="black" stroke-width="1"/>
            <g lc:layername="Body_Slices" lc:is_locked="false" lc:is_construction="false" fill="none" stroke="black" stroke-width="1">
                <path d="M92.02627944,976.75934137 L82.5,971.25934137 L82.5,707.47095812 L92.02627944,701.97095812 L320.47372056,833.86514975 L320.47372056,844.86514975 L92.02627944,976.75934137 Z "/>
                <path d="M94.5,717.25556781 L94.5,961.47473168 L306,839.36514975 L94.5,717.25556781 Z "/>
                <circle cx="302.67949192" cy="829.36514975" r="1"/>
                <circle cx="302.67949192" cy="849.36514975" r="1"/>
                <circle cx="85.75" cy="839.36514975" r="1"/>
                <circle cx="87.5" cy="725.13121216" r="1"/>
                <circle cx="90.7250825" cy="710.71721891" r="2"/>
                <circle cx="104.82050808" cy="963.59908733" r="1"/>
                <circle cx="87.5" cy="953.59908733" r="1"/>
                <circle cx="104.82050808" cy="715.13121216" r="1"/>
                <circle cx="266.990326" cy="871.89404975" r="1"/>
                <circle cx="204.625" cy="770.7326365" r="1"/>
                <circle cx="204.625" cy="907.997663" r="1"/>
                <circle cx="242.718147" cy="886.22800375" r="1"/>
                <circle cx="90.7250825" cy="968.01308059" r="2"/>
                <circle cx="313.549835" cy="839.36514975" r="2"/>
                <path d="M105.5,942.4221728 L284,839.36514975 L105.5,736.3081267 L105.5,942.4221728 Z "/>
                <circle cx="114.75" cy="839.36514975" r="1"/>
                <circle cx="265.5" cy="839.36514975" r="1"/>
                <circle cx="115" cy="770.76260937" r="1"/>
                <circle cx="130.58845727" cy="761.76260937" r="1"/>
                <circle cx="114.75" cy="752.32959667" r="1"/>
                <circle cx="249.41154273" cy="848.36514975" r="1"/>
                <circle cx="114.75" cy="926.40070283" r="1"/>
                <circle cx="115" cy="907.96769013" r="1"/>
                <path d="M117.5,921.63756311 L260,839.36514975 L117.5,757.09273639 L117.5,921.63756311 Z "/>
                <circle cx="190.125" cy="882.88292629" r="1"/>
                <circle cx="249.41154273" cy="830.36514975" r="1"/>
                <circle cx="190.125" cy="795.84737321" r="1"/>
                <circle cx="130.58845727" cy="916.96769013" r="1"/>
            </g>
        </g>
        <g lc:blockname="MYLAYER004">
            <g lc:layername="0" lc:is_locked="false" lc:is_construction="false" fill="none" stroke="black" stroke-width="1"/>
            <g lc:layername="Body_Slices" lc:is_locked="false" lc:is_construction="false" fill="none" stroke="black" stroke-width="1">
                <path d="M315.47372056,274.58695311 L315.47372056,276.15540896 L285.47372056,276.15540896 L285.47372056,283.42135754 L315.47372056,283.42135754 L315.47372056,284.98981339 L320.47372056,284.98981339 L320.47372056,285.28838325 L263.48952586,318.1882234 L260.98952586,313.85809638 L259.96821229,314.44775204 L252.46821229,301.45737099 L240.34385664,308.45737099 L247.84385664,321.44775204 L247.1331194,321.85809638 L249.6331194,326.1882234 L92.02627944,417.18257487 L82.5,411.68257487 L82.5,147.89419163 L92.02627944,142.39419163 L320.47372056,274.28838325 L320.47372056,274.58695311 L315.47372056,274.58695311 Z "/>
                <circle cx="85.75" cy="279.78838325" r="1"/>
                <circle cx="87.5" cy="394.02232084" r="1"/>
                <circle cx="115" cy="348.39092363" r="1"/>
                <circle cx="302.67949192" cy="269.78838325" r="1"/>
                <circle cx="90.7250825" cy="408.43631409" r="2"/>
                <circle cx="104.82050808" cy="404.02232084" r="1"/>
                <circle cx="130.58845727" cy="357.39092363" r="1"/>
                <circle cx="115" cy="211.18584287" r="1"/>
                <circle cx="114.75" cy="366.82393633" r="1"/>
                <circle cx="302.67949192" cy="289.78838325" r="1"/>
                <path d="M110,244.78838325 L91,244.78838325 L91,314.78838325 L110,314.78838325 L110,244.78838325 Z "/>
                <circle cx="114.75" cy="279.78838325" r="1"/>
                <circle cx="130.58845727" cy="202.18584287" r="1"/>
                <circle cx="249.41154273" cy="288.78838325" r="1"/>
                <path d="M117.5,362.06079661 L260,279.78838325 L117.5,197.51596989 L117.5,362.06079661 Z "/>
                <circle cx="242.718147" cy="326.65123725" r="1"/>
                <path d="M232.62177826,326.78838325 L223.12177826,310.33390058 L162.5,345.33390058 L172,361.78838325 L232.62177826,326.78838325 Z "/>
                <circle cx="204.625" cy="348.4208965" r="1"/>
                <circle cx="190.125" cy="323.30615979" r="1"/>
                <path d="M223.62177826,249.78838325 L233.12177826,233.33390058 L172.5,198.33390058 L163,214.78838325 L223.62177826,249.78838325 Z "/>
                <circle cx="190.125" cy="236.27060671" r="1"/>
                <circle cx="204.625" cy="211.15587" r="1"/>
                <circle cx="249.41154273" cy="270.78838325" r="1"/>
                <circle cx="265.5" cy="279.78838325" r="1"/>
                <circle cx="266.990326" cy="312.31728325" r="1"/>
                <circle cx="104.82050808" cy="155.55444566" r="1"/>
                <circle cx="114.75" cy="192.75283017" r="1"/>
                <circle cx="87.5" cy="165.55444566" r="1"/>
                <circle cx="90.7250825" cy="151.14045241" r="2"/>
            </g>
        </g>
        <g lc:blockname="MYLAYER003">
            <g lc:layername="0" lc:is_locked="false" lc:is_construction="false" fill="none" stroke="black" stroke-width="1"/>
            <g lc:layername="Body_Slices" lc:is_locked="false" lc:is_construction="false" fill="none" stroke="black" stroke-width="1">
                <path d="M558.44744112,554.85133087 L558.44744112,556.67764309 L528.44744112,556.67764309 L528.44744112,562.47588991 L558.44744112,562.47588991 L558.44744112,564.30220212 L563.44744112,564.30220212 L563.44744112,565.0767665 L506.46324642,597.97660665 L503.96324642,593.64647963 L490.10683996,601.64647963 L492.60683996,605.97660665 L335,696.97095812 L325.47372056,691.47095812 L325.47372056,427.68257487 L335,422.18257487 L563.44744112,554.0767665 L563.44744112,554.85133087 L558.44744112,554.85133087 Z "/>
                <circle cx="357.97372056" cy="628.17930688" r="1"/>
                <circle cx="509.96404656" cy="592.1056665" r="1"/>
                <circle cx="357.72372056" cy="472.54121342" r="1"/>
                <circle cx="545.65321248" cy="569.5767665" r="1"/>
                <circle cx="357.97372056" cy="490.97422612" r="1"/>
                <circle cx="347.79422863" cy="435.34282891" r="1"/>
                <circle cx="333.69880306" cy="688.22469734" r="2"/>
                <circle cx="373.56217783" cy="637.17930688" r="1"/>
                <circle cx="357.72372056" cy="646.61231958" r="1"/>
                <circle cx="508.47372056" cy="559.5767665" r="1"/>
                <circle cx="330.47372056" cy="673.81070408" r="1"/>
                <circle cx="357.72372056" cy="559.5767665" r="1"/>
                <circle cx="433.09872056" cy="603.09454304" r="1"/>
                <circle cx="447.59872056" cy="628.20927975" r="1"/>
                <path d="M475.59549882,606.5767665 L466.09549882,590.12228383 L405.47372056,625.12228383 L414.97372056,641.5767665 L475.59549882,606.5767665 Z "/>
                <circle cx="373.56217783" cy="481.97422612" r="1"/>
                <circle cx="433.09872056" cy="516.05898996" r="1"/>
                <circle cx="447.59872056" cy="490.94425325" r="1"/>
                <path d="M466.59549882,529.5767665 L476.09549882,513.12228383 L415.47372056,478.12228383 L405.97372056,494.5767665 L466.59549882,529.5767665 Z "/>
                <circle cx="347.79422863" cy="683.81070408" r="1"/>
                <path d="M352.97372056,524.5767665 L333.97372056,524.5767665 L333.97372056,594.5767665 L352.97372056,594.5767665 L352.97372056,524.5767665 Z "/>
                <circle cx="330.47372056" cy="445.34282891" r="1"/>
                <circle cx="328.72372056" cy="559.5767665" r="1"/>
                <circle cx="492.38526329" cy="550.5767665" r="1"/>
                <path d="M360.47372056,641.84917986 L502.97372056,559.5767665 L360.47372056,477.30435314 L360.47372056,641.84917986 Z "/>
                <circle cx="492.38526329" cy="568.5767665" r="1"/>
                <circle cx="485.69186756" cy="606.4396205" r="1"/>
                <circle cx="333.69880306" cy="430.92883566" r="2"/>
                <circle cx="545.65321248" cy="549.5767665" r="1"/>
            </g>
        </g>
        <g lc:blockname="MYLAYER002">
            <g lc:layername="0" lc:is_locked="false" lc:is_construction="false" fill="none" stroke="black" stroke-width="1"/>
            <g lc:layername="Body_Slices" lc:is_locked="false" lc:is_construction="false" fill="none" stroke="black" stroke-width="1">
                <path d="M92.02627944,696.97095812 L82.5,691.47095812 L82.5,427.68257487 L92.02627944,422.18257487 L320.47372056,554.0767665 L320.47372056,565.0767665 L92.02627944,696.97095812 Z "/>
                <circle cx="204.625" cy="490.94425325" r="1"/>
                <circle cx="302.67949192" cy="569.5767665" r="1"/>
                <circle cx="313.549835" cy="559.5767665" r="2"/>
                <circle cx="114.75" cy="472.54121342" r="1"/>
                <circle cx="87.5" cy="673.81070408" r="1"/>
                <path d="M300,558.0767665 L288,558.0767665 A1.5,1.5 0 0,0 288,561.0767665 L300,561.0767665 A1.5,1.5 0 0,0 300,558.0767665 Z "/>
                <path d="M110,524.5767665 L91,524.5767665 L91,594.5767665 L110,594.5767665 L110,524.5767665 Z "/>
                <circle cx="130.58845727" cy="637.17930688" r="1"/>
                <circle cx="104.82050808" cy="435.34282891" r="1"/>
                <circle cx="90.7250825" cy="430.92883566" r="2"/>
                <circle cx="302.67949192" cy="549.5767665" r="1"/>
                <circle cx="87.5" cy="445.34282891" r="1"/>
                <path d="M223.62177826,529.5767665 L233.12177826,513.12228383 L172.5,478.12228383 L163,494.5767665 L223.62177826,529.5767665 Z "/>
                <circle cx="249.41154273" cy="550.5767665" r="1"/>
                <circle cx="266.990326" cy="592.1056665" r="1"/>
                <circle cx="265.5" cy="559.5767665" r="1"/>
                <path d="M232.62177826,606.5767665 L223.12177826,590.12228383 L162.5,625.12228383 L172,641.5767665 L232.62177826,606.5767665 Z "/>
                <circle cx="190.125" cy="603.09454304" r="1"/>
                <circle cx="204.625" cy="628.20927975" r="1"/>
                <path d="M117.5,641.84917986 L260,559.5767665 L117.5,477.30435314 L117.5,641.84917986 Z "/>
                <circle cx="249.41154273" cy="568.5767665" r="1"/>
                <circle cx="242.718147" cy="606.4396205" r="1"/>
                <circle cx="190.125" cy="516.05898996" r="1"/>
                <circle cx="130.58845727" cy="481.97422612" r="1"/>
                <circle cx="115" cy="490.97422612" r="1"/>
                <circle cx="115" cy="628.17930688" r="1"/>
                <circle cx="114.75" cy="559.5767665" r="1"/>
                <circle cx="90.7250825" cy="688.22469734" r="2"/>
                <circle cx="104.82050808" cy="683.81070408" r="1"/>
                <circle cx="114.75" cy="646.61231958" r="1"/>
                <circle cx="85.75" cy="559.5767665" r="1"/>
            </g>
        </g>
        <g lc:blockname="MYLAYER001">
            <g lc:layername="0" lc:is_locked="false" lc:is_construction="false" fill="none" stroke="black" stroke-width="1"/>
            <g lc:layername="Body_Slices" lc:is_locked="false" lc:is_construction="false" fill="none" stroke="black" stroke-width="1">
                <path d="M335,976.75934137 L325.47372056,971.25934137 L325.47372056,707.47095812 L335,701.97095812 L563.44744112,833.86514975 L563.44744112,844.86514975 L335,976.75934137 Z "/>
                <circle cx="545.65321248" cy="829.36514975" r="1"/>
                <circle cx="508.47372056" cy="839.36514975" r="1"/>
                <path d="M542.97372056,837.86514975 L530.97372056,837.86514975 A1.5,1.5 0 0,0 530.97372056,840.86514975 L542.97372056,840.86514975 A1.5,1.5 0 0,0 542.97372056,837.86514975 Z "/>
                <circle cx="357.97372056" cy="770.76260937" r="1"/>
                <circle cx="347.79422863" cy="715.13121216" r="1"/>
                <circle cx="492.38526329" cy="848.36514975" r="1"/>
                <circle cx="485.69186756" cy="886.22800375" r="1"/>
                <circle cx="447.59872056" cy="770.7326365" r="1"/>
                <circle cx="333.69880306" cy="968.01308059" r="2"/>
                <circle cx="357.72372056" cy="752.32959667" r="1"/>
                <circle cx="330.47372056" cy="953.59908733" r="1"/>
                <circle cx="328.72372056" cy="839.36514975" r="1"/>
                <circle cx="556.52355556" cy="839.36514975" r="2"/>
                <circle cx="545.65321248" cy="849.36514975" r="1"/>
                <circle cx="492.38526329" cy="830.36514975" r="1"/>
                <path d="M360.47372056,921.63756311 L502.97372056,839.36514975 L360.47372056,757.09273639 L360.47372056,921.63756311 Z "/>
                <circle cx="433.09872056" cy="882.88292629" r="1"/>
                <circle cx="447.59872056" cy="907.997663" r="1"/>
                <circle cx="373.56217783" cy="761.76260937" r="1"/>
                <circle cx="433.09872056" cy="795.84737321" r="1"/>
                <circle cx="373.56217783" cy="916.96769013" r="1"/>
                <circle cx="509.96404656" cy="871.89404975" r="1"/>
                <circle cx="347.79422863" cy="963.59908733" r="1"/>
                <circle cx="357.97372056" cy="907.96769013" r="1"/>
                <circle cx="357.72372056" cy="926.40070283" r="1"/>
                <circle cx="357.72372056" cy="839.36514975" r="1"/>
                <circle cx="330.47372056" cy="725.13121216" r="1"/>
                <circle cx="333.69880306" cy="710.71721891" r="2"/>
            </g>
        </g>
        <g lc:blockname="MYLAYER005">
            <g lc:layername="0" lc:is_locked="false" lc:is_construction="false" fill="none" stroke="black" stroke-width="1"/>
            <g lc:layername="Body_Slices" lc:is_locked="false" lc:is_construction="false" fill="none" stroke="black" stroke-width="1">
                <path d="M558.44744112,276.07623978 L558.44744112,279.24188132 A2,2 0 1,0 558.44744112,280.33488518 L558.44744112,283.50052672 L563.44744112,283.50052672 L563.44744112,285.28838325 L506.46324642,318.1882234 L503.96324642,313.85809638 L502.94193285,314.44775204 L495.44193285,301.45737099 L483.3175772,308.45737099 L490.8175772,321.44775204 L490.10683996,321.85809638 L492.60683996,326.1882234 L335,417.18257487 L325.47372056,411.68257487 L325.47372056,147.89419163 L335,142.39419163 L563.44744112,274.28838325 L563.44744112,276.07623978 L558.44744112,276.07623978 Z "/>
                <circle cx="447.59872056" cy="211.15587" r="1"/>
                <path d="M466.59549882,249.78838325 L476.09549882,233.33390058 L415.47372056,198.33390058 L405.97372056,214.78838325 L466.59549882,249.78838325 Z "/>
                <circle cx="330.47372056" cy="165.55444566" r="1"/>
                <circle cx="347.79422863" cy="155.55444566" r="1"/>
                <circle cx="333.69880306" cy="408.43631409" r="2"/>
                <circle cx="357.97372056" cy="211.18584287" r="1"/>
                <circle cx="509.96404656" cy="312.31728325" r="1"/>
                <circle cx="545.65321248" cy="269.78838325" r="1"/>
                <circle cx="347.79422863" cy="404.02232084" r="1"/>
                <circle cx="492.38526329" cy="288.78838325" r="1"/>
                <circle cx="333.69880306" cy="151.14045241" r="2"/>
                <circle cx="373.56217783" cy="357.39092363" r="1"/>
                <path d="M475.59549882,326.78838325 L466.09549882,310.33390058 L405.47372056,345.33390058 L414.97372056,361.78838325 L475.59549882,326.78838325 Z "/>
                <path d="M500.97372056,266.58838325 L535.97372056,266.58838325 L535.97372056,278.28838325 L542.97372056,278.28838325 A1.5,1.5 0 1,1 542.97372056,281.28838325 L535.97372056,281.28838325 L535.97372056,293.08838325 L500.97372056,293.08838325 L500.97372056,280.94308379 L360.47372056,362.06079661 L360.47372056,197.51596989 L500.97372056,278.63368271 L500.97372056,266.58838325 Z "/>
                <circle cx="373.56217783" cy="202.18584287" r="1"/>
                <circle cx="492.38526329" cy="270.78838325" r="1"/>
                <circle cx="433.09872056" cy="236.27060671" r="1"/>
                <circle cx="485.69186756" cy="326.65123725" r="1"/>
                <circle cx="447.59872056" cy="348.4208965" r="1"/>
                <circle cx="433.09872056" cy="323.30615979" r="1"/>
                <path d="M352.97372056,244.78838325 L333.97372056,244.78838325 L333.97372056,314.78838325 L352.97372056,314.78838325 L352.97372056,244.78838325 Z "/>
                <circle cx="330.47372056" cy="394.02232084" r="1"/>
                <circle cx="357.72372056" cy="366.82393633" r="1"/>
                <circle cx="357.97372056" cy="348.39092363" r="1"/>
                <circle cx="328.72372056" cy="279.78838325" r="1"/>
                <circle cx="357.72372056" cy="279.78838325" r="1"/>
                <circle cx="357.72372056" cy="192.75283017" r="1"/>
                <circle cx="545.65321248" cy="289.78838325" r="1"/>
            </g>
        </g>
        <g lc:blockname="MYLAYER007">
            <g lc:layername="0" lc:is_locked="false" lc:is_construction="false" fill="none" stroke="black" stroke-width="1"/>
            <g lc:layername="Body_Slices" lc:is_locked="false" lc:is_construction="false" fill="none" stroke="black" stroke-width="1">
                <path d="M335,137.39419163 L325.47372056,131.89419163 L325.47372056,-131.89419162 L335,-137.39419162 L563.44744112,-5.5 L563.44744112,5.5 L335,137.39419163 Z "/>
                <circle cx="328.72372056" cy="0" r="1"/>
                <circle cx="556.52355556" cy="0" r="2"/>
                <circle cx="333.69880306" cy="-128.64793084" r="2"/>
                <circle cx="347.79422863" cy="124.23393759" r="1"/>
                <circle cx="330.47372056" cy="114.23393759" r="1"/>
                <circle cx="485.69186756" cy="46.862854" r="1"/>
                <circle cx="447.59872056" cy="68.63251325" r="1"/>
                <circle cx="447.59872056" cy="-68.63251325" r="1"/>
                <circle cx="347.79422863" cy="-124.23393759" r="1"/>
                <circle cx="330.47372056" cy="-114.23393759" r="1"/>
                <circle cx="509.96404656" cy="32.5289" r="1"/>
                <circle cx="333.69880306" cy="128.64793084" r="2"/>
                <circle cx="545.65321248" cy="-10" r="1"/>
                <path d="M331.97372056,-105.65509926 L331.97372056,105.65509926 A15,15 0 0,0 354.47372056,118.64548032 L537.47372056,12.99038106 A15,15 0 0,0 537.47372056,-12.99038106 L354.47372056,-118.64548032 A15,15 0 0,0 331.97372056,-105.65509926 Z "/>
                <circle cx="545.65321248" cy="10" r="1"/>
                <path d="M360.47372056,82.27241336 L492.58141571,6 L500.97372056,6 L500.97372056,7.5055535 L354.97372056,91.7986928 L354.97372056,-91.7986928 L500.97372056,-7.5055535 L500.97372056,-6 L492.58141571,-6 L360.47372056,-82.27241336 L360.47372056,82.27241336 Z "/>
                <circle cx="357.72372056" cy="87.03555308" r="1"/>
                <circle cx="357.72372056" cy="-87.03555308" r="1"/>
                <circle cx="433.09872056" cy="-43.51777654" r="1"/>
                <circle cx="357.97372056" cy="68.60254038" r="1"/>
                <circle cx="373.56217783" cy="77.60254038" r="1"/>
                <circle cx="433.09872056" cy="43.51777654" r="1"/>
                <circle cx="357.72372056" cy="0" r="1"/>
                <circle cx="373.56217783" cy="-77.60254038" r="1"/>
                <circle cx="357.97372056" cy="-68.60254038" r="1"/>
                <circle cx="492.38526329" cy="-9" r="1"/>
                <circle cx="492.38526329" cy="9" r="1"/>
            </g>
        </g>
        <g lc:blockname="MYLAYER006">
            <g lc:layername="0" lc:is_locked="false" lc:is_construction="false" fill="none" stroke="black" stroke-width="1"/>
            <g lc:layername="Body_Slices" lc:is_locked="false" lc:is_construction="false" fill="none" stroke="black" stroke-width="1">
                <path d="M263.48952586,38.39984015 L260.98952586,34.06971313 L259.96821229,34.65936879 L259.21821229,33.36033069 L294.5,12.99038106 A15,15 0 0,0 294.5,-12.99038106 L111.5,-118.64548032 A15,15 0 0,0 89,-105.65509926 L89,105.65509926 A15,15 0 0,0 111.5,118.64548032 L247.09385664,40.36033069 L247.84385664,41.65936879 L247.1331194,42.06971313 L249.6331194,46.39984015 L92.02627944,137.39419163 L82.5,131.89419163 L82.5,-131.89419162 L92.02627944,-137.39419162 L320.47372056,-5.5 L320.47372056,5.5 L263.48952586,38.39984015 Z "/>
                <circle cx="87.5" cy="114.23393759" r="1"/>
                <circle cx="313.549835" cy="0" r="2"/>
                <circle cx="87.5" cy="-114.23393759" r="1"/>
                <circle cx="204.625" cy="-68.63251325" r="1"/>
                <circle cx="85.75" cy="0" r="1"/>
                <circle cx="204.625" cy="68.63251325" r="1"/>
                <circle cx="242.718147" cy="46.862854" r="1"/>
                <circle cx="302.67949192" cy="10" r="1"/>
                <circle cx="266.990326" cy="32.5289" r="1"/>
                <circle cx="302.67949192" cy="-10" r="1"/>
                <circle cx="90.7250825" cy="-128.64793084" r="2"/>
                <circle cx="104.82050808" cy="-124.23393759" r="1"/>
                <circle cx="90.7250825" cy="128.64793084" r="2"/>
                <circle cx="104.82050808" cy="124.23393759" r="1"/>
                <path d="M117.5,82.27241336 L258,1.15470054 L258,7.5055535 L112,91.7986928 L112,-91.7986928 L258,-7.5055535 L258,-1.15470054 L117.5,-82.27241336 L117.5,82.27241336 Z "/>
                <circle cx="115" cy="-68.60254038" r="1"/>
                <circle cx="115" cy="68.60254038" r="1"/>
                <circle cx="114.75" cy="87.03555308" r="1"/>
                <circle cx="130.58845727" cy="77.60254038" r="1"/>
                <circle cx="249.41154273" cy="9" r="1"/>
                <circle cx="249.41154273" cy="-9" r="1"/>
                <circle cx="130.58845727" cy="-77.60254038" r="1"/>
                <circle cx="114.75" cy="0" r="1"/>
                <circle cx="190.125" cy="43.51777654" r="1"/>
                <circle cx="190.125" cy="-43.51777654" r="1"/>
                <circle cx="114.75" cy="-87.03555308" r="1"/>
            </g>
        </g>
    </g>
</svg>
