<?xml version="1.0"?>
<!DOCTYPE svg PUBLIC "-//W3C//DTD SVG 1.1//EN" "http://www.w3.org/Graphics/SVG/1.1/DTD/svg11.dtd">
<svg width="555.652773558mm" height="484.008837193mm" viewBox="0 0 555.652773558 484.008837193" xmlns="http://www.w3.org/2000/svg" version="1.1">
<g id="MyLayer" transform="translate(94.573846,422.456515) scale(1,-1)">
<path id="MyLayer_w0000"  d="M 12.2520825623 47.4882620088 L 47.2520825623 -13.1335162562 L 49.6336524227 -11.7585162562 L 54.7410254038 -20.6047457526 A 11 11 0 0 0 55.6313 -22.57L 47.3618548156 -36.8931619279 A 11 11 0 0 0 45.2147 -37.1047L 35.0 -37.1047457526 L 35.0 -34.3547457526 L -35.0 -34.3547457526 L -35.0 -37.1047457526 L -45.2147459622 -37.1047457526 A 11 11 0 0 0 -54.741 -20.6047L -49.6336524227 -11.7585162562 L -47.2520825623 -13.1335162562 L -12.2520825623 47.4882620088 L -14.6336524227 48.8632620088 L -9.52627944163 57.7094915052 A 11 11 0 0 0 9.52628 57.7095L 14.6336524227 48.8632620088 L 12.2520825623 47.4882620088 " stroke="#191919" stroke-width="0.35 px" style="stroke-width:0.35;stroke-miterlimit:4;stroke-dasharray:none;fill:none;fill-rule: evenodd "/>
<path id="MyLayer_w0001"  d="M -4.0 55.2812882749 L -49.875 -24.1765425223 L -45.875 -31.1047457526 L 45.875 -31.1047457526 L 49.875 -24.1765425223 L 4.0 55.2812882749 L -4.0 55.2812882749 " stroke="#191919" stroke-width="0.35 px" style="stroke-width:0.35;stroke-miterlimit:4;stroke-dasharray:none;fill:none;fill-rule: evenodd "/>
<path id="MyLayer_w0002"  d="M 89.1262701892 -42.1617367517 L 81.0762701892 -56.1047457526 L -81.0762701892 -56.1047457526 L -89.1262701892 -42.1617367517 L -8.05 98.2664825043 L 8.05 98.2664825043 L 89.1262701892 -42.1617367517 " stroke="#191919" stroke-width="0.35 px" style="stroke-width:0.35;stroke-miterlimit:4;stroke-dasharray:none;fill:none;fill-rule: evenodd "/>
<path d="M 77.4480815495 -31.2624094587 L 77.4480815495 -31.2624094587 " stroke="#191919" stroke-width="0.35 px" style="stroke-width:0.35;stroke-miterlimit:4;stroke-dasharray:none;fill:none"/>
<path id="MyLayer_w0004"  d="M -25.8919826719 55.3632620088 L -28.2735525323 56.7382620088 L -63.2735525323 -3.88351625616 L -60.8919826719 -5.25851625616 L -75.5256350946 -30.6047457526 A 13 13 0 0 1 -64.2673 -50.1047L -35.0 -50.1047457526 L -35.0 -52.8547457526 L 35.0 -52.8547457526 L 35.0 -50.1047457526 L 64.2673048454 -50.1047457526 A 13 13 0 0 1 65.3986 -50.0554L 68.6882593378 -51.9547457526 L 70.7592171832 -48.3677415441 A 13 13 0 0 1 77.2673 -37.0954L 79.3382593378 -33.508404652 L 76.0485518202 -31.6090911312 A 13 13 0 0 1 75.5256 -30.6047L 60.8919826719 -5.25851625616 L 63.2735525323 -3.88351625616 L 28.2735525323 56.7382620088 L 25.8919826719 55.3632620088 L 11.2583302492 80.7094915052 A 13 13 0 0 1 -11.2583 80.7095L -25.8919826719 55.3632620088 " stroke="#191919" stroke-width="0.35 px" style="stroke-width:0.35;stroke-miterlimit:4;stroke-dasharray:none;fill:none;fill-rule: evenodd "/>
<path d="M -11.65 82.7032108255 L -11.65 82.7032108255 " stroke="#191919" stroke-width="0.35 px" style="stroke-width:0.35;stroke-miterlimit:4;stroke-dasharray:none;fill:none"/>
<path d="M -65.7980815495 -51.4408013669 L -65.7980815495 -51.4408013669 " stroke="#191919" stroke-width="0.35 px" style="stroke-width:0.35;stroke-miterlimit:4;stroke-dasharray:none;fill:none"/>
<path d="M 15.35 82.7032108255 L 15.35 82.7032108255 " stroke="#191919" stroke-width="0.35 px" style="stroke-width:0.35;stroke-miterlimit:4;stroke-dasharray:none;fill:none"/>
<path d="M 63.9480815495 -54.6450953609 L 63.9480815495 -54.6450953609 " stroke="#191919" stroke-width="0.35 px" style="stroke-width:0.35;stroke-miterlimit:4;stroke-dasharray:none;fill:none"/>
<path d="M -79.2980815495 -28.0581154647 L -79.2980815495 -28.0581154647 " stroke="#191919" stroke-width="0.35 px" style="stroke-width:0.35;stroke-miterlimit:4;stroke-dasharray:none;fill:none"/>
<title>MyLayer</title>
</g>
<g id="MyLayer005" transform="translate(94.573846,422.456515) scale(1,-1)">
<path id="MyLayer005_w0000"  d="M 455.631350946 117.209491505 L 447.581350946 103.266482504 L 285.428810568 103.266482504 L 277.378810568 117.209491505 L 358.455080757 257.637710761 L 374.555080757 257.637710761 L 455.631350946 117.209491505 " stroke="#191919" stroke-width="0.35 px" style="stroke-width:0.35;stroke-miterlimit:4;stroke-dasharray:none;fill:none;fill-rule: evenodd "/>
<path id="MyLayer005_w0001"  d="M 365.005080757 225.411680399 A 1.5 1.5 0 0 1 368.005 225.412L 368.005080757 244.411680399 A 1.5 1.5 0 1 1 365.005 244.412L 365.005080757 225.411680399 " stroke="#191919" stroke-width="0.35 px" style="stroke-width:0.35;stroke-miterlimit:4;stroke-dasharray:none;fill:none;fill-rule: evenodd "/>
<path d="M 287.206999207 131.313112792 L 287.206999207 131.313112792 " stroke="#191919" stroke-width="0.35 px" style="stroke-width:0.35;stroke-miterlimit:4;stroke-dasharray:none;fill:none"/>
<path id="MyLayer005_w0003"  d="M 401.505080757 106.516482504 L 401.505080757 125.016482504 L 331.505080757 125.016482504 L 331.505080757 106.516482504 L 401.505080757 106.516482504 " stroke="#191919" stroke-width="0.35 px" style="stroke-width:0.35;stroke-miterlimit:4;stroke-dasharray:none;fill:none;fill-rule: evenodd "/>
<path d="M 300.706999207 107.93042689 L 300.706999207 107.93042689 " stroke="#191919" stroke-width="0.35 px" style="stroke-width:0.35;stroke-miterlimit:4;stroke-dasharray:none;fill:none"/>
<path id="MyLayer005_w0005"  d="M 413.757163319 146.237712001 L 429.778633289 155.487712001 L 394.778633289 216.109490266 L 378.757163319 206.859490266 L 413.757163319 146.237712001 " stroke="#191919" stroke-width="0.35 px" style="stroke-width:0.35;stroke-miterlimit:4;stroke-dasharray:none;fill:none;fill-rule: evenodd "/>
<path d="M 354.855080757 242.074439082 L 354.855080757 242.074439082 " stroke="#191919" stroke-width="0.35 px" style="stroke-width:0.35;stroke-miterlimit:4;stroke-dasharray:none;fill:none"/>
<path id="MyLayer005_w0007"  d="M 303.231528225 155.487712001 L 319.252998195 146.237712001 L 354.252998195 206.859490266 L 338.231528225 216.109490266 L 303.231528225 155.487712001 " stroke="#191919" stroke-width="0.35 px" style="stroke-width:0.35;stroke-miterlimit:4;stroke-dasharray:none;fill:none;fill-rule: evenodd "/>
<path d="M 381.855080757 242.074439082 L 381.855080757 242.074439082 " stroke="#191919" stroke-width="0.35 px" style="stroke-width:0.35;stroke-miterlimit:4;stroke-dasharray:none;fill:none"/>
<path id="MyLayer005_w0009"  d="M 445.843340095 125.862823605 L 423.326679596 138.862823605 L 412.676679596 120.416482504 L 435.193340095 107.416482504 L 445.843340095 125.862823605 " stroke="#191919" stroke-width="0.35 px" style="stroke-width:0.35;stroke-miterlimit:4;stroke-dasharray:none;fill:none;fill-rule: evenodd "/>
<path d="M 443.953162306 128.108818798 L 443.953162306 128.108818798 " stroke="#191919" stroke-width="0.35 px" style="stroke-width:0.35;stroke-miterlimit:4;stroke-dasharray:none;fill:none"/>
<path id="MyLayer005_w0011"  d="M 362.505080757 214.652516532 L 316.630080757 135.194685735 L 320.630080757 128.266482504 L 412.380080757 128.266482504 L 416.380080757 135.194685735 L 370.505080757 214.652516532 L 362.505080757 214.652516532 " stroke="#191919" stroke-width="0.35 px" style="stroke-width:0.35;stroke-miterlimit:4;stroke-dasharray:none;fill:none;fill-rule: evenodd "/>
<path d="M 430.453162306 104.726132896 L 430.453162306 104.726132896 " stroke="#191919" stroke-width="0.35 px" style="stroke-width:0.35;stroke-miterlimit:4;stroke-dasharray:none;fill:none"/>
<title>MyLayer005</title>
</g>
<g id="MyLayer006" transform="translate(94.573846,422.456515) scale(1,-1)">
<path id="MyLayer006_w0000"  d="M 89.1262701892 276.580719762 L 81.0762701892 262.637710761 L -81.0762701892 262.637710761 L -89.1262701892 276.580719762 L -8.05 417.008939018 L 8.05 417.008939018 L 89.1262701892 276.580719762 " stroke="#191919" stroke-width="0.35 px" style="stroke-width:0.35;stroke-miterlimit:4;stroke-dasharray:none;fill:none;fill-rule: evenodd "/>
<path d="M -79.2980815495 290.684341049 L -79.2980815495 290.684341049 " stroke="#191919" stroke-width="0.35 px" style="stroke-width:0.35;stroke-miterlimit:4;stroke-dasharray:none;fill:none"/>
<path id="MyLayer006_w0002"  d="M -1.5 384.782908656 A 1.5 1.5 0 0 1 1.5 384.783L 1.5 403.782908656 A 1.5 1.5 0 1 1 -1.5 403.783L -1.5 384.782908656 " stroke="#191919" stroke-width="0.35 px" style="stroke-width:0.35;stroke-miterlimit:4;stroke-dasharray:none;fill:none;fill-rule: evenodd "/>
<path d="M -65.7980815495 267.301655147 L -65.7980815495 267.301655147 " stroke="#191919" stroke-width="0.35 px" style="stroke-width:0.35;stroke-miterlimit:4;stroke-dasharray:none;fill:none"/>
<path id="MyLayer006_w0004"  d="M -4.0 374.023744789 L -49.875 294.565913991 L -45.875 287.637710761 L 45.875 287.637710761 L 49.875 294.565913991 L 4.0 374.023744789 L -4.0 374.023744789 " stroke="#191919" stroke-width="0.35 px" style="stroke-width:0.35;stroke-miterlimit:4;stroke-dasharray:none;fill:none;fill-rule: evenodd "/>
<path d="M -11.65 401.445667339 L -11.65 401.445667339 " stroke="#191919" stroke-width="0.35 px" style="stroke-width:0.35;stroke-miterlimit:4;stroke-dasharray:none;fill:none"/>
<path d="M 77.4480815495 287.480047055 L 77.4480815495 287.480047055 " stroke="#191919" stroke-width="0.35 px" style="stroke-width:0.35;stroke-miterlimit:4;stroke-dasharray:none;fill:none"/>
<path d="M 15.35 401.445667339 L 15.35 401.445667339 " stroke="#191919" stroke-width="0.35 px" style="stroke-width:0.35;stroke-miterlimit:4;stroke-dasharray:none;fill:none"/>
<path d="M 63.9480815495 264.097361153 L 63.9480815495 264.097361153 " stroke="#191919" stroke-width="0.35 px" style="stroke-width:0.35;stroke-miterlimit:4;stroke-dasharray:none;fill:none"/>
<title>MyLayer006</title>
</g>
<g id="MyLayer002" transform="translate(94.573846,422.456515) scale(1,-1)">
<path id="MyLayer002_w0000"  d="M 368.005080757 71.2664825043 L 375.255080757 71.2664825043 L 375.255080757 94.7664825043 L 370.505080757 94.7664825043 L 370.505080757 98.2664825043 L 374.555080757 98.2664825043 L 455.631350946 -42.1617367517 L 447.581350946 -56.1047457526 L 285.428810568 -56.1047457526 L 277.378810568 -42.1617367517 L 358.455080757 98.2664825043 L 362.505080757 98.2664825043 L 362.505080757 94.7664825043 L 357.755080757 94.7664825043 L 357.755080757 71.2664825043 L 365.005080757 71.2664825043 L 365.005080757 66.0404521425 A 1.5 1.5 0 0 1 368.005 66.0405L 368.005080757 71.2664825043 " stroke="#191919" stroke-width="0.35 px" style="stroke-width:0.35;stroke-miterlimit:4;stroke-dasharray:none;fill:none;fill-rule: evenodd "/>
<path id="MyLayer002_w0001"  d="M 445.843340095 -33.508404652 L 423.326679596 -20.508404652 L 412.676679596 -38.9547457526 L 435.193340095 -51.9547457526 L 445.843340095 -33.508404652 " stroke="#191919" stroke-width="0.35 px" style="stroke-width:0.35;stroke-miterlimit:4;stroke-dasharray:none;fill:none;fill-rule: evenodd "/>
<path d="M 430.453162306 -54.6450953609 L 430.453162306 -54.6450953609 " stroke="#191919" stroke-width="0.35 px" style="stroke-width:0.35;stroke-miterlimit:4;stroke-dasharray:none;fill:none"/>
<path d="M 300.706999207 -51.4408013669 L 300.706999207 -51.4408013669 " stroke="#191919" stroke-width="0.35 px" style="stroke-width:0.35;stroke-miterlimit:4;stroke-dasharray:none;fill:none"/>
<path id="MyLayer002_w0004"  d="M 401.505080757 -52.8547457526 L 401.505080757 -34.3547457526 L 331.505080757 -34.3547457526 L 331.505080757 -52.8547457526 L 401.505080757 -52.8547457526 " stroke="#191919" stroke-width="0.35 px" style="stroke-width:0.35;stroke-miterlimit:4;stroke-dasharray:none;fill:none;fill-rule: evenodd "/>
<path id="MyLayer002_w0005"  d="M 362.505080757 55.2812882749 L 316.630080757 -24.1765425223 L 320.630080757 -31.1047457526 L 412.380080757 -31.1047457526 L 416.380080757 -24.1765425223 L 370.505080757 55.2812882749 L 362.505080757 55.2812882749 " stroke="#191919" stroke-width="0.35 px" style="stroke-width:0.35;stroke-miterlimit:4;stroke-dasharray:none;fill:none;fill-rule: evenodd "/>
<path id="MyLayer002_w0006"  d="M 413.757163319 -13.1335162562 L 429.778633289 -3.88351625616 L 394.778633289 56.7382620088 L 378.757163319 47.4882620088 L 413.757163319 -13.1335162562 " stroke="#191919" stroke-width="0.35 px" style="stroke-width:0.35;stroke-miterlimit:4;stroke-dasharray:none;fill:none;fill-rule: evenodd "/>
<path id="MyLayer002_w0007"  d="M 303.231528225 -3.88351625616 L 319.252998195 -13.1335162562 L 354.252998195 47.4882620088 L 338.231528225 56.7382620088 L 303.231528225 -3.88351625616 " stroke="#191919" stroke-width="0.35 px" style="stroke-width:0.35;stroke-miterlimit:4;stroke-dasharray:none;fill:none;fill-rule: evenodd "/>
<path d="M 443.953162306 -31.2624094587 L 443.953162306 -31.2624094587 " stroke="#191919" stroke-width="0.35 px" style="stroke-width:0.35;stroke-miterlimit:4;stroke-dasharray:none;fill:none"/>
<path d="M 287.206999207 -28.0581154647 L 287.206999207 -28.0581154647 " stroke="#191919" stroke-width="0.35 px" style="stroke-width:0.35;stroke-miterlimit:4;stroke-dasharray:none;fill:none"/>
<path d="M 354.855080757 82.7032108255 L 354.855080757 82.7032108255 " stroke="#191919" stroke-width="0.35 px" style="stroke-width:0.35;stroke-miterlimit:4;stroke-dasharray:none;fill:none"/>
<path d="M 381.855080757 82.7032108255 L 381.855080757 82.7032108255 " stroke="#191919" stroke-width="0.35 px" style="stroke-width:0.35;stroke-miterlimit:4;stroke-dasharray:none;fill:none"/>
<title>MyLayer002</title>
</g>
<g id="MyLayer004" transform="translate(94.573846,422.456515) scale(1,-1)">
<path id="MyLayer004_w0000"  d="M 272.378810568 117.209491505 L 264.328810568 103.266482504 L 102.176270189 103.266482504 L 94.1262701892 117.209491505 L 175.202540378 257.637710761 L 191.302540378 257.637710761 L 272.378810568 117.209491505 " stroke="#191919" stroke-width="0.35 px" style="stroke-width:0.35;stroke-miterlimit:4;stroke-dasharray:none;fill:none;fill-rule: evenodd "/>
<path id="MyLayer004_w0001"  d="M 181.752540378 225.411680399 A 1.5 1.5 0 0 1 184.753 225.412L 184.752540378 244.411680399 A 1.5 1.5 0 1 1 181.753 244.412L 181.752540378 225.411680399 " stroke="#191919" stroke-width="0.35 px" style="stroke-width:0.35;stroke-miterlimit:4;stroke-dasharray:none;fill:none;fill-rule: evenodd "/>
<path d="M 103.954458829 131.313112792 L 103.954458829 131.313112792 " stroke="#191919" stroke-width="0.35 px" style="stroke-width:0.35;stroke-miterlimit:4;stroke-dasharray:none;fill:none"/>
<path id="MyLayer004_w0003"  d="M 218.252540378 106.516482504 L 218.252540378 125.016482504 L 148.252540378 125.016482504 L 148.252540378 106.516482504 L 218.252540378 106.516482504 " stroke="#191919" stroke-width="0.35 px" style="stroke-width:0.35;stroke-miterlimit:4;stroke-dasharray:none;fill:none;fill-rule: evenodd "/>
<path d="M 117.454458829 107.93042689 L 117.454458829 107.93042689 " stroke="#191919" stroke-width="0.35 px" style="stroke-width:0.35;stroke-miterlimit:4;stroke-dasharray:none;fill:none"/>
<path id="MyLayer004_w0005"  d="M 230.504622941 146.237712001 L 246.526092911 155.487712001 L 211.526092911 216.109490266 L 195.504622941 206.859490266 L 230.504622941 146.237712001 " stroke="#191919" stroke-width="0.35 px" style="stroke-width:0.35;stroke-miterlimit:4;stroke-dasharray:none;fill:none;fill-rule: evenodd "/>
<path d="M 171.602540378 242.074439082 L 171.602540378 242.074439082 " stroke="#191919" stroke-width="0.35 px" style="stroke-width:0.35;stroke-miterlimit:4;stroke-dasharray:none;fill:none"/>
<path id="MyLayer004_w0007"  d="M 119.978987846 155.487712001 L 136.000457816 146.237712001 L 171.000457816 206.859490266 L 154.978987846 216.109490266 L 119.978987846 155.487712001 " stroke="#191919" stroke-width="0.35 px" style="stroke-width:0.35;stroke-miterlimit:4;stroke-dasharray:none;fill:none;fill-rule: evenodd "/>
<path d="M 198.602540378 242.074439082 L 198.602540378 242.074439082 " stroke="#191919" stroke-width="0.35 px" style="stroke-width:0.35;stroke-miterlimit:4;stroke-dasharray:none;fill:none"/>
<path id="MyLayer004_w0009"  d="M 262.590799716 125.862823605 L 240.074139218 138.862823605 L 229.424139218 120.416482504 L 251.940799716 107.416482504 L 262.590799716 125.862823605 " stroke="#191919" stroke-width="0.35 px" style="stroke-width:0.35;stroke-miterlimit:4;stroke-dasharray:none;fill:none;fill-rule: evenodd "/>
<path d="M 260.700621928 128.108818798 L 260.700621928 128.108818798 " stroke="#191919" stroke-width="0.35 px" style="stroke-width:0.35;stroke-miterlimit:4;stroke-dasharray:none;fill:none"/>
<path id="MyLayer004_w0011"  d="M 179.252540378 214.652516532 L 133.377540378 135.194685735 L 137.377540378 128.266482504 L 229.127540378 128.266482504 L 233.127540378 135.194685735 L 187.252540378 214.652516532 L 179.252540378 214.652516532 " stroke="#191919" stroke-width="0.35 px" style="stroke-width:0.35;stroke-miterlimit:4;stroke-dasharray:none;fill:none;fill-rule: evenodd "/>
<path d="M 247.200621928 104.726132896 L 247.200621928 104.726132896 " stroke="#191919" stroke-width="0.35 px" style="stroke-width:0.35;stroke-miterlimit:4;stroke-dasharray:none;fill:none"/>
<title>MyLayer004</title>
</g>
<g id="MyLayer001" transform="translate(94.573846,422.456515) scale(1,-1)">
<path id="MyLayer001_w0000"  d="M 195.504622941 47.4882620088 L 230.504622941 -13.1335162562 L 232.886192801 -11.7585162562 L 237.993565782 -20.6047457526 A 11 11 0 0 0 238.884 -22.57L 230.614395194 -36.8931619279 A 11 11 0 0 0 228.467 -37.1047L 218.252540378 -37.1047457526 L 218.252540378 -34.3547457526 L 148.252540378 -34.3547457526 L 148.252540378 -37.1047457526 L 138.037794416 -37.1047457526 A 11 11 0 0 0 128.512 -20.6047L 133.618887956 -11.7585162562 L 136.000457816 -13.1335162562 L 171.000457816 47.4882620088 L 168.618887956 48.8632620088 L 173.726260937 57.7094915052 A 11 11 0 0 0 192.779 57.7095L 197.886192801 48.8632620088 L 195.504622941 47.4882620088 " stroke="#191919" stroke-width="0.35 px" style="stroke-width:0.35;stroke-miterlimit:4;stroke-dasharray:none;fill:none;fill-rule: evenodd "/>
<path id="MyLayer001_w0001"  d="M 179.252540378 55.2812882749 L 133.377540378 -24.1765425223 L 137.377540378 -31.1047457526 L 229.127540378 -31.1047457526 L 233.127540378 -24.1765425223 L 187.252540378 55.2812882749 L 179.252540378 55.2812882749 " stroke="#191919" stroke-width="0.35 px" style="stroke-width:0.35;stroke-miterlimit:4;stroke-dasharray:none;fill:none;fill-rule: evenodd "/>
<path id="MyLayer001_w0002"  d="M 272.378810568 -42.1617367517 L 264.328810568 -56.1047457526 L 102.176270189 -56.1047457526 L 94.1262701892 -42.1617367517 L 175.202540378 98.2664825043 L 191.302540378 98.2664825043 L 272.378810568 -42.1617367517 " stroke="#191919" stroke-width="0.35 px" style="stroke-width:0.35;stroke-miterlimit:4;stroke-dasharray:none;fill:none;fill-rule: evenodd "/>
<path d="M 260.700621928 -31.2624094587 L 260.700621928 -31.2624094587 " stroke="#191919" stroke-width="0.35 px" style="stroke-width:0.35;stroke-miterlimit:4;stroke-dasharray:none;fill:none"/>
<path id="MyLayer001_w0004"  d="M 157.360557707 55.3632620088 L 154.978987846 56.7382620088 L 119.978987846 -3.88351625616 L 122.360557707 -5.25851625616 L 107.726905284 -30.6047457526 A 13 13 0 0 1 118.985 -50.1047L 148.252540378 -50.1047457526 L 148.252540378 -52.8547457526 L 218.252540378 -52.8547457526 L 218.252540378 -50.1047457526 L 247.519845224 -50.1047457526 A 13 13 0 0 1 248.651 -50.0554L 251.940799716 -51.9547457526 L 254.011757562 -48.3677415441 A 13 13 0 0 1 260.52 -37.0954L 262.590799716 -33.508404652 L 259.301092199 -31.6090911312 A 13 13 0 0 1 258.778 -30.6047L 244.14452305 -5.25851625616 L 246.526092911 -3.88351625616 L 211.526092911 56.7382620088 L 209.14452305 55.3632620088 L 194.510870628 80.7094915052 A 13 13 0 0 1 171.994 80.7095L 157.360557707 55.3632620088 " stroke="#191919" stroke-width="0.35 px" style="stroke-width:0.35;stroke-miterlimit:4;stroke-dasharray:none;fill:none;fill-rule: evenodd "/>
<path d="M 171.602540378 82.7032108255 L 171.602540378 82.7032108255 " stroke="#191919" stroke-width="0.35 px" style="stroke-width:0.35;stroke-miterlimit:4;stroke-dasharray:none;fill:none"/>
<path d="M 117.454458829 -51.4408013669 L 117.454458829 -51.4408013669 " stroke="#191919" stroke-width="0.35 px" style="stroke-width:0.35;stroke-miterlimit:4;stroke-dasharray:none;fill:none"/>
<path d="M 198.602540378 82.7032108255 L 198.602540378 82.7032108255 " stroke="#191919" stroke-width="0.35 px" style="stroke-width:0.35;stroke-miterlimit:4;stroke-dasharray:none;fill:none"/>
<path d="M 247.200621928 -54.6450953609 L 247.200621928 -54.6450953609 " stroke="#191919" stroke-width="0.35 px" style="stroke-width:0.35;stroke-miterlimit:4;stroke-dasharray:none;fill:none"/>
<path d="M 103.954458829 -28.0581154647 L 103.954458829 -28.0581154647 " stroke="#191919" stroke-width="0.35 px" style="stroke-width:0.35;stroke-miterlimit:4;stroke-dasharray:none;fill:none"/>
<title>MyLayer001</title>
</g>
<g id="MyLayer003" transform="translate(94.573846,422.456515) scale(1,-1)">
<path id="MyLayer003_w0000"  d="M 1.5 230.637710761 L 8.75 230.637710761 L 8.75 254.137710761 L 4.0 254.137710761 L 4.0 257.637710761 L 8.05 257.637710761 L 89.1262701892 117.209491505 L 81.0762701892 103.266482504 L -81.0762701892 103.266482504 L -89.1262701892 117.209491505 L -8.05 257.637710761 L -4.0 257.637710761 L -4.0 254.137710761 L -8.75 254.137710761 L -8.75 230.637710761 L -1.5 230.637710761 L -1.5 225.411680399 A 1.5 1.5 0 0 1 1.5 225.412L 1.5 230.637710761 " stroke="#191919" stroke-width="0.35 px" style="stroke-width:0.35;stroke-miterlimit:4;stroke-dasharray:none;fill:none;fill-rule: evenodd "/>
<path id="MyLayer003_w0001"  d="M 79.3382593378 125.862823605 L 56.8215988394 138.862823605 L 46.1715988394 120.416482504 L 68.6882593378 107.416482504 L 79.3382593378 125.862823605 " stroke="#191919" stroke-width="0.35 px" style="stroke-width:0.35;stroke-miterlimit:4;stroke-dasharray:none;fill:none;fill-rule: evenodd "/>
<path d="M 63.9480815495 104.726132896 L 63.9480815495 104.726132896 " stroke="#191919" stroke-width="0.35 px" style="stroke-width:0.35;stroke-miterlimit:4;stroke-dasharray:none;fill:none"/>
<path d="M -65.7980815495 107.93042689 L -65.7980815495 107.93042689 " stroke="#191919" stroke-width="0.35 px" style="stroke-width:0.35;stroke-miterlimit:4;stroke-dasharray:none;fill:none"/>
<path id="MyLayer003_w0004"  d="M 35.0 106.516482504 L 35.0 125.016482504 L -35.0 125.016482504 L -35.0 106.516482504 L 35.0 106.516482504 " stroke="#191919" stroke-width="0.35 px" style="stroke-width:0.35;stroke-miterlimit:4;stroke-dasharray:none;fill:none;fill-rule: evenodd "/>
<path id="MyLayer003_w0005"  d="M -4.0 214.652516532 L -49.875 135.194685735 L -45.875 128.266482504 L 45.875 128.266482504 L 49.875 135.194685735 L 4.0 214.652516532 L -4.0 214.652516532 " stroke="#191919" stroke-width="0.35 px" style="stroke-width:0.35;stroke-miterlimit:4;stroke-dasharray:none;fill:none;fill-rule: evenodd "/>
<path id="MyLayer003_w0006"  d="M 47.2520825623 146.237712001 L 63.2735525323 155.487712001 L 28.2735525323 216.109490266 L 12.2520825623 206.859490266 L 47.2520825623 146.237712001 " stroke="#191919" stroke-width="0.35 px" style="stroke-width:0.35;stroke-miterlimit:4;stroke-dasharray:none;fill:none;fill-rule: evenodd "/>
<path id="MyLayer003_w0007"  d="M -63.2735525323 155.487712001 L -47.2520825623 146.237712001 L -12.2520825623 206.859490266 L -28.2735525323 216.109490266 L -63.2735525323 155.487712001 " stroke="#191919" stroke-width="0.35 px" style="stroke-width:0.35;stroke-miterlimit:4;stroke-dasharray:none;fill:none;fill-rule: evenodd "/>
<path d="M 77.4480815495 128.108818798 L 77.4480815495 128.108818798 " stroke="#191919" stroke-width="0.35 px" style="stroke-width:0.35;stroke-miterlimit:4;stroke-dasharray:none;fill:none"/>
<path d="M -79.2980815495 131.313112792 L -79.2980815495 131.313112792 " stroke="#191919" stroke-width="0.35 px" style="stroke-width:0.35;stroke-miterlimit:4;stroke-dasharray:none;fill:none"/>
<path d="M -11.65 242.074439082 L -11.65 242.074439082 " stroke="#191919" stroke-width="0.35 px" style="stroke-width:0.35;stroke-miterlimit:4;stroke-dasharray:none;fill:none"/>
<path d="M 15.35 242.074439082 L 15.35 242.074439082 " stroke="#191919" stroke-width="0.35 px" style="stroke-width:0.35;stroke-miterlimit:4;stroke-dasharray:none;fill:none"/>
<title>MyLayer003</title>
</g>
<g id="MyLayer007" transform="translate(94.573846,422.456515) scale(1,-1)">
<path id="MyLayer007_w0000"  d="M 272.378810568 276.580719762 L 264.328810568 262.637710761 L 102.176270189 262.637710761 L 94.1262701892 276.580719762 L 175.202540378 417.008939018 L 191.302540378 417.008939018 L 272.378810568 276.580719762 " stroke="#191919" stroke-width="0.35 px" style="stroke-width:0.35;stroke-miterlimit:4;stroke-dasharray:none;fill:none;fill-rule: evenodd "/>
<path d="M 260.700621928 287.480047055 L 260.700621928 287.480047055 " stroke="#191919" stroke-width="0.35 px" style="stroke-width:0.35;stroke-miterlimit:4;stroke-dasharray:none;fill:none"/>
<path d="M 247.200621928 264.097361153 L 247.200621928 264.097361153 " stroke="#191919" stroke-width="0.35 px" style="stroke-width:0.35;stroke-miterlimit:4;stroke-dasharray:none;fill:none"/>
<path d="M 171.602540378 401.445667339 L 171.602540378 401.445667339 " stroke="#191919" stroke-width="0.35 px" style="stroke-width:0.35;stroke-miterlimit:4;stroke-dasharray:none;fill:none"/>
<path d="M 117.454458829 267.301655147 L 117.454458829 267.301655147 " stroke="#191919" stroke-width="0.35 px" style="stroke-width:0.35;stroke-miterlimit:4;stroke-dasharray:none;fill:none"/>
<path d="M 198.602540378 401.445667339 L 198.602540378 401.445667339 " stroke="#191919" stroke-width="0.35 px" style="stroke-width:0.35;stroke-miterlimit:4;stroke-dasharray:none;fill:none"/>
<path id="MyLayer007_w0006"  d="M 117.253184725 269.637710761 A 11 11 0 0 0 107.727 286.138L 173.726260937 400.451948019 A 11 11 0 0 0 192.779 400.452L 258.778175473 286.137710761 A 11 11 0 0 0 249.252 269.638L 117.253184725 269.637710761 " stroke="#191919" stroke-width="0.35 px" style="stroke-width:0.35;stroke-miterlimit:4;stroke-dasharray:none;fill:none;fill-rule: evenodd "/>
<path d="M 103.954458829 290.684341049 L 103.954458829 290.684341049 " stroke="#191919" stroke-width="0.35 px" style="stroke-width:0.35;stroke-miterlimit:4;stroke-dasharray:none;fill:none"/>
<path id="MyLayer007_w0008"  d="M 228.467286341 280.637710761 L 138.037794416 280.637710761 A 12 12 0 0 0 127.645 298.638L 172.860235533 376.951948019 A 12 12 0 0 0 193.645 376.952L 238.859591186 298.637710761 A 12 12 0 0 0 228.467 280.638" stroke="#191919" stroke-width="0.35 px" style="stroke-width:0.35;stroke-miterlimit:4;stroke-dasharray:none;fill:none;fill-rule: evenodd "/>
<path id="MyLayer007_w0009"  d="M 179.252540378 374.023744789 L 133.377540378 294.565913991 L 137.377540378 287.637710761 L 229.127540378 287.637710761 L 233.127540378 294.565913991 L 187.252540378 374.023744789 L 179.252540378 374.023744789 " stroke="#191919" stroke-width="0.35 px" style="stroke-width:0.35;stroke-miterlimit:4;stroke-dasharray:none;fill:none;fill-rule: evenodd "/>
<title>MyLayer007</title>
</g>
</svg>