<?xml version="1.0"?>
<svg xmlns="http://www.w3.org/2000/svg" xmlns:lc="http://www.librecad.org" xmlns:xlink="http://www.w3.org/1999/xlink" width="544.75762114mm" height="473.11368477mm" viewBox="0 0 544.75762114 473.11368477">
    <g lc:layername="0" lc:is_locked="false" lc:is_construction="false" fill="none" stroke="black" stroke-width="1"/>
    <g lc:layername="Body_Slices" lc:is_locked="false" lc:is_construction="false" fill="none" stroke="black" stroke-width="1">
        <g lc:blockname="MYLAYER">
            <g lc:layername="0" lc:is_locked="false" lc:is_construction="false" fill="none" stroke="black" stroke-width="1"/>
            <g lc:layername="Body_Slices" lc:is_locked="false" lc:is_construction="false" fill="none" stroke="black" stroke-width="1">
                <path d="M190.50462294,313.41593126 L225.50462294,374.03770952 L227.8861928,372.66270952 L232.99356578,381.50893902 A11,11 0 0,1 233.88388324,383.47418174 L225.61439519,397.79735519 A11,11 0 0,1 223.46728634,398.00893902 L213.25254038,398.00893902 L213.25254038,395.25893902 L143.25254038,395.25893902 L143.25254038,398.00893902 L133.03779442,398.00893902 A11,11 0 0,1 123.51151497,381.50893902 L128.61888796,372.66270952 L131.00045782,374.03770952 L166.00045782,313.41593126 L163.61888796,312.04093126 L168.72626094,303.19470176 A11,11 0 0,1 187.77881982,303.19470176 L192.8861928,312.04093126 L190.50462294,313.41593126 Z "/>
                <path d="M174.25254038,305.62290499 L128.37754038,385.08073579 L132.37754038,392.00893902 L224.12754038,392.00893902 L228.12754038,385.08073579 L182.25254038,305.62290499 L174.25254038,305.62290499 Z "/>
                <path d="M267.37881057,403.06593002 L259.32881057,417.00893902 L97.17627019,417.00893902 L89.12627019,403.06593002 L170.20254038,262.63771076 L186.30254038,262.63771076 L267.37881057,403.06593002 Z "/>
                <circle cx="256.62562193" cy="390.56445573" r="1.85"/>
                <path d="M152.36055771,305.54093126 L149.97898785,304.16593126 L114.97898785,364.78770952 L117.36055771,366.16270952 L102.72690528,391.50893902 A13,13 0 0,0 113.98523553,411.00893902 L143.25254038,411.00893902 L143.25254038,413.75893902 L213.25254038,413.75893902 L213.25254038,411.00893902 L242.51984522,411.00893902 A13,13 0 0,0 243.6510922,410.9596255 L246.94079972,412.85893902 L249.01175756,409.27193481 A13,13 0 0,0 255.51984187,397.99960213 L257.59079972,394.41259792 L254.3010922,392.5132844 A13,13 0 0,0 253.77817547,391.50893902 L239.14452305,366.16270952 L241.52609291,364.78770952 L206.52609291,304.16593126 L204.14452305,305.54093126 L189.51087063,280.19470176 A13,13 0 0,0 166.99421013,280.19470176 L152.36055771,305.54093126 Z "/>
                <circle cx="164.75254038" cy="278.20098244" r="1.85"/>
                <circle cx="113.37945883" cy="413.94714163" r="1.85"/>
                <circle cx="191.75254038" cy="278.20098244" r="1.85"/>
                <circle cx="243.12562193" cy="413.94714163" r="1.85"/>
                <circle cx="99.87945883" cy="390.56445573" r="1.85"/>
            </g>
        </g>
        <g lc:blockname="MYLAYER005">
            <g lc:layername="0" lc:is_locked="false" lc:is_construction="false" fill="none" stroke="black" stroke-width="1"/>
            <g lc:layername="Body_Slices" lc:is_locked="false" lc:is_construction="false" fill="none" stroke="black" stroke-width="1">
                <path d="M633.88389132,243.69470176 L625.83389132,257.63771076 L463.68135095,257.63771076 L455.63135095,243.69470176 L536.70762114,103.2664825 L552.80762114,103.2664825 L633.88389132,243.69470176 Z "/>
                <path d="M543.25762114,135.49251287 A1.5,1.5 0 0,0 546.25762114,135.49251287 L546.25762114,116.49251287 A1.5,1.5 0 0,0 543.25762114,116.49251287 L543.25762114,135.49251287 Z "/>
                <circle cx="466.38453959" cy="231.19322747" r="1.85"/>
                <path d="M579.75762114,254.38771076 L579.75762114,235.88771076 L509.75762114,235.88771076 L509.75762114,254.38771076 L579.75762114,254.38771076 Z "/>
                <circle cx="479.88453959" cy="254.57591337" r="1.85"/>
                <path d="M592.0097037,214.66648126 L608.03117367,205.41648126 L573.03117367,144.794703 L557.0097037,154.044703 L592.0097037,214.66648126 Z "/>
                <circle cx="531.25762114" cy="118.82975418" r="1.85"/>
                <path d="M481.4840686,205.41648126 L497.50553857,214.66648126 L532.50553857,154.044703 L516.4840686,144.794703 L481.4840686,205.41648126 Z "/>
                <circle cx="558.25762114" cy="118.82975418" r="1.85"/>
                <path d="M624.09588047,235.04136966 L601.57921997,222.04136966 L590.92921997,240.48771076 L613.44588047,253.48771076 L624.09588047,235.04136966 Z "/>
                <circle cx="623.13070268" cy="231.19322747" r="1.85"/>
                <path d="M540.75762114,146.25167673 L494.88262114,225.70950753 L498.88262114,232.63771076 L590.63262114,232.63771076 L594.63262114,225.70950753 L548.75762114,146.25167673 L540.75762114,146.25167673 Z "/>
                <circle cx="609.63070268" cy="254.57591337" r="1.85"/>
            </g>
        </g>
        <g lc:blockname="MYLAYER006">
            <g lc:layername="0" lc:is_locked="false" lc:is_construction="false" fill="none" stroke="black" stroke-width="1"/>
            <g lc:layername="Body_Slices" lc:is_locked="false" lc:is_construction="false" fill="none" stroke="black" stroke-width="1">
                <path d="M267.37881057,84.3234735 L259.32881057,98.2664825 L97.17627019,98.2664825 L89.12627019,84.3234735 L170.20254038,-56.10474575 L186.30254038,-56.10474575 L267.37881057,84.3234735 Z "/>
                <circle cx="99.87945883" cy="71.82199921" r="1.85"/>
                <path d="M176.75254038,-23.87871539 A1.5,1.5 0 0,0 179.75254038,-23.87871539 L179.75254038,-42.87871539 A1.5,1.5 0 0,0 176.75254038,-42.87871539 L176.75254038,-23.87871539 Z "/>
                <circle cx="113.37945883" cy="95.20468512" r="1.85"/>
                <path d="M174.25254038,-13.11955152 L128.37754038,66.33827927 L132.37754038,73.2664825 L224.12754038,73.2664825 L228.12754038,66.33827927 L182.25254038,-13.11955152 L174.25254038,-13.11955152 Z "/>
                <circle cx="164.75254038" cy="-40.54147407" r="1.85"/>
                <circle cx="256.62562193" cy="71.82199921" r="1.85"/>
                <circle cx="191.75254038" cy="-40.54147407" r="1.85"/>
                <circle cx="243.12562193" cy="95.20468512" r="1.85"/>
            </g>
        </g>
        <g lc:blockname="MYLAYER002">
            <g lc:layername="0" lc:is_locked="false" lc:is_construction="false" fill="none" stroke="black" stroke-width="1"/>
            <g lc:layername="Body_Slices" lc:is_locked="false" lc:is_construction="false" fill="none" stroke="black" stroke-width="1">
                <path d="M546.25762114,289.63771076 L553.50762114,289.63771076 L553.50762114,266.13771076 L548.75762114,266.13771076 L548.75762114,262.63771076 L552.80762114,262.63771076 L633.88389132,403.06593002 L625.83389132,417.00893902 L463.68135095,417.00893902 L455.63135095,403.06593002 L536.70762114,262.63771076 L540.75762114,262.63771076 L540.75762114,266.13771076 L536.00762114,266.13771076 L536.00762114,289.63771076 L543.25762114,289.63771076 L543.25762114,294.86374112 A1.5,1.5 0 0,0 546.25762114,294.86374112 L546.25762114,289.63771076 Z "/>
                <path d="M624.09588047,394.41259792 L601.57921997,381.41259792 L590.92921997,399.85893902 L613.44588047,412.85893902 L624.09588047,394.41259792 Z "/>
                <circle cx="609.63070268" cy="413.94714163" r="1.85"/>
                <circle cx="479.88453959" cy="413.94714163" r="1.85"/>
                <path d="M579.75762114,413.75893902 L579.75762114,395.25893902 L509.75762114,395.25893902 L509.75762114,413.75893902 L579.75762114,413.75893902 Z "/>
                <path d="M540.75762114,305.62290499 L494.88262114,385.08073579 L498.88262114,392.00893902 L590.63262114,392.00893902 L594.63262114,385.08073579 L548.75762114,305.62290499 L540.75762114,305.62290499 Z "/>
                <path d="M592.0097037,374.03770952 L608.03117367,364.78770952 L573.03117367,304.16593126 L557.0097037,313.41593126 L592.0097037,374.03770952 Z "/>
                <path d="M481.4840686,364.78770952 L497.50553857,374.03770952 L532.50553857,313.41593126 L516.4840686,304.16593126 L481.4840686,364.78770952 Z "/>
                <circle cx="623.13070268" cy="390.56445573" r="1.85"/>
                <circle cx="466.38453959" cy="390.56445573" r="1.85"/>
                <circle cx="531.25762114" cy="278.20098244" r="1.85"/>
                <circle cx="558.25762114" cy="278.20098244" r="1.85"/>
            </g>
        </g>
        <g lc:blockname="MYLAYER004">
            <g lc:layername="0" lc:is_locked="false" lc:is_construction="false" fill="none" stroke="black" stroke-width="1"/>
            <g lc:layername="Body_Slices" lc:is_locked="false" lc:is_construction="false" fill="none" stroke="black" stroke-width="1">
                <path d="M450.63135095,243.69470176 L442.58135095,257.63771076 L280.42881057,257.63771076 L272.37881057,243.69470176 L353.45508076,103.2664825 L369.55508076,103.2664825 L450.63135095,243.69470176 Z "/>
                <path d="M360.00508076,135.49251287 A1.5,1.5 0 0,0 363.00508076,135.49251287 L363.00508076,116.49251287 A1.5,1.5 0 0,0 360.00508076,116.49251287 L360.00508076,135.49251287 Z "/>
                <circle cx="283.13199921" cy="231.19322747" r="1.85"/>
                <path d="M396.50508076,254.38771076 L396.50508076,235.88771076 L326.50508076,235.88771076 L326.50508076,254.38771076 L396.50508076,254.38771076 Z "/>
                <circle cx="296.63199921" cy="254.57591337" r="1.85"/>
                <path d="M408.75716332,214.66648126 L424.77863329,205.41648126 L389.77863329,144.794703 L373.75716332,154.044703 L408.75716332,214.66648126 Z "/>
                <circle cx="348.00508076" cy="118.82975418" r="1.85"/>
                <path d="M298.23152822,205.41648126 L314.25299819,214.66648126 L349.25299819,154.044703 L333.23152822,144.794703 L298.23152822,205.41648126 Z "/>
                <circle cx="375.00508076" cy="118.82975418" r="1.85"/>
                <path d="M440.84334009,235.04136966 L418.3266796,222.04136966 L407.6766796,240.48771076 L430.19334009,253.48771076 L440.84334009,235.04136966 Z "/>
                <circle cx="439.87816231" cy="231.19322747" r="1.85"/>
                <path d="M357.50508076,146.25167673 L311.63008076,225.70950753 L315.63008076,232.63771076 L407.38008076,232.63771076 L411.38008076,225.70950753 L365.50508076,146.25167673 L357.50508076,146.25167673 Z "/>
                <circle cx="426.37816231" cy="254.57591337" r="1.85"/>
            </g>
        </g>
        <g lc:blockname="MYLAYER001">
            <g lc:layername="0" lc:is_locked="false" lc:is_construction="false" fill="none" stroke="black" stroke-width="1"/>
            <g lc:layername="Body_Slices" lc:is_locked="false" lc:is_construction="false" fill="none" stroke="black" stroke-width="1">
                <path d="M373.75716332,313.41593126 L408.75716332,374.03770952 L411.13873318,372.66270952 L416.24610616,381.50893902 A11,11 0 0,1 417.13642362,383.47418174 L408.86693557,397.79735519 A11,11 0 0,1 406.71982672,398.00893902 L396.50508076,398.00893902 L396.50508076,395.25893902 L326.50508076,395.25893902 L326.50508076,398.00893902 L316.29033479,398.00893902 A11,11 0 0,1 306.76405535,381.50893902 L311.87142833,372.66270952 L314.25299819,374.03770952 L349.25299819,313.41593126 L346.87142833,312.04093126 L351.97880132,303.19470176 A11,11 0 0,1 371.0313602,303.19470176 L376.13873318,312.04093126 L373.75716332,313.41593126 Z "/>
                <path d="M357.50508076,305.62290499 L311.63008076,385.08073579 L315.63008076,392.00893902 L407.38008076,392.00893902 L411.38008076,385.08073579 L365.50508076,305.62290499 L357.50508076,305.62290499 Z "/>
                <path d="M450.63135095,403.06593002 L442.58135095,417.00893902 L280.42881057,417.00893902 L272.37881057,403.06593002 L353.45508076,262.63771076 L369.55508076,262.63771076 L450.63135095,403.06593002 Z "/>
                <circle cx="439.87816231" cy="390.56445573" r="1.85"/>
                <path d="M335.61309809,305.54093126 L333.23152822,304.16593126 L298.23152822,364.78770952 L300.61309809,366.16270952 L285.97944566,391.50893902 A13,13 0 0,0 297.23777591,411.00893902 L326.50508076,411.00893902 L326.50508076,413.75893902 L396.50508076,413.75893902 L396.50508076,411.00893902 L425.7723856,411.00893902 A13,13 0 0,0 426.90363258,410.9596255 L430.19334009,412.85893902 L432.26429794,409.27193481 A13,13 0 0,0 438.77238225,397.99960213 L440.84334009,394.41259792 L437.55363258,392.5132844 A13,13 0 0,0 437.03071585,391.50893902 L422.39706343,366.16270952 L424.77863329,364.78770952 L389.77863329,304.16593126 L387.39706343,305.54093126 L372.76341101,280.19470176 A13,13 0 0,0 350.24675051,280.19470176 L335.61309809,305.54093126 Z "/>
                <circle cx="348.00508076" cy="278.20098244" r="1.85"/>
                <circle cx="296.63199921" cy="413.94714163" r="1.85"/>
                <circle cx="375.00508076" cy="278.20098244" r="1.85"/>
                <circle cx="426.37816231" cy="413.94714163" r="1.85"/>
                <circle cx="283.13199921" cy="390.56445573" r="1.85"/>
            </g>
        </g>
        <g lc:blockname="MYLAYER003">
            <g lc:layername="0" lc:is_locked="false" lc:is_construction="false" fill="none" stroke="black" stroke-width="1"/>
            <g lc:layername="Body_Slices" lc:is_locked="false" lc:is_construction="false" fill="none" stroke="black" stroke-width="1">
                <path d="M179.75254038,130.2664825 L187.00254038,130.2664825 L187.00254038,106.7664825 L182.25254038,106.7664825 L182.25254038,103.2664825 L186.30254038,103.2664825 L267.37881057,243.69470176 L259.32881057,257.63771076 L97.17627019,257.63771076 L89.12627019,243.69470176 L170.20254038,103.2664825 L174.25254038,103.2664825 L174.25254038,106.7664825 L169.50254038,106.7664825 L169.50254038,130.2664825 L176.75254038,130.2664825 L176.75254038,135.49251287 A1.5,1.5 0 0,0 179.75254038,135.49251287 L179.75254038,130.2664825 Z "/>
                <path d="M257.59079972,235.04136966 L235.07413922,222.04136966 L224.42413922,240.48771076 L246.94079972,253.48771076 L257.59079972,235.04136966 Z "/>
                <circle cx="243.12562193" cy="254.57591337" r="1.85"/>
                <circle cx="113.37945883" cy="254.57591337" r="1.85"/>
                <path d="M213.25254038,254.38771076 L213.25254038,235.88771076 L143.25254038,235.88771076 L143.25254038,254.38771076 L213.25254038,254.38771076 Z "/>
                <path d="M174.25254038,146.25167673 L128.37754038,225.70950753 L132.37754038,232.63771076 L224.12754038,232.63771076 L228.12754038,225.70950753 L182.25254038,146.25167673 L174.25254038,146.25167673 Z "/>
                <path d="M225.50462294,214.66648126 L241.52609291,205.41648126 L206.52609291,144.794703 L190.50462294,154.044703 L225.50462294,214.66648126 Z "/>
                <path d="M114.97898785,205.41648126 L131.00045782,214.66648126 L166.00045782,154.044703 L149.97898785,144.794703 L114.97898785,205.41648126 Z "/>
                <circle cx="256.62562193" cy="231.19322747" r="1.85"/>
                <circle cx="99.87945883" cy="231.19322747" r="1.85"/>
                <circle cx="164.75254038" cy="118.82975418" r="1.85"/>
                <circle cx="191.75254038" cy="118.82975418" r="1.85"/>
            </g>
        </g>
        <g lc:blockname="MYLAYER007">
            <g lc:layername="0" lc:is_locked="false" lc:is_construction="false" fill="none" stroke="black" stroke-width="1"/>
            <g lc:layername="Body_Slices" lc:is_locked="false" lc:is_construction="false" fill="none" stroke="black" stroke-width="1">
                <path d="M450.63135095,84.3234735 L442.58135095,98.2664825 L280.42881057,98.2664825 L272.37881057,84.3234735 L353.45508076,-56.10474575 L369.55508076,-56.10474575 L450.63135095,84.3234735 Z "/>
                <circle cx="439.87816231" cy="71.82199921" r="1.85"/>
                <circle cx="426.37816231" cy="95.20468512" r="1.85"/>
                <circle cx="348.00508076" cy="-40.54147407" r="1.85"/>
                <circle cx="296.63199921" cy="95.20468512" r="1.85"/>
                <circle cx="375.00508076" cy="-40.54147407" r="1.85"/>
                <path d="M295.5057251,91.2664825 A11,11 0 0,1 285.97944566,74.7664825 L351.97880132,-39.54775475 A11,11 0 0,1 371.0313602,-39.54775475 L437.03071585,74.7664825 A11,11 0 0,1 427.50443641,91.2664825 L295.5057251,91.2664825 Z "/>
                <circle cx="283.13199921" cy="71.82199921" r="1.85"/>
                <path d="M406.71982672,80.2664825 L316.29033479,80.2664825 A12,12 0 0,1 305.89802995,62.2664825 L351.11277591,-16.04775475 A12,12 0 0,1 371.8973856,-16.04775475 L417.11213156,62.2664825 A12,12 0 0,1 406.71982672,80.2664825 Z "/>
                <path d="M357.50508076,-13.11955152 L311.63008076,66.33827927 L315.63008076,73.2664825 L407.38008076,73.2664825 L411.38008076,66.33827927 L365.50508076,-13.11955152 L357.50508076,-13.11955152 Z "/>
            </g>
        </g>
    </g>
</svg>
